<?xml version="1.0" encoding="utf-8"?>
<!-- Generator: Adobe Illustrator 24.0.0, SVG Export Plug-In . SVG Version: 6.00 Build 0)  -->
<svg version="1.1" id="Layer_1" xmlns="http://www.w3.org/2000/svg" xmlns:xlink="http://www.w3.org/1999/xlink" x="0px" y="0px"
	 viewBox="0 0 200 200" style="enable-background:new 0 0 200 200;" xml:space="preserve">
<style type="text/css">
	.st0{fill:#F2F1E8;}
	.st1{fill:#A8A9A2;}
	.st2{fill:#32302D;}
	.st3{clip-path:url(#SVGID_2_);fill:#32302D;}
	.st4{fill:#161514;}
	.st5{fill:#232220;}
	.st6{fill:#884637;}
	.st7{fill:#FBBB8C;}
	.st8{fill:#FFE8D6;}
	.st9{fill:#8E6F5E;}
	.st10{fill:#7A5B4C;}
	.st11{fill:#5E3F33;}
	.st12{fill:#A88E7D;}
	.st13{fill:#F9DBB2;}
	.st14{fill:#E09E48;}
	.st15{fill:#9B5E1B;}
	.st16{fill:#C18033;}
	.st17{clip-path:url(#SVGID_4_);fill:#FEC368;}
	.st18{clip-path:url(#SVGID_4_);fill:#DD8340;}
	.st19{clip-path:url(#SVGID_4_);fill:#161514;}
	.st20{clip-path:url(#SVGID_4_);fill:#FFE8D6;}
	.st21{fill:#FFFFFF;}
	.st22{fill:#D6854D;}
	.st23{fill:#B46133;}
	.st24{fill:#EC9B5E;}
	.st25{fill:#88524C;}
	.st26{clip-path:url(#SVGID_6_);fill:#B46133;}
	.st27{fill:#EACAB5;}
	.st28{fill:#D3AF9B;}
	.st29{fill:#4D4C48;}
	.st30{fill:#D2D2CA;}
	.st31{fill:#514142;}
	.st32{fill:#C6604D;}
	.st33{fill:#2C1C0F;}
	.st34{fill:#5F4C4E;}
	.st35{fill:none;stroke:#2C1C0F;stroke-width:5.9134;stroke-linecap:round;stroke-linejoin:round;stroke-miterlimit:10;}
	.st36{fill:#BCBEC0;}
	.st37{fill:#636466;}
	.st38{fill:#D1D3D4;}
	.st39{fill:#EBEBEC;}
	.st40{fill:#A7A9AC;}
	.st41{fill:#AAAAAA;}
	.st42{opacity:0.8;fill:#2C1C0F;}
	.st43{fill:#FAF3EB;}
	.st44{fill:none;stroke:#282F39;stroke-width:4.7595;stroke-linecap:round;stroke-linejoin:round;stroke-miterlimit:10;}
	.st45{fill:#DD786B;}
	.st46{fill:#83562D;}
	.st47{fill:#B37E4A;}
	.st48{fill:#3A2B20;}
	.st49{fill:#30231B;}
	.st50{fill:#634C3B;}
	.st51{fill:#CB915A;}
	.st52{fill:#544032;}
	.st53{fill:#2D2119;}
	.st54{fill:#231A14;}
	.st55{fill:#33322F;}
	.st56{fill:#777673;}
	.st57{fill:#353432;}
	.st58{fill:#E7E6DE;}
	.st59{fill:#F3757A;}
	.st60{fill:#BF4750;}
	.st61{fill:#D6565F;}
	.st62{fill:#FFAEB4;}
	.st63{fill:#E58893;}
	.st64{fill:#A3313A;}
	.st65{fill:#F2F1E7;}
	.st66{fill:#F9B7B2;}
	.st67{fill:#E59291;}
	.st68{fill:#CC7171;}
	.st69{clip-path:url(#SVGID_8_);fill:#383734;}
	.st70{fill:#FCBC7E;}
	.st71{fill:#B74E2E;}
	.st72{fill:#A53F28;}
	.st73{clip-path:url(#SVGID_10_);fill:#E58341;}
	.st74{clip-path:url(#SVGID_10_);}
	.st75{fill:#CC652B;}
	.st76{fill:#EAA465;}
	.st77{fill:#4B2D23;}
	.st78{fill:#3A211B;}
	.st79{fill:#D68847;}
	.st80{fill:#E58341;}
	.st81{fill:#AF5223;}
	.st82{fill:#E2705C;}
	.st83{fill:#F8F8F8;}
	.st84{fill:#FFBE51;}
	.st85{fill:#4A1F09;}
	.st86{fill:#DFDCDA;}
	.st87{fill:#623420;}
	.st88{fill:#AB8458;}
	.st89{fill:#E1965F;}
	.st90{fill:#CD8554;}
	.st91{fill:#957350;}
	.st92{fill:#A8A6A2;}
	.st93{fill:#E9E9E7;}
	.st94{fill:#636260;}
	.st95{fill:#BCBBB8;}
	.st96{fill:#1C1B1A;}
	.st97{fill:#32302E;}
	.st98{fill:#D2D2CC;}
	.st99{fill:#A19E9C;}
	.st100{fill:#5A5452;}
	.st101{fill:#8A8786;}
</style>
<g>
	<path class="st31" d="M66.5,39.1c0,0-18.9-17.8-37.9,2.8l3.3,1.2c0,0-6.1,6.6-5.6,13.8l2.3-2.1c0,0-0.5,14.4,13.6,24.1l28.2-33.9
		C70.4,45.1,71.4,42.6,66.5,39.1z"/>
	<path class="st31" d="M133.5,39.1c0,0,18.9-17.8,37.9,2.8l-3.3,1.2c0,0,6.1,6.6,5.6,13.8l-2.3-2.1c0,0,0.5,14.4-13.6,24.1
		l-28.2-33.9C129.6,45.1,128.6,42.6,133.5,39.1z"/>
	<path class="st31" d="M43.2,75.2c0,0-9,12.4-8.5,28l7-2.3c0,0-1.7,14.1,1.5,20.4l4.1-3.1c0,0,5.4,17.2,18.7,25.5
		c13.2,8.3,28.4,15.6,28.4,15.6v-12.8L43.2,75.2z"/>
	<path class="st31" d="M158.1,75.2c0,0,9,12.4,8.5,28l-7-2.3c0,0,1.7,14.1-1.5,20.4l-4.1-3.1c0,0-5.4,17.2-18.7,25.5
		c-13.2,8.3-28.4,15.6-28.4,15.6v-12.8L158.1,75.2z"/>
	<g>
		<g>
			<path class="st31" d="M66.5,39.1c8.7,8.7,4.2,18.2-4.5,26.9c-8.7,8.7-18.2,13.1-26.9,4.5c-8.7-8.7-8.7-22.7,0-31.4
				C43.7,30.5,57.8,30.5,66.5,39.1z"/>
			<path class="st32" d="M62.8,50.5c7,7,5.3,12.8,0.7,17.5c-4.6,4.6-10.4,6.3-17.5-0.7c-7-7-9-16.5-4.3-21.1
				C46.3,41.5,55.8,43.5,62.8,50.5z"/>
		</g>
		<g>
			<path class="st31" d="M134,39.1c-8.7,8.7-4.2,18.2,4.5,26.9c8.7,8.7,18.2,13.1,26.9,4.5c8.7-8.7,8.7-22.7,0-31.4
				C156.7,30.5,142.7,30.5,134,39.1z"/>
			<path class="st32" d="M138.7,49.1c-6.6,6.6-4.8,12.3-0.2,17c4.6,4.6,10.3,6.4,17-0.2c6.6-6.6,8.3-15.8,3.7-20.4
				C154.5,40.8,145.4,42.4,138.7,49.1z"/>
		</g>
	</g>
	
		<ellipse transform="matrix(1.114795e-02 -0.9999 0.9999 1.114795e-02 7.5606 190.6184)" class="st31" cx="100.2" cy="91.5" rx="59.3" ry="59.3"/>
	<g>
		<path class="st33" d="M109.1,114c4.6-7.2,0.6-13.1-8.8-13.1S87,106.8,91.8,114S104.5,121.2,109.1,114z"/>
	</g>
	<g>
		<path class="st33" d="M70.4,89.8c0,2.5-2,4.5-4.5,4.5c-2.5,0-4.5-2-4.5-4.5c0-2.5,2-4.5,4.5-4.5C68.4,85.4,70.4,87.4,70.4,89.8z"
			/>
		<path class="st33" d="M138.2,89.8c0,2.5-2,4.5-4.5,4.5c-2.5,0-4.5-2-4.5-4.5c0-2.5,2-4.5,4.5-4.5
			C136.3,85.4,138.2,87.4,138.2,89.8z"/>
	</g>
	<g>
		<path class="st34" d="M69.3,100.9c0,0-7.9,17.9-3.4,29.9l2.1-3.7c0,0,3.3,13.8,11.7,23.6c8.3,9.7,20.4,17.2,20.4,17.2v-67.1H69.3z
			"/>
		<path class="st34" d="M130.5,100.9c0,0,7.9,17.9,3.4,29.9l-2.1-3.7c0,0-3.3,13.8-11.7,23.6c-8.3,9.7-20.4,17.2-20.4,17.2v-67.1
			H130.5z"/>
	</g>
	<path class="st34" d="M132.8,113c0-20.3-14.6-41.5-32.6-41.5S67.7,92.7,67.7,113c0,1.8,0,8.2,0,9.7c0,16.1,14.6,32.9,32.6,32.9
		s32.6-16.8,32.6-32.9C132.8,121.2,132.8,114.8,132.8,113z"/>
	<g>
		<g>
			<path class="st35" d="M100,121.4c0,0,3.1,12.8-11.6,11.6"/>
			<path class="st35" d="M100.5,121.4c0,0-3.1,12.8,11.6,11.6"/>
		</g>
		<g>
			<path class="st33" d="M109.1,116.3c4.6-7.2,0.6-13.1-8.8-13.1s-13.3,5.9-8.4,13.1C96.7,123.5,104.5,123.5,109.1,116.3z"/>
		</g>
	</g>
	<path class="st31" d="M48.4,42.8c0,0-3.8,2.2,0,8.1l-7.5-7.2"/>
</g>
</svg>
