<?xml version="1.0" encoding="utf-8"?>
<!-- Generator: Adobe Illustrator 24.0.0, SVG Export Plug-In . SVG Version: 6.00 Build 0)  -->
<svg version="1.1" id="Layer_1" xmlns="http://www.w3.org/2000/svg" xmlns:xlink="http://www.w3.org/1999/xlink" x="0px" y="0px"
	 viewBox="0 0 200 200" style="enable-background:new 0 0 200 200;" xml:space="preserve">
<style type="text/css">
	.st0{fill:#F2F1E8;}
	.st1{fill:#A8A9A2;}
	.st2{fill:#32302D;}
	.st3{clip-path:url(#SVGID_2_);fill:#32302D;}
	.st4{fill:#161514;}
	.st5{fill:#232220;}
	.st6{fill:#884637;}
	.st7{fill:#FBBB8C;}
	.st8{fill:#FFE8D6;}
	.st9{fill:#8E6F5E;}
	.st10{fill:#7A5B4C;}
	.st11{fill:#5E3F33;}
	.st12{fill:#A88E7D;}
	.st13{fill:#F9DBB2;}
	.st14{fill:#E09E48;}
	.st15{fill:#9B5E1B;}
	.st16{fill:#C18033;}
	.st17{clip-path:url(#SVGID_4_);fill:#FEC368;}
	.st18{clip-path:url(#SVGID_4_);fill:#DD8340;}
	.st19{clip-path:url(#SVGID_4_);fill:#161514;}
	.st20{clip-path:url(#SVGID_4_);fill:#FFE8D6;}
	.st21{fill:#FFFFFF;}
	.st22{fill:#D6854D;}
	.st23{fill:#B46133;}
	.st24{fill:#EC9B5E;}
	.st25{fill:#88524C;}
	.st26{clip-path:url(#SVGID_6_);fill:#B46133;}
	.st27{fill:#EACAB5;}
	.st28{fill:#D3AF9B;}
	.st29{fill:#4D4C48;}
	.st30{fill:#D2D2CA;}
	.st31{fill:#514142;}
	.st32{fill:#C6604D;}
	.st33{fill:#2C1C0F;}
	.st34{fill:#5F4C4E;}
	.st35{fill:none;stroke:#2C1C0F;stroke-width:5.9134;stroke-linecap:round;stroke-linejoin:round;stroke-miterlimit:10;}
	.st36{fill:#BCBEC0;}
	.st37{fill:#636466;}
	.st38{fill:#D1D3D4;}
	.st39{fill:#EBEBEC;}
	.st40{fill:#A7A9AC;}
	.st41{fill:#AAAAAA;}
	.st42{opacity:0.8;fill:#2C1C0F;}
	.st43{fill:#FAF3EB;}
	.st44{fill:none;stroke:#282F39;stroke-width:4.7595;stroke-linecap:round;stroke-linejoin:round;stroke-miterlimit:10;}
	.st45{fill:#DD786B;}
	.st46{fill:#83562D;}
	.st47{fill:#B37E4A;}
	.st48{fill:#3A2B20;}
	.st49{fill:#30231B;}
	.st50{fill:#634C3B;}
	.st51{fill:#CB915A;}
	.st52{fill:#544032;}
	.st53{fill:#2D2119;}
	.st54{fill:#231A14;}
	.st55{fill:#33322F;}
	.st56{fill:#777673;}
	.st57{fill:#353432;}
	.st58{fill:#E7E6DE;}
	.st59{fill:#F3757A;}
	.st60{fill:#BF4750;}
	.st61{fill:#D6565F;}
	.st62{fill:#FFAEB4;}
	.st63{fill:#E58893;}
	.st64{fill:#A3313A;}
	.st65{fill:#F2F1E7;}
	.st66{fill:#F9B7B2;}
	.st67{fill:#E59291;}
	.st68{fill:#CC7171;}
	.st69{clip-path:url(#SVGID_8_);fill:#383734;}
	.st70{fill:#FCBC7E;}
	.st71{fill:#B74E2E;}
	.st72{fill:#A53F28;}
	.st73{clip-path:url(#SVGID_10_);fill:#E58341;}
	.st74{clip-path:url(#SVGID_10_);}
	.st75{fill:#CC652B;}
	.st76{fill:#EAA465;}
	.st77{fill:#4B2D23;}
	.st78{fill:#3A211B;}
	.st79{fill:#D68847;}
	.st80{fill:#E58341;}
	.st81{fill:#AF5223;}
	.st82{fill:#E2705C;}
	.st83{fill:#F8F8F8;}
	.st84{fill:#FFBE51;}
	.st85{fill:#4A1F09;}
	.st86{fill:#DFDCDA;}
	.st87{fill:#623420;}
	.st88{fill:#AB8458;}
	.st89{fill:#E1965F;}
	.st90{fill:#CD8554;}
	.st91{fill:#957350;}
	.st92{fill:#A8A6A2;}
	.st93{fill:#E9E9E7;}
	.st94{fill:#636260;}
	.st95{fill:#BCBBB8;}
	.st96{fill:#1C1B1A;}
	.st97{fill:#32302E;}
	.st98{fill:#D2D2CC;}
	.st99{fill:#A19E9C;}
	.st100{fill:#5A5452;}
	.st101{fill:#8A8786;}
</style>
<g>
	<path class="st48" d="M166.8,105.9c-0.5-4.3-4.1-8-8.4-8.6c2.5-2,3.1-5.7,1.9-8.6c-1.2-2.9-3.8-5.1-6.8-6.2c3.3-2,5.2-6.1,4.5-9.9
		c-0.6-3.8-3.7-7.1-7.4-7.9c2.6-2.8,3.2-7.3,1.4-10.7c-1.8-3.4-5.8-5.5-9.6-5c2.2-3.1-0.1-7.9-3.7-9.1c-3.6-1.2-7.6,0.3-10.6,2.6
		c1.5-3.3-0.7-7.4-4.1-8.7c-3.3-1.3-7.3-0.3-10.2,1.8c0.9-3.2-0.7-7-3.7-8.5c-6-3.1-8.6,1.8-10.2,6.8c-1.6-5-4.2-9.9-10.2-6.8
		c-3,1.5-4.6,5.3-3.7,8.5c-2.9-2.1-6.8-3.1-10.2-1.8c-3.3,1.3-5.6,5.5-4.1,8.7c-3-2.4-7-3.9-10.6-2.6c-3.6,1.2-5.9,6-3.7,9.1
		c-3.8-0.5-7.8,1.6-9.6,5c-1.8,3.4-1.2,7.9,1.4,10.7c-3.7,0.8-6.8,4.1-7.4,7.9c-0.6,3.8,1.3,7.9,4.5,9.9c-2.9,1.2-5.6,3.3-6.8,6.2
		c-1.2,2.9-0.5,6.7,1.9,8.6c-4.3,0.6-7.9,4.3-8.4,8.6c-0.5,4.3,2.1,8.7,6.1,10.3c-2.3,1.6-2.5,5.2-1,7.6c1.5,2.4,4.2,3.8,6.8,4.7
		c-1.4,1.6-0.9,4.3,0.5,5.9c1.4,1.6,3.5,2.5,5.5,3.3c-1.6,1.9-0.5,5.1,1.7,6.4c2.2,1.2,4.9,0.9,7.2,0c5.2-2.1,8.9-7,11-12.3
		s3-10.9,4.2-16.4c2.9-12.9,8.4-25.6,18-34.7c2.3-2.2,4.9-4.2,6.7-6.8c1.8,2.6,4.4,4.6,6.7,6.8c9.6,9.1,15,21.8,18,34.7
		c1.3,5.5,2.1,11.2,4.2,16.4c2.1,5.2,5.8,10.1,11,12.3c2.3,0.9,5.1,1.3,7.2,0s3.3-4.4,1.7-6.4c2-0.8,4.1-1.6,5.5-3.3
		c1.4-1.6,1.9-4.3,0.5-5.9c2.7-0.9,5.3-2.3,6.8-4.7c1.5-2.4,1.3-6-1-7.6C164.7,114.7,167.3,110.2,166.8,105.9z"/>
	<path class="st49" d="M152.2,109c0.5-3.3-1.6-6.9-4.9-7.8c3.1-0.1,5.1-4,4-7c-1.1-2.9-4.4-4.6-7.5-4.8c2-2.4,1.6-6.1-0.2-8.5
		c-1.8-2.5-4.8-3.9-7.7-4.6c3.8-2.4,5.2-8,3-11.9c-0.5-0.9-1.4-1.9-2.5-1.7c2.2-1.7,2.7-5,1.5-7.5c-1.2-2.5-3.8-4.1-6.5-4.7
		c-2.7-0.5-5.5,0-8.1,1c0.4-2-1.7-3.7-3.7-3.8c-2-0.1-3.8,1-5.6,2c0.9-1.7,0.6-3.9-0.5-5.5c-1.1-1.6-2.9-2.6-4.8-3
		c-4.6-0.8-7,1.4-8.3,4.7c-1.3-3.3-3.7-5.6-8.3-4.7c-1.9,0.3-3.7,1.4-4.8,3c-1.1,1.6-1.4,3.8-0.5,5.5c-1.7-1-3.6-2.1-5.6-2
		c-2,0.1-4,1.8-3.7,3.8c-2.6-1-5.4-1.5-8.1-1c-2.7,0.5-5.3,2.2-6.5,4.7c-1.2,2.5-0.7,5.8,1.5,7.5c-1.1-0.1-2,0.8-2.5,1.7
		c-2.2,4-0.8,9.5,3,11.9c-3,0.7-5.9,2.1-7.7,4.6c-1.8,2.5-2.1,6.2-0.2,8.5c-3.1,0.2-6.4,1.9-7.5,4.8c-1.1,2.9,0.9,6.9,4,7
		c-3.2,0.8-5.3,4.5-4.9,7.8c0.5,3.3,3.1,6.1,6.3,7.2c-3.1,1.8-4.7,5.8-3.9,9.4c0.8,3.5,3.9,6.4,7.4,7.1c3.5,0.8,7.4-0.5,10-3
		c2.2-2.1,3.4-4.9,4.5-7.7c2.8-7.8,3.9-16,6-24c2.1-8,5.3-16,11.3-21.7c2.4-2.3,5.3-4.1,7.4-6.7c1.1-1.4,2-3,2.6-4.7
		c0.6,1.7,1.5,3.3,2.6,4.7c2.1,2.6,4.9,4.4,7.4,6.7c6,5.6,9.2,13.7,11.3,21.7c2.1,8,3.2,16.3,6,24c1,2.8,2.3,5.6,4.5,7.7
		c2.6,2.5,6.4,3.7,10,3c3.5-0.8,6.6-3.6,7.4-7.1c0.8-3.5-0.8-7.5-3.9-9.4C149.1,115.1,151.7,112.3,152.2,109z"/>
	<path class="st50" d="M147.1,134c-0.5-10-3.9-19.7-7.8-28.9c-3.7-8.7-7.9-17.3-14.2-24.4c-3.8-4.3-8.4-8-13.6-10.4
		c-7.3-3.4-14.3-3.4-21.7,0c-5.2,2.4-9.8,6.1-13.6,10.4c-6.3,7.1-10.5,15.7-14.2,24.4c-3.9,9.2-7.4,18.9-7.8,28.9
		c-0.2,4.9,0.3,10.1,2.8,14.3c2.7,4.7,7.5,7.9,12.7,9.6c5.2,1.7,10.7,1.9,16.1,1.6c5.1-0.2,10.7-1.1,14.9-3.8
		c4.3,2.6,9.8,3.5,14.9,3.8c5.4,0.3,10.9,0,16.1-1.6c5.2-1.7,10-4.9,12.7-9.6C146.8,144,147.4,138.9,147.1,134z"/>
	<path class="st48" d="M71,139.9c-3.1,3.3-5.2,7.5-6.1,12.6c-0.2,1.5-0.3,3,0,4.5c0.6,2.8,2.7,4.9,4.8,6.8
		c12.7,11.5,33.3,11.8,49.2,7.8c5.2-1.3,10.6-3.4,13.9-7.7c4.3-5.4,4.2-13.6,0.8-19.6c-3.4-6-9.6-10.2-16.2-12.3
		C103.5,127.6,81.7,128.4,71,139.9z"/>
	<path class="st51" d="M160.8,54.3c-2.2,4.5-4.9,9.4-9.7,10.8c-3.9,1.2-8.2-0.5-11.6-2.7c-7.4-4.8-14.7-11-24.3-9.3
		c-5.4,1-11.2,4.7-13.7,9.8c-2.5-5.1-8.3-8.8-13.7-9.8c-9.6-1.7-16.9,4.5-24.3,9.3c-3.4,2.2-7.7,3.9-11.6,2.7
		c-4.8-1.4-7.5-6.3-9.7-10.8c-3.3,6.7-2,15.2,2.7,20.9c4.7,5.7,12.6,8.6,20,7.5c3.5-0.5,6.8-1.8,10.3-2.1c3.5-0.3,7,0.5,10.5,0.6
		c6.2,0.2,13.1-2.4,15.9-7.7c2.8,5.3,9.7,7.9,15.9,7.7c3.5-0.1,7-0.9,10.5-0.6c3.5,0.3,6.8,1.6,10.3,2.1c7.4,1.1,15.3-1.7,20-7.5
		C162.9,69.5,164.1,61,160.8,54.3z"/>
	<path class="st52" d="M80,98.4c-1.6,0.7-3.1,1.5-4.5,2.5c-6.4,4.6-6.7,12.8,0.5,16.8c3.6,1.9,7.8,2.3,11.9,2.6
		c10,0.8,20.1,1.4,30-0.1c4.7-0.7,9.8-2.2,12.6-6.1c3.2-4.6,1.5-11.8-3.4-14.5c-2.3-1.3-5.1-1.6-7.8-1.8c-10.6-1.1-21-2.8-31.7-1.3
		C85,96.7,82.4,97.4,80,98.4z"/>
	<path d="M88,106c-1.1-2.2-4.1-3.4-6.4-1c-1.9,1.9-1.2,5.8,1.3,6.8c1.5,0.6,3.3,0.1,4.4-1C88.7,109.3,88.7,107.5,88,106z"/>
	<path d="M122.9,106c-1.1-2.2-4.1-3.4-6.4-1c-1.9,1.9-1.2,5.8,1.3,6.8c1.5,0.6,3.3,0.1,4.4-1C123.6,109.3,123.6,107.5,122.9,106z"/>
	<g>
		<path class="st53" d="M86.9,139.9c-1.6-0.6-3.4-0.5-5,0.5c-3.6,2.2-6.6,5.9-7.5,10c-1.1,4.9,1.2,10.7,5.9,12.5
			c1.5,0.6,3.2,0.7,4.8,0.4C80.9,156.1,81.8,146.5,86.9,139.9z"/>
		<path class="st54" d="M92.6,157.6c0.8-1.7,1.1-3.5,1.2-5.3c0.1-2.9-0.5-6-2.1-8.4c-1.1-1.7-2.9-3.2-4.8-3.9
			c-5.1,6.6-6,16.1-1.9,23.4C88.3,162.8,91.2,160.6,92.6,157.6z"/>
	</g>
	<g>
		<path class="st53" d="M116.7,139.9c1.6-0.6,3.4-0.5,5,0.5c3.6,2.2,6.6,5.9,7.5,10c1.1,4.9-1.2,10.7-5.9,12.5
			c-1.5,0.6-3.2,0.7-4.8,0.4C122.7,156.1,121.8,146.5,116.7,139.9z"/>
		<path class="st54" d="M111,157.6c-0.8-1.7-1.1-3.5-1.2-5.3c-0.1-2.9,0.5-6,2.1-8.4c1.1-1.7,2.9-3.2,4.8-3.9
			c5.1,6.6,6,16.1,1.9,23.4C115.4,162.8,112.4,160.6,111,157.6z"/>
	</g>
	<path class="st54" d="M103.5,168.3c2.1-0.6,3.8-1.9,4.5-4.1c0.2-0.7,0.2-1.4-0.1-2c-0.3-0.6-0.9-1.1-1.6-1.1
		c-1.1,0-1.8,1.2-2.4,2.1c-1.2,1.6-3.5,2.4-5.4,1.9c-1.9-0.5-2.7-3.6-4.4-3.7c-0.6,0-1.1,0.4-1.3,0.9c-0.2,0.5-0.2,1.1,0,1.6
		c0.5,2.2,2.6,3.8,4.9,4.4C99.4,168.9,101.6,168.9,103.5,168.3z"/>
</g>
</svg>
