<svg id="Capa_1" data-name="Capa 1" xmlns="http://www.w3.org/2000/svg" viewBox="0 0 1803.12 1498.08"><defs><style>.cls-1{fill:#473b4c;}.cls-2{fill:#de9b4a;}.cls-3{fill:#271f29;}.cls-4{fill:#f2927f;}</style></defs><title>Cat2</title><path class="cls-1" d="M2034.64,1305.62a1955.12,1955.12,0,0,0-220.05-56.08l-.51-.09q-2.77-49.18-7.61-98.18,48.42-1.86,96.89-.66,63.3,1.58,126.31,8.48c8.52.93,8.46-12.43,0-13.35a1519.61,1519.61,0,0,0-224.53-7.76c-7.45-73-17.82-145.64-29.76-218-35.85-217.41-72.51-422.93-131.93-635.52-3.77-13.48-8.11-27.84-19-36.66-23.11-18.79-57.26-1.1-80,18.1a619.32,619.32,0,0,0-168.23,226.2c-68-42.55-169.06-54.48-259.77-53.27-90.72-1.21-191.76,10.72-259.78,53.27a619.23,619.23,0,0,0-168.24-226.2c-22.76-19.2-56.91-36.89-80-18.1-10.86,8.82-15.2,23.18-19,36.66C530,497,493.36,702.56,457.51,920c-11.87,72-22.2,144.33-29.65,216.93q-27.41-.32-54.8.35-63.8,1.53-127.29,8.49c-8.45.92-8.54,14.28,0,13.35a1515.72,1515.72,0,0,1,180.75-8.86q-5.26,53.93-8.19,108-27.61,6-55.07,12.76-61.78,15.27-122.46,34.58c-8.16,2.59-4.67,15.49,3.54,12.86q85.46-27.2,173.18-46.38c-4.18,66.63-19.68,291.65,10.1,311.63,352.38,236.5,1190.51,172,1377.65,0,27.77-25.52,12.4-268.89,9.55-320.6q47.63,9.36,94.76,21,61.31,15.16,121.51,34.33C2039.29,1321.1,2042.8,1308.22,2034.64,1305.62Z" transform="translate(-236.16 -239.78)"/><path class="cls-2" d="M887.25,743.73a183.77,183.77,0,0,0-45-8.8c-66.8-4.63-126.23,27.34-162.6,76C641.92,861.24,629,929.46,658.3,993.33c27.49,59.92,86.42,104,151.49,114.63,30.46,5,62.48,2.57,91.46-7.67,16-5.66,17.3-29.54,30.7-40.09,45.34-35.66,55.43-77.57,57.25-133.59C991.9,843.78,947.72,803.81,887.25,743.73Z" transform="translate(-236.16 -239.78)"/><path class="cls-2" d="M1506.25,743.73a184,184,0,0,0-45-8.8c-66.8-4.63-126.24,27.34-162.61,76-37.68,50.36-50.6,118.58-21.31,182.45,27.49,59.92,86.42,104,151.49,114.63,30.47,5,62.48,2.57,91.47-7.67,16-5.66,14-28.71,27.38-39.25,45.33-35.67,60.41-80.9,62.23-136.91C1612.55,841.29,1561.73,808,1506.25,743.73Z" transform="translate(-236.16 -239.78)"/><path class="cls-3" d="M766.68,821.38c24.68,4.75,42.57,30,40.82,56.09-1.23,18.46-10.67,35.74-23.64,48.94s-32.18,22.93-49.48,17.36c5.68,48.92,31.44,95.66,72,123.75,27.9,19.35,60.95,29.54,94.92,32.77A155.45,155.45,0,0,0,945.78,1076c45.33-35.67,64.86-94.13,66.68-150.14C1015.17,843,963.87,769,887.25,743.73q-8.47,1.56-16.82,3.92C828.81,759.43,791.76,786.28,766.68,821.38Z" transform="translate(-236.16 -239.78)"/><path class="cls-3" d="M1385.57,821.54c24.28,5.12,41.77,30.15,40,55.93-1.24,18.46-10.67,35.74-23.64,48.94-12.69,12.9-31.5,22.59-48.57,17.64,5.74,48.81,31.48,95.44,71.91,123.47,27.91,19.35,61,29.54,94.93,32.77a155.58,155.58,0,0,0,44.53-24.27c45.33-35.67,64.86-94.13,66.68-150.14,2.7-82.84-48.59-156.84-125.21-182.15q-8.49,1.56-16.82,3.92C1447.75,759.45,1410.64,786.36,1385.57,821.54Z" transform="translate(-236.16 -239.78)"/><path class="cls-4" d="M734.18,592c16.46-19.45,30.15-40.13,35.76-60.46,7.47-27-91.11-168.46-120.42-195.39-20.59-18.91-26.59-16.88-36.47,8-8.3,20.89-79.64,320.52-57.83,390.32,18.89-1.83,100-65,118.44-81.91S715,614.71,734.18,592Z" transform="translate(-236.16 -239.78)"/><path class="cls-4" d="M1497.29,592c19.19,22.68,42.16,43.7,60.52,60.54s99.55,80.08,118.44,81.91c21.81-69.8-49.53-369.43-57.83-390.32-9.87-24.86-15.89-26.89-36.47-8-29.31,26.93-127.89,168.35-120.42,195.39C1467.14,551.9,1480.83,572.58,1497.29,592Z" transform="translate(-236.16 -239.78)"/><path class="cls-3" d="M1154.7,1301.29a133.25,133.25,0,0,1-14-31q1.45-27.46,2.89-54.94a24.73,24.73,0,0,0,13.39-8.22c8.6-10.85,9.84-29.63,21-36.28,7.14-4.23,15.65-1.71,23.59-2.51,22.35-2.24,47.33-48.18,25.58-67.12-47-40.87-137-41-184.16,0-21.74,18.93,3.24,64.87,25.59,67.11,7.94.8,16.46-1.72,23.6,2.51,11.21,6.65,12.44,25.43,21,36.29a24.73,24.73,0,0,0,13.1,8.13q1.48,25.29,4.33,50.53a130.23,130.23,0,0,1-15.23,35.48c-27.77,45.6-69.56,64.75-109.58,63.5-30.5-1-61.14-9.79-88.42-32.08,31,47.76,78.47,53.87,119.57,50.5,24.91-2.06,50-10.64,71.77-29.77,7.67-6.72,15-14.92,20.18-26.15a83.51,83.51,0,0,0,6.1-21.65,82.72,82.72,0,0,0,6.09,21.65c5.14,11.23,12.51,19.43,20.18,26.15,21.82,19.13,46.85,27.71,71.77,29.77,41.1,3.37,88.56-2.74,119.57-50.5-27.28,22.29-57.92,31.12-88.42,32.08C1224.26,1366,1182.48,1346.89,1154.7,1301.29Z" transform="translate(-236.16 -239.78)"/><path class="cls-3" d="M1578.49,1164q-61.47,11.8-121.74,29c-8.24,2.34-4.74,15.22,3.55,12.86a1439.46,1439.46,0,0,1,217.9-44.13q63.87-7.89,128.27-10.37,48.42-1.86,96.89-.66,63.3,1.58,126.31,8.48c8.52.93,8.46-12.43,0-13.35a1519.61,1519.61,0,0,0-224.53-7.76l-1.87.07A1520,1520,0,0,0,1578.49,1164Z" transform="translate(-236.16 -239.78)"/><path class="cls-3" d="M2034.64,1305.62a1955.12,1955.12,0,0,0-220.05-56.08l-.51-.09A2069.86,2069.86,0,0,0,1586,1218.27q-65.22-5.28-130.69-6.44c-8.59-.15-8.59,13.19,0,13.35A2084.12,2084.12,0,0,1,1684.8,1242q65.34,8.43,130,21.15,47.63,9.36,94.76,21,61.31,15.16,121.51,34.33C2039.29,1321.1,2042.8,1308.22,2034.64,1305.62Z" transform="translate(-236.16 -239.78)"/><path class="cls-3" d="M1459.11,1234.29c-7.79-3.4-14.59,8.09-6.73,11.52,95.92,41.78,187.77,93.24,272.18,155.15q34.18,25.08,66.56,52.49c6.51,5.51,16-3.88,9.43-9.44-79.09-66.93-166.45-123.75-258.73-170.74Q1501.08,1252.51,1459.11,1234.29Z" transform="translate(-236.16 -239.78)"/><path class="cls-3" d="M694.36,1177q61,11.76,120.78,28.77c8.27,2.36,11.8-10.51,3.54-12.86a1460.84,1460.84,0,0,0-218.5-44.25,1525.27,1525.27,0,0,0-172.32-11.76q-27.41-.32-54.8.35-63.8,1.53-127.29,8.49c-8.45.92-8.54,14.28,0,13.35a1515.72,1515.72,0,0,1,180.75-8.86q22.34.24,44.64,1.13A1495.81,1495.81,0,0,1,694.36,1177Z" transform="translate(-236.16 -239.78)"/><path class="cls-3" d="M690.41,1231.53q64.73-5.21,129.7-6.35c8.57-.16,8.6-13.5,0-13.35a2086.23,2086.23,0,0,0-231.47,17.06q-85.71,11.16-170.31,29.39-27.61,6-55.07,12.76-61.78,15.27-122.46,34.58c-8.16,2.59-4.67,15.49,3.54,12.86q85.46-27.2,173.18-46.38,22.41-4.92,44.92-9.31A2039.77,2039.77,0,0,1,690.41,1231.53Z" transform="translate(-236.16 -239.78)"/><path class="cls-3" d="M816.32,1234.29C719.58,1276.43,627,1328.41,542,1391q-34.41,25.37-67.08,53c-6.56,5.56,2.92,15,9.44,9.44,78.45-66.39,165.32-122.54,256.87-169.09q40.35-20.52,81.87-38.55C830.91,1242.38,824.13,1230.89,816.32,1234.29Z" transform="translate(-236.16 -239.78)"/></svg>