<?xml version="1.0" encoding="utf-8"?>
<!-- Generator: Adobe Illustrator 24.0.0, SVG Export Plug-In . SVG Version: 6.00 Build 0)  -->
<svg version="1.1" id="Layer_1" xmlns="http://www.w3.org/2000/svg" xmlns:xlink="http://www.w3.org/1999/xlink" x="0px" y="0px"
	 viewBox="0 0 200 200" style="enable-background:new 0 0 200 200;" xml:space="preserve">
<style type="text/css">
	.st0{fill:#F2F1E8;}
	.st1{fill:#A8A9A2;}
	.st2{fill:#32302D;}
	.st3{clip-path:url(#SVGID_2_);fill:#32302D;}
	.st4{fill:#161514;}
	.st5{fill:#232220;}
	.st6{fill:#884637;}
	.st7{fill:#FBBB8C;}
	.st8{fill:#FFE8D6;}
	.st9{fill:#8E6F5E;}
	.st10{fill:#7A5B4C;}
	.st11{fill:#5E3F33;}
	.st12{fill:#A88E7D;}
	.st13{fill:#F9DBB2;}
	.st14{fill:#E09E48;}
	.st15{fill:#9B5E1B;}
	.st16{fill:#C18033;}
	.st17{clip-path:url(#SVGID_4_);fill:#FEC368;}
	.st18{clip-path:url(#SVGID_4_);fill:#DD8340;}
	.st19{clip-path:url(#SVGID_4_);fill:#161514;}
	.st20{clip-path:url(#SVGID_4_);fill:#FFE8D6;}
	.st21{fill:#FFFFFF;}
	.st22{fill:#D6854D;}
	.st23{fill:#B46133;}
	.st24{fill:#EC9B5E;}
	.st25{fill:#88524C;}
	.st26{clip-path:url(#SVGID_6_);fill:#B46133;}
	.st27{fill:#EACAB5;}
	.st28{fill:#D3AF9B;}
	.st29{fill:#4D4C48;}
	.st30{fill:#D2D2CA;}
	.st31{fill:#514142;}
	.st32{fill:#C6604D;}
	.st33{fill:#2C1C0F;}
	.st34{fill:#5F4C4E;}
	.st35{fill:none;stroke:#2C1C0F;stroke-width:5.9134;stroke-linecap:round;stroke-linejoin:round;stroke-miterlimit:10;}
	.st36{fill:#BCBEC0;}
	.st37{fill:#636466;}
	.st38{fill:#D1D3D4;}
	.st39{fill:#EBEBEC;}
	.st40{fill:#A7A9AC;}
	.st41{fill:#AAAAAA;}
	.st42{opacity:0.8;fill:#2C1C0F;}
	.st43{fill:#FAF3EB;}
	.st44{fill:none;stroke:#282F39;stroke-width:4.7595;stroke-linecap:round;stroke-linejoin:round;stroke-miterlimit:10;}
	.st45{fill:#DD786B;}
	.st46{fill:#83562D;}
	.st47{fill:#B37E4A;}
	.st48{fill:#3A2B20;}
	.st49{fill:#30231B;}
	.st50{fill:#634C3B;}
	.st51{fill:#CB915A;}
	.st52{fill:#544032;}
	.st53{fill:#2D2119;}
	.st54{fill:#231A14;}
	.st55{fill:#33322F;}
	.st56{fill:#777673;}
	.st57{fill:#353432;}
	.st58{fill:#E7E6DE;}
	.st59{fill:#F3757A;}
	.st60{fill:#BF4750;}
	.st61{fill:#D6565F;}
	.st62{fill:#FFAEB4;}
	.st63{fill:#E58893;}
	.st64{fill:#A3313A;}
	.st65{fill:#F2F1E7;}
	.st66{fill:#F9B7B2;}
	.st67{fill:#E59291;}
	.st68{fill:#CC7171;}
	.st69{clip-path:url(#SVGID_8_);fill:#383734;}
	.st70{fill:#FCBC7E;}
	.st71{fill:#B74E2E;}
	.st72{fill:#A53F28;}
	.st73{clip-path:url(#SVGID_10_);fill:#E58341;}
	.st74{clip-path:url(#SVGID_10_);}
	.st75{fill:#CC652B;}
	.st76{fill:#EAA465;}
	.st77{fill:#4B2D23;}
	.st78{fill:#3A211B;}
	.st79{fill:#D68847;}
	.st80{fill:#E58341;}
	.st81{fill:#AF5223;}
	.st82{fill:#E2705C;}
	.st83{fill:#F8F8F8;}
	.st84{fill:#FFBE51;}
	.st85{fill:#4A1F09;}
	.st86{fill:#DFDCDA;}
	.st87{fill:#623420;}
	.st88{fill:#AB8458;}
	.st89{fill:#E1965F;}
	.st90{fill:#CD8554;}
	.st91{fill:#957350;}
	.st92{fill:#A8A6A2;}
	.st93{fill:#E9E9E7;}
	.st94{fill:#636260;}
	.st95{fill:#BCBBB8;}
	.st96{fill:#1C1B1A;}
	.st97{fill:#32302E;}
	.st98{fill:#D2D2CC;}
	.st99{fill:#A19E9C;}
	.st100{fill:#5A5452;}
	.st101{fill:#8A8786;}
</style>
<g>
	<path class="st21" d="M52.3,162.7c-1.1-0.9-26.8-21.9-22.3-51.3c4-25.9,28.4-38.3,36.7-42.6c26.5-13.7,52-6.9,58.3-5.2
		c6,1.7,14.2,4,22.1,8.9v0C181.6,184,52.3,162.7,52.3,162.7z"/>
	<path class="st82" d="M98,77.4c0,0-57.1-35.2-35.5-39.8s30.8,17.1,30.8,17.1S89,17,100,26.5s7,21.5,7,21.5s22.3-26.6,30.4-15
		C145.6,44.5,98,77.4,98,77.4z"/>
	<path class="st83" d="M167.3,136.2c0,0-6,18.3-35,30.4c-0.3,0.1-0.5,0.2-0.5,0.2c-0.3,0.1-0.7,0.3-1.1,0.5
		c-5.7,2.3-48.9,18.5-78.4-4.7c0,0,129.3,21.4,94.8-90.2c5.5,3.4,10.9,8.1,15.2,14.6C176.2,108.3,168.5,132.5,167.3,136.2z"/>
	<path class="st82" d="M98.7,105.8c0,0-13.8,51.5-6.5,51.5c7.3,0,6.5-11.7,6.5-11.7s1.9,20.9,7.7,17c5.8-3.9-0.9-23.1-0.9-23.1
		s9.1,17.8,11.8,14.9C120.1,151.6,98.7,105.8,98.7,105.8z"/>
	<path class="st84" d="M85.7,108c4-6.6,11.4-10.1,18.5-8.7c8.7,1.7,12.3,9.7,12.7,10.4c-5.7,7.3-11.5,14.7-17.2,22L85.7,108z"/>
	<g>
		<ellipse class="st85" cx="68.6" cy="99.6" rx="8" ry="10.7"/>
		<path class="st86" d="M68.5,92.3c0.1,0.1,0.3,0.5,0.5,1c0.9,2.6-0.4,5.2-2.4,6.1c-0.4,0.2-1.1,0.4-1.7,0.2
			c-2.4-0.9-2.9-7.7-0.7-8.8C65.2,90.1,67.4,90.8,68.5,92.3z"/>
	</g>
	<g>
		<ellipse class="st85" cx="134" cy="99.6" rx="8" ry="10.7"/>
		<path class="st86" d="M133.8,92.3c0.1,0.1,0.3,0.5,0.5,1c0.9,2.6-0.4,5.2-2.4,6.1c-0.4,0.2-1.1,0.4-1.7,0.2
			c-2.4-0.9-2.9-7.7-0.7-8.8C130.6,90.1,132.8,90.8,133.8,92.3z"/>
	</g>
</g>
</svg>
