<?xml version="1.0" encoding="utf-8"?>
<!-- Generator: Adobe Illustrator 24.0.0, SVG Export Plug-In . SVG Version: 6.00 Build 0)  -->
<svg version="1.1" id="Layer_1" xmlns="http://www.w3.org/2000/svg" xmlns:xlink="http://www.w3.org/1999/xlink" x="0px" y="0px"
	 viewBox="0 0 200 200" style="enable-background:new 0 0 200 200;" xml:space="preserve">
<style type="text/css">
	.st0{fill:#F2F1E8;}
	.st1{fill:#A8A9A2;}
	.st2{fill:#32302D;}
	.st3{clip-path:url(#SVGID_2_);fill:#32302D;}
	.st4{fill:#161514;}
	.st5{fill:#232220;}
	.st6{fill:#884637;}
	.st7{fill:#FBBB8C;}
	.st8{fill:#FFE8D6;}
	.st9{fill:#8E6F5E;}
	.st10{fill:#7A5B4C;}
	.st11{fill:#5E3F33;}
	.st12{fill:#A88E7D;}
	.st13{fill:#F9DBB2;}
	.st14{fill:#E09E48;}
	.st15{fill:#9B5E1B;}
	.st16{fill:#C18033;}
	.st17{clip-path:url(#SVGID_4_);fill:#FEC368;}
	.st18{clip-path:url(#SVGID_4_);fill:#DD8340;}
	.st19{clip-path:url(#SVGID_4_);fill:#161514;}
	.st20{clip-path:url(#SVGID_4_);fill:#FFE8D6;}
	.st21{fill:#FFFFFF;}
	.st22{fill:#D6854D;}
	.st23{fill:#B46133;}
	.st24{fill:#EC9B5E;}
	.st25{fill:#88524C;}
	.st26{clip-path:url(#SVGID_6_);fill:#B46133;}
	.st27{fill:#EACAB5;}
	.st28{fill:#D3AF9B;}
	.st29{fill:#4D4C48;}
	.st30{fill:#D2D2CA;}
	.st31{fill:#514142;}
	.st32{fill:#C6604D;}
	.st33{fill:#2C1C0F;}
	.st34{fill:#5F4C4E;}
	.st35{fill:none;stroke:#2C1C0F;stroke-width:5.9134;stroke-linecap:round;stroke-linejoin:round;stroke-miterlimit:10;}
	.st36{fill:#BCBEC0;}
	.st37{fill:#636466;}
	.st38{fill:#D1D3D4;}
	.st39{fill:#EBEBEC;}
	.st40{fill:#A7A9AC;}
	.st41{fill:#AAAAAA;}
	.st42{opacity:0.8;fill:#2C1C0F;}
	.st43{fill:#FAF3EB;}
	.st44{fill:none;stroke:#282F39;stroke-width:4.7595;stroke-linecap:round;stroke-linejoin:round;stroke-miterlimit:10;}
	.st45{fill:#DD786B;}
	.st46{fill:#83562D;}
	.st47{fill:#B37E4A;}
	.st48{fill:#3A2B20;}
	.st49{fill:#30231B;}
	.st50{fill:#634C3B;}
	.st51{fill:#CB915A;}
	.st52{fill:#544032;}
	.st53{fill:#2D2119;}
	.st54{fill:#231A14;}
	.st55{fill:#33322F;}
	.st56{fill:#777673;}
	.st57{fill:#353432;}
	.st58{fill:#E7E6DE;}
	.st59{fill:#F3757A;}
	.st60{fill:#BF4750;}
	.st61{fill:#D6565F;}
	.st62{fill:#FFAEB4;}
	.st63{fill:#E58893;}
	.st64{fill:#A3313A;}
	.st65{fill:#F2F1E7;}
	.st66{fill:#F9B7B2;}
	.st67{fill:#E59291;}
	.st68{fill:#CC7171;}
	.st69{clip-path:url(#SVGID_8_);fill:#383734;}
	.st70{fill:#FCBC7E;}
	.st71{fill:#B74E2E;}
	.st72{fill:#A53F28;}
	.st73{clip-path:url(#SVGID_10_);fill:#E58341;}
	.st74{clip-path:url(#SVGID_10_);}
	.st75{fill:#CC652B;}
	.st76{fill:#EAA465;}
	.st77{fill:#4B2D23;}
	.st78{fill:#3A211B;}
	.st79{fill:#D68847;}
	.st80{fill:#E58341;}
	.st81{fill:#AF5223;}
	.st82{fill:#E2705C;}
	.st83{fill:#F8F8F8;}
	.st84{fill:#FFBE51;}
	.st85{fill:#4A1F09;}
	.st86{fill:#DFDCDA;}
	.st87{fill:#623420;}
	.st88{fill:#AB8458;}
	.st89{fill:#E1965F;}
	.st90{fill:#CD8554;}
	.st91{fill:#957350;}
	.st92{fill:#A8A6A2;}
	.st93{fill:#E9E9E7;}
	.st94{fill:#636260;}
	.st95{fill:#BCBBB8;}
	.st96{fill:#1C1B1A;}
	.st97{fill:#32302E;}
	.st98{fill:#D2D2CC;}
	.st99{fill:#A19E9C;}
	.st100{fill:#5A5452;}
	.st101{fill:#8A8786;}
</style>
<g>
	<path class="st65" d="M149,104.7c-3.2-11.7-8.2-23-16.2-31.7c-4.9-5.3-10.9-9.6-17.5-12c-6.3-2.3-14-3.1-20.7-2
		c-2.7,0.4-5.7,1-8.3,2c-6.6,2.4-12.6,6.7-17.5,12c-8,8.7-13,20-16.2,31.7c-2.5,9.2-3.9,19.1-1.5,28.3c2,7.6,6.6,14.3,12.5,19
		c9.8,7.9,22.4,11.2,34.5,11.2c6.2,0,12.3-0.8,18.3-2.4c6-1.6,11.9-2.6,17.4-5.9c1.4-0.9,2.8-1.8,4.2-2.9c5.9-4.7,10.5-11.5,12.5-19
		C153,123.8,151.6,113.9,149,104.7z"/>
	<g>
		<path class="st65" d="M39.5,71.7c-4.3,1.7-8.4,4.3-13,5c1.1,5.7,5.6,10.3,10.9,12.6c5.3,2.2,11.4,2.3,17,1.2
			c5.7-1.1,15.9-5.6,13.9-13.3c-1.3-5-11.6-7.1-15.8-7.5C48.1,69.3,43.6,70,39.5,71.7z"/>
		<path class="st66" d="M46.4,75.9c-3.8,1.3-7.2,3.5-10.8,5.2c2.9,2.5,6.4,4.2,10.2,4.6c3.9,0.5,13.6-1,13.8-6.5
			C59.7,73.3,49.5,74.8,46.4,75.9z"/>
	</g>
	<g>
		<path class="st65" d="M160.5,71.7c4.3,1.7,8.4,4.3,13,5c-1.1,5.7-5.6,10.3-10.9,12.6c-5.3,2.2-11.4,2.3-17,1.2
			c-5.7-1.1-15.9-5.6-13.9-13.3c1.3-5,11.6-7.1,15.8-7.5C151.9,69.3,156.4,70,160.5,71.7z"/>
		<path class="st66" d="M153.6,75.9c3.8,1.3,7.2,3.5,10.8,5.2c-2.9,2.5-6.4,4.2-10.2,4.6c-3.9,0.5-13.6-1-13.8-6.5
			C140.3,73.3,150.5,74.8,153.6,75.9z"/>
	</g>
	<path class="st58" d="M80.2,85.1c-5.8,1.2-11.4,4.8-13.6,10.3c-1,2.4-1.3,5.1-1.2,7.7c0.1,3.2,0.8,6.6,2.8,9.2
		c2.5,3.2,6.4,4.8,10.3,5.9c11.8,3.4,24.6,3.9,36.5,0.7c5.4-1.5,10.8-3.8,14.8-7.8c4-4,6.5-9.8,5.5-15.3c-0.7-4.1-3.4-7.7-6.9-10
		c-3.5-2.2-7.8-3.1-11.9-2.6c-5.9,0.7-10.5,2.8-16.4,1.9C94,84.2,86.2,84,80.2,85.1z"/>
	<path class="st66" d="M126.8,120c-4.4-4.6-10.5-6.6-16.6-7.7c-10.5-1.8-23.2-1.8-32.3,4.7c-4.6,3.3-7.7,8.6-8.3,14.1
		c-0.7,5.6,1.1,11.4,4.8,15.7c5.6,6.5,14.7,8.9,23.3,9.4c6.4,0.4,12.9,0,18.9-2.2c6-2.2,11.4-6.5,14-12.3
		C133.8,134.7,132.2,125.6,126.8,120z"/>
	<g>
		<path class="st67" d="M84.9,126c-4.2,0.2-7.3,4.8-7.2,9.1c0.1,3,1.7,5.8,4.1,7.5c0.8,0.6,1.6,1,2.6,1.1c1.1,0.2,2.3-0.2,3.3-0.7
			C82.8,138.9,82.7,131.8,84.9,126z"/>
		<path class="st68" d="M90.1,140.9c1.7-2.1,2.8-4.9,2.5-7.6c-0.2-2.7-1.9-5.4-4.3-6.6c-1.2-0.5-2.3-0.8-3.3-0.7
			c-2.3,5.8-2.1,12.9,2.7,17C88.6,142.5,89.4,141.7,90.1,140.9z"/>
	</g>
	<g>
		<path class="st67" d="M117.4,126c4.2,0.2,7.3,4.8,7.2,9.1c-0.1,3-1.7,5.8-4.1,7.5c-0.8,0.6-1.6,1-2.6,1.1
			c-1.1,0.2-2.3-0.2-3.3-0.7C119.5,138.9,119.7,131.8,117.4,126z"/>
		<path class="st68" d="M112.3,140.9c-1.7-2.1-2.8-4.9-2.5-7.6c0.2-2.7,1.9-5.4,4.3-6.6c1.2-0.5,2.3-0.8,3.3-0.7
			c2.3,5.8,2.1,12.9-2.7,17C113.8,142.5,112.9,141.7,112.3,140.9z"/>
	</g>
	<path d="M77.6,96.9c-0.8,1.6-0.8,3.8,0.5,5.1c0.4,0.4,1,0.7,1.5,1c1.5,0.6,3.2,0.6,4.7-0.1c1.5-0.7,2.6-2,2.9-3.6
		c0.6-2.9-1.4-5.4-4.2-5.7C80.7,93.3,78.6,95,77.6,96.9z"/>
	<path d="M114.2,96.9c-0.8,1.6-0.8,3.8,0.5,5.1c0.4,0.4,1,0.7,1.5,1c1.5,0.6,3.2,0.6,4.7-0.1c1.5-0.7,2.6-2,2.9-3.6
		c0.6-2.9-1.4-5.4-4.2-5.7C117.3,93.3,115.2,95,114.2,96.9z"/>
	<path class="st68" d="M99.7,151.1c1.6,0.2,3.2,0,4.6-0.8c1.4-0.8,2.4-2.3,2.4-3.9c0-0.8-0.4-1.8-1.2-1.9c-0.5-0.1-1,0.3-1.4,0.7
		c-0.3,0.4-0.5,0.9-0.8,1.4c-0.7,1-1.8,1.7-3,1.7c-2,0.1-2.6-1.2-3.8-2.5c-0.8-0.9-1.7-1.3-2.2,0.1
		C93.2,148.9,97.6,150.9,99.7,151.1z"/>
	<g>
		<defs>
			<path id="SVGID_7_" d="M149,104.7c-3.2-11.7-8.2-23-16.2-31.7c-4.9-5.3-10.9-9.6-17.5-12c-6.3-2.3-14-3.1-20.7-2
				c-2.7,0.4-5.7,1-8.3,2c-6.6,2.4-12.6,6.7-17.5,12c-8,8.7-13,20-16.2,31.7c-2.5,9.2-3.9,19.1-1.5,28.3c2,7.6,6.6,14.3,12.5,19
				c9.8,7.9,22.4,11.2,34.5,11.2c6.2,0,12.3-0.8,18.3-2.4c6-1.6,11.9-2.6,17.4-5.9c1.4-0.9,2.8-1.8,4.2-2.9
				c5.9-4.7,10.5-11.5,12.5-19C153,123.8,151.6,113.9,149,104.7z"/>
		</defs>
		<clipPath id="SVGID_2_">
			<use xlink:href="#SVGID_7_"  style="overflow:visible;"/>
		</clipPath>
		<path style="clip-path:url(#SVGID_2_);fill:#383734;" d="M61,104.4c2.5,2.1,2.1,6,1.3,9.1c-0.2,0.9-0.4,1.8-0.1,2.7
			c0.6,1.4,2.4,1.8,3.4,3c1.4,1.6,0.9,4,0.1,5.9c-1,2.6-2.3,5.1-3.8,7.5c-2.3,3.7-6,7.3-10.3,6.8c-4.5-0.5-7.2-5.2-8.3-9.5
			c-1.5-6.1-1.4-14.8,2-20.4C47.9,105.4,56.8,100.9,61,104.4z"/>
		<path style="clip-path:url(#SVGID_2_);fill:#383734;" d="M89.9,54.5c2.4,0.1,4.5-1.4,6.8-2.2c3.3-1.2,6.9-1,10.3-0.3
			c5.6,1.1,11.7,3.9,13.4,9.4c1.7,5.3-1.2,11-4.8,15.4c-2.1,2.6-4.7,5-8,5.5c-1.9,0.3-3.8-0.1-5.6-0.5c-2.9-0.7-6-1.8-7.4-4.5
			c-0.6-1.2-0.8-2.6-1.5-3.8c-1.3-2.3-4.1-3.2-6.7-3.5c-2.6-0.3-5.3-0.2-7.8-1.2c-0.5-0.2-1.1-0.6-1.3-1.1c-0.2-0.5-0.1-1.2,0.1-1.7
			c1.4-4.4,4.5-8.2,8.5-10.4C88.1,54.4,87.5,54.5,89.9,54.5z"/>
		<path style="clip-path:url(#SVGID_2_);fill:#383734;" d="M146.3,107.5c-3-1-6.6-0.9-9.2,0.9c-2.7,1.8-4.1,5.4-2.9,8.4
			c0.7,1.7,2.1,2.9,3.2,4.3c2,2.5,3,5.7,2.9,8.9c-0.1,4.7-2.6,9.7-0.6,14c1.6,3.4,6,5.1,9.7,4.2c3.7-0.9,6.7-3.8,8.3-7.3
			c1.6-3.5,1.9-7.4,1.8-11.2c-0.2-5-1-11.3-3.5-15.7C154.3,111.1,149.4,108.5,146.3,107.5z"/>
	</g>
	<g>
		<path class="st70" d="M130,54.2c2.9-5.3,3.7-11.5,3.3-17.5c1.4,0.1,2.5,1.4,3.2,2.7c3.3,5.6,4.5,12.2,4.1,18.6
			c-0.3,4.9-1.5,9.8-4.5,13.7c-3,3.9-7.9,6.4-12.7,5.6c-4.9-0.8-10.1-6.2-6.3-10.9c1.9-2.3,4.6-3.5,6.9-5.3
			C126.5,59.3,128.5,56.9,130,54.2z"/>
		<path class="st70" d="M72.3,54.2C69.4,49,68.6,42.7,69,36.7c-1.4,0.1-2.5,1.4-3.2,2.7c-3.3,5.6-4.5,12.2-4.1,18.6
			c0.3,4.9,1.5,9.8,4.5,13.7c3,3.9,7.9,6.4,12.7,5.6c4.9-0.8,10.1-6.2,6.3-10.9c-1.9-2.3-4.6-3.5-6.9-5.3
			C75.7,59.3,73.7,56.9,72.3,54.2z"/>
	</g>
</g>
</svg>
