<?xml version="1.0" encoding="utf-8"?>
<!-- Generator: Adobe Illustrator 24.0.0, SVG Export Plug-In . SVG Version: 6.00 Build 0)  -->
<svg version="1.1" id="Layer_1" xmlns="http://www.w3.org/2000/svg" xmlns:xlink="http://www.w3.org/1999/xlink" x="0px" y="0px"
	 viewBox="0 0 200 200" style="enable-background:new 0 0 200 200;" xml:space="preserve">
<style type="text/css">
	.st0{fill:#F2F1E8;}
	.st1{fill:#A8A9A2;}
	.st2{fill:#32302D;}
	.st3{clip-path:url(#SVGID_2_);fill:#32302D;}
	.st4{fill:#161514;}
	.st5{fill:#232220;}
	.st6{fill:#884637;}
	.st7{fill:#FBBB8C;}
	.st8{fill:#FFE8D6;}
	.st9{fill:#8E6F5E;}
	.st10{fill:#7A5B4C;}
	.st11{fill:#5E3F33;}
	.st12{fill:#A88E7D;}
	.st13{fill:#F9DBB2;}
	.st14{fill:#E09E48;}
	.st15{fill:#9B5E1B;}
	.st16{fill:#C18033;}
	.st17{clip-path:url(#SVGID_4_);fill:#FEC368;}
	.st18{clip-path:url(#SVGID_4_);fill:#DD8340;}
	.st19{clip-path:url(#SVGID_4_);fill:#161514;}
	.st20{clip-path:url(#SVGID_4_);fill:#FFE8D6;}
	.st21{fill:#FFFFFF;}
	.st22{fill:#D6854D;}
	.st23{fill:#B46133;}
	.st24{fill:#EC9B5E;}
	.st25{fill:#88524C;}
	.st26{clip-path:url(#SVGID_6_);fill:#B46133;}
	.st27{fill:#EACAB5;}
	.st28{fill:#D3AF9B;}
	.st29{fill:#4D4C48;}
	.st30{fill:#D2D2CA;}
	.st31{fill:#514142;}
	.st32{fill:#C6604D;}
	.st33{fill:#2C1C0F;}
	.st34{fill:#5F4C4E;}
	.st35{fill:none;stroke:#2C1C0F;stroke-width:5.9134;stroke-linecap:round;stroke-linejoin:round;stroke-miterlimit:10;}
	.st36{fill:#BCBEC0;}
	.st37{fill:#636466;}
	.st38{fill:#D1D3D4;}
	.st39{fill:#EBEBEC;}
	.st40{fill:#A7A9AC;}
	.st41{fill:#AAAAAA;}
	.st42{opacity:0.8;fill:#2C1C0F;}
	.st43{fill:#FAF3EB;}
	.st44{fill:none;stroke:#282F39;stroke-width:4.7595;stroke-linecap:round;stroke-linejoin:round;stroke-miterlimit:10;}
	.st45{fill:#DD786B;}
	.st46{fill:#83562D;}
	.st47{fill:#B37E4A;}
	.st48{fill:#3A2B20;}
	.st49{fill:#30231B;}
	.st50{fill:#634C3B;}
	.st51{fill:#CB915A;}
	.st52{fill:#544032;}
	.st53{fill:#2D2119;}
	.st54{fill:#231A14;}
	.st55{fill:#33322F;}
	.st56{fill:#777673;}
	.st57{fill:#353432;}
	.st58{fill:#E7E6DE;}
	.st59{fill:#F3757A;}
	.st60{fill:#BF4750;}
	.st61{fill:#D6565F;}
	.st62{fill:#FFAEB4;}
	.st63{fill:#E58893;}
	.st64{fill:#A3313A;}
	.st65{fill:#F2F1E7;}
	.st66{fill:#F9B7B2;}
	.st67{fill:#E59291;}
	.st68{fill:#CC7171;}
	.st69{clip-path:url(#SVGID_8_);fill:#383734;}
	.st70{fill:#FCBC7E;}
	.st71{fill:#B74E2E;}
	.st72{fill:#A53F28;}
	.st73{clip-path:url(#SVGID_10_);fill:#E58341;}
	.st74{clip-path:url(#SVGID_10_);}
	.st75{fill:#CC652B;}
	.st76{fill:#EAA465;}
	.st77{fill:#4B2D23;}
	.st78{fill:#3A211B;}
	.st79{fill:#D68847;}
	.st80{fill:#E58341;}
	.st81{fill:#AF5223;}
	.st82{fill:#E2705C;}
	.st83{fill:#F8F8F8;}
	.st84{fill:#FFBE51;}
	.st85{fill:#4A1F09;}
	.st86{fill:#DFDCDA;}
	.st87{fill:#623420;}
	.st88{fill:#AB8458;}
	.st89{fill:#E1965F;}
	.st90{fill:#CD8554;}
	.st91{fill:#957350;}
	.st92{fill:#A8A6A2;}
	.st93{fill:#E9E9E7;}
	.st94{fill:#636260;}
	.st95{fill:#BCBBB8;}
	.st96{fill:#1C1B1A;}
	.st97{fill:#32302E;}
	.st98{fill:#D2D2CC;}
	.st99{fill:#A19E9C;}
	.st100{fill:#5A5452;}
	.st101{fill:#8A8786;}
</style>
<g>
	<path class="st6" d="M72.1,46.5c-2.9,2.5-4.3,6.3-5.7,9.9c-4.1,10.4-8.9,20.9-16.9,28.8c-3.4,3.4-7.3,6.2-10.6,9.7
		c-3.3,3.5-6,7.8-6.1,12.6c-0.2,4.8,2.3,9.5,6.2,12.2s9,3.6,13.6,2.5c8.2-2,13.9-9.5,17.6-17c4.6-9.2,7.4-19.2,10.1-29.1
		c2-7.4,4.1-15,3.5-22.7c-0.2-2.7-0.3-6.9-2.9-8.4C78.2,43.3,74.3,44.6,72.1,46.5z"/>
	<path class="st6" d="M127.9,46.5c2.9,2.5,4.3,6.3,5.7,9.9c4.1,10.4,8.9,20.9,16.9,28.8c3.4,3.4,7.3,6.2,10.6,9.7
		c3.3,3.5,6,7.8,6.1,12.6c0.2,4.8-2.3,9.5-6.2,12.2c-3.9,2.8-9,3.6-13.6,2.5c-8.2-2-13.9-9.5-17.6-17c-4.6-9.2-7.4-19.2-10.1-29.1
		c-2-7.4-4.1-15-3.5-22.7c0.2-2.7,0.3-6.9,2.9-8.4C121.8,43.3,125.7,44.6,127.9,46.5z"/>
	<path class="st7" d="M75.2,50.3c-6.9,8.6-10.3,19.4-12.4,30.2c-2.1,10.8-2.9,21.8-5.2,32.6c-2.7,12.6-7.5,25.9-2.7,37.9
		c3,7.5,9.4,13.3,16.7,16.9c7.3,3.5,15.4,5,23.5,5.8c8.6,0.9,17.3,1.1,25.7-0.8c8.4-1.9,16.5-6.1,21.9-12.8
		c6.2-7.7,8.3-18.2,7.6-28.1c-0.7-9.9-4-19.4-7.6-28.7c-3.6-9.2-7.6-18.4-9.8-28.1c-1.3-5.8-2-11.7-3.5-17.5
		c-1.5-5.8-4-11.4-8.3-15.6c-5.9-5.6-15.6-6.4-23.4-5.4C88.9,38.1,80.8,43.4,75.2,50.3z"/>
	<path class="st6" d="M96.3,76.3c-1.4-3.8-3.9-7.4-7.8-8.7c-4-1.3-8.5,0.3-11.6,3.2c-3,2.9-4.8,6.9-6.1,10.9c-1.3,4-2.1,8.2-3.7,12
		c-1.5,3.6-3.6,7.2-2.8,11c0.7,3.5,3.8,6.1,7.3,6.9c3.5,0.8,7.1-0.1,10.3-1.8C93.8,103.6,101.1,89.3,96.3,76.3z"/>
	<path class="st8" d="M85.3,101.3c-3.8,1.6-7.2,3.9-10.1,6.8c-1.9,1.9-3.5,4.1-4.7,6.5c-2.7,5.5-3.3,11.9-2.2,17.9
		c2.1,12,10.9,22.6,22.4,26.7c11.5,4.1,25.1,1.4,34-6.9c8.9-8.3,12.5-21.9,8.7-33.5C127.2,99.7,102.7,93.7,85.3,101.3z"/>
	<path class="st4" d="M73,89.1c-0.4,1.2-0.6,2.5-0.1,3.6c0.5,1.1,1.9,1.9,3,1.4c0.9-0.4,1.3-1.4,1.5-2.4c0.2-0.9,0.3-1.9,0.9-2.7
		c0.6-0.8,1.7-1.3,2.7-1.1c1,0.1,1.9,0.9,2.2,1.9c0.4,1.3,0,2.8,0.9,3.8c0.8,0.9,2.5,0.6,3.3-0.4c0.8-0.9,0.9-2.3,0.9-3.5
		c-0.2-3.8-2.9-7.9-7.2-7.5C77.6,82.5,74.1,86.1,73,89.1z"/>
	<path class="st4" d="M112.9,87.5c-0.4,1.2-0.6,2.5-0.1,3.6c0.5,1.1,1.9,1.9,3,1.4c0.9-0.4,1.3-1.4,1.5-2.4c0.2-0.9,0.3-1.9,0.9-2.7
		c0.6-0.8,1.7-1.3,2.7-1.1c1,0.1,1.9,0.9,2.2,1.9c0.4,1.3,0,2.8,0.9,3.8c0.8,0.9,2.5,0.6,3.3-0.4c0.8-0.9,0.9-2.3,0.9-3.5
		c-0.2-3.8-2.9-7.9-7.2-7.5C117.5,81,114,84.6,112.9,87.5z"/>
	<path class="st7" d="M89.5,38.2c0.2-0.4,0.6-0.6,1-0.8c1.4-0.6,3-0.2,4.5,0.2c-2.1-1.5-3.5-4-3.8-6.6c2.2-0.1,4.3,0.8,5.9,2.2
		c0.1-2.3,0.8-4.6,2-6.5c0.5-0.8,1.5-1.7,2.4-1.3c0.7,0.3,0.9,1.1,1,1.8c0.3,2.3,0.2,4.6-0.2,6.8c0.7-1.4,1.8-2.6,3.1-3.5
		c0.4-0.3,0.9-0.5,1.4-0.5c0.9,0.1,1.4,1.3,1.2,2.2c-0.2,0.9-0.9,1.6-1.5,2.3c1.6-0.8,3.2-1.5,4.9-1.5c1.7,0,3.6,0.9,4.1,2.6
		c0.6,2.2-1.4,4.2-3.3,5.3c-4.2,2.3-9.1,2.8-13.6,1.6C96.7,42.3,87.4,41.5,89.5,38.2z"/>
	<path class="st4" d="M98.3,106.4c-3.4,0.2-6.9,1.5-9.1,4.1c-2.2,2.6-2.6,6.8-0.5,9.5c1.6,1.9,4.1,2.8,6.5,3.3
		c2.9,0.7,5.8,1.1,8.7,0.9c2.9-0.3,5.8-1.3,8-3.3c2.1-2,3.4-5,2.9-7.9C113.7,106.4,103.6,106,98.3,106.4z"/>
	<path class="st4" d="M114.1,142.2c-0.7-0.3-1.4,0.3-1.8,1c-0.3,0.7-0.4,1.4-0.7,2.1c-0.8,1.9-3.2,3-5.1,2.2c-1.4-0.6-2.4-2-2.8-3.5
		c-0.4-1.5-0.4-3.1-0.4-4.6c0.1-2.8,0.5-5.5,0.6-8.3c0.1-1.9,0.1-3.7,0-5.6c-0.1-1.5-0.1-4.1-0.8-5.4c-0.3-0.5-1-0.9-1.5-0.5
		c-0.5-0.3-1.2,0-1.5,0.5c-0.6,1.4-0.7,3.9-0.8,5.4c-0.1,1.9-0.1,3.7,0,5.6c0.1,2.8,0.5,5.5,0.6,8.3c0,1.6,0.1,3.1-0.4,4.6
		c-0.4,1.5-1.4,2.9-2.8,3.5c-1.9,0.8-4.4-0.2-5.1-2.2c-0.3-0.7-0.3-1.4-0.7-2.1c-0.3-0.7-1.1-1.2-1.8-1c-0.7,0.3-0.9,1.2-0.9,2
		c0.2,3.2,2.9,6.1,6.1,6.5c2.9,0.4,5.9-1.3,7.2-3.8c1.4,2.5,4.3,4.2,7.2,3.8c3.2-0.4,5.9-3.3,6.1-6.5
		C115,143.4,114.8,142.4,114.1,142.2z"/>
</g>
</svg>
