<?xml version="1.0" encoding="utf-8"?>
<!-- Generator: Adobe Illustrator 24.0.0, SVG Export Plug-In . SVG Version: 6.00 Build 0)  -->
<svg version="1.1" id="Layer_1" xmlns="http://www.w3.org/2000/svg" xmlns:xlink="http://www.w3.org/1999/xlink" x="0px" y="0px"
	 viewBox="0 0 200 200" style="enable-background:new 0 0 200 200;" xml:space="preserve">
<style type="text/css">
	.st0{fill:#F2F1E8;}
	.st1{fill:#A8A9A2;}
	.st2{fill:#32302D;}
	.st3{clip-path:url(#SVGID_2_);fill:#32302D;}
	.st4{fill:#161514;}
	.st5{fill:#232220;}
	.st6{fill:#884637;}
	.st7{fill:#FBBB8C;}
	.st8{fill:#FFE8D6;}
	.st9{fill:#8E6F5E;}
	.st10{fill:#7A5B4C;}
	.st11{fill:#5E3F33;}
	.st12{fill:#A88E7D;}
	.st13{fill:#F9DBB2;}
	.st14{fill:#E09E48;}
	.st15{fill:#9B5E1B;}
	.st16{fill:#C18033;}
	.st17{clip-path:url(#SVGID_4_);fill:#FEC368;}
	.st18{clip-path:url(#SVGID_4_);fill:#DD8340;}
	.st19{clip-path:url(#SVGID_4_);fill:#161514;}
	.st20{clip-path:url(#SVGID_4_);fill:#FFE8D6;}
	.st21{fill:#FFFFFF;}
	.st22{fill:#D6854D;}
	.st23{fill:#B46133;}
	.st24{fill:#EC9B5E;}
	.st25{fill:#88524C;}
	.st26{clip-path:url(#SVGID_6_);fill:#B46133;}
	.st27{fill:#EACAB5;}
	.st28{fill:#D3AF9B;}
	.st29{fill:#4D4C48;}
	.st30{fill:#D2D2CA;}
	.st31{fill:#514142;}
	.st32{fill:#C6604D;}
	.st33{fill:#2C1C0F;}
	.st34{fill:#5F4C4E;}
	.st35{fill:none;stroke:#2C1C0F;stroke-width:5.9134;stroke-linecap:round;stroke-linejoin:round;stroke-miterlimit:10;}
	.st36{fill:#BCBEC0;}
	.st37{fill:#636466;}
	.st38{fill:#D1D3D4;}
	.st39{fill:#EBEBEC;}
	.st40{fill:#A7A9AC;}
	.st41{fill:#AAAAAA;}
	.st42{opacity:0.8;fill:#2C1C0F;}
	.st43{fill:#FAF3EB;}
	.st44{fill:none;stroke:#282F39;stroke-width:4.7595;stroke-linecap:round;stroke-linejoin:round;stroke-miterlimit:10;}
	.st45{fill:#DD786B;}
	.st46{fill:#83562D;}
	.st47{fill:#B37E4A;}
	.st48{fill:#3A2B20;}
	.st49{fill:#30231B;}
	.st50{fill:#634C3B;}
	.st51{fill:#CB915A;}
	.st52{fill:#544032;}
	.st53{fill:#2D2119;}
	.st54{fill:#231A14;}
	.st55{fill:#33322F;}
	.st56{fill:#777673;}
	.st57{fill:#353432;}
	.st58{fill:#E7E6DE;}
	.st59{fill:#F3757A;}
	.st60{fill:#BF4750;}
	.st61{fill:#D6565F;}
	.st62{fill:#FFAEB4;}
	.st63{fill:#E58893;}
	.st64{fill:#A3313A;}
	.st65{fill:#F2F1E7;}
	.st66{fill:#F9B7B2;}
	.st67{fill:#E59291;}
	.st68{fill:#CC7171;}
	.st69{clip-path:url(#SVGID_8_);fill:#383734;}
	.st70{fill:#FCBC7E;}
	.st71{fill:#B74E2E;}
	.st72{fill:#A53F28;}
	.st73{clip-path:url(#SVGID_10_);fill:#E58341;}
	.st74{clip-path:url(#SVGID_10_);}
	.st75{fill:#CC652B;}
	.st76{fill:#EAA465;}
	.st77{fill:#4B2D23;}
	.st78{fill:#3A211B;}
	.st79{fill:#D68847;}
	.st80{fill:#E58341;}
	.st81{fill:#AF5223;}
	.st82{fill:#E2705C;}
	.st83{fill:#F8F8F8;}
	.st84{fill:#FFBE51;}
	.st85{fill:#4A1F09;}
	.st86{fill:#DFDCDA;}
	.st87{fill:#623420;}
	.st88{fill:#AB8458;}
	.st89{fill:#E1965F;}
	.st90{fill:#CD8554;}
	.st91{fill:#957350;}
	.st92{fill:#A8A6A2;}
	.st93{fill:#E9E9E7;}
	.st94{fill:#636260;}
	.st95{fill:#BCBBB8;}
	.st96{fill:#1C1B1A;}
	.st97{fill:#32302E;}
	.st98{fill:#D2D2CC;}
	.st99{fill:#A19E9C;}
	.st100{fill:#5A5452;}
	.st101{fill:#8A8786;}
</style>
<g>
	<path class="st99" d="M137.6,95.3c-1.1,1.5-1.1,2.6,0.2,4c4.4,11.9,5.7,21.7,4.8,29.7c0.7,0.7,1.2,1.4,1.2,2.2
		c0,1.1-0.8,2.1-2.1,2.9c-0.7,2.9-1.8,5.5-3.1,7.9c-16.1,29-72.7,21-72.7,21c-1.4-0.9-2.7-1.8-3.9-2.9c-4.8-4-8.4-9-10.4-15.1
		c-1.8-5.5-1.9-11.3-1.1-17c1.3-10.5,6.2-19.3,13.1-27.1c0.9-1,1-1.7,0.1-2.8C60,93,57.5,87.2,55.1,81.3c-3.6-8.8-6.1-17.8-7.6-27.2
		c-0.9-5.7-0.5-11.4,0.8-17c0.7-2.9,1.3-5.9,2.7-8.6c1.9-3.9,4.1-4.5,7.6-1.8c5,3.8,8.6,8.8,11.5,14.2c3.2,5.9,5.3,12.1,6.9,18.4
		c1.6,6.3,2.5,12.8,3.3,19.4c8.7-6.3,18.4-6.4,28.3-4.1c3.9,0.9,7.2,3.2,10.5,5.2c1.6-14.5,4-28.8,11.8-41.5
		c2.8-4.4,5.8-8.8,10.4-11.7c3.4-2.2,5.2-1.9,6.9,1.6c2.4,5.1,3.6,10.6,4,16.2c0.6,8-1.1,15.6-3.2,23.3c-2.1,7.8-4.9,15.3-8.4,22.5
		C139.8,91.9,138.8,93.7,137.6,95.3z"/>
	<path class="st100" d="M125.4,72.4c1.2-10.9,4.1-21.3,9.8-30.7c1.5-2.5,3.3-4.8,5.5-6.7c2.4-2.2,3.1-1.9,4.5,1.3
		c2.8,6.7,2.4,13.7,1.4,20.4c-1.4,10.1-4.6,19.8-9.1,29.1C136.8,87.5,125.3,73.3,125.4,72.4z"/>
	<path class="st100" d="M75.1,82.5c-3,1.1-5.4,3.2-7.5,5.3c-2.2,2.2-3,0.8-3.6-0.8c-2.1-4.8-4.2-9.7-5.8-14.7c-3-9-5-18.3-4.4-27.9
		c0.2-3.2,0.9-6.2,2.1-9.1c0.9-2.1,2-2.8,4.1-1c4.4,3.9,7.2,8.8,9.4,14.1C72.6,56.1,75.1,79.7,75.1,82.5z"/>
	<path class="st100" d="M127.5,92.8c0.1,2.5,0,4.9-1.5,5.9c-1.2,0.8-3.3,0.2-6.7-1c-2.5-0.9-4.6-2.5-6.9-4.7
		c-0.2,2.2-0.2,3.9-0.5,5.6c-0.5,4.1-2.5,5.4-6.5,4.1c-4.6-1.4-8.5-3.9-11.4-7.9c-0.4-0.6-1-1.1-1.7-1.9c-0.8,2.2-1.4,4.1-2.1,6
		c-0.5,1.5-1.6,1.9-2.8,1.2c-5.5-3.2-10.4-7-10.9-14.1c-1.3-3-1.1-5.8,1.3-8.2c0.9-1.3,1.9-2.5,2.8-3.8c1.9-2,7-6.9,15.3-8.6
		c2-0.4,12.4-2.5,21.5,4.4C126.5,76.6,127.2,86.6,127.5,92.8z"/>
	<path class="st89" d="M138.7,142c-16.1,29-72.7,21-72.7,21l0.8,2.3c-1.9-1.4-3.5-3.1-4.8-5.2c-0.6-1.1-1.2-2.2-1.6-3.5
		c-2-6.4,0.3-11.4,5-15.6c2.2-2,4.7-3.6,7.2-4.9l0,0c2.9-1.5,6-2.7,9.3-3.6c1.8-0.5,3.7-1,5.5-1.3c7.2-1.5,14.4-1.6,21.6-1
		c4.1,0.4,8.2,1,12.1,2.1c3.3,0.9,6.4,2.1,9.4,3.8c1.7,0.9,3.3,1.9,4.9,3.1C136.7,140.1,137.8,141,138.7,142z"/>
	<g>
		<ellipse class="st85" cx="77" cy="118.4" rx="6.1" ry="8.1"/>
		<path class="st86" d="M76.9,112.9c0.1,0.1,0.2,0.3,0.4,0.7c0.7,2-0.3,3.9-1.8,4.6c-0.3,0.1-0.8,0.3-1.3,0.1
			c-1.8-0.7-2.2-5.8-0.5-6.7C74.4,111.2,76.1,111.8,76.9,112.9z"/>
	</g>
	<g>
		<ellipse class="st85" cx="126.6" cy="118.4" rx="6.1" ry="8.1"/>
		<path class="st86" d="M126.5,112.9c0.1,0.1,0.2,0.3,0.4,0.7c0.7,2-0.3,3.9-1.8,4.6c-0.3,0.1-0.8,0.3-1.3,0.1
			c-1.8-0.7-2.2-5.8-0.5-6.7C124.1,111.2,125.8,111.8,126.5,112.9z"/>
	</g>
	<g>
		<path class="st87" d="M88,142.8c1.8,0.4,3.1,1,3.1,3.1c0,1.8-0.6,3.2-2.6,3.3c-2.2,0.1-3.2-1.1-3.2-3.2
			C85.1,143.9,86.4,143.2,88,142.8z"/>
		<path class="st87" d="M113.6,142.8c1.8,0.4,3.1,1,3.1,3.1c0,1.8-0.6,3.2-2.6,3.3c-2.2,0.1-3.2-1.1-3.2-3.2
			C110.7,143.9,112,143.2,113.6,142.8z"/>
	</g>
	<path class="st101" d="M141.3,159.9c3.8-6,2.9-12.4-2.6-17.9c1.3-2.4,2.4-5,3.1-7.9c1.3-0.8,0.5-22.9-3.9-34.8
		c6.2,6.5,10.9,13.9,13.2,22.6C155,136.3,153,149.2,141.3,159.9z"/>
	<path class="st90" d="M141.3,159.9c-0.5,0.4-0.9,0.8-1.4,1.2c-0.9,0.8-19.2,9.4-28.5,10.3c-7.5,0.7-14.9,0.8-22.2-0.3
		c-5.7-0.9-21.2-6.9-23.1-8.2c0,0,56.5,7.9,72.7-21C144.2,147.5,145.1,153.9,141.3,159.9z"/>
	<path class="st90" d="M141.3,159.9c-1.2,1.8-2.8,3.7-4.9,5.4c-7.7,5.1-15.9,8.2-25.3,9.2c-7.5,0.7-14.9,0.8-22.2-0.3
		c-5.7-0.9-11.5-2.5-16.6-5.6c-2-0.9-3.8-2-5.5-3.3L66,163c1.9,1.2,17.4,7.3,23.1,8.2c7.3,1.1,14.7,1.1,22.2,0.3
		c9.3-0.9,27.6-9.6,28.5-10.3C140.3,160.7,140.8,160.3,141.3,159.9z"/>
</g>
</svg>
