<?xml version="1.0" encoding="utf-8"?>
<!-- Generator: Adobe Illustrator 24.0.0, SVG Export Plug-In . SVG Version: 6.00 Build 0)  -->
<svg version="1.1" id="Layer_1" xmlns="http://www.w3.org/2000/svg" xmlns:xlink="http://www.w3.org/1999/xlink" x="0px" y="0px"
	 viewBox="0 0 200 200" style="enable-background:new 0 0 200 200;" xml:space="preserve">
<style type="text/css">
	.st0{fill:#F2F1E8;}
	.st1{fill:#A8A9A2;}
	.st2{fill:#32302D;}
	.st3{clip-path:url(#SVGID_2_);fill:#32302D;}
	.st4{fill:#161514;}
	.st5{fill:#232220;}
	.st6{fill:#884637;}
	.st7{fill:#FBBB8C;}
	.st8{fill:#FFE8D6;}
	.st9{fill:#8E6F5E;}
	.st10{fill:#7A5B4C;}
	.st11{fill:#5E3F33;}
	.st12{fill:#A88E7D;}
	.st13{fill:#F9DBB2;}
	.st14{fill:#E09E48;}
	.st15{fill:#9B5E1B;}
	.st16{fill:#C18033;}
	.st17{clip-path:url(#SVGID_4_);fill:#FEC368;}
	.st18{clip-path:url(#SVGID_4_);fill:#DD8340;}
	.st19{clip-path:url(#SVGID_4_);fill:#161514;}
	.st20{clip-path:url(#SVGID_4_);fill:#FFE8D6;}
	.st21{fill:#FFFFFF;}
	.st22{fill:#D6854D;}
	.st23{fill:#B46133;}
	.st24{fill:#EC9B5E;}
	.st25{fill:#88524C;}
	.st26{clip-path:url(#SVGID_6_);fill:#B46133;}
	.st27{fill:#EACAB5;}
	.st28{fill:#D3AF9B;}
	.st29{fill:#4D4C48;}
	.st30{fill:#D2D2CA;}
	.st31{fill:#514142;}
	.st32{fill:#C6604D;}
	.st33{fill:#2C1C0F;}
	.st34{fill:#5F4C4E;}
	.st35{fill:none;stroke:#2C1C0F;stroke-width:5.9134;stroke-linecap:round;stroke-linejoin:round;stroke-miterlimit:10;}
	.st36{fill:#BCBEC0;}
	.st37{fill:#636466;}
	.st38{fill:#D1D3D4;}
	.st39{fill:#EBEBEC;}
	.st40{fill:#A7A9AC;}
	.st41{fill:#AAAAAA;}
	.st42{opacity:0.8;fill:#2C1C0F;}
	.st43{fill:#FAF3EB;}
	.st44{fill:none;stroke:#282F39;stroke-width:4.7595;stroke-linecap:round;stroke-linejoin:round;stroke-miterlimit:10;}
	.st45{fill:#DD786B;}
	.st46{fill:#83562D;}
	.st47{fill:#B37E4A;}
	.st48{fill:#3A2B20;}
	.st49{fill:#30231B;}
	.st50{fill:#634C3B;}
	.st51{fill:#CB915A;}
	.st52{fill:#544032;}
	.st53{fill:#2D2119;}
	.st54{fill:#231A14;}
	.st55{fill:#33322F;}
	.st56{fill:#777673;}
	.st57{fill:#353432;}
	.st58{fill:#E7E6DE;}
	.st59{fill:#F3757A;}
	.st60{fill:#BF4750;}
	.st61{fill:#D6565F;}
	.st62{fill:#FFAEB4;}
	.st63{fill:#E58893;}
	.st64{fill:#A3313A;}
	.st65{fill:#F2F1E7;}
	.st66{fill:#F9B7B2;}
	.st67{fill:#E59291;}
	.st68{fill:#CC7171;}
	.st69{clip-path:url(#SVGID_8_);fill:#383734;}
	.st70{fill:#FCBC7E;}
	.st71{fill:#B74E2E;}
	.st72{fill:#A53F28;}
	.st73{clip-path:url(#SVGID_10_);fill:#E58341;}
	.st74{clip-path:url(#SVGID_10_);}
	.st75{fill:#CC652B;}
	.st76{fill:#EAA465;}
	.st77{fill:#4B2D23;}
	.st78{fill:#3A211B;}
	.st79{fill:#D68847;}
	.st80{fill:#E58341;}
	.st81{fill:#AF5223;}
	.st82{fill:#E2705C;}
	.st83{fill:#F8F8F8;}
	.st84{fill:#FFBE51;}
	.st85{fill:#4A1F09;}
	.st86{fill:#DFDCDA;}
	.st87{fill:#623420;}
	.st88{fill:#AB8458;}
	.st89{fill:#E1965F;}
	.st90{fill:#CD8554;}
	.st91{fill:#957350;}
	.st92{fill:#A8A6A2;}
	.st93{fill:#E9E9E7;}
	.st94{fill:#636260;}
	.st95{fill:#BCBBB8;}
	.st96{fill:#1C1B1A;}
	.st97{fill:#32302E;}
	.st98{fill:#D2D2CC;}
	.st99{fill:#A19E9C;}
	.st100{fill:#5A5452;}
	.st101{fill:#8A8786;}
</style>
<g>
	<path class="st32" d="M54.1,54.5v12.3h2.1c0,0-2.7,13.8-1,18.3C56.8,89.6,41.9,50.3,54.1,54.5z"/>
	<path class="st32" d="M145.9,54.5v12.3h-2.1c0,0,2.7,13.8,1,18.3C143.2,89.6,158.1,50.3,145.9,54.5z"/>
	<g>
		<path class="st32" d="M163.6,103.7c0,0-0.5,1.4-1.4,3.6C163.1,105.1,163.6,103.7,163.6,103.7z"/>
		<path class="st32" d="M173.2,94c-4.3-10.8-19.2-8.5-19.2-8.5c2.7-12.6,3.5-29,3.5-29l-2.7,5.1C155,43,150,39,150,39
			c-8.9,6.4-20.4,20.1-20.4,20.1v-7.7c-2.7,2.9-4.5,6.1-5.7,8.7c-7-3.6-14.9-5.7-23.4-5.7c-8.8,0-17.1,2.3-24.4,6.2
			c-1.2-2.8-3-6.2-5.9-9.3v7.7c0,0-11.4-13.7-20.4-20.1c0,0-5,4-4.8,22.6l-2.7-5.1c0,0,0.9,16.4,3.5,29l0,0c0,0-15-2.3-19.2,8.5
			c0,0,4.3-3.2,8.1,0c0,0-5.2,8.9-3.3,16.3c0,0,0.7-5.8,4.9-6.5c0,0,5.4,0,13.6,3.7c10.1,4.5,24.4,14.6,38.5,37.1
			c0.5,0.8,1,1.7,1.5,2.5l16.8,1c0,0,1.4-1.9,3.8-4.9c7-8.6,22.8-26.4,40.5-35.1c4.1-2,8.2-3.5,12.4-4.3c4.2,0.8,4.9,6.5,4.9,6.5
			c1.9-7.4-3.3-16.3-3.3-16.3C168.9,90.8,173.2,94,173.2,94z"/>
	</g>
	<path class="st21" d="M148.3,107.4c-9.9,4.4-23.8,14.2-37.7,35.8c-1.4,1.7-2.4,3.1-3,3.9l-8.4,0.5l-8.4-0.5
		c-0.6-0.8-1.7-2.2-3.1-3.9c-13.8-21.6-27.8-31.3-37.7-35.8c-8.2-3.7-13.6-3.7-13.6-3.7c1.5,9.7,8.5,16.9,8.5,16.9l0,0l1.4-6.2
		c1.5,0.8,3.2,1.9,5.2,3.2c9.7,6.6,24.5,18.8,34.9,27.7c-0.1,0.1,7.9,7.1,11.2,10.4c0,0,0.1,0.1,0.1,0.1l0.9,0l0,0
		c0,0,0.1,0.1,0.1,0.1l0.5,0l0.5,0c0,0,0,0,0.1-0.1h0l0.9,0c0,0,0.1-0.1,0.1-0.1c3.3-3.3,11.2-10.3,11.2-10.4
		c10.4-8.9,25.2-21.2,34.9-27.7c2-1.3,3.7-2.4,5.2-3.2l1.4,6.2l0,0c0,0,6.9-7.1,8.5-16.9C161.9,103.7,156.5,103.7,148.3,107.4z"/>
	<g>
		<path class="st33" d="M106.2,149.8c4-6.1,0.6-11.2-7.6-11.2s-11.3,5-7.2,11.2C95.6,156,102.2,156,106.2,149.8z"/>
	</g>
	<g>
		<path class="st33" d="M73.2,103.7c0,1.6-1.3,2.8-2.8,2.8c-1.6,0-2.8-1.3-2.8-2.8c0-1.6,1.3-2.8,2.8-2.8
			C71.9,100.9,73.2,102.2,73.2,103.7z"/>
		<path class="st33" d="M133.7,103.7c0,1.6-1.3,2.8-2.8,2.8c-1.6,0-2.8-1.3-2.8-2.8c0-1.6,1.3-2.8,2.8-2.8
			C132.5,100.9,133.7,102.2,133.7,103.7z"/>
	</g>
	<g>
		<g>
			<path class="st45" d="M58,63.8c1.5-1.6,0.5-5.1-2.2-7.6s-4.5-0.5-3.9,4.7S56.5,65.4,58,63.8z"/>
		</g>
	</g>
	<g>
		<g>
			<path class="st45" d="M144,67.6c1.7,1.6,3.5-1.4,4.1-6.6c0.6-5.2-1.5-7.1-4.7-4.1C140.2,59.8,142.3,65.9,144,67.6z"/>
		</g>
	</g>
</g>
</svg>
