<?xml version="1.0" encoding="utf-8"?>
<!-- Generator: Adobe Illustrator 24.0.0, SVG Export Plug-In . SVG Version: 6.00 Build 0)  -->
<svg version="1.1" id="Layer_1" xmlns="http://www.w3.org/2000/svg" xmlns:xlink="http://www.w3.org/1999/xlink" x="0px" y="0px"
	 viewBox="0 0 200 200" style="enable-background:new 0 0 200 200;" xml:space="preserve">
<style type="text/css">
	.st0{fill:#F2F1E8;}
	.st1{fill:#A8A9A2;}
	.st2{fill:#32302D;}
	.st3{clip-path:url(#SVGID_2_);fill:#32302D;}
	.st4{fill:#161514;}
	.st5{fill:#232220;}
	.st6{fill:#884637;}
	.st7{fill:#FBBB8C;}
	.st8{fill:#FFE8D6;}
	.st9{fill:#8E6F5E;}
	.st10{fill:#7A5B4C;}
	.st11{fill:#5E3F33;}
	.st12{fill:#A88E7D;}
	.st13{fill:#F9DBB2;}
	.st14{fill:#E09E48;}
	.st15{fill:#9B5E1B;}
	.st16{fill:#C18033;}
	.st17{clip-path:url(#SVGID_4_);fill:#FEC368;}
	.st18{clip-path:url(#SVGID_4_);fill:#DD8340;}
	.st19{clip-path:url(#SVGID_4_);fill:#161514;}
	.st20{clip-path:url(#SVGID_4_);fill:#FFE8D6;}
	.st21{fill:#FFFFFF;}
	.st22{fill:#D6854D;}
	.st23{fill:#B46133;}
	.st24{fill:#EC9B5E;}
	.st25{fill:#88524C;}
	.st26{clip-path:url(#SVGID_6_);fill:#B46133;}
	.st27{fill:#EACAB5;}
	.st28{fill:#D3AF9B;}
	.st29{fill:#4D4C48;}
	.st30{fill:#D2D2CA;}
	.st31{fill:#514142;}
	.st32{fill:#C6604D;}
	.st33{fill:#2C1C0F;}
	.st34{fill:#5F4C4E;}
	.st35{fill:none;stroke:#2C1C0F;stroke-width:5.9134;stroke-linecap:round;stroke-linejoin:round;stroke-miterlimit:10;}
	.st36{fill:#BCBEC0;}
	.st37{fill:#636466;}
	.st38{fill:#D1D3D4;}
	.st39{fill:#EBEBEC;}
	.st40{fill:#A7A9AC;}
	.st41{fill:#AAAAAA;}
	.st42{opacity:0.8;fill:#2C1C0F;}
	.st43{fill:#FAF3EB;}
	.st44{fill:none;stroke:#282F39;stroke-width:4.7595;stroke-linecap:round;stroke-linejoin:round;stroke-miterlimit:10;}
	.st45{fill:#DD786B;}
	.st46{fill:#83562D;}
	.st47{fill:#B37E4A;}
	.st48{fill:#3A2B20;}
	.st49{fill:#30231B;}
	.st50{fill:#634C3B;}
	.st51{fill:#CB915A;}
	.st52{fill:#544032;}
	.st53{fill:#2D2119;}
	.st54{fill:#231A14;}
	.st55{fill:#33322F;}
	.st56{fill:#777673;}
	.st57{fill:#353432;}
	.st58{fill:#E7E6DE;}
	.st59{fill:#F3757A;}
	.st60{fill:#BF4750;}
	.st61{fill:#D6565F;}
	.st62{fill:#FFAEB4;}
	.st63{fill:#E58893;}
	.st64{fill:#A3313A;}
	.st65{fill:#F2F1E7;}
	.st66{fill:#F9B7B2;}
	.st67{fill:#E59291;}
	.st68{fill:#CC7171;}
	.st69{clip-path:url(#SVGID_8_);fill:#383734;}
	.st70{fill:#FCBC7E;}
	.st71{fill:#B74E2E;}
	.st72{fill:#A53F28;}
	.st73{clip-path:url(#SVGID_10_);fill:#E58341;}
	.st74{clip-path:url(#SVGID_10_);}
	.st75{fill:#CC652B;}
	.st76{fill:#EAA465;}
	.st77{fill:#4B2D23;}
	.st78{fill:#3A211B;}
	.st79{fill:#D68847;}
	.st80{fill:#E58341;}
	.st81{fill:#AF5223;}
	.st82{fill:#E2705C;}
	.st83{fill:#F8F8F8;}
	.st84{fill:#FFBE51;}
	.st85{fill:#4A1F09;}
	.st86{fill:#DFDCDA;}
	.st87{fill:#623420;}
	.st88{fill:#AB8458;}
	.st89{fill:#E1965F;}
	.st90{fill:#CD8554;}
	.st91{fill:#957350;}
	.st92{fill:#A8A6A2;}
	.st93{fill:#E9E9E7;}
	.st94{fill:#636260;}
	.st95{fill:#BCBBB8;}
	.st96{fill:#1C1B1A;}
	.st97{fill:#32302E;}
	.st98{fill:#D2D2CC;}
	.st99{fill:#A19E9C;}
	.st100{fill:#5A5452;}
	.st101{fill:#8A8786;}
</style>
<g>
	<g>
		<path class="st22" d="M138.6,43.7c7.6-2.1,16-1.2,23-4.7c-1.7,7.7-5.9,14.9-11.8,20.1c-5.9,5.2-13.5,8.6-21.4,9.3
			c-2.1,0.2-4.4,0.2-6.4-0.5c-11.2-4.1,3.9-17.9,9-21C133.4,45.5,135.9,44.4,138.6,43.7z"/>
		<path class="st23" d="M137.1,50.1c4.7-2,10-2.6,15.1-3.1c-3.5,8.3-11.8,14.3-20.8,15.1c-1.3,0.1-3.6,0.2-4.5-1
			c-1-1.3,0.6-3.3,1.5-4.4C130.6,53.7,133.8,51.5,137.1,50.1z"/>
	</g>
	<g>
		<path class="st22" d="M66.4,43.7c-7.6-2.1-16-1.2-23-4.7c1.7,7.7,5.9,14.9,11.8,20.1c5.9,5.2,13.5,8.6,21.4,9.3
			c2.1,0.2,4.4,0.2,6.4-0.5C94.1,63.8,79,50,74,47C71.6,45.5,69.1,44.4,66.4,43.7z"/>
		<path class="st23" d="M67.9,50.1c-4.7-2-10-2.6-15.1-3.1c3.5,8.3,11.8,14.3,20.8,15.1c1.3,0.1,3.6,0.2,4.5-1
			c1-1.3-0.6-3.3-1.5-4.4C74.4,53.7,71.2,51.5,67.9,50.1z"/>
	</g>
	<path class="st24" d="M81.6,64.4c-0.4,0.7-0.8,1.5-1.2,2.2c-3.7,6.7-5.8,13.5-7.2,21c-2.7,14.3-3.9,28.8-5.1,43.3
		c-0.4,5.4-0.8,11,1.3,15.9c2,4.6,6.1,8,10.6,10.1c4.5,2.2,9.4,3.2,14.3,4.1c5.6,1,11.3,1.9,17,1.4c5.7-0.5,11.4-2.5,15.4-6.6
		c5.6-5.6,7-14.1,7.4-22c0.8-16.4-1.7-32.8-4.2-49.1c-1.2-7.4-2.4-14.9-6.3-21.2c-2.7-4.4-5.2-7.1-4.9-12.6c0.1-3,0.8-6,1-9
		c0.2-2.7-0.2-5.7-1.8-7.9c-1.6-2.2-4.8-3.5-7.2-2.3c-2.1,1.1-3.1,3.7-3.2,6.1s0.4,4.8,0.2,7.2c-0.1,2.3-0.9,4.7-2.6,6.3
		c-1.7,1.6-4.5,2-6.4,0.7c-2.9-2.1-2.1-6.4-1.9-9.9c0.2-2.8-0.3-5.9-2-8.1c-1.8-2.2-5.1-3.4-7.6-2.1c-2.3,1.2-3.3,4.1-3.2,6.7
		c0.1,2.6,0.9,5.1,1.4,7.7C86.5,52.9,84.6,58.6,81.6,64.4z"/>
	<path class="st25" d="M81.6,30.4c-0.2-1.5-0.2-3.4,1.1-4.2c1.5-0.8,3.1,0.5,4.3,1.7c-0.6-1.3,1.1-2.7,2.5-2.4
		c1.4,0.3,2.3,1.7,2.8,3c-0.6-0.9,0.1-2.3,1.2-2.6c1.1-0.3,2.2,0.3,2.9,1.2c0.7,0.9,1,2,1.2,3c0.5,2.7,0.7,5.4,0.8,8.1
		c0.1,1,0.1,2.2-0.6,3c-0.7,0.8-1.8,1.1-2.9,1.2c-2.7,0.3-8.2,0.8-10.2-1.3C82.7,39,82.1,33.1,81.6,30.4z"/>
	<path class="st25" d="M106.3,29c0-1.5,0.3-3.4,1.8-3.9c1.6-0.5,3,1,4,2.3c-0.4-1.4,1.5-2.5,2.8-1.9c1.3,0.5,2,2,2.3,3.4
		c-0.4-1,0.5-2.2,1.6-2.3c1.1-0.1,2.1,0.6,2.7,1.6c0.5,1,0.6,2.1,0.7,3.2c0.1,2.7-0.2,5.4-0.5,8.1c-0.1,1-0.3,2.2-1,2.9
		c-0.8,0.7-2,0.8-3.1,0.7c-2.7-0.2-8.2-0.6-9.9-3C106,37.7,106.3,31.8,106.3,29z"/>
	<path class="st23" d="M83.8,77.7c0.4,1.3,1.5,2.3,2.6,3.2c2.1,1.7,4.7,3.2,7.4,2.9c2.3-0.3,4.3-1.9,5.3-4c1-2.1,1.1-4.5,0.6-6.8
		c-0.8-3.9-3.9-7.2-7.9-5C88.7,69.7,82.4,73.2,83.8,77.7z"/>
	<path class="st23" d="M102.7,67.1c0.9,2,2.6,3.6,4.6,4.5c1.3,0.6,2.9,1,4.2,0.3c1.2-0.6,1.8-2,2.2-3.3c0.9-3.8-0.2-10-5-10.6
		C103.7,57.4,100.9,63,102.7,67.1z"/>
	<path class="st23" d="M108.3,77.7c-1.6,0-3.3,0.7-4.1,2.1c-0.6,1-0.6,2.2-0.6,3.3c0,1.2,0,2.5,0.6,3.6c0.9,1.5,2.9,2,4.7,2.2
		c2,0.3,4,0.4,5.9-0.3c1.8-0.7,3.4-2.4,3.4-4.4c0-1.3-0.7-2.5-1.7-3.4C114.4,78.9,111,77.7,108.3,77.7z"/>
	<path class="st23" d="M93.2,62.6c0.9,0.5,1.8,1,2.8,1.2c1,0.2,2.2,0,2.9-0.7c1.9-1.8,0.5-6-2.3-5.6C94.8,57.9,90.4,61.1,93.2,62.6z
		"/>
	<path class="st23" d="M92.9,88.7c0,0.9,0.6,1.8,1.4,2.3c0.8,0.5,1.7,0.9,2.5,1.2c1.1,0.4,2.4,0.7,3.3,0c1.6-1.2,1.2-5.1-0.7-5.9
		C97.4,85.4,94.2,87.5,92.9,88.7z"/>
	<g>
		<defs>
			<path id="SVGID_5_" d="M81.6,64.4c-0.4,0.7-0.8,1.5-1.2,2.2c-3.7,6.7-5.8,13.5-7.2,21c-2.7,14.3-3.9,28.8-5.1,43.3
				c-0.4,5.4-0.8,11,1.3,15.9c2,4.6,6.1,8,10.6,10.1c4.5,2.2,9.4,3.2,14.3,4.1c5.6,1,11.3,1.9,17,1.4c5.7-0.5,11.4-2.5,15.4-6.6
				c5.6-5.6,7-14.1,7.4-22c0.8-16.4-1.7-32.8-4.2-49.1c-1.2-7.4-2.4-14.9-6.3-21.2c-2.7-4.4-5.2-7.1-4.9-12.6c0.1-3,0.8-6,1-9
				c0.2-2.7-0.2-5.7-1.8-7.9c-1.6-2.2-4.8-3.5-7.2-2.3c-2.1,1.1-3.1,3.7-3.2,6.1s0.4,4.8,0.2,7.2c-0.1,2.3-0.9,4.7-2.6,6.3
				c-1.7,1.6-4.5,2-6.4,0.7c-2.9-2.1-2.1-6.4-1.9-9.9c0.2-2.8-0.3-5.9-2-8.1c-1.8-2.2-5.1-3.4-7.6-2.1c-2.3,1.2-3.3,4.1-3.2,6.7
				c0.1,2.6,0.9,5.1,1.4,7.7C86.5,52.9,84.6,58.6,81.6,64.4z"/>
		</defs>
		<clipPath id="SVGID_2_">
			<use xlink:href="#SVGID_5_"  style="overflow:visible;"/>
		</clipPath>
		<path style="clip-path:url(#SVGID_2_);fill:#B46133;" d="M75.2,111.9c0.9,0,1.8,0.1,2.5,0.7c1.2,1,1,2.9,1.1,4.5
			c0.1,2.2,1,4.4,0.5,6.5c-0.7,3-3.8,4.7-6.7,5.5c-2,0.6-4.3,0.8-6.2-0.1c-2.5-1.2-3.8-4.1-3.5-6.8c0.2-2.3,1.6-5.9,3.2-7.8
			C68,112.2,72.4,111.8,75.2,111.9z"/>
		<path style="clip-path:url(#SVGID_2_);fill:#B46133;" d="M74.1,86.5c0.8-0.7,1.8-1.5,2.8-1c0.8,0.4,1,1.3,1.2,2.1
			c0.5,2.4,1.1,4.8,1,7.2c0,2.4-0.7,5-2.3,6.8c-3.3,3.9-9.7,2.8-10.6-2.7c-0.4-2.2,1.3-4.4,2.5-6.1C70.3,90.6,72.1,88.5,74.1,86.5z"
			/>
		<path style="clip-path:url(#SVGID_2_);fill:#B46133;" d="M127.4,84.8c-1.7,1-3,2.9-2.7,4.8c0.2,1.3,1.1,2.3,1.5,3.5
			c0.9,3-1.5,6.4-0.3,9.4c0.7,1.7,2.7,2.8,4.6,2.7c1.9-0.1,3.6-1.2,4.7-2.7c1.1-1.5,1.7-3.3,2-5.2c0.5-3.5-0.2-7.2-1.8-10.4
			c-0.6-1.1-1.5-3-2.7-3.4C131.3,83,128.6,84.1,127.4,84.8z"/>
		<path style="clip-path:url(#SVGID_2_);fill:#B46133;" d="M125.3,114.6c-2.4,2.2-3.9,5.5-3.1,8.6c0.6,2.4,2.6,4.2,4.8,5.4
			c2.9,1.5,6.7,1.7,9.1-0.5c1.6-1.4,2.3-3.6,2.6-5.7c0.6-3.6,0.2-9.2-3.5-11.2C132.1,109.4,127.4,112.6,125.3,114.6z"/>
	</g>
	<path class="st4" d="M80.2,99.3c-0.4,1.1-0.6,2.3-0.1,3.3c0.5,1,1.8,1.8,2.8,1.3c0.8-0.4,1.2-1.3,1.4-2.2c0.2-0.9,0.3-1.8,0.8-2.5
		c0.5-0.8,1.5-1.2,2.5-1.1c0.9,0.1,1.8,0.8,2.1,1.7c0.4,1.2,0,2.6,0.8,3.5c0.8,0.8,2.3,0.5,3-0.3c0.7-0.9,0.9-2.1,0.8-3.2
		c-0.2-3.5-2.7-7.3-6.7-6.9C84.5,93.2,81.2,96.6,80.2,99.3z"/>
	<path class="st4" d="M107,99.3c-0.4,1.1-0.6,2.3-0.1,3.3c0.5,1,1.8,1.8,2.8,1.3c0.8-0.4,1.2-1.3,1.4-2.2c0.2-0.9,0.3-1.8,0.8-2.5
		c0.5-0.8,1.5-1.2,2.5-1.1c0.9,0.1,1.8,0.8,2.1,1.7c0.4,1.2,0,2.6,0.8,3.5c0.8,0.8,2.3,0.5,3-0.3c0.7-0.9,0.9-2.1,0.8-3.2
		c-0.2-3.5-2.7-7.3-6.7-6.9C111.3,93.2,108.1,96.6,107,99.3z"/>
	<path class="st8" d="M83,132.9c-3.9,1.2-7.8,2.8-11.1,5.3c-3.3,2.5-5.9,6-6.9,9.9c-1.8,7.3,2.3,15,8.3,19.4c6,4.4,13.7,6,21.1,6.8
		c8.7,0.9,17.6,0.8,25.8-2.2c8.2-3,15.5-9.2,18.2-17.5c1-2.9,1.3-6.2,0.4-9.1c-1.2-4.1-4.6-7.2-8.3-9.1c-6.2-3.1-14.2-4.3-21-5.3
		C100.7,129.7,91.6,130.4,83,132.9z"/>
	<g>
		<path class="st27" d="M90.3,161.7c-7-2.7-10.1-11.6-7.8-18.7c-1.4-0.1-2.7,0.1-3.8,0.9c-2.7,1.9-3.7,6.7-3.4,9.8
			c0.3,3.5,2.1,6.8,4.8,9c2.1,1.6,5,2.6,7.5,1.8c1.3-0.4,2.4-1.3,3.2-2.4C90.7,161.9,90.5,161.8,90.3,161.7z"/>
		<path class="st28" d="M90.3,161.7c0.2,0.1,0.3,0.2,0.5,0.3c0.4-0.6,0.8-1.2,1.1-1.8c0.8-1.9,0.9-4.1,0.6-6.1
			c-0.4-3.4-1.9-6.8-4.6-9c-1.4-1.1-3.4-2-5.5-2.1C80.2,150.1,83.3,159.1,90.3,161.7z"/>
	</g>
	<g>
		<path class="st27" d="M112.8,161.7c7-2.7,10.1-11.6,7.8-18.7c1.4-0.1,2.7,0.1,3.8,0.9c2.7,1.9,3.7,6.7,3.4,9.8
			c-0.3,3.5-2.1,6.8-4.8,9c-2.1,1.6-5,2.6-7.5,1.8c-1.3-0.4-2.4-1.3-3.2-2.4C112.5,161.9,112.6,161.8,112.8,161.7z"/>
		<path class="st28" d="M112.8,161.7c-0.2,0.1-0.3,0.2-0.5,0.3c-0.4-0.6-0.8-1.2-1.1-1.8c-0.8-1.9-0.9-4.1-0.6-6.1
			c0.4-3.4,1.9-6.8,4.6-9c1.4-1.1,3.4-2,5.5-2.1C122.9,150.1,119.8,159.1,112.8,161.7z"/>
	</g>
	<path class="st23" d="M95.5,112.8c0.6,1,1.6,1.6,2.6,1.9c1.3,0.4,2.7,0.4,3.9,0c1.2-0.5,2.3-1.5,2.7-2.7c0.9-2.9-1.8-7-5-6.5
		C97,106,93.9,110.1,95.5,112.8z"/>
	<path class="st23" d="M107.6,118.4c-0.3,1.1-0.5,2.3-0.1,3.3c0.5,1.1,1.8,1.7,3,1.6c1.2,0,2.3-0.7,3.2-1.5c1.6-1.5,2.5-3.9,2.2-6.1
		c-0.2-2.1-1.6-5.3-4.2-4.3C109.5,112.4,108.2,116.3,107.6,118.4z"/>
	<path class="st23" d="M86.6,122.8c1.9,2.9,11.8,6.8,12.1,0.9c0.2-4.4-6-9.7-10.2-8.2C85.5,116.7,85,120.4,86.6,122.8z"/>
</g>
</svg>
