<?xml version="1.0" encoding="utf-8"?>
<!-- Generator: Adobe Illustrator 24.0.0, SVG Export Plug-In . SVG Version: 6.00 Build 0)  -->
<svg version="1.1" id="Layer_1" xmlns="http://www.w3.org/2000/svg" xmlns:xlink="http://www.w3.org/1999/xlink" x="0px" y="0px"
	 viewBox="0 0 200 200" style="enable-background:new 0 0 200 200;" xml:space="preserve">
<style type="text/css">
	.st0{fill:#F2F1E8;}
	.st1{fill:#A8A9A2;}
	.st2{fill:#32302D;}
	.st3{clip-path:url(#SVGID_2_);fill:#32302D;}
	.st4{fill:#161514;}
	.st5{fill:#232220;}
	.st6{fill:#884637;}
	.st7{fill:#FBBB8C;}
	.st8{fill:#FFE8D6;}
	.st9{fill:#8E6F5E;}
	.st10{fill:#7A5B4C;}
	.st11{fill:#5E3F33;}
	.st12{fill:#A88E7D;}
	.st13{fill:#F9DBB2;}
	.st14{fill:#E09E48;}
	.st15{fill:#9B5E1B;}
	.st16{fill:#C18033;}
	.st17{clip-path:url(#SVGID_4_);fill:#FEC368;}
	.st18{clip-path:url(#SVGID_4_);fill:#DD8340;}
	.st19{clip-path:url(#SVGID_4_);fill:#161514;}
	.st20{clip-path:url(#SVGID_4_);fill:#FFE8D6;}
	.st21{fill:#FFFFFF;}
	.st22{fill:#D6854D;}
	.st23{fill:#B46133;}
	.st24{fill:#EC9B5E;}
	.st25{fill:#88524C;}
	.st26{clip-path:url(#SVGID_6_);fill:#B46133;}
	.st27{fill:#EACAB5;}
	.st28{fill:#D3AF9B;}
	.st29{fill:#4D4C48;}
	.st30{fill:#D2D2CA;}
	.st31{fill:#514142;}
	.st32{fill:#C6604D;}
	.st33{fill:#2C1C0F;}
	.st34{fill:#5F4C4E;}
	.st35{fill:none;stroke:#2C1C0F;stroke-width:5.9134;stroke-linecap:round;stroke-linejoin:round;stroke-miterlimit:10;}
	.st36{fill:#BCBEC0;}
	.st37{fill:#636466;}
	.st38{fill:#D1D3D4;}
	.st39{fill:#EBEBEC;}
	.st40{fill:#A7A9AC;}
	.st41{fill:#AAAAAA;}
	.st42{opacity:0.8;fill:#2C1C0F;}
	.st43{fill:#FAF3EB;}
	.st44{fill:none;stroke:#282F39;stroke-width:4.7595;stroke-linecap:round;stroke-linejoin:round;stroke-miterlimit:10;}
	.st45{fill:#DD786B;}
	.st46{fill:#83562D;}
	.st47{fill:#B37E4A;}
	.st48{fill:#3A2B20;}
	.st49{fill:#30231B;}
	.st50{fill:#634C3B;}
	.st51{fill:#CB915A;}
	.st52{fill:#544032;}
	.st53{fill:#2D2119;}
	.st54{fill:#231A14;}
	.st55{fill:#33322F;}
	.st56{fill:#777673;}
	.st57{fill:#353432;}
	.st58{fill:#E7E6DE;}
	.st59{fill:#F3757A;}
	.st60{fill:#BF4750;}
	.st61{fill:#D6565F;}
	.st62{fill:#FFAEB4;}
	.st63{fill:#E58893;}
	.st64{fill:#A3313A;}
	.st65{fill:#F2F1E7;}
	.st66{fill:#F9B7B2;}
	.st67{fill:#E59291;}
	.st68{fill:#CC7171;}
	.st69{clip-path:url(#SVGID_8_);fill:#383734;}
	.st70{fill:#FCBC7E;}
	.st71{fill:#B74E2E;}
	.st72{fill:#A53F28;}
	.st73{clip-path:url(#SVGID_10_);fill:#E58341;}
	.st74{clip-path:url(#SVGID_10_);}
	.st75{fill:#CC652B;}
	.st76{fill:#EAA465;}
	.st77{fill:#4B2D23;}
	.st78{fill:#3A211B;}
	.st79{fill:#D68847;}
	.st80{fill:#E58341;}
	.st81{fill:#AF5223;}
	.st82{fill:#E2705C;}
	.st83{fill:#F8F8F8;}
	.st84{fill:#FFBE51;}
	.st85{fill:#4A1F09;}
	.st86{fill:#DFDCDA;}
	.st87{fill:#623420;}
	.st88{fill:#AB8458;}
	.st89{fill:#E1965F;}
	.st90{fill:#CD8554;}
	.st91{fill:#957350;}
	.st92{fill:#A8A6A2;}
	.st93{fill:#E9E9E7;}
	.st94{fill:#636260;}
	.st95{fill:#BCBBB8;}
	.st96{fill:#1C1B1A;}
	.st97{fill:#32302E;}
	.st98{fill:#D2D2CC;}
	.st99{fill:#A19E9C;}
	.st100{fill:#5A5452;}
	.st101{fill:#8A8786;}
</style>
<g>
	<path class="st87" d="M146.4,128.7c-0.9-0.3-1.3-2.5-2.8-0.9c-0.5,0.6-0.1,2.6-0.2,3.4c-0.3,2-0.9,3.8-2,5.6c-1,1.7-4.8,7-7.1,6.3
		c-2.3-0.6-1-6.3-0.9-8.7c0.9-17.8,5.3-35.2-0.5-52.7c-1.1-3.4-3.2-5.3-0.7-8c1.1-1.2,3.2-2.8,4.8-2.1c2.6,1.1,3.2,9.1,3.8,11.7
		c1,4.2,2.1,8.4,4.1,12.3c0.9,1.7,4.8,5.8,4.7,7.4c-0.1,2.2-2.4,1.6-2.3,4.3c0.2,2.8,2.6,6.1,2.9,9.2
		C150.9,120.7,148.3,129.4,146.4,128.7z"/>
	<path class="st88" d="M148.4,28.6c-1.9-2.6-3.5-2.3-4.3,0.8c-0.9,3.5-14.8,16.1-18.5,20.9c-0.5,0.6-1.1,0.5-1.7,0.5
		c-0.6-0.8-1.2-1.5-1.9-2.3c-8.5-9.4-34.8-12.6-44.8,3.1c-1.3-0.5-6.1-4-11-8.5c-4.8-4.5-9.6-9.9-11-14.1c-0.6-1.8-2-1.6-3.2-0.2
		c-2.3,2.6-2.9,5.8-3.1,9.1c-1,14.6,5.5,25.4,17.3,33.4c1,0.7,2.1,1.1,1.5,2.5c-2.5,6.2-3,12.8-3.6,19.3
		c-0.9,10.9-1.6,21.9,1.2,32.7c0.2,0.6,0.3,1.3,0.5,1.9c-0.2,1.2-0.4,2.9-0.4,4.9c0,2.6,0,9,3.1,15.6c12.9,0,44.3-2.6,58.7-27.7
		c5.8-10.1,8.8-23.8,6.8-42.5c-1.4-4.1,5-9.8,6.5-11.2c6.2-6,10.3-13.2,11.1-22C152.2,39.2,151.9,33.5,148.4,28.6z"/>
	<path class="st87" d="M147.5,42.3c-0.4,6.4-2.5,12.5-6.8,17.4c-1.9,2.2-4.4,5.2-7.7,4.8c-3-0.3-4.9-3.1-4.9-6c0-6.1,6-13.5,9.6-18
		c0.9-1.1,4.8-6.8,6.5-6.4C146.7,34.5,147.1,40.5,147.5,42.3z"/>
	<path class="st89" d="M127.3,120.6c-14.4,25.2-45.8,27.8-58.7,27.7c-3.6,0-5.7-0.2-5.7-0.2c-1.6-7.1-1.5-15.8,1.8-21.2
		c0.2-0.4,0.5-0.7,0.7-1.1c4.4-6.3,11.5-8.2,19-8.1c11.3,0,22.7,0.8,33.9,1.8C121.2,119.7,124.3,119.9,127.3,120.6z"/>
	<path class="st90" d="M139.6,131.1c-0.6-2.7-1.8-4.7-3.4-6.3c-2.3-2.3-5.5-3.5-8.9-4.2c-14.4,25.2-45.8,27.8-58.7,27.7
		c-3.6,0-5.7-0.2-5.7-0.2l2.2,6.7c8.3,18,31,21.8,48.6,17.6C133.7,167.7,144.3,151.4,139.6,131.1z"/>
	<path class="st91" d="M136.2,124.8c-2.3-2.3-5.5-3.5-8.9-4.2c5.8-10.1,8.8-23.8,6.8-42.5c1.9,5.5,3.3,11.2,3.5,17
		C138,105,138.2,115,136.2,124.8z"/>
	<path class="st87" d="M110.6,26c11.3,4.1,19,23.4,8.9,43.1l-9.3-9L99.7,73.5l-2.3-12.4l-7,10.2c-9-6.3-13.5-16.8-11.2-26.5
		C82.5,30.2,100,22.1,110.6,26z"/>
	<path class="st87" d="M52.2,43.9c-0.4-1.9,0.7-7.7,2.5-8.1c1.7-0.3,6.1,5.4,7,6.4c4,4.4,10.3,11.8,10,18.2
		c-0.1,2.6-1.4,4.5-3.9,5.1c-3.4,0.9-5.8-1.6-8-3.8C55.2,56.8,52.3,50.8,52.2,43.9z"/>
	<path class="st89" d="M65.1,154.8c-0.9-1.9-1.6-4.2-2.2-6.7L65.1,154.8z"/>
	<g>
		<ellipse class="st85" cx="76.2" cy="90.7" rx="6.2" ry="8.3"/>
		<path class="st86" d="M76.1,85c0.1,0.1,0.2,0.4,0.4,0.8c0.7,2-0.3,4-1.9,4.7c-0.3,0.1-0.8,0.3-1.3,0.1c-1.9-0.7-2.2-5.9-0.5-6.8
			C73.7,83.3,75.4,83.9,76.1,85z"/>
	</g>
	<g>
		<ellipse class="st85" cx="126.7" cy="90.9" rx="6.2" ry="8.3"/>
		<path class="st86" d="M126.6,85.3c0.1,0.1,0.2,0.4,0.4,0.8c0.7,2-0.3,4-1.9,4.7c-0.3,0.1-0.8,0.3-1.3,0.1
			c-1.9-0.7-2.2-5.9-0.5-6.8C124.1,83.6,125.8,84.2,126.6,85.3z"/>
	</g>
	<g>
		<path class="st87" d="M86.9,135.8c1.8,0.4,3.2,1.1,3.1,3.1c0,1.8-0.6,3.3-2.7,3.4c-2.2,0.1-3.2-1.1-3.3-3.3
			C84,136.9,85.3,136.2,86.9,135.8z"/>
		<path class="st87" d="M112.9,135.8c1.8,0.4,3.2,1.1,3.1,3.1c0,1.8-0.6,3.3-2.7,3.4c-2.2,0.1-3.2-1.1-3.3-3.3
			C109.9,136.9,111.3,136.2,112.9,135.8z"/>
	</g>
</g>
</svg>
