<?xml version="1.0" encoding="utf-8"?>
<!-- Generator: Adobe Illustrator 24.0.0, SVG Export Plug-In . SVG Version: 6.00 Build 0)  -->
<svg version="1.1" id="Layer_1" xmlns="http://www.w3.org/2000/svg" xmlns:xlink="http://www.w3.org/1999/xlink" x="0px" y="0px"
	 viewBox="0 0 200 200" style="enable-background:new 0 0 200 200;" xml:space="preserve">
<style type="text/css">
	.st0{fill:#F2F1E8;}
	.st1{fill:#A8A9A2;}
	.st2{fill:#32302D;}
	.st3{clip-path:url(#SVGID_2_);fill:#32302D;}
	.st4{fill:#161514;}
	.st5{fill:#232220;}
	.st6{fill:#884637;}
	.st7{fill:#FBBB8C;}
	.st8{fill:#FFE8D6;}
	.st9{fill:#8E6F5E;}
	.st10{fill:#7A5B4C;}
	.st11{fill:#5E3F33;}
	.st12{fill:#A88E7D;}
	.st13{fill:#F9DBB2;}
	.st14{fill:#E09E48;}
	.st15{fill:#9B5E1B;}
	.st16{fill:#C18033;}
	.st17{clip-path:url(#SVGID_4_);fill:#FEC368;}
	.st18{clip-path:url(#SVGID_4_);fill:#DD8340;}
	.st19{clip-path:url(#SVGID_4_);fill:#161514;}
	.st20{clip-path:url(#SVGID_4_);fill:#FFE8D6;}
	.st21{fill:#FFFFFF;}
	.st22{fill:#D6854D;}
	.st23{fill:#B46133;}
	.st24{fill:#EC9B5E;}
	.st25{fill:#88524C;}
	.st26{clip-path:url(#SVGID_6_);fill:#B46133;}
	.st27{fill:#EACAB5;}
	.st28{fill:#D3AF9B;}
	.st29{fill:#4D4C48;}
	.st30{fill:#D2D2CA;}
	.st31{fill:#514142;}
	.st32{fill:#C6604D;}
	.st33{fill:#2C1C0F;}
	.st34{fill:#5F4C4E;}
	.st35{fill:none;stroke:#2C1C0F;stroke-width:5.9134;stroke-linecap:round;stroke-linejoin:round;stroke-miterlimit:10;}
	.st36{fill:#BCBEC0;}
	.st37{fill:#636466;}
	.st38{fill:#D1D3D4;}
	.st39{fill:#EBEBEC;}
	.st40{fill:#A7A9AC;}
	.st41{fill:#AAAAAA;}
	.st42{opacity:0.8;fill:#2C1C0F;}
	.st43{fill:#FAF3EB;}
	.st44{fill:none;stroke:#282F39;stroke-width:4.7595;stroke-linecap:round;stroke-linejoin:round;stroke-miterlimit:10;}
	.st45{fill:#DD786B;}
	.st46{fill:#83562D;}
	.st47{fill:#B37E4A;}
	.st48{fill:#3A2B20;}
	.st49{fill:#30231B;}
	.st50{fill:#634C3B;}
	.st51{fill:#CB915A;}
	.st52{fill:#544032;}
	.st53{fill:#2D2119;}
	.st54{fill:#231A14;}
	.st55{fill:#33322F;}
	.st56{fill:#777673;}
	.st57{fill:#353432;}
	.st58{fill:#E7E6DE;}
	.st59{fill:#F3757A;}
	.st60{fill:#BF4750;}
	.st61{fill:#D6565F;}
	.st62{fill:#FFAEB4;}
	.st63{fill:#E58893;}
	.st64{fill:#A3313A;}
	.st65{fill:#F2F1E7;}
	.st66{fill:#F9B7B2;}
	.st67{fill:#E59291;}
	.st68{fill:#CC7171;}
	.st69{clip-path:url(#SVGID_8_);fill:#383734;}
	.st70{fill:#FCBC7E;}
	.st71{fill:#B74E2E;}
	.st72{fill:#A53F28;}
	.st73{clip-path:url(#SVGID_10_);fill:#E58341;}
	.st74{clip-path:url(#SVGID_10_);}
	.st75{fill:#CC652B;}
	.st76{fill:#EAA465;}
	.st77{fill:#4B2D23;}
	.st78{fill:#3A211B;}
	.st79{fill:#D68847;}
	.st80{fill:#E58341;}
	.st81{fill:#AF5223;}
	.st82{fill:#E2705C;}
	.st83{fill:#F8F8F8;}
	.st84{fill:#FFBE51;}
	.st85{fill:#4A1F09;}
	.st86{fill:#DFDCDA;}
	.st87{fill:#623420;}
	.st88{fill:#AB8458;}
	.st89{fill:#E1965F;}
	.st90{fill:#CD8554;}
	.st91{fill:#957350;}
	.st92{fill:#A8A6A2;}
	.st93{fill:#E9E9E7;}
	.st94{fill:#636260;}
	.st95{fill:#BCBBB8;}
	.st96{fill:#1C1B1A;}
	.st97{fill:#32302E;}
	.st98{fill:#D2D2CC;}
	.st99{fill:#A19E9C;}
	.st100{fill:#5A5452;}
	.st101{fill:#8A8786;}
</style>
<g>
	<g>
		<g>
			<path class="st29" d="M72.6,46.8c-5.7-6.1-13.8-9.7-22.1-10c-3-0.1-6.1,0.3-8.7,1.6c-2.7,1.4-4.9,3.9-5.3,6.8
				c-0.1,0.6-0.1,1.3-0.6,1.7c-0.4,0.3-0.9,0.4-1.4,0.5c-2.1,0.4-4.2,1-5.7,2.6c-2.2,2.4-1.9,6.7,0.7,8.7c-2.5,0.1-4.1,3.2-3.4,5.7
				c0.7,2.4,3,4.1,5.5,4.8c-2.9,2.1-3.5,6.9-1,9.6c2,2.2,5.2,2.8,8.2,3.1c-1.3,0.3-1.9,2-1.5,3.3s1.6,2.2,2.8,2.9
				c2.5,1.4,5.5,2.3,8.2,1.4c3.8-1.2,5.9-5.1,8.2-8.4c3-4.4,7-8,11.5-10.7c3.7-2.2,9.6-4.6,10.4-9.3C79.4,56.1,76,50.4,72.6,46.8z"
				/>
			<path class="st55" d="M65.9,55.2c-2.4-3.2-5.8-5.8-9.6-6.9c-1.7-0.5-3.7-0.6-5.2,0.4c-1.5,1-1.8,3.6-0.3,4.6
				c-1.7-0.6-3.7,0-4.7,1.5c-1,1.5-0.9,3.6,0.3,5c-2.2,0.2-4.1,2.3-4.1,4.5c0,2.2,1.9,4.2,4.1,4.4c-2,0.6-3,3.1-2.4,5.1
				c0.6,2,2.4,3.4,4.4,4.1c-1.6,0.8-1.2,3.5,0.3,4.4c1.5,1,3.5,0.8,5.2,0.4c5.9-1.4,11.2-5.1,14.7-10c1.7-2.4,3.4-4.7,2.4-7.6
				C69.8,61.5,68.1,58.1,65.9,55.2z"/>
		</g>
		<g>
			<path class="st29" d="M127.4,46.8c5.7-6.1,13.8-9.7,22.1-10c3-0.1,6.1,0.3,8.7,1.6c2.7,1.4,4.9,3.9,5.3,6.8
				c0.1,0.6,0.1,1.3,0.6,1.7c0.4,0.3,0.9,0.4,1.4,0.5c2.1,0.4,4.2,1,5.7,2.6c2.2,2.4,1.9,6.7-0.7,8.7c2.5,0.1,4.1,3.2,3.4,5.7
				c-0.7,2.4-3,4.1-5.5,4.8c2.9,2.1,3.5,6.9,1,9.6c-2,2.2-5.2,2.8-8.2,3.1c1.3,0.3,1.9,2,1.5,3.3c-0.5,1.3-1.6,2.2-2.8,2.9
				c-2.5,1.4-5.5,2.3-8.2,1.4c-3.8-1.2-5.9-5.1-8.2-8.4c-3-4.4-7-8-11.5-10.7c-3.7-2.2-9.6-4.6-10.4-9.3
				C120.6,56.1,124,50.4,127.4,46.8z"/>
			<path class="st55" d="M134.1,55.2c2.4-3.2,5.8-5.8,9.6-6.9c1.7-0.5,3.7-0.6,5.2,0.4c1.5,1,1.8,3.6,0.3,4.6c1.7-0.6,3.7,0,4.7,1.5
				c1,1.5,0.9,3.6-0.3,5c2.2,0.2,4.1,2.3,4.1,4.5c0,2.2-1.9,4.2-4.1,4.4c2,0.6,3,3.1,2.4,5.1s-2.4,3.4-4.4,4.1
				c1.6,0.8,1.2,3.5-0.3,4.4c-1.5,1-3.5,0.8-5.2,0.4c-5.9-1.4-11.2-5.1-14.7-10c-1.7-2.4-3.4-4.7-2.4-7.6
				C130.2,61.5,131.9,58.1,134.1,55.2z"/>
		</g>
	</g>
	<path class="st56" d="M166.3,128.3c-0.2-3.6-3.6-6.7-7.2-6.5c3.2-16.9-1.7-35.1-13-48c-3.3-3.8-7.2-7.1-11.4-9.9
		c-7.4-4.8-15.8-8-24.6-9.1c-2.1-0.3-4.3-0.4-6.5-0.4c-1.1,0-1.9-0.1-2.6,0.1c-0.7-0.1-1.5-0.1-2.6-0.1c-2.2,0-4.3,0.2-6.5,0.4
		c-8.7,1.1-17.2,4.2-24.6,9.1c-4.2,2.8-8.1,6.1-11.4,9.9c-11.3,12.9-16.2,31.2-13,48c-3.6-0.2-7,2.9-7.2,6.5c-0.2,3.6,3,7,6.6,7.1
		c-3.1,2-3.2,7-0.6,9.6c2.6,2.6,7.1,2.7,10.3,0.9c-1.9,2.6-0.7,6.7,2,8.5c2.7,1.8,6.4,1.5,9.3,0c0.9,3.2,4,5.4,7.2,6
		c3.2,0.7,6.6,0,9.7-0.8c2.9,1.8,6.1,3.2,9.5,3.5c3.4,0.3,7-0.6,9.5-2.8c0.6-0.5,1.1-1.1,1.6-1.7c0.5,0.6,1,1.2,1.6,1.7
		c2.6,2.2,6.1,3.1,9.5,2.8c3.4-0.3,6.6-1.6,9.5-3.5c3.2,0.8,6.5,1.5,9.7,0.8c3.2-0.7,6.3-2.9,7.2-6c2.9,1.5,6.6,1.8,9.3,0
		c2.7-1.8,4-5.9,2-8.5c3.2,1.8,7.6,1.7,10.3-0.9c2.6-2.6,2.5-7.6-0.6-9.6C163.3,135.4,166.4,131.9,166.3,128.3z"/>
	<path class="st57" d="M88.3,102.5c-3.1,4.4-4.4,9.7-5.1,15c-0.5,4.1-0.7,8.4,0.4,12.4c1,4,3.4,7.8,6.9,10c4,2.4,8.9,2.5,13.5,1.8
		c3.5-0.6,7-1.7,9.4-4.2c2.4-2.6,3.2-6.2,3.6-9.7c0.6-5,0.6-10,0-15c-0.9-7.4-4.2-15.7-11.9-18.3C99.1,92.5,91.5,97.9,88.3,102.5z"
		/>
	<path class="st29" d="M83.4,81c1.2-0.2,2.6-0.4,3.4-1.4c1.3-1.6,0.1-4.1-1.6-5.3c-0.9-0.6-1.9-1.1-3-0.9c-1.1,0.2-2,1.1-1.9,2.1
		c-0.9-1.5-2.3-2.7-3.9-3.4c-0.7-0.3-1.5-0.5-2.2-0.3c-0.8,0.3-1.2,1.1-1.3,1.9c-0.1,0.8,0.1,1.6,0.3,2.4c-1.9-0.6-4.1-0.5-5.6,0.8
		c-1.5,1.3-1.9,3.8-0.4,5.2c-2.6,0-4.8,2.6-4.3,5.2c0.4,1.8,2.4,3.6,4.3,3.4c1.8-0.2,2.6-2.3,3.8-3.6C74.4,83.7,78.9,81.8,83.4,81z"
		/>
	<path class="st29" d="M118.7,81c-1.2-0.2-2.6-0.4-3.4-1.4c-1.3-1.6-0.1-4.1,1.6-5.3c0.9-0.6,1.9-1.1,3-0.9c1.1,0.2,2,1.1,1.9,2.1
		c0.9-1.5,2.3-2.7,3.9-3.4c0.7-0.3,1.5-0.5,2.2-0.3c0.8,0.3,1.2,1.1,1.3,1.9c0.1,0.8-0.1,1.6-0.3,2.4c1.9-0.6,4.1-0.5,5.6,0.8
		c1.5,1.3,1.9,3.8,0.4,5.2c2.6,0,4.8,2.6,4.3,5.2c-0.4,1.8-2.4,3.6-4.3,3.4c-1.8-0.2-2.6-2.3-3.8-3.6
		C127.7,83.7,123.2,81.8,118.7,81z"/>
	<path d="M70.7,104.4c-0.3,2.1,0.9,4.4,2.8,5.2s4.5,0.1,5.6-1.7c0.4-0.7,0.6-1.6,0.7-2.4C80.5,99,71.7,98.2,70.7,104.4z"/>
	<path d="M122.4,103.5c-0.3,2.1,0.9,4.4,2.8,5.2c1.9,0.8,4.5,0.1,5.6-1.7c0.4-0.7,0.6-1.6,0.7-2.4
		C132.2,98.1,123.4,97.3,122.4,103.5z"/>
	<path class="st29" d="M97.5,153.4c1.9,1,4.1,1.3,6.2,0.7c2.6-0.7,4.9-3.2,4.7-5.9c-0.1-0.6-0.3-1.2-0.8-1.5
		c-0.5-0.3-1.3-0.2-1.8,0.2c-0.5,0.4-0.9,0.9-1.2,1.4c-0.8,1.1-1.8,2.1-3.1,2.6s-2.9,0.2-3.8-0.8c-0.4-0.5-0.6-1.2-0.9-1.8
		c-0.9-1.8-2.6-1.8-2.9,0.2C93.6,150.5,96.1,152.6,97.5,153.4z"/>
</g>
</svg>
