<?xml version="1.0" encoding="utf-8"?>
<!-- Generator: Adobe Illustrator 24.0.0, SVG Export Plug-In . SVG Version: 6.00 Build 0)  -->
<svg version="1.1" id="Layer_1" xmlns="http://www.w3.org/2000/svg" xmlns:xlink="http://www.w3.org/1999/xlink" x="0px" y="0px"
	 viewBox="0 0 200 200" style="enable-background:new 0 0 200 200;" xml:space="preserve">
<style type="text/css">
	.st0{fill:#F2F1E8;}
	.st1{fill:#A8A9A2;}
	.st2{fill:#32302D;}
	.st3{clip-path:url(#SVGID_2_);fill:#32302D;}
	.st4{fill:#161514;}
	.st5{fill:#232220;}
	.st6{fill:#884637;}
	.st7{fill:#FBBB8C;}
	.st8{fill:#FFE8D6;}
	.st9{fill:#8E6F5E;}
	.st10{fill:#7A5B4C;}
	.st11{fill:#5E3F33;}
	.st12{fill:#A88E7D;}
	.st13{fill:#F9DBB2;}
	.st14{fill:#E09E48;}
	.st15{fill:#9B5E1B;}
	.st16{fill:#C18033;}
	.st17{clip-path:url(#SVGID_4_);fill:#FEC368;}
	.st18{clip-path:url(#SVGID_4_);fill:#DD8340;}
	.st19{clip-path:url(#SVGID_4_);fill:#161514;}
	.st20{clip-path:url(#SVGID_4_);fill:#FFE8D6;}
	.st21{fill:#FFFFFF;}
	.st22{fill:#D6854D;}
	.st23{fill:#B46133;}
	.st24{fill:#EC9B5E;}
	.st25{fill:#88524C;}
	.st26{clip-path:url(#SVGID_6_);fill:#B46133;}
	.st27{fill:#EACAB5;}
	.st28{fill:#D3AF9B;}
	.st29{fill:#4D4C48;}
	.st30{fill:#D2D2CA;}
	.st31{fill:#514142;}
	.st32{fill:#C6604D;}
	.st33{fill:#2C1C0F;}
	.st34{fill:#5F4C4E;}
	.st35{fill:none;stroke:#2C1C0F;stroke-width:5.9134;stroke-linecap:round;stroke-linejoin:round;stroke-miterlimit:10;}
	.st36{fill:#BCBEC0;}
	.st37{fill:#636466;}
	.st38{fill:#D1D3D4;}
	.st39{fill:#EBEBEC;}
	.st40{fill:#A7A9AC;}
	.st41{fill:#AAAAAA;}
	.st42{opacity:0.8;fill:#2C1C0F;}
	.st43{fill:#FAF3EB;}
	.st44{fill:none;stroke:#282F39;stroke-width:4.7595;stroke-linecap:round;stroke-linejoin:round;stroke-miterlimit:10;}
	.st45{fill:#DD786B;}
	.st46{fill:#83562D;}
	.st47{fill:#B37E4A;}
	.st48{fill:#3A2B20;}
	.st49{fill:#30231B;}
	.st50{fill:#634C3B;}
	.st51{fill:#CB915A;}
	.st52{fill:#544032;}
	.st53{fill:#2D2119;}
	.st54{fill:#231A14;}
	.st55{fill:#33322F;}
	.st56{fill:#777673;}
	.st57{fill:#353432;}
	.st58{fill:#E7E6DE;}
	.st59{fill:#F3757A;}
	.st60{fill:#BF4750;}
	.st61{fill:#D6565F;}
	.st62{fill:#FFAEB4;}
	.st63{fill:#E58893;}
	.st64{fill:#A3313A;}
	.st65{fill:#F2F1E7;}
	.st66{fill:#F9B7B2;}
	.st67{fill:#E59291;}
	.st68{fill:#CC7171;}
	.st69{clip-path:url(#SVGID_8_);fill:#383734;}
	.st70{fill:#FCBC7E;}
	.st71{fill:#B74E2E;}
	.st72{fill:#A53F28;}
	.st73{clip-path:url(#SVGID_10_);fill:#E58341;}
	.st74{clip-path:url(#SVGID_10_);}
	.st75{fill:#CC652B;}
	.st76{fill:#EAA465;}
	.st77{fill:#4B2D23;}
	.st78{fill:#3A211B;}
	.st79{fill:#D68847;}
	.st80{fill:#E58341;}
	.st81{fill:#AF5223;}
	.st82{fill:#E2705C;}
	.st83{fill:#F8F8F8;}
	.st84{fill:#FFBE51;}
	.st85{fill:#4A1F09;}
	.st86{fill:#DFDCDA;}
	.st87{fill:#623420;}
	.st88{fill:#AB8458;}
	.st89{fill:#E1965F;}
	.st90{fill:#CD8554;}
	.st91{fill:#957350;}
	.st92{fill:#A8A6A2;}
	.st93{fill:#E9E9E7;}
	.st94{fill:#636260;}
	.st95{fill:#BCBBB8;}
	.st96{fill:#1C1B1A;}
	.st97{fill:#32302E;}
	.st98{fill:#D2D2CC;}
	.st99{fill:#A19E9C;}
	.st100{fill:#5A5452;}
	.st101{fill:#8A8786;}
</style>
<g>
	<path class="st71" d="M163.7,96.2c6.9-3.1,10.9-11.5,9.1-18.8c-1.8-7.3-9.3-12.8-16.9-12.3c3.2-3.3,4.5-8.3,3.7-12.8
		c-0.9-4.5-3.8-8.6-7.5-11.2c-4.2-3-10.4-4.1-14.5-0.9c-0.8-2.9-3.2-5.3-6.1-6.1c-2.9-0.8-6.2,0-8.4,2.1c0.4-5.2-4.1-9.8-9.2-10.9
		c-3.8-0.8-10.3-0.3-13.8,2.3c-3.6-2.7-10-3.2-13.8-2.3c-5.1,1.1-9.6,5.7-9.2,10.9c-2.2-2.1-5.5-2.9-8.4-2.1
		c-2.9,0.8-5.3,3.2-6.1,6.1c-4.1-3.2-10.2-2.1-14.5,0.9c-3.8,2.6-6.7,6.7-7.5,11.2c-0.9,4.5,0.4,9.5,3.7,12.8
		c-7.5-0.5-15,5-16.9,12.3c-1.8,7.3,2.2,15.7,9.1,18.8c-4.5,2.2-8.6,7.8-7.3,13c0.7,2.9,3,5.3,5.9,6.2c-2.5,2.5-4,6.2-2.9,9.5
		c1.4,4.4,6.5,6.2,11,7.5c-3.9,4.5-4.2,11.8-0.7,16.6c3.5,4.8,10.5,6.8,16,4.6c-1.7,4.5,0.7,10.1,5.1,12c3.4,1.5,7.3,0.8,10.7-0.4
		c-0.2,4.8,4.6,8.4,9.2,9.4c5.8,1.3,12.1-0.2,16.7-3.9c4.6,3.7,10.9,5.1,16.7,3.9c4.7-1,9.4-4.6,9.2-9.4c3.4,1.3,7.4,1.9,10.7,0.4
		c4.4-1.9,6.8-7.5,5.1-12c5.5,2.3,12.5,0.3,16-4.6c3.5-4.8,3.2-12.1-0.7-16.6c4.4-1.3,9.5-3.1,11-7.5c1.1-3.3-0.5-7-2.9-9.5
		c2.8-0.9,5.1-3.3,5.9-6.2C172.2,104,168.2,98.4,163.7,96.2z M99.9,70.8c0-0.2,0.1-0.4,0.1-0.7c0,0.2,0.1,0.4,0.1,0.7
		c1,5.3,0.8,10.8-0.1,16.1C99.1,81.6,98.8,76.1,99.9,70.8z"/>
	<path class="st72" d="M159.7,91c0.3-4-3.4-8.3-7.5-7.5c2.6-2.1,3.9-5.6,3.3-8.9s-3.1-6.1-6.3-7.1c2.5-4.9,1.4-11.3-2.4-15.3
		c-3.9-4-10.3-5.2-15.5-3.1c-0.7-2.7-1.8-5.5-4.1-7.2c-2.3-1.6-6.1-1.5-7.6,0.8c-1.6-3.6-5.1-6.2-9-6.9c-3.2-0.5-6.6,0.3-9.3,2.1
		c-2.6-1.8-6-2.7-9.3-2.1c-3.9,0.7-7.4,3.3-9,6.9c-1.6-2.4-5.3-2.4-7.6-0.8c-2.3,1.6-3.5,4.4-4.1,7.2C66,47,59.6,48.2,55.7,52.2
		c-3.9,4-4.9,10.4-2.4,15.3c-3.2,1-5.7,3.9-6.3,7.1c-0.6,3.2,0.7,6.8,3.3,8.9c-4-0.8-7.8,3.4-7.5,7.5c0.3,4,3.5,7.4,7.1,9.4
		c-3.5,0-6.7,3.3-6.5,6.8c0.2,3.5,3.7,6.4,7.2,6c-2.1,2.4-4.2,5.4-3.5,8.5c0.8,3.4,4.9,5.2,8.5,5c-1,2.5-2.1,5-2.2,7.6
		c-0.1,2.7,0.9,5.5,3.2,6.9c2.6,1.6,6,1,9,0.2c-0.7,3.6,0.5,7.7,3.5,9.9c3,2.2,7.8,2,10.2-0.9c0.3,3.2,2.3,6.2,5.2,7.9
		c2.8,1.6,6.5,1.8,9.5,0.5c3.6-1.6,5.9-4.9,7.5-8.5c1.5,3.7,3.9,7,7.5,8.5c3,1.3,6.7,1.1,9.5-0.5c2.8-1.6,4.8-4.6,5.2-7.9
		c2.4,2.9,7.1,3.1,10.2,0.9c3-2.2,4.2-6.3,3.5-9.9c3,0.7,6.4,1.4,9-0.2c2.3-1.4,3.3-4.3,3.2-6.9c-0.1-2.7-1.2-5.2-2.2-7.6
		c3.6,0.2,7.7-1.5,8.5-5c0.7-3.1-1.5-6-3.5-8.5c3.5,0.4,7-2.6,7.2-6c0.2-3.5-3-6.8-6.5-6.8C156.2,98.3,159.4,95,159.7,91z"/>
	<g>
		<g>
			<defs>
				<path id="SVGID_9_" d="M129.1,52.9c-5.4-4-11.5-6.3-18.1-7.5c-12.1-2.1-23.6,0-33.7,7.5C63,63.4,55.6,79.6,58,97.3
					c1,7,3.3,13.8,6.5,20.1c3.1,6,6.5,9.9,12,13.9c7.6,5.5,17.2,7.6,26.4,7.4c9.2-0.2,19.4-1.9,26.9-7.4c5.4-4,8.9-7.9,12-13.9
					c3.2-6.3,5.5-13.1,6.5-20.1C150.7,79.6,143.3,63.4,129.1,52.9z"/>
			</defs>
			<clipPath id="SVGID_2_">
				<use xlink:href="#SVGID_9_"  style="overflow:visible;"/>
			</clipPath>
			<path style="clip-path:url(#SVGID_2_);fill:#E58341;" d="M129.1,52.9c-5.4-4-11.5-6.3-18.1-7.5c-12.1-2.1-23.6,0-33.7,7.5
				C63,63.4,55.6,79.6,58,97.3c1,7,3.3,13.8,6.5,20.1c3.1,6,6.5,9.9,12,13.9c7.6,5.5,17.2,7.6,26.4,7.4c9.2-0.2,19.4-1.9,26.9-7.4
				c5.4-4,8.9-7.9,12-13.9c3.2-6.3,5.5-13.1,6.5-20.1C150.7,79.6,143.3,63.4,129.1,52.9z"/>
			<g style="clip-path:url(#SVGID_2_);">
				<path class="st75" d="M64.7,71.5c1.2-0.1,2.4-0.1,3.5,0.4c1.1,0.5,1.9,1.7,1.6,2.9c-0.2,0.5-0.5,0.9-0.9,1.3
					c-2.9,3-6.7,5.1-10.8,6.1c-1.3,0.3-2.7,0.5-3.9,0c-0.3-0.1-0.6-0.3-0.8-0.5c-1.2-1.7-0.2-7,1.3-8.5C56.9,70.9,62,71.7,64.7,71.5
					z"/>
				<path class="st75" d="M65.6,84.9c1.2-0.4,2.6-0.7,3.7,0c0.3,0.2,0.5,0.4,0.6,0.8c0,0.2-0.1,0.5-0.2,0.7
					c-2.6,4.7-5.3,9.5-8.9,13.6c-0.5,0.6-1.1,1.2-1.8,1.6c-5.5,2.9-6.7-5.6-5.4-9C55.2,88.3,61.6,86.1,65.6,84.9z"/>
				<path class="st75" d="M66,104.6c0.6-0.1,1.5-0.1,1.7,0.5c0.1,0.2,0.1,0.4,0.1,0.6c-0.2,4.4-1.6,8.8-3.9,12.7
					c-0.4,0.7-0.9,1.4-1.6,1.6c-0.9,0.3-1.9-0.2-2.7-0.8c-2.7-2.1-4.1-6.6-2.5-9.8C58.6,106.6,63.2,105.1,66,104.6z"/>
			</g>
			<g style="clip-path:url(#SVGID_2_);">
				<path class="st75" d="M139,71.5c-1.2-0.1-2.4-0.1-3.5,0.4c-1.1,0.5-1.9,1.7-1.6,2.9c0.2,0.5,0.5,0.9,0.9,1.3
					c2.9,3,6.7,5.1,10.8,6.1c1.3,0.3,2.7,0.5,3.9,0c0.3-0.1,0.6-0.3,0.8-0.5c1.2-1.7,0.2-7-1.3-8.5C146.9,70.9,141.8,71.7,139,71.5z
					"/>
				<path class="st75" d="M138.2,84.9c-1.2-0.4-2.6-0.7-3.7,0c-0.3,0.2-0.5,0.4-0.6,0.8c0,0.2,0.1,0.5,0.2,0.7
					c2.6,4.7,5.3,9.5,8.9,13.6c0.5,0.6,1.1,1.2,1.8,1.6c5.5,2.9,6.7-5.6,5.4-9C148.6,88.3,142.2,86.1,138.2,84.9z"/>
				<path class="st75" d="M137.8,104.6c-0.6-0.1-1.5-0.1-1.7,0.5c-0.1,0.2-0.1,0.4-0.1,0.6c0.2,4.4,1.6,8.8,3.9,12.7
					c0.4,0.7,0.9,1.4,1.6,1.6c0.9,0.3,1.9-0.2,2.7-0.8c2.7-2.1,4.1-6.6,2.5-9.8C145.2,106.6,140.6,105.1,137.8,104.6z"/>
			</g>
		</g>
		<path class="st76" d="M83.2,87.3c-5.3,3.7-9.6,9.1-10.6,15.5c-0.3,2.4-0.2,4.9,0.2,7.3c0.5,2.9,1.5,5.7,3.1,8.1
			c2.9,4.3,7.7,7,12.6,8.8c7.2,2.7,15.1,3.9,22.6,2.3c7.5-1.6,14.5-6.3,17.8-13.2c2.7-5.6,2.8-12.5,0.2-18.2
			c-1.1-2.4-2.7-4.6-4.4-6.7c-1.3-1.6-2.7-3.1-4.4-4.3c-2.4-1.8-5.3-2.8-8.1-3.8c-2.8-1-5.2-2-8.3-2.2c-2.9-0.2-5.7,0.1-8.5,0.8
			C91.2,82.9,86.9,84.7,83.2,87.3z"/>
		<path class="st75" d="M87.7,87.6c-0.4,0.8-0.8,1.6-0.7,2.5c0.1,1,0.9,1.7,1.8,2.2c0.9,0.4,1.9,0.5,2.8,0.6
			c3.8,0.4,7.7,0.5,11.5,0.4c1.9-0.1,3.7-0.2,5.6-0.5c1.6-0.2,3.1,0,4.7-0.2c1.1-0.1,2.2-0.4,2.9-1.2c0.3-0.3,0.6-0.8,0.6-1.3
			c0-0.3-0.1-0.6-0.2-0.9c-1.5-3.8-5.3-6.8-8.3-9.4c-1.1-1-2.3-2-3.7-2.6c-3.5-1.6-6.5,1.1-9.4,3C92.3,82.2,89.5,84.5,87.7,87.6z"/>
		<path class="st75" d="M122,112.4c-0.1-0.3-0.3-0.5-0.6-0.7c-0.4-0.2-0.9,0-1.2,0.3c-0.3,0.3-0.5,0.7-0.7,1.1c-1.3,2.2-4,3.1-6.5,3
			c-3.4-0.1-7-1.8-8.2-5c-0.6-1.5-0.6-3.2-0.7-4.9c0-1.9,0.2-4.1-0.1-6c-0.1-0.9-0.8-2.6-1.4-1.3c0,0.1-0.1,0.1-0.1,0.2
			c0-0.1,0-0.2-0.1-0.2c-0.6-1.3-1.3,0.4-1.4,1.3c-0.3,1.9,0,4-0.1,6c0,1.7,0,3.4-0.7,4.9c-1.3,3.1-4.8,4.9-8.2,5
			c-2.5,0-5.2-0.9-6.5-3c-0.2-0.4-0.4-0.8-0.7-1.1c-0.3-0.3-0.8-0.5-1.2-0.3c-0.3,0.1-0.4,0.4-0.6,0.7c-0.5,1.3,0.4,2.8,1.4,3.8
			c1.6,1.5,3.6,2.5,5.8,2.8c1.5,0.2,3.1,0,4.6-0.3c1.8-0.3,3.5-0.9,4.8-2.2c0.8-0.8,1.6-2.1,1.8-3.2c0.1-0.6,0.3-2.8,1.5-1.9
			c0.4,0.3,0.5,2,0.7,2.5c0.3,0.9,0.8,1.8,1.5,2.5c1.3,1.3,3.1,1.8,4.8,2.2c1.5,0.3,3.1,0.4,4.6,0.3c2.2-0.3,4.2-1.3,5.8-2.8
			C121.6,115.3,122.5,113.8,122,112.4z"/>
		<path class="st77" d="M109,94c1.1-0.4,2.1-0.8,3.2-0.6c0.8,0.2,1.7,0.2,2.3,0.6c0.3,0.2,0.5,0.4,0.7,0.7c0.3-0.3,0.5-0.6,0.8-0.8
			c1.6-1.8,1.6-4.2-1.1-4.6c-7.8-1.1-16.1-1-23.9,0c-1,0.1-2,0.3-2.8,0.8c-0.8,0.5-1.4,1.5-1.2,2.5c0.1,0.5,0.4,0.9,0.7,1.2
			c0.7,0.8,1.5,1.6,2.4,2.2c1.5-1.3,3.5-2,5.5-1.3c1.1,0.4,1.5,1.3,1.9,2.1c0.4,1.1,0.4,2.3-0.2,3.4c0,0-0.1,0.1-0.1,0.1
			c2.5,1.1,5.1,1.8,7.7,1.1c0.9-0.2,1.7-0.6,2.5-1C106.5,98.2,107,95.4,109,94z"/>
		<path class="st78" d="M115.2,94.7c-0.2-0.2-0.5-0.5-0.7-0.7c-0.6-0.4-1.5-0.4-2.3-0.6c-1.1-0.2-2.1,0.2-3.2,0.6
			c-2,1.4-2.5,4.3-1.4,6.3c0.4-0.2,0.8-0.5,1.2-0.7C111.1,98.2,113.4,96.6,115.2,94.7z"/>
		<path class="st78" d="M97.7,96.7c-0.4-0.8-0.8-1.7-1.9-2.1c-2-0.7-4.1,0-5.5,1.3c1.1,0.9,2.3,1.6,3.5,2.4c1.2,0.7,2.4,1.4,3.6,1.9
			c0,0,0.1-0.1,0.1-0.1C98.1,99,98.1,97.8,97.7,96.7z"/>
		<g>
			<g>
				<path class="st79" d="M92.6,101c0.7,0.1,1.4,0.6,1.3,1.6c-0.1,0.8-0.8,1.4-1.6,1.4c-0.8,0-1.4-0.7-1.5-1.5
					C90.7,101.4,91.7,100.9,92.6,101z"/>
				<path class="st79" d="M85.7,103.4c0.1,0.3,0.4,0.5,0.7,0.6c0.3,0.1,0.6,0.1,0.9,0c0.2-0.1,0.5-0.2,0.6-0.4
					c0.2-0.2,0.2-0.6,0-0.9C87.3,101.3,85.1,101.8,85.7,103.4z"/>
				<path class="st79" d="M81.9,102.3C81.9,102.3,81.8,102.3,81.9,102.3c-1.2,0.4-0.7,2.1,0.4,1.8C83.5,103.8,83.1,102,81.9,102.3z"
					/>
				<path class="st79" d="M78.2,103.1c-0.5,0.4-0.8,1.3,0.2,1.1c0.3,0,0.6-0.3,0.7-0.6c0-0.1,0-0.2,0-0.3
					C79,102.7,78.6,102.8,78.2,103.1z"/>
			</g>
			<path class="st79" d="M93,106.2c0.7,0.1,1.4,0.6,1.3,1.6c-0.1,0.8-0.8,1.4-1.6,1.4c-0.8,0-1.4-0.7-1.5-1.5
				C91.2,106.6,92.1,106.1,93,106.2z"/>
			<path class="st79" d="M86.1,108.6c0.1,0.3,0.4,0.5,0.7,0.6c0.3,0.1,0.6,0.1,0.9,0c0.2-0.1,0.5-0.2,0.6-0.4c0.2-0.2,0.2-0.6,0-0.9
				C87.7,106.4,85.5,107,86.1,108.6z"/>
			<path class="st79" d="M82.3,107.5C82.3,107.5,82.2,107.5,82.3,107.5c-1.2,0.4-0.7,2.1,0.4,1.8C83.9,109,83.5,107.1,82.3,107.5z"
				/>
			<path class="st79" d="M78.6,108.3c-0.5,0.4-0.8,1.3,0.2,1.1c0.3,0,0.6-0.3,0.7-0.7c0-0.1,0-0.2,0-0.3
				C79.4,107.9,79,108,78.6,108.3z"/>
		</g>
		<g>
			<g>
				<path class="st79" d="M112.3,101c-0.7,0.1-1.4,0.6-1.3,1.6c0.1,0.8,0.8,1.4,1.6,1.4c0.8,0,1.4-0.7,1.5-1.5
					C114.1,101.4,113.1,100.9,112.3,101z"/>
				<path class="st79" d="M119.2,103.4c-0.1,0.3-0.4,0.5-0.7,0.6c-0.3,0.1-0.6,0.1-0.9,0c-0.2-0.1-0.5-0.2-0.6-0.4
					c-0.2-0.2-0.2-0.6,0-0.9C117.5,101.3,119.8,101.8,119.2,103.4z"/>
				<path class="st79" d="M123,102.3C123,102.3,123,102.3,123,102.3c1.2,0.4,0.7,2.1-0.4,1.8C121.4,103.8,121.7,102,123,102.3z"/>
				<path class="st79" d="M126.6,103.1c0.5,0.4,0.8,1.3-0.2,1.1c-0.3,0-0.6-0.3-0.7-0.6c0-0.1,0-0.2,0-0.3
					C125.9,102.7,126.3,102.8,126.6,103.1z"/>
			</g>
			<path class="st79" d="M111.9,106.2c-0.7,0.1-1.4,0.6-1.3,1.6c0.1,0.8,0.8,1.4,1.6,1.4c0.8,0,1.4-0.7,1.5-1.5
				C113.7,106.6,112.7,106.1,111.9,106.2z"/>
			<path class="st79" d="M118.7,108.6c-0.1,0.3-0.4,0.5-0.7,0.6c-0.3,0.1-0.6,0.1-0.9,0c-0.2-0.1-0.5-0.2-0.6-0.4
				c-0.2-0.2-0.2-0.6,0-0.9C117.1,106.4,119.3,107,118.7,108.6z"/>
			<path class="st79" d="M122.5,107.5C122.6,107.5,122.6,107.5,122.5,107.5c1.2,0.4,0.7,2.1-0.4,1.8
				C120.9,109,121.3,107.1,122.5,107.5z"/>
			<path class="st79" d="M126.2,108.3c0.5,0.4,0.8,1.3-0.2,1.1c-0.3,0-0.6-0.3-0.7-0.7c0-0.1,0-0.2,0-0.3
				C125.4,107.9,125.9,108,126.2,108.3z"/>
		</g>
		<path d="M77.9,74.7c-0.4,0.7-0.8,1.4-0.9,2.2c-0.2,1.4,0.6,2.9,1.6,3.9c0.6,0.6,1.4,1,2.2,1.3c2,0.6,4.3-0.3,5.4-2
			c1.2-1.7,1.1-4.1-0.1-5.8C83.9,71.2,79.9,71.7,77.9,74.7z"/>
		<path d="M118.6,74.2c-0.4,0.7-0.8,1.4-0.9,2.2c-0.2,1.4,0.6,2.9,1.6,3.9c0.6,0.6,1.4,1,2.2,1.3c2,0.6,4.3-0.3,5.4-2
			c1.2-1.7,1.1-4.1-0.1-5.8C124.6,70.6,120.6,71.1,118.6,74.2z"/>
		<path class="st75" d="M73.6,66.4c-0.7-0.7-1.3-1.7-1.3-2.7c0-1.9,2.3-3.1,4.2-3c-0.6-0.8-0.1-2,0.8-2.4c0.9-0.4,2,0,2.7,0.6
			c-0.2-0.9,0.2-1.9,1-2.3c0.8-0.4,2,0.1,2.2,1c0.2-0.7,0.4-1.4,1-1.8c0.6-0.4,1.6,0,1.6,0.7c-0.2-0.9,0.7-1.7,1.6-1.7
			c0.9,0,1.7,0.6,2.2,1.3c1.1,1.5,1.1,3.7,0.4,5.5c-0.8,1.8-2.2,3.1-3.7,4.3C82.3,68.4,77.1,70.1,73.6,66.4z"/>
		<path class="st75" d="M131.6,66.4c0.7-0.7,1.3-1.7,1.3-2.7c0-1.9-2.3-3.1-4.2-3c0.6-0.8,0.1-2-0.8-2.4c-0.9-0.4-2,0-2.7,0.6
			c0.2-0.9-0.2-1.9-1-2.3c-0.8-0.4-2,0.1-2.2,1c-0.2-0.7-0.4-1.4-1-1.8c-0.6-0.4-1.6,0-1.6,0.7c0.2-0.9-0.7-1.7-1.6-1.7
			c-0.9,0-1.7,0.6-2.2,1.3c-1.1,1.5-1.1,3.7-0.4,5.5c0.8,1.8,2.2,3.1,3.7,4.3C122.9,68.4,128.1,70.1,131.6,66.4z"/>
	</g>
	<g>
		<path class="st80" d="M61.1,31.2c-2.4-0.4-4.9-0.3-7.1,0.6c-5.8,2.2-9.1,9-8.1,15.1c1,6.1,5.5,11.3,11,14.1
			c0.8,0.4,1.7,0.8,2.6,0.7c0.7,0,1.4-0.4,2-0.7c5-2.6,13.6-9.5,13.1-15.9C74.2,38.3,67.4,32.2,61.1,31.2z"/>
		<path class="st81" d="M58.6,55.1c-0.4-0.6-1.3-0.8-1.5-1.9c-0.4-2.3,2.3-4,4.2-2.7c-1.1-1.1-2.5-2.3-1.7-4
			c1.5-2.7,3.2-0.8,4.6-1.3c-1.7-2.3-4-5.3-2.3-8c0-0.1,0.1-0.1,0.1-0.1c-2.5-0.9-5.3-0.8-7.5,0.6c-2.1,1.3-3.3,3.7-3.6,6.1
			c-0.3,2.4,0.2,4.9,1.1,7.2c0.8,2,2.1,4.1,4.1,4.9C56.8,55.2,57.6,54.9,58.6,55.1z"/>
		<path class="st75" d="M62.8,37.4c-0.2-0.1-0.5-0.2-0.7-0.3c0,0-0.1,0.1-0.1,0.1c-1.7,2.7,0.6,5.7,2.3,8c-1.5,0.4-3.2-1.5-4.6,1.3
			c-0.8,1.7,0.6,2.9,1.7,4c-1.9-1.3-4.6,0.4-4.2,2.7c0.2,1.1,1.1,1.3,1.5,1.9c-1-0.2-1.8,0.1-2.5,0.8c0.2,0.1,0.3,0.1,0.5,0.1
			c1.8,0.4,3.6-0.2,5.2-1.1c3.1-1.8,7.2-5.4,7.6-9.3C69.8,42.2,65.5,38.6,62.8,37.4z"/>
	</g>
	<g>
		<path class="st80" d="M144.8,31.2c2.4-0.4,4.9-0.3,7.1,0.6c5.8,2.2,9.1,9,8.1,15.1c-1,6.1-5.5,11.3-11,14.1
			c-0.8,0.4-1.7,0.8-2.6,0.7c-0.7,0-1.4-0.4-2-0.7c-5-2.6-13.6-9.5-13.1-15.9C131.8,38.3,138.6,32.2,144.8,31.2z"/>
		<path class="st81" d="M147.4,55.1c0.4-0.6,1.3-0.8,1.5-1.9c0.4-2.3-2.3-4-4.2-2.7c1.1-1.1,2.5-2.3,1.7-4c-1.5-2.7-3.2-0.8-4.6-1.3
			c1.7-2.3,4-5.3,2.3-8c0-0.1-0.1-0.1-0.1-0.1c2.5-0.9,5.3-0.8,7.5,0.6c2.1,1.3,3.3,3.7,3.6,6.1c0.3,2.4-0.2,4.9-1.1,7.2
			c-0.8,2-2.1,4.1-4.1,4.9C149.2,55.2,148.3,54.9,147.4,55.1z"/>
		<path class="st75" d="M143.2,37.4c0.2-0.1,0.5-0.2,0.7-0.3c0,0,0.1,0.1,0.1,0.1c1.7,2.7-0.6,5.7-2.3,8c1.5,0.4,3.2-1.5,4.6,1.3
			c0.8,1.7-0.6,2.9-1.7,4c1.9-1.3,4.6,0.4,4.2,2.7c-0.2,1.1-1.1,1.3-1.5,1.9c1-0.2,1.8,0.1,2.5,0.8c-0.2,0.1-0.3,0.1-0.5,0.1
			c-1.8,0.4-3.6-0.2-5.2-1.1c-3.1-1.8-7.2-5.4-7.6-9.3C136.2,42.2,140.4,38.6,143.2,37.4z"/>
	</g>
</g>
</svg>
