<?xml version="1.0" encoding="utf-8"?>
<!-- Generator: Adobe Illustrator 24.0.0, SVG Export Plug-In . SVG Version: 6.00 Build 0)  -->
<svg version="1.1" id="Layer_1" xmlns="http://www.w3.org/2000/svg" xmlns:xlink="http://www.w3.org/1999/xlink" x="0px" y="0px"
	 viewBox="0 0 200 200" style="enable-background:new 0 0 200 200;" xml:space="preserve">
<style type="text/css">
	.st0{fill:#F2F1E8;}
	.st1{fill:#A8A9A2;}
	.st2{fill:#32302D;}
	.st3{clip-path:url(#SVGID_2_);fill:#32302D;}
	.st4{fill:#161514;}
	.st5{fill:#232220;}
	.st6{fill:#884637;}
	.st7{fill:#FBBB8C;}
	.st8{fill:#FFE8D6;}
	.st9{fill:#8E6F5E;}
	.st10{fill:#7A5B4C;}
	.st11{fill:#5E3F33;}
	.st12{fill:#A88E7D;}
	.st13{fill:#F9DBB2;}
	.st14{fill:#E09E48;}
	.st15{fill:#9B5E1B;}
	.st16{fill:#C18033;}
	.st17{clip-path:url(#SVGID_4_);fill:#FEC368;}
	.st18{clip-path:url(#SVGID_4_);fill:#DD8340;}
	.st19{clip-path:url(#SVGID_4_);fill:#161514;}
	.st20{clip-path:url(#SVGID_4_);fill:#FFE8D6;}
	.st21{fill:#FFFFFF;}
	.st22{fill:#D6854D;}
	.st23{fill:#B46133;}
	.st24{fill:#EC9B5E;}
	.st25{fill:#88524C;}
	.st26{clip-path:url(#SVGID_6_);fill:#B46133;}
	.st27{fill:#EACAB5;}
	.st28{fill:#D3AF9B;}
	.st29{fill:#4D4C48;}
	.st30{fill:#D2D2CA;}
	.st31{fill:#514142;}
	.st32{fill:#C6604D;}
	.st33{fill:#2C1C0F;}
	.st34{fill:#5F4C4E;}
	.st35{fill:none;stroke:#2C1C0F;stroke-width:5.9134;stroke-linecap:round;stroke-linejoin:round;stroke-miterlimit:10;}
	.st36{fill:#BCBEC0;}
	.st37{fill:#636466;}
	.st38{fill:#D1D3D4;}
	.st39{fill:#EBEBEC;}
	.st40{fill:#A7A9AC;}
	.st41{fill:#AAAAAA;}
	.st42{opacity:0.8;fill:#2C1C0F;}
	.st43{fill:#FAF3EB;}
	.st44{fill:none;stroke:#282F39;stroke-width:4.7595;stroke-linecap:round;stroke-linejoin:round;stroke-miterlimit:10;}
	.st45{fill:#DD786B;}
	.st46{fill:#83562D;}
	.st47{fill:#B37E4A;}
	.st48{fill:#3A2B20;}
	.st49{fill:#30231B;}
	.st50{fill:#634C3B;}
	.st51{fill:#CB915A;}
	.st52{fill:#544032;}
	.st53{fill:#2D2119;}
	.st54{fill:#231A14;}
	.st55{fill:#33322F;}
	.st56{fill:#777673;}
	.st57{fill:#353432;}
	.st58{fill:#E7E6DE;}
	.st59{fill:#F3757A;}
	.st60{fill:#BF4750;}
	.st61{fill:#D6565F;}
	.st62{fill:#FFAEB4;}
	.st63{fill:#E58893;}
	.st64{fill:#A3313A;}
	.st65{fill:#F2F1E7;}
	.st66{fill:#F9B7B2;}
	.st67{fill:#E59291;}
	.st68{fill:#CC7171;}
	.st69{clip-path:url(#SVGID_8_);fill:#383734;}
	.st70{fill:#FCBC7E;}
	.st71{fill:#B74E2E;}
	.st72{fill:#A53F28;}
	.st73{clip-path:url(#SVGID_10_);fill:#E58341;}
	.st74{clip-path:url(#SVGID_10_);}
	.st75{fill:#CC652B;}
	.st76{fill:#EAA465;}
	.st77{fill:#4B2D23;}
	.st78{fill:#3A211B;}
	.st79{fill:#D68847;}
	.st80{fill:#E58341;}
	.st81{fill:#AF5223;}
	.st82{fill:#E2705C;}
	.st83{fill:#F8F8F8;}
	.st84{fill:#FFBE51;}
	.st85{fill:#4A1F09;}
	.st86{fill:#DFDCDA;}
	.st87{fill:#623420;}
	.st88{fill:#AB8458;}
	.st89{fill:#E1965F;}
	.st90{fill:#CD8554;}
	.st91{fill:#957350;}
	.st92{fill:#A8A6A2;}
	.st93{fill:#E9E9E7;}
	.st94{fill:#636260;}
	.st95{fill:#BCBBB8;}
	.st96{fill:#1C1B1A;}
	.st97{fill:#32302E;}
	.st98{fill:#D2D2CC;}
	.st99{fill:#A19E9C;}
	.st100{fill:#5A5452;}
	.st101{fill:#8A8786;}
</style>
<g>
	<path class="st31" d="M168.5,114.2c-0.4-7.9-2.3-18.6-3.9-26.3c2.9-3.4-4.4-27.2-6-32.2l-0.2-1c0.2-0.2,0.9-0.6,2.9-1.9
		c2.8-1.8-4.5-13.8-5.8-15.9L153.7,25l-14.4,19.6c-10.5-4.7-23.8-6.6-38.3-6.8v0c-0.3,0-0.7,0-1,0c-0.3,0-0.7,0-1,0v0
		c-14.9,0.2-28.5,2.2-39.1,7.1L45.3,25l-1.7,10.4c0,0-9.1,14.2-6,16.3c3,2,3.1,2,3.1,2v0c0,0.1-11.2,34.7-5.1,33.5h0
		c-1.5,7.7-3.5,18.9-4,27c0,0-6,21.1-0.1,19c4.4-1.5,8.4-5.8,10.1-7.8l0.2,0.2c0.1-0.6,0.3-1,0.3-1.2c0.2-0.1,0.4-0.2,0.4-0.2
		s-0.1,0.5-0.4,1.4l0,0c-1.4,5-5.7,22.5,0.4,21.6c6.1,1.1,15-4.9,15-4.9s-3.1,13.6,0,13.8c0.7,0,1.6-0.3,2.6-0.8
		c3.4-1.8,7.8-6.1,7.8-6.1s-0.7,6,0.4,10c1.1,4.3,4.3,6.4,12.5-3.5c-0.2,1.2,0.2,15.8,6.8,12.6c3.1-1.5,5-3.4,6-4.6l1.5,0.9
		c0.6,2.9,1.9,7.6,4,9.5v0.8c0.3,0,0.7-0.1,1-0.2c0.3,0.1,0.6,0.2,1,0.2v-0.8c2.2-1.9,3.4-6.5,4-9.5l1.5-0.9c1,1.3,2.9,3.1,6,4.6
		c6.5,3.2,6.9-11.4,6.8-12.6c8.2,9.9,11.4,7.8,12.5,3.5c1.1-4,0.4-10,0.4-10s4.4,4.2,7.8,6.1c1,0.5,1.9,0.9,2.6,0.8
		c3.1-0.2,0-13.8,0-13.8s8.9,5.9,15,4.9c6.1,0.8,1.8-16.6,0.4-21.6l0,0c-0.2-0.9-0.4-1.4-0.4-1.4s0.4,0.2,1.2,0.4l-0.5,0.5
		c1.6,2,5.7,6.4,10.3,8C174.5,135.2,168.5,114.2,168.5,114.2z M41.6,125.1l-0.3-0.3c0.3-0.1,0.5-0.2,0.7-0.2
		C41.9,124.6,41.7,124.8,41.6,125.1z"/>
	<path class="st46" d="M128.3,62.4c-6.3,0-12.1,2-16.8,5.4c3.3-12.9-9,1.4-9,1.4s0.7-11.3-2.5-14.6c-3.2-3.3-3.6,19.7-3.6,19.7
		s-1.3-7.7-6.7-11.8c-2.7-2.1-3.8,0.8-4.3,4.3c-4.4-2.7-9.6-4.3-15.2-4.3c-16,0-29.1,13-29.1,29.1c0,16,13,29.1,29.1,29.1
		c16,0,29.1-13,29.1-29.1c0-1.8-0.2-3.6-0.5-5.3l0.9,0.7c-0.2,1.5-0.4,3-0.4,4.6c0,16,13,29.1,29.1,29.1c16,0,29.1-13,29.1-29.1
		C157.4,75.4,144.4,62.4,128.3,62.4z"/>
	<path class="st21" d="M93,91.4c0,12.6-10.2,22.8-22.8,22.8c-12.6,0-22.8-10.2-22.8-22.8c0-12.6,10.2-22.8,22.8-22.8
		C82.8,68.6,93,78.8,93,91.4z"/>
	<path class="st21" d="M151.1,91.4c0,12.6-10.2,22.8-22.8,22.8c-12.6,0-22.8-10.2-22.8-22.8c0-12.6,10.2-22.8,22.8-22.8
		C140.9,68.6,151.1,78.8,151.1,91.4z"/>
	<g>
		<path class="st33" d="M74.3,91.4c0,2.3-1.9,4.2-4.2,4.2c-2.3,0-4.2-1.9-4.2-4.2c0-2.3,1.9-4.2,4.2-4.2
			C72.4,87.2,74.3,89.1,74.3,91.4z"/>
		<path class="st33" d="M132.6,91.4c0,2.3-1.9,4.2-4.2,4.2c-2.3,0-4.2-1.9-4.2-4.2c0-2.3,1.9-4.2,4.2-4.2
			C130.7,87.2,132.6,89.1,132.6,91.4z"/>
	</g>
	<g>
		<path class="st47" d="M108.6,104.6c3.5-7.7-0.6-14-9-14H99c-8.5,0-12.4,6.3-8.8,13.9l2.8,5.8c3.7,7.6,9.5,7.6,13-0.1L108.6,104.6z
			"/>
	</g>
</g>
</svg>
