<?xml version="1.0" encoding="utf-8"?>
<!-- Generator: Adobe Illustrator 24.0.0, SVG Export Plug-In . SVG Version: 6.00 Build 0)  -->
<svg version="1.1" id="Layer_1" xmlns="http://www.w3.org/2000/svg" xmlns:xlink="http://www.w3.org/1999/xlink" x="0px" y="0px"
	 viewBox="0 0 200 200" style="enable-background:new 0 0 200 200;" xml:space="preserve">
<style type="text/css">
	.st0{fill:#F2F1E8;}
	.st1{fill:#A8A9A2;}
	.st2{fill:#32302D;}
	.st3{clip-path:url(#SVGID_2_);fill:#32302D;}
	.st4{fill:#161514;}
	.st5{fill:#232220;}
	.st6{fill:#884637;}
	.st7{fill:#FBBB8C;}
	.st8{fill:#FFE8D6;}
	.st9{fill:#8E6F5E;}
	.st10{fill:#7A5B4C;}
	.st11{fill:#5E3F33;}
	.st12{fill:#A88E7D;}
	.st13{fill:#F9DBB2;}
	.st14{fill:#E09E48;}
	.st15{fill:#9B5E1B;}
	.st16{fill:#C18033;}
	.st17{clip-path:url(#SVGID_4_);fill:#FEC368;}
	.st18{clip-path:url(#SVGID_4_);fill:#DD8340;}
	.st19{clip-path:url(#SVGID_4_);fill:#161514;}
	.st20{clip-path:url(#SVGID_4_);fill:#FFE8D6;}
	.st21{fill:#FFFFFF;}
	.st22{fill:#D6854D;}
	.st23{fill:#B46133;}
	.st24{fill:#EC9B5E;}
	.st25{fill:#88524C;}
	.st26{clip-path:url(#SVGID_6_);fill:#B46133;}
	.st27{fill:#EACAB5;}
	.st28{fill:#D3AF9B;}
	.st29{fill:#4D4C48;}
	.st30{fill:#D2D2CA;}
	.st31{fill:#514142;}
	.st32{fill:#C6604D;}
	.st33{fill:#2C1C0F;}
	.st34{fill:#5F4C4E;}
	.st35{fill:none;stroke:#2C1C0F;stroke-width:5.9134;stroke-linecap:round;stroke-linejoin:round;stroke-miterlimit:10;}
	.st36{fill:#BCBEC0;}
	.st37{fill:#636466;}
	.st38{fill:#D1D3D4;}
	.st39{fill:#EBEBEC;}
	.st40{fill:#A7A9AC;}
	.st41{fill:#AAAAAA;}
	.st42{opacity:0.8;fill:#2C1C0F;}
	.st43{fill:#FAF3EB;}
	.st44{fill:none;stroke:#282F39;stroke-width:4.7595;stroke-linecap:round;stroke-linejoin:round;stroke-miterlimit:10;}
	.st45{fill:#DD786B;}
	.st46{fill:#83562D;}
	.st47{fill:#B37E4A;}
	.st48{fill:#3A2B20;}
	.st49{fill:#30231B;}
	.st50{fill:#634C3B;}
	.st51{fill:#CB915A;}
	.st52{fill:#544032;}
	.st53{fill:#2D2119;}
	.st54{fill:#231A14;}
	.st55{fill:#33322F;}
	.st56{fill:#777673;}
	.st57{fill:#353432;}
	.st58{fill:#E7E6DE;}
	.st59{fill:#F3757A;}
	.st60{fill:#BF4750;}
	.st61{fill:#D6565F;}
	.st62{fill:#FFAEB4;}
	.st63{fill:#E58893;}
	.st64{fill:#A3313A;}
	.st65{fill:#F2F1E7;}
	.st66{fill:#F9B7B2;}
	.st67{fill:#E59291;}
	.st68{fill:#CC7171;}
	.st69{clip-path:url(#SVGID_8_);fill:#383734;}
	.st70{fill:#FCBC7E;}
	.st71{fill:#B74E2E;}
	.st72{fill:#A53F28;}
	.st73{clip-path:url(#SVGID_10_);fill:#E58341;}
	.st74{clip-path:url(#SVGID_10_);}
	.st75{fill:#CC652B;}
	.st76{fill:#EAA465;}
	.st77{fill:#4B2D23;}
	.st78{fill:#3A211B;}
	.st79{fill:#D68847;}
	.st80{fill:#E58341;}
	.st81{fill:#AF5223;}
	.st82{fill:#E2705C;}
	.st83{fill:#F8F8F8;}
	.st84{fill:#FFBE51;}
	.st85{fill:#4A1F09;}
	.st86{fill:#DFDCDA;}
	.st87{fill:#623420;}
	.st88{fill:#AB8458;}
	.st89{fill:#E1965F;}
	.st90{fill:#CD8554;}
	.st91{fill:#957350;}
	.st92{fill:#A8A6A2;}
	.st93{fill:#E9E9E7;}
	.st94{fill:#636260;}
	.st95{fill:#BCBBB8;}
	.st96{fill:#1C1B1A;}
	.st97{fill:#32302E;}
	.st98{fill:#D2D2CC;}
	.st99{fill:#A19E9C;}
	.st100{fill:#5A5452;}
	.st101{fill:#8A8786;}
</style>
<g>
	<g>
		<g>
			<path class="st29" d="M57.6,27.2c-4.1-1.9-8.8-2.8-13.2-1.8c-6.7,1.6-11.8,7.6-13,14.4c-1.2,6.8,1.3,13.9,5.9,19
				c5.4,5.9,14,9.2,21.7,7.1c8-2.2,13.1-10.4,13.4-18.4C72.8,39.1,64.5,30.6,57.6,27.2z"/>
			<g>
				<path class="st2" d="M46.6,35.1c-0.2,4.2,2.4,8.3,6.2,10c-2.9,0.1-5.7,1.9-7.2,4.4c2.2,1.8,5.1,2.6,7.9,2.2
					c-1.8-0.2-3.4,1.6-3.4,3.3c0,1.8,1.5,3.3,3.2,3.9c1.7,0.5,3.6,0.1,5.2-0.7c2.4-1.3,4.2-3.8,4.7-6.5C65,42.7,54.5,35.4,46.6,35.1
					z"/>
			</g>
		</g>
		<g>
			<path class="st29" d="M142.4,27.2c4.1-1.9,8.8-2.8,13.2-1.8c6.7,1.6,11.8,7.6,13,14.4c1.2,6.8-1.3,13.9-5.9,19
				c-5.4,5.9-14,9.2-21.7,7.1c-8-2.2-13.1-10.4-13.4-18.4C127.2,39.1,135.5,30.6,142.4,27.2z"/>
			<g>
				<path class="st2" d="M153.4,35.1c0.2,4.2-2.4,8.3-6.2,10c2.9,0.1,5.7,1.9,7.2,4.4c-2.2,1.8-5.1,2.6-7.9,2.2
					c1.8-0.2,3.4,1.6,3.4,3.3c0,1.8-1.5,3.3-3.2,3.9c-1.7,0.5-3.6,0.1-5.2-0.7c-2.4-1.3-4.2-3.8-4.7-6.5
					C135,42.7,145.5,35.4,153.4,35.1z"/>
			</g>
		</g>
	</g>
	<path class="st0" d="M68.5,46C58.9,52,50.6,60.1,45,69.2c-16.8,27.1-13.3,64.1,9.3,86.8c15.4,15.5,39,22.2,60.3,17.6
		c21.4-4.7,39.9-20.4,48.2-40.6c8.3-20.2,6.3-44.3-4.9-63c-8.7-14.5-22.6-25.5-38.4-31.2C102.5,32.5,83.8,36.5,68.5,46z"/>
	<path class="st29" d="M98.8,67.7c-0.8-3.6-2.1-7.2-4.9-9.5c-4.1-3.4-10.4-2.8-14.9,0c-4.5,2.8-7.5,7.5-9.8,12.2
		c-2.4,4.7-4.4,9.7-7.5,14C57.5,90,51.2,94.4,49,101c-2.6,8,2,17.4,9.7,21c7.6,3.6,17.2,1.8,23.7-3.6c6.3-5.2,9.7-13.8,12.9-21.1
		C99.3,88.1,100.9,77.6,98.8,67.7z"/>
	<path class="st29" d="M108.8,67.7c0.8-3.6,2.1-7.2,4.9-9.5c4.1-3.4,10.4-2.8,14.9,0c4.5,2.8,7.5,7.5,9.8,12.2
		c2.4,4.7,4.4,9.7,7.5,14c4.2,5.7,10.5,10,12.7,16.7c2.6,8-2,17.4-9.7,21c-7.6,3.6-17.2,1.8-23.7-3.6c-6.3-5.2-9.7-13.8-12.9-21.1
		C108.3,88.1,106.7,77.6,108.8,67.7z"/>
	<path class="st30" d="M70.6,121.9c-2.6,14.1,4.6,29.6,17.4,36c12.1,6,27.9,3,37.3-6.6c9.4-9.7,12-25.3,6.6-37.7
		c-4.5-10.2-14.1-17.8-24.8-20.5c-10.7-2.7-21.4,4-28.3,11.9C74.8,109.9,71.8,115.7,70.6,121.9z"/>
	<path class="st4" d="M66.9,90c-0.5,1.3-0.7,2.9-0.2,4.2c0.6,1.3,2.2,2.2,3.5,1.6c1-0.5,1.5-1.6,1.7-2.7c0.2-1.1,0.4-2.3,1-3.2
		c0.7-1,1.9-1.5,3.1-1.3c1.2,0.2,2.2,1,2.6,2.2c0.5,1.5,0,3.3,1,4.4c1,1,2.9,0.7,3.8-0.4c0.9-1.1,1.1-2.6,1-4.1
		c-0.3-4.4-3.4-9.2-8.4-8.7C72.2,82.4,68.1,86.6,66.9,90z"/>
	<path class="st4" d="M119,87.5c-0.5,1.3-0.7,2.9-0.2,4.2c0.6,1.3,2.2,2.2,3.5,1.6c1-0.5,1.5-1.6,1.7-2.7c0.2-1.1,0.4-2.3,1-3.2
		c0.7-1,1.9-1.5,3.1-1.3c1.2,0.2,2.2,1,2.6,2.2c0.5,1.5,0,3.3,1,4.4c1,1,2.9,0.7,3.8-0.4c0.9-1.1,1.1-2.6,1-4.1
		c-0.3-4.4-3.4-9.2-8.4-8.7C124.4,79.9,120.3,84.1,119,87.5z"/>
	<path class="st4" d="M117.4,140.8c-0.7-0.3-1.5,0.3-1.9,1c-0.4,0.7-0.4,1.5-0.7,2.2c-0.8,2.1-3.4,3.2-5.5,2.3
		c-1.5-0.6-2.6-2.2-3-3.8c-0.5-1.6-0.4-3.3-0.4-5c0.1-3,0.5-5.9,0.6-8.9c0.1-2,0.1-4,0-6c0-0.4,0-0.8-0.1-1.2c0,0,0.1,0,0.1,0
		c3.1-0.3,6.2-1.4,8.5-3.5c2.3-2.1,3.6-5.4,3.1-8.5c-1.3-7.1-12-7.4-17.6-7.1c-3.7,0.2-7.4,1.6-9.7,4.4c-2.3,2.8-2.8,7.3-0.5,10.1
		c1.7,2.1,4.4,2.9,7,3.6c1.5,0.4,3,0.6,4.5,0.8c0,0.5,0,0.9-0.1,1.3c-0.1,2-0.1,4,0,6c0.1,3,0.6,5.9,0.6,8.9c0,1.7,0.1,3.4-0.4,5
		c-0.5,1.6-1.5,3.1-3,3.8c-2,0.9-4.7-0.3-5.5-2.3c-0.3-0.7-0.4-1.5-0.7-2.2c-0.4-0.7-1.2-1.3-1.9-1c-0.8,0.3-1,1.3-0.9,2.1
		c0.2,3.4,3.1,6.5,6.5,6.9c3.1,0.4,6.2-1.4,7.7-4.1c1.5,2.7,4.6,4.5,7.7,4.1c3.4-0.5,6.3-3.5,6.5-6.9
		C118.4,142.1,118.2,141.1,117.4,140.8z"/>
</g>
</svg>
