<?xml version="1.0" encoding="utf-8"?>
<!-- Generator: Adobe Illustrator 24.0.0, SVG Export Plug-In . SVG Version: 6.00 Build 0)  -->
<svg version="1.1" id="Layer_1" xmlns="http://www.w3.org/2000/svg" xmlns:xlink="http://www.w3.org/1999/xlink" x="0px" y="0px"
	 viewBox="0 0 200 200" style="enable-background:new 0 0 200 200;" xml:space="preserve">
<style type="text/css">
	.st0{fill:#F2F1E8;}
	.st1{fill:#A8A9A2;}
	.st2{fill:#32302D;}
	.st3{clip-path:url(#SVGID_2_);fill:#32302D;}
	.st4{fill:#161514;}
	.st5{fill:#232220;}
	.st6{fill:#884637;}
	.st7{fill:#FBBB8C;}
	.st8{fill:#FFE8D6;}
	.st9{fill:#8E6F5E;}
	.st10{fill:#7A5B4C;}
	.st11{fill:#5E3F33;}
	.st12{fill:#A88E7D;}
	.st13{fill:#F9DBB2;}
	.st14{fill:#E09E48;}
	.st15{fill:#9B5E1B;}
	.st16{fill:#C18033;}
	.st17{clip-path:url(#SVGID_4_);fill:#FEC368;}
	.st18{clip-path:url(#SVGID_4_);fill:#DD8340;}
	.st19{clip-path:url(#SVGID_4_);fill:#161514;}
	.st20{clip-path:url(#SVGID_4_);fill:#FFE8D6;}
	.st21{fill:#FFFFFF;}
	.st22{fill:#D6854D;}
	.st23{fill:#B46133;}
	.st24{fill:#EC9B5E;}
	.st25{fill:#88524C;}
	.st26{clip-path:url(#SVGID_6_);fill:#B46133;}
	.st27{fill:#EACAB5;}
	.st28{fill:#D3AF9B;}
	.st29{fill:#4D4C48;}
	.st30{fill:#D2D2CA;}
	.st31{fill:#514142;}
	.st32{fill:#C6604D;}
	.st33{fill:#2C1C0F;}
	.st34{fill:#5F4C4E;}
	.st35{fill:none;stroke:#2C1C0F;stroke-width:5.9134;stroke-linecap:round;stroke-linejoin:round;stroke-miterlimit:10;}
	.st36{fill:#BCBEC0;}
	.st37{fill:#636466;}
	.st38{fill:#D1D3D4;}
	.st39{fill:#EBEBEC;}
	.st40{fill:#A7A9AC;}
	.st41{fill:#AAAAAA;}
	.st42{opacity:0.8;fill:#2C1C0F;}
	.st43{fill:#FAF3EB;}
	.st44{fill:none;stroke:#282F39;stroke-width:4.7595;stroke-linecap:round;stroke-linejoin:round;stroke-miterlimit:10;}
	.st45{fill:#DD786B;}
	.st46{fill:#83562D;}
	.st47{fill:#B37E4A;}
	.st48{fill:#3A2B20;}
	.st49{fill:#30231B;}
	.st50{fill:#634C3B;}
	.st51{fill:#CB915A;}
	.st52{fill:#544032;}
	.st53{fill:#2D2119;}
	.st54{fill:#231A14;}
	.st55{fill:#33322F;}
	.st56{fill:#777673;}
	.st57{fill:#353432;}
	.st58{fill:#E7E6DE;}
	.st59{fill:#F3757A;}
	.st60{fill:#BF4750;}
	.st61{fill:#D6565F;}
	.st62{fill:#FFAEB4;}
	.st63{fill:#E58893;}
	.st64{fill:#A3313A;}
	.st65{fill:#F2F1E7;}
	.st66{fill:#F9B7B2;}
	.st67{fill:#E59291;}
	.st68{fill:#CC7171;}
	.st69{clip-path:url(#SVGID_8_);fill:#383734;}
	.st70{fill:#FCBC7E;}
	.st71{fill:#B74E2E;}
	.st72{fill:#A53F28;}
	.st73{clip-path:url(#SVGID_10_);fill:#E58341;}
	.st74{clip-path:url(#SVGID_10_);}
	.st75{fill:#CC652B;}
	.st76{fill:#EAA465;}
	.st77{fill:#4B2D23;}
	.st78{fill:#3A211B;}
	.st79{fill:#D68847;}
	.st80{fill:#E58341;}
	.st81{fill:#AF5223;}
	.st82{fill:#E2705C;}
	.st83{fill:#F8F8F8;}
	.st84{fill:#FFBE51;}
	.st85{fill:#4A1F09;}
	.st86{fill:#DFDCDA;}
	.st87{fill:#623420;}
	.st88{fill:#AB8458;}
	.st89{fill:#E1965F;}
	.st90{fill:#CD8554;}
	.st91{fill:#957350;}
	.st92{fill:#A8A6A2;}
	.st93{fill:#E9E9E7;}
	.st94{fill:#636260;}
	.st95{fill:#BCBBB8;}
	.st96{fill:#1C1B1A;}
	.st97{fill:#32302E;}
	.st98{fill:#D2D2CC;}
	.st99{fill:#A19E9C;}
	.st100{fill:#5A5452;}
	.st101{fill:#8A8786;}
</style>
<g>
	<path class="st41" d="M47.2,77.3c0,0-9.7,9.7-11.3,13.8c0,0-1.6,3.2-7.3,0c-5.7-3.2,2.6,7.6,2.6,7.6s-5.1,3.9-4.6,8.3
		c0,0,4.1-1.8,6.2-2.1c2.1-0.3,1.7,12.3,11.3,23.8l1.2-4.3c0,0,16.6,31.4,50,34.6C128.9,162.1,98.7,54.6,47.2,77.3z"/>
	<path class="st41" d="M49.7,81.7c0,0-4.6-5.4-4.4-15.1l1-2.6c0,0-0.3-6.4-2.2-16.3l2.8,3.7c0,0,0.9-8.8,2.8-10.4c0,0,0.3,3.9,3.9,5
		c3.6,1.1,10.6-1.9,14.1,1.8l-3.1,1.6c0,0,10.3,2,13.3,4.1C80.8,55.6,49.7,81.7,49.7,81.7z"/>
	<g>
		<path class="st32" d="M54.8,66.6c0.7,6.2,5.6,7.7,10.9,3.4s4.8-9.3-1.2-11.2S54.2,60.4,54.8,66.6z"/>
	</g>
	<path class="st41" d="M152.6,77.3c0,0,9.7,9.7,11.3,13.8l4.7,7.6c0,0,5.1,3.9,4.6,8.3c0,0-4.1-1.8-6.2-2.1
		c-2.1-0.3-1.7,12.3-11.3,23.8l-1.2-4.3c0,0-16.6,31.4-50,34.6C70.9,162.1,101.1,54.6,152.6,77.3z"/>
	<path class="st41" d="M150.1,81.7c0,0,4.6-5.4,4.4-15.1l-1-2.6c0,0,0.3-6.4,2.2-16.3l-2.8,3.7c0,0-0.9-8.8-2.8-10.4
		c0,0-0.3,3.9-3.9,5c-3.6,1.1-10.6-1.9-14.1,1.8l3.1,1.6c0,0-10.3,2-13.3,4.1C119,55.6,150.1,81.7,150.1,81.7z"/>
	<g>
		<path class="st32" d="M145,66.6c-0.7,6.2-5.6,7.7-10.9,3.4s-4.8-9.3,1.2-11.2S145.6,60.4,145,66.6z"/>
	</g>
	<path class="st41" d="M156.5,103.3c0,30.7-24.9,55.6-55.6,55.6c-30.7,0-55.6-24.9-55.6-55.6c0-30.7,24.9-55.6,55.6-55.6
		C131.6,47.8,156.5,72.6,156.5,103.3z"/>
	<path class="st42" d="M152.6,103.3c-2.5-14.5-15.8-16.9-15.8-16.9c-9.6-5.1-31.6,5.6-31.6,5.6l-4.3,30l-4.3-30
		c0,0-22-10.6-31.6-5.6c0,0-13.3,2.4-15.8,16.9l4.2-1c0,0-2.1,9.6,3.8,17.2l2.8-3.9c0,0,5.5,6.5,15.7,8.7c9.2,2,22.6,0.9,25.2,0.7
		c2.6,0.2,16,1.3,25.2-0.7c10.2-2.2,15.7-8.7,15.7-8.7l2.8,3.9c5.8-7.6,3.8-17.2,3.8-17.2L152.6,103.3z"/>
	<path class="st43" d="M72.3,111.5c0-15.8,12.8-20.4,28.6-20.4c15.8,0,28.6,4.6,28.6,20.4c0,15.8-12.8,28.6-28.6,28.6
		C85.1,140.2,72.3,127.3,72.3,111.5z"/>
	<g>
		<path class="st43" d="M70.8,101.8c0,1.7-1.4,3.1-3.1,3.1c-1.7,0-3.1-1.4-3.1-3.1c0-1.7,1.4-3.1,3.1-3.1
			C69.4,98.7,70.8,100.1,70.8,101.8z"/>
		<path class="st43" d="M137.3,101.8c0,1.7-1.4,3.1-3.1,3.1s-3.1-1.4-3.1-3.1c0-1.7,1.4-3.1,3.1-3.1S137.3,100.1,137.3,101.8z"/>
	</g>
	<g>
		<g>
			<path class="st44" d="M100.7,112c0,0,2.4,10.2-9.2,9.2"/>
			<path class="st44" d="M101.1,112c0,0-2.4,10.2,9.2,9.2"/>
		</g>
		<g>
			<path class="st33" d="M107.9,108c3.7-5.7,0.5-10.4-7-10.4c-7.5,0-10.5,4.7-6.7,10.4S104.3,113.7,107.9,108z"/>
		</g>
	</g>
	<path class="st41" d="M152,77.8c0,0,10.6,11.7,21.4,13.3l-9,3.5L152,77.8z"/>
	<path class="st41" d="M154.5,124.4c0,0-8.4,18.8-13.1,23v-9.3L106.5,159l-5.1-8.9L154.5,124.4z"/>
	<path class="st41" d="M45.3,124.4c0,0,6.4,15.5,15.5,21.9l-0.2-4.7c0,0,31.9,14.2,39.9,13.7C108.5,154.8,45.3,124.4,45.3,124.4z"/>
</g>
</svg>
