<?xml version="1.0" encoding="utf-8"?>
<!-- Generator: Adobe Illustrator 24.0.0, SVG Export Plug-In . SVG Version: 6.00 Build 0)  -->
<svg version="1.1" id="Layer_1" xmlns="http://www.w3.org/2000/svg" xmlns:xlink="http://www.w3.org/1999/xlink" x="0px" y="0px"
	 viewBox="0 0 200 200" style="enable-background:new 0 0 200 200;" xml:space="preserve">
<style type="text/css">
	.st0{fill:#F2F1E8;}
	.st1{fill:#A8A9A2;}
	.st2{fill:#32302D;}
	.st3{clip-path:url(#SVGID_2_);fill:#32302D;}
	.st4{fill:#161514;}
	.st5{fill:#232220;}
	.st6{fill:#884637;}
	.st7{fill:#FBBB8C;}
	.st8{fill:#FFE8D6;}
	.st9{fill:#8E6F5E;}
	.st10{fill:#7A5B4C;}
	.st11{fill:#5E3F33;}
	.st12{fill:#A88E7D;}
	.st13{fill:#F9DBB2;}
	.st14{fill:#E09E48;}
	.st15{fill:#9B5E1B;}
	.st16{fill:#C18033;}
	.st17{clip-path:url(#SVGID_4_);fill:#FEC368;}
	.st18{clip-path:url(#SVGID_4_);fill:#DD8340;}
	.st19{clip-path:url(#SVGID_4_);fill:#161514;}
	.st20{clip-path:url(#SVGID_4_);fill:#FFE8D6;}
	.st21{fill:#FFFFFF;}
	.st22{fill:#D6854D;}
	.st23{fill:#B46133;}
	.st24{fill:#EC9B5E;}
	.st25{fill:#88524C;}
	.st26{clip-path:url(#SVGID_6_);fill:#B46133;}
	.st27{fill:#EACAB5;}
	.st28{fill:#D3AF9B;}
	.st29{fill:#4D4C48;}
	.st30{fill:#D2D2CA;}
	.st31{fill:#514142;}
	.st32{fill:#C6604D;}
	.st33{fill:#2C1C0F;}
	.st34{fill:#5F4C4E;}
	.st35{fill:none;stroke:#2C1C0F;stroke-width:5.9134;stroke-linecap:round;stroke-linejoin:round;stroke-miterlimit:10;}
	.st36{fill:#BCBEC0;}
	.st37{fill:#636466;}
	.st38{fill:#D1D3D4;}
	.st39{fill:#EBEBEC;}
	.st40{fill:#A7A9AC;}
	.st41{fill:#AAAAAA;}
	.st42{opacity:0.8;fill:#2C1C0F;}
	.st43{fill:#FAF3EB;}
	.st44{fill:none;stroke:#282F39;stroke-width:4.7595;stroke-linecap:round;stroke-linejoin:round;stroke-miterlimit:10;}
	.st45{fill:#DD786B;}
	.st46{fill:#83562D;}
	.st47{fill:#B37E4A;}
	.st48{fill:#3A2B20;}
	.st49{fill:#30231B;}
	.st50{fill:#634C3B;}
	.st51{fill:#CB915A;}
	.st52{fill:#544032;}
	.st53{fill:#2D2119;}
	.st54{fill:#231A14;}
	.st55{fill:#33322F;}
	.st56{fill:#777673;}
	.st57{fill:#353432;}
	.st58{fill:#E7E6DE;}
	.st59{fill:#F3757A;}
	.st60{fill:#BF4750;}
	.st61{fill:#D6565F;}
	.st62{fill:#FFAEB4;}
	.st63{fill:#E58893;}
	.st64{fill:#A3313A;}
	.st65{fill:#F2F1E7;}
	.st66{fill:#F9B7B2;}
	.st67{fill:#E59291;}
	.st68{fill:#CC7171;}
	.st69{clip-path:url(#SVGID_8_);fill:#383734;}
	.st70{fill:#FCBC7E;}
	.st71{fill:#B74E2E;}
	.st72{fill:#A53F28;}
	.st73{clip-path:url(#SVGID_10_);fill:#E58341;}
	.st74{clip-path:url(#SVGID_10_);}
	.st75{fill:#CC652B;}
	.st76{fill:#EAA465;}
	.st77{fill:#4B2D23;}
	.st78{fill:#3A211B;}
	.st79{fill:#D68847;}
	.st80{fill:#E58341;}
	.st81{fill:#AF5223;}
	.st82{fill:#E2705C;}
	.st83{fill:#F8F8F8;}
	.st84{fill:#FFBE51;}
	.st85{fill:#4A1F09;}
	.st86{fill:#DFDCDA;}
	.st87{fill:#623420;}
	.st88{fill:#AB8458;}
	.st89{fill:#E1965F;}
	.st90{fill:#CD8554;}
	.st91{fill:#957350;}
	.st92{fill:#A8A6A2;}
	.st93{fill:#E9E9E7;}
	.st94{fill:#636260;}
	.st95{fill:#BCBBB8;}
	.st96{fill:#1C1B1A;}
	.st97{fill:#32302E;}
	.st98{fill:#D2D2CC;}
	.st99{fill:#A19E9C;}
	.st100{fill:#5A5452;}
	.st101{fill:#8A8786;}
</style>
<g>
	<g>
		<path class="st36" d="M123.4,41.9c1.7-2.3,2.8-5,4.6-7.1c4.4-5,11.7-6,18.4-6.1c6.7-0.2,13.8,0,19.4-3.7
			c-0.9,6.2-3.3,12.3-7.5,16.9c-4.2,4.6-10.5,7.5-16.7,7c-4.3-0.4-8.7-2.3-12.8-0.9c-1.7,0.6-3.2,1.7-4.8,2.6
			c-2.1,1.1-7.3,1.6-6.9-2.2C117.2,45.8,122,43.9,123.4,41.9z"/>
		<path class="st37" d="M139.3,34.6c3.2-0.8,6.5-0.6,9.7-0.5c3.3,0.1,6.6,0,9.7-1c-2.6,4.6-7.2,8-12.3,9.3c-3.8,1-9.6,1.1-13.1-1.2
			C129.3,38.6,136.6,35.2,139.3,34.6z"/>
	</g>
	<g>
		<path class="st36" d="M76.6,41.9c-1.7-2.3-2.8-5-4.6-7.1c-4.4-5-11.7-6-18.4-6.1c-6.7-0.2-13.8,0-19.4-3.7
			c0.9,6.2,3.3,12.3,7.5,16.9s10.5,7.5,16.7,7c4.3-0.4,8.7-2.3,12.8-0.9c1.7,0.6,3.2,1.7,4.8,2.6c2.1,1.1,7.3,1.6,6.9-2.2
			C82.8,45.8,78,43.9,76.6,41.9z"/>
		<path class="st37" d="M60.7,34.6c-3.2-0.8-6.5-0.6-9.7-0.5c-3.3,0.1-6.6,0-9.7-1c2.6,4.6,7.2,8,12.3,9.3c3.8,1,9.6,1.1,13.1-1.2
			C70.7,38.6,63.4,35.2,60.7,34.6z"/>
	</g>
	<path class="st38" d="M66.5,57c-3.6,8.4-3.5,18-6.3,26.7c-2,6.3-5.5,12.1-6.6,18.7c-0.6,3.8-0.4,7.7-0.9,11.5
		c-1.2,9.1-6.6,17.4-6.7,26.6c-0.1,8.8,4.9,17,11.8,22.5c6.8,5.5,15.4,8.4,23.9,10.2c12.6,2.6,26,2.9,38-1.6
		c12-4.5,22.5-14.3,25.7-26.7c2.5-9.8,0.4-20-1.7-29.9c-1.5-7.2-3-14.4-5.4-21.3c-2-5.7-4.5-11.3-6.1-17.2
		c-2.2-8.5-2.2-17.7-6.4-25.4c-9.3-17.2-34.9-17.1-49.2-6.5C72.3,47.7,68.7,52,66.5,57z"/>
	<path class="st39" d="M81.9,102.5c-2.6,7.1-5.2,14.7-3.3,22c1.3,4.8,4.5,9,8.6,11.8c5,3.3,11.5,4.5,17.1,2.3
		c6.8-2.6,11.3-9.5,12.7-16.7c1.1-5.3-0.7-10.2-1.9-15.4c-1.2-5.3-2.5-10.7-3.8-16c-2.6-10.8-5.6-21.5-9-32.1
		c-0.4-1.3-1.1-2.8-2.4-3c-1.1-0.2-2.1,0.7-2.5,1.7c-0.8,1.9-0.6,4.3-1.3,6.3c-1.6,4.3-3.2,8.6-4.7,12.9
		C88.3,85,85.1,93.8,81.9,102.5z"/>
	<g>
		<path class="st40" d="M69.4,145.3c-0.7,0.2-1.3,0.6-2,1c-1.9,1.3-3.2,3.6-3.3,5.9c-0.1,2.9,1.5,5.6,3.4,7.8c1.4,1.6,3.1,3,5,3.8
			c1.9,0.8,4.2,1,6.2,0.2c1.7-0.7,3-2.1,3.7-3.8c-0.7,0-1.3-0.1-2-0.2C73.5,158.5,69.6,152,69.4,145.3z"/>
		<path class="st37" d="M80.3,149.5c-2.8-3.2-6.9-5.6-10.9-4.2c0.2,6.7,4,13.3,11.1,14.7c0.7,0.1,1.3,0.1,2,0.2
			c0.4-0.9,0.7-1.9,0.7-2.9C83.4,154.4,82.2,151.6,80.3,149.5z"/>
	</g>
	<g>
		<path class="st40" d="M125.4,145.3c0.7,0.2,1.3,0.6,2,1c1.9,1.3,3.2,3.6,3.3,5.9c0.1,2.9-1.5,5.6-3.4,7.8c-1.4,1.6-3.1,3-5,3.8
			c-1.9,0.8-4.2,1-6.2,0.2c-1.7-0.7-3-2.1-3.7-3.8c0.7,0,1.3-0.1,2-0.2C121.4,158.5,125.2,152,125.4,145.3z"/>
		<path class="st37" d="M114.6,149.5c2.8-3.2,6.9-5.6,10.9-4.2c-0.2,6.7-4,13.3-11.1,14.7c-0.7,0.1-1.3,0.1-2,0.2
			c-0.4-0.9-0.7-1.9-0.7-2.9C111.5,154.4,112.7,151.6,114.6,149.5z"/>
	</g>
	<path class="st36" d="M75,58.2c-1,2.2-0.9,5,0.4,7.1c1.4,2,4,3.2,6.4,2.6c1.7-0.5,3.1-1.7,4-3.2c1.4-2.2,1.8-5.1,0.7-7.5
		C84,51.6,77.2,53.5,75,58.2z"/>
	<path class="st36" d="M91.6,48.1c1.4-0.1,2.7,0.8,3.3,2.2c0.6,1.5,0.3,3.2-0.7,4.4c-1,1.2-2.9,1.7-4.3,1c-3-1.4-2.6-6.2,0.4-7.4
		C90.8,48.2,91.2,48.1,91.6,48.1z"/>
	<path class="st36" d="M117,81c-0.3,1.9-0.2,3.9,0.7,5.5c1.7,3,5.9,4,8.8,2.3c2.9-1.7,4.2-5.7,2.8-8.9C126.7,73.6,118.2,74,117,81z"
		/>
	<path class="st36" d="M116.9,64.8c2-0.6,4.3,0.6,4.9,2.5c0.6,1.9-0.5,4.3-2.5,4.9c-1.9,0.7-4.3-0.5-5-2.4c-0.7-1.9,0.5-4.3,2.4-5"
		/>
	<path class="st36" d="M73.9,84c1.6-0.6,3.7-0.1,4.6,2.1c0.7,1.8-0.2,4-1.9,4.8c-2.7,1.3-5.2-0.7-5-3.7C71.7,85.6,72.7,84.5,73.9,84
		z"/>
	<path class="st4" d="M57.3,108.3c-0.5,1.2-0.7,2.6-0.1,3.9c0.5,1.2,2,2,3.2,1.5c0.9-0.4,1.4-1.5,1.6-2.5c0.2-1,0.3-2.1,0.9-2.9
		c0.6-0.9,1.8-1.4,2.8-1.2c1.1,0.2,2,1,2.4,2c0.5,1.3,0,3,0.9,4.1c0.9,1,2.6,0.6,3.5-0.4c0.9-1,1-2.4,0.9-3.7
		c-0.2-4.1-3.1-8.5-7.7-8C62.2,101.2,58.5,105.1,57.3,108.3z"/>
	<path class="st4" d="M122,107.7c-0.5,1.2-0.7,2.6-0.1,3.9c0.5,1.2,2,2,3.2,1.5c0.9-0.4,1.4-1.5,1.6-2.5c0.2-1,0.3-2.1,0.9-2.9
		c0.6-0.9,1.8-1.4,2.8-1.2c1.1,0.2,2,1,2.4,2c0.5,1.3,0,3,0.9,4.1c0.9,1,2.6,0.6,3.5-0.4c0.9-1,1-2.4,0.9-3.7
		c-0.2-4.1-3.1-8.5-7.7-8C126.9,100.6,123.2,104.5,122,107.7z"/>
</g>
</svg>
