<?xml version="1.0" encoding="utf-8"?>
<!-- Generator: Adobe Illustrator 24.0.0, SVG Export Plug-In . SVG Version: 6.00 Build 0)  -->
<svg version="1.1" id="Layer_1" xmlns="http://www.w3.org/2000/svg" xmlns:xlink="http://www.w3.org/1999/xlink" x="0px" y="0px"
	 viewBox="0 0 200 200" style="enable-background:new 0 0 200 200;" xml:space="preserve">
<style type="text/css">
	.st0{fill:#F2F1E8;}
	.st1{fill:#A8A9A2;}
	.st2{fill:#32302D;}
	.st3{clip-path:url(#SVGID_2_);fill:#32302D;}
	.st4{fill:#161514;}
	.st5{fill:#232220;}
	.st6{fill:#884637;}
	.st7{fill:#FBBB8C;}
	.st8{fill:#FFE8D6;}
	.st9{fill:#8E6F5E;}
	.st10{fill:#7A5B4C;}
	.st11{fill:#5E3F33;}
	.st12{fill:#A88E7D;}
	.st13{fill:#F9DBB2;}
	.st14{fill:#E09E48;}
	.st15{fill:#9B5E1B;}
	.st16{fill:#C18033;}
	.st17{clip-path:url(#SVGID_4_);fill:#FEC368;}
	.st18{clip-path:url(#SVGID_4_);fill:#DD8340;}
	.st19{clip-path:url(#SVGID_4_);fill:#161514;}
	.st20{clip-path:url(#SVGID_4_);fill:#FFE8D6;}
	.st21{fill:#FFFFFF;}
	.st22{fill:#D6854D;}
	.st23{fill:#B46133;}
	.st24{fill:#EC9B5E;}
	.st25{fill:#88524C;}
	.st26{clip-path:url(#SVGID_6_);fill:#B46133;}
	.st27{fill:#EACAB5;}
	.st28{fill:#D3AF9B;}
	.st29{fill:#4D4C48;}
	.st30{fill:#D2D2CA;}
	.st31{fill:#514142;}
	.st32{fill:#C6604D;}
	.st33{fill:#2C1C0F;}
	.st34{fill:#5F4C4E;}
	.st35{fill:none;stroke:#2C1C0F;stroke-width:5.9134;stroke-linecap:round;stroke-linejoin:round;stroke-miterlimit:10;}
	.st36{fill:#BCBEC0;}
	.st37{fill:#636466;}
	.st38{fill:#D1D3D4;}
	.st39{fill:#EBEBEC;}
	.st40{fill:#A7A9AC;}
	.st41{fill:#AAAAAA;}
	.st42{opacity:0.8;fill:#2C1C0F;}
	.st43{fill:#FAF3EB;}
	.st44{fill:none;stroke:#282F39;stroke-width:4.7595;stroke-linecap:round;stroke-linejoin:round;stroke-miterlimit:10;}
	.st45{fill:#DD786B;}
	.st46{fill:#83562D;}
	.st47{fill:#B37E4A;}
	.st48{fill:#3A2B20;}
	.st49{fill:#30231B;}
	.st50{fill:#634C3B;}
	.st51{fill:#CB915A;}
	.st52{fill:#544032;}
	.st53{fill:#2D2119;}
	.st54{fill:#231A14;}
	.st55{fill:#33322F;}
	.st56{fill:#777673;}
	.st57{fill:#353432;}
	.st58{fill:#E7E6DE;}
	.st59{fill:#F3757A;}
	.st60{fill:#BF4750;}
	.st61{fill:#D6565F;}
	.st62{fill:#FFAEB4;}
	.st63{fill:#E58893;}
	.st64{fill:#A3313A;}
	.st65{fill:#F2F1E7;}
	.st66{fill:#F9B7B2;}
	.st67{fill:#E59291;}
	.st68{fill:#CC7171;}
	.st69{clip-path:url(#SVGID_8_);fill:#383734;}
	.st70{fill:#FCBC7E;}
	.st71{fill:#B74E2E;}
	.st72{fill:#A53F28;}
	.st73{clip-path:url(#SVGID_10_);fill:#E58341;}
	.st74{clip-path:url(#SVGID_10_);}
	.st75{fill:#CC652B;}
	.st76{fill:#EAA465;}
	.st77{fill:#4B2D23;}
	.st78{fill:#3A211B;}
	.st79{fill:#D68847;}
	.st80{fill:#E58341;}
	.st81{fill:#AF5223;}
	.st82{fill:#E2705C;}
	.st83{fill:#F8F8F8;}
	.st84{fill:#FFBE51;}
	.st85{fill:#4A1F09;}
	.st86{fill:#DFDCDA;}
	.st87{fill:#623420;}
	.st88{fill:#AB8458;}
	.st89{fill:#E1965F;}
	.st90{fill:#CD8554;}
	.st91{fill:#957350;}
	.st92{fill:#A8A6A2;}
	.st93{fill:#E9E9E7;}
	.st94{fill:#636260;}
	.st95{fill:#BCBBB8;}
	.st96{fill:#1C1B1A;}
	.st97{fill:#32302E;}
	.st98{fill:#D2D2CC;}
	.st99{fill:#A19E9C;}
	.st100{fill:#5A5452;}
	.st101{fill:#8A8786;}
</style>
<g>
	<path class="st58" d="M154.3,96.2c5.4-2,7.6-8.7,7.2-14.5c-0.3-3.4-1.3-6.9-3.5-9.5c-2.2-2.6-5.8-4.3-9.2-3.5
		c3.2-5.7,2-13.4-2.7-17.9s-12.6-5.1-18-1.5c-0.1-2.8-2.7-4.9-5.4-5.7c-3.8-1.3-8.2-0.7-11.6,1.4c1.1-0.7-3.7-5.1-4.3-5.4
		c-1.6-1-4.3-2-6.1-1.1c-0.5,0.2-0.9,0.6-1.3,1c-0.3-0.4-0.8-0.7-1.3-1c-1.9-0.9-4.5,0.2-6.1,1.1c-0.5,0.3-5.4,4.8-4.3,5.4
		c-3.4-2.1-7.8-2.6-11.6-1.4c-2.7,0.9-5.2,3-5.4,5.7c-5.4-3.6-13.3-2.9-18,1.5C48,55.2,46.8,63,50,68.7c-3.4-0.8-7,0.8-9.2,3.5
		c-2.2,2.6-3.2,6.1-3.5,9.5c-0.4,5.8,1.7,12.5,7.2,14.5c-4.4,1.3-7.6,5.8-7.4,10.4c0.2,4.6,3.8,8.8,8.3,9.7c-2.9,2-4.9,5.5-4.6,9
		c0.3,3.5,3.3,6.7,6.8,6.7c-2,3.3-2.8,7.6-1.3,11.2c1.5,3.6,5.5,6.2,9.3,5.3c-0.7,2.2-0.1,4.8,1.4,6.5c1.5,1.7,4,2.6,6.3,2.2
		c1.3-0.2,2.6-0.9,3.9-0.5c0.8,0.2,1.5,0.8,2.2,1.3c3,2.1,7.3,2.3,10.5,0.4c4.1,3.2,10.4,1.1,14-2.6c2.6-2.8,4.4-6.2,5.4-9.9
		c1.1,3.7,2.8,7.1,5.4,9.9c3.6,3.8,9.9,5.9,14,2.6c3.2,1.8,7.5,1.7,10.5-0.4c0.7-0.5,1.4-1.1,2.2-1.3c1.3-0.3,2.6,0.3,3.9,0.5
		c2.3,0.4,4.8-0.4,6.3-2.2c1.5-1.7,2.1-4.3,1.4-6.5c3.8,0.9,7.8-1.7,9.3-5.3c1.5-3.6,0.6-7.8-1.3-11.2c3.5,0,6.5-3.2,6.8-6.7
		c0.3-3.5-1.7-6.9-4.6-9c4.5-0.9,8.1-5.1,8.3-9.7C161.9,102,158.7,97.5,154.3,96.2z M99.4,117.5c-1.6-18.7-1.8-37.6,0-56.4
		C101.3,79.9,101.1,98.7,99.4,117.5z"/>
	<g>
		<g>
			<path class="st59" d="M54.3,74c-10.1,0-19.5,4.6-28.6,9c3.3,7.7,11.9,12.5,20.3,12.5c5.1,0,10.4-1.6,14.1-5
				c3.1-2.9,5.2-7.5,4.7-11.8C64.4,74.3,58,74,54.3,74z"/>
			<path class="st60" d="M53.2,79.4c-2.5,0.9-4.7,2.3-7.1,3.4c-3.7,1.7-7.7,2.7-11.8,2.9c0.8,3.1,3.9,5.2,7.1,5.6
				c3.2,0.4,6.4-0.5,9.4-1.6c3.4-1.3,8-3.5,8.9-7.5C60.5,77.8,56.1,78.4,53.2,79.4z"/>
		</g>
		<g>
			<path class="st59" d="M145.7,74c10.1,0,19.5,4.6,28.6,9c-3.3,7.7-11.9,12.5-20.3,12.5c-5.1,0-10.4-1.6-14.1-5
				c-3.1-2.9-5.2-7.5-4.7-11.8C135.6,74.3,142,74,145.7,74z"/>
			<path class="st60" d="M146.8,79.4c2.5,0.9,4.7,2.3,7.1,3.4c3.7,1.7,7.7,2.7,11.8,2.9c-0.8,3.1-3.9,5.2-7.1,5.6
				c-3.2,0.4-6.4-0.5-9.4-1.6c-3.4-1.3-8-3.5-8.9-7.5C139.5,77.8,143.9,78.4,146.8,79.4z"/>
		</g>
	</g>
	<path class="st30" d="M141.9,129.5c-0.8-1.8-2.2-3.3-3.5-4.7c2.4-1.7,3.8-4.8,3.3-7.7c-0.4-2.9-2.6-5.5-5.4-6.4
		c3.8-2.7,4.3-8.9,1.1-12.2c-0.3-0.3-0.7-0.7-0.7-1.1c0-0.6,0.6-1.1,1.2-1.4c2.3-1.5,3.6-4.4,3.3-7.1c-0.3-2.7-2.3-5.2-4.9-6.1
		c3.8-2.8,4-9,0.9-12.6c-3-3.6-8.5-4.6-12.9-3.1c1.3-1.3,0.2-3.5-1.2-4.6c-4.2-3.7-11-4-15.5-0.6c-2.4-5.7-8.9-8.6-14.2-5.1
		c-0.5,0.3-5.4,4.4-4.5,5.1c-4.5-3.3-11.3-3-15.5,0.6c-1.3,1.2-2.4,3.4-1.2,4.6c-4.5-1.5-9.9-0.5-12.9,3.1c-3,3.6-2.9,9.7,0.9,12.6
		c-2.6,0.9-4.5,3.4-4.9,6.1c-0.3,2.7,1,5.6,3.3,7.1c0.5,0.4,1.2,0.8,1.2,1.4c0,0.5-0.4,0.8-0.7,1.1c-3.3,3.3-2.7,9.5,1.1,12.2
		c-2.8,0.9-5,3.5-5.4,6.4c-0.4,2.9,0.9,6,3.3,7.7c-1.3,1.4-2.7,2.9-3.5,4.7c-0.8,1.8-0.9,4,0.2,5.6c0.8,1.3,2.3,2,3.7,2.7
		c0.4,0.2,0.9,0.4,1.1,0.9c0.2,0.4,0,0.9-0.1,1.4c-0.3,1.8,0.5,3.7,1.9,5c1.4,1.2,3.2,1.9,5,2.4c10.4,2.6,22.1-2.3,27.6-11.5
		c1.6-2.7,2-3.2,2.6-6.4c0.6-3.4,1.2-6.8,1.7-10.2c0.5,3.4,1.1,6.8,1.7,10.2c0.6,3.1,1,3.6,2.6,6.4c5.4,9.2,17.2,14.1,27.6,11.5
		c1.8-0.5,3.6-1.1,5-2.4c1.4-1.2,2.3-3.1,1.9-5c-0.1-0.5-0.3-1-0.1-1.4c0.2-0.4,0.7-0.7,1.1-0.9c1.4-0.6,2.8-1.4,3.7-2.7
		C142.8,133.5,142.7,131.3,141.9,129.5z"/>
	<path class="st59" d="M138.6,126.6c-1.4-8-6.8-14.8-7.9-22.9c-0.5-3.3-0.2-6.6-0.4-9.9c-0.6-7.9-4.6-15.5-10.7-20.7
		c-11.7-9.8-30.5-9.8-42.2,0c-6.1,5.1-10,12.7-10.7,20.7c-0.3,3.3,0,6.6-0.4,9.9c-1.1,8-6.5,14.9-7.9,22.9
		c-1.3,7.2,0.8,14.9,5.2,20.7c4.4,5.9,10.9,10,17.9,12.1c16.9,5.1,40.5,3,51.8-12.1C137.7,141.5,139.9,133.8,138.6,126.6z"/>
	<path class="st61" d="M88.3,99.1c-2.6-0.4-5.3-0.7-7.9,0.4c-2.5,1-4.3,3.4-5.2,5.9c-0.6,1.8-0.8,3.8-0.2,5.5
		c1.1,3.2,4.4,4.9,7.6,6.1c2.9,1,5.9,1.7,9,2.1c7.2,0.8,14.8,0.9,21.4-2.4c5.2-2.6,10.7-11,6.1-16.5c-2.8-3.4-6.8-2.2-10.2-1
		c-4.7,1.6-10.8,1.1-15.6,0.7C91.7,99.7,90,99.4,88.3,99.1z"/>
	<path d="M83,105c-0.6,0.9-1.2,1.8-1.3,2.9s0.2,2.2,1,2.9c0.5,0.5,1.2,0.7,1.9,0.8c2.1,0.2,4.2-1.6,4.4-3.7
		C89.1,104.7,85.2,102.1,83,105z"/>
	<path d="M108.7,104.4c-0.6,0.9-1.2,1.8-1.3,2.9c-0.1,1.1,0.2,2.2,1,2.9c0.5,0.5,1.2,0.7,1.9,0.8c2.1,0.2,4.2-1.6,4.4-3.7
		C114.9,104.1,110.9,101.5,108.7,104.4z"/>
	<path class="st62" d="M81.7,126.2c-1,1.1-1.9,2.2-2.7,3.5c-2.3,4-3.2,8.8-2.3,13.3c1,5.2,4.6,9.2,9.4,11.3c2.1,0.9,4.4,1.5,6.7,1.8
		c7.1,1.1,15.1,0.5,20.5-3.7c5.8-4.6,7.1-12.4,5.1-19c-1.2-4-3.6-7.7-7-10.5c-3.7-3-9.8-5.7-15-4.6
		C91.3,119.3,85.6,122.2,81.7,126.2z"/>
	<path class="st63" d="M107.3,147.3c-0.1-0.4-0.6-0.7-1-0.5c-0.2,0.1-0.3,0.3-0.4,0.4c-0.8,1.1-2.1,1.9-3.4,2
		c-1.4,0.1-2.8-0.6-3.5-1.8c-0.4-0.8-0.5-1.6-0.5-2.5c0,0,0-0.1,0-0.1c0.2-3.3,0.2-6.5,0.1-9.8c0.1-1.2,0.1-2.3-0.2-3.4
		c0-0.1,0-0.2,0-0.4c-0.1-1.2-0.3-1.9-0.7-1.4c-0.4-0.5-0.7,0.2-0.7,1.4c0,0.1,0,0.2,0,0.4c-0.3,1.1-0.2,2.3-0.2,3.4
		c-0.1,3.3-0.2,6.5,0.1,9.8c0,0,0,0.1,0,0.1c0,0.9-0.1,1.8-0.5,2.5c-0.7,1.2-2.1,1.9-3.5,1.8c-1.4-0.1-2.6-0.9-3.4-2
		c-0.1-0.2-0.2-0.3-0.4-0.4c-0.4-0.2-0.9,0.1-1,0.5c-0.1,0.4,0,0.9,0.3,1.2c0.8,1.3,2.2,2,3.6,2.3c1.6,0.4,3.5,0.3,4.8-0.9
		c0.4-0.4,0.8-0.8,1-1.3c0.3,0.5,0.6,0.9,1,1.3c1.3,1.1,3.2,1.2,4.8,0.9c1.4-0.3,2.8-1.1,3.6-2.3
		C107.2,148.2,107.4,147.7,107.3,147.3z"/>
	<path class="st64" d="M90.8,123c-0.8,0.7-1,2-0.7,3.1c1.1,3.6,6.4,7.1,10,5.2c0.8-0.5,1.5-1.1,2.2-1.9c1.5-1.7,5-7.1,0.4-7.3
		c-2.4-0.1-4.8,0.3-7.1,0.2C93.9,122.3,92.3,121.7,90.8,123z"/>
</g>
</svg>
