<?xml version="1.0" encoding="utf-8"?>
<!-- Generator: Adobe Illustrator 24.0.0, SVG Export Plug-In . SVG Version: 6.00 Build 0)  -->
<svg version="1.1" id="Layer_1" xmlns="http://www.w3.org/2000/svg" xmlns:xlink="http://www.w3.org/1999/xlink" x="0px" y="0px"
	 viewBox="0 0 200 200" style="enable-background:new 0 0 200 200;" xml:space="preserve">
<style type="text/css">
	.st0{fill:#F2F1E8;}
	.st1{fill:#A8A9A2;}
	.st2{fill:#32302D;}
	.st3{clip-path:url(#SVGID_2_);fill:#32302D;}
	.st4{fill:#161514;}
	.st5{fill:#232220;}
	.st6{fill:#884637;}
	.st7{fill:#FBBB8C;}
	.st8{fill:#FFE8D6;}
	.st9{fill:#8E6F5E;}
	.st10{fill:#7A5B4C;}
	.st11{fill:#5E3F33;}
	.st12{fill:#A88E7D;}
	.st13{fill:#F9DBB2;}
	.st14{fill:#E09E48;}
	.st15{fill:#9B5E1B;}
	.st16{fill:#C18033;}
	.st17{clip-path:url(#SVGID_4_);fill:#FEC368;}
	.st18{clip-path:url(#SVGID_4_);fill:#DD8340;}
	.st19{clip-path:url(#SVGID_4_);fill:#161514;}
	.st20{clip-path:url(#SVGID_4_);fill:#FFE8D6;}
	.st21{fill:#FFFFFF;}
	.st22{fill:#D6854D;}
	.st23{fill:#B46133;}
	.st24{fill:#EC9B5E;}
	.st25{fill:#88524C;}
	.st26{clip-path:url(#SVGID_6_);fill:#B46133;}
	.st27{fill:#EACAB5;}
	.st28{fill:#D3AF9B;}
	.st29{fill:#4D4C48;}
	.st30{fill:#D2D2CA;}
	.st31{fill:#514142;}
	.st32{fill:#C6604D;}
	.st33{fill:#2C1C0F;}
	.st34{fill:#5F4C4E;}
	.st35{fill:none;stroke:#2C1C0F;stroke-width:5.9134;stroke-linecap:round;stroke-linejoin:round;stroke-miterlimit:10;}
	.st36{fill:#BCBEC0;}
	.st37{fill:#636466;}
	.st38{fill:#D1D3D4;}
	.st39{fill:#EBEBEC;}
	.st40{fill:#A7A9AC;}
	.st41{fill:#AAAAAA;}
	.st42{opacity:0.8;fill:#2C1C0F;}
	.st43{fill:#FAF3EB;}
	.st44{fill:none;stroke:#282F39;stroke-width:4.7595;stroke-linecap:round;stroke-linejoin:round;stroke-miterlimit:10;}
	.st45{fill:#DD786B;}
	.st46{fill:#83562D;}
	.st47{fill:#B37E4A;}
	.st48{fill:#3A2B20;}
	.st49{fill:#30231B;}
	.st50{fill:#634C3B;}
	.st51{fill:#CB915A;}
	.st52{fill:#544032;}
	.st53{fill:#2D2119;}
	.st54{fill:#231A14;}
	.st55{fill:#33322F;}
	.st56{fill:#777673;}
	.st57{fill:#353432;}
	.st58{fill:#E7E6DE;}
	.st59{fill:#F3757A;}
	.st60{fill:#BF4750;}
	.st61{fill:#D6565F;}
	.st62{fill:#FFAEB4;}
	.st63{fill:#E58893;}
	.st64{fill:#A3313A;}
	.st65{fill:#F2F1E7;}
	.st66{fill:#F9B7B2;}
	.st67{fill:#E59291;}
	.st68{fill:#CC7171;}
	.st69{clip-path:url(#SVGID_8_);fill:#383734;}
	.st70{fill:#FCBC7E;}
	.st71{fill:#B74E2E;}
	.st72{fill:#A53F28;}
	.st73{clip-path:url(#SVGID_10_);fill:#E58341;}
	.st74{clip-path:url(#SVGID_10_);}
	.st75{fill:#CC652B;}
	.st76{fill:#EAA465;}
	.st77{fill:#4B2D23;}
	.st78{fill:#3A211B;}
	.st79{fill:#D68847;}
	.st80{fill:#E58341;}
	.st81{fill:#AF5223;}
	.st82{fill:#E2705C;}
	.st83{fill:#F8F8F8;}
	.st84{fill:#FFBE51;}
	.st85{fill:#4A1F09;}
	.st86{fill:#DFDCDA;}
	.st87{fill:#623420;}
	.st88{fill:#AB8458;}
	.st89{fill:#E1965F;}
	.st90{fill:#CD8554;}
	.st91{fill:#957350;}
	.st92{fill:#A8A6A2;}
	.st93{fill:#E9E9E7;}
	.st94{fill:#636260;}
	.st95{fill:#BCBBB8;}
	.st96{fill:#1C1B1A;}
	.st97{fill:#32302E;}
	.st98{fill:#D2D2CC;}
	.st99{fill:#A19E9C;}
	.st100{fill:#5A5452;}
	.st101{fill:#8A8786;}
</style>
<g>
	<path class="st13" d="M31.6,79.2c-0.9,1-1.9,2.1-2.3,3.4c-0.4,1.3-0.3,2.9,0.7,3.9c1,1,2.9,0.9,3.6-0.2c-2.1,2.4-4.2,4.8-5.5,7.7
		c-1.2,2.9-1.5,6.4,0.2,9.1c0.7,1.1,1.6,2,1.9,3.3c0.8,3.6-4.4,6.4-3.8,10c0.4,2.3,3,3.6,3.7,5.9c0.8,3-2.1,5.6-3.3,8.5
		c-1,2.4-0.6,5.4,0.9,7.5c1.6,2.1,4.2,3.4,6.9,3.2c-2.6,2.9-1.3,8.3,2.3,9.7c2.5,1,5.7,0.5,7.4,2.5c1.1,1.3,1.1,3.2,1.8,4.7
		c1,2,3.2,3.2,5.4,3.6c2.2,0.4,4.5,0,6.7-0.4c4,5.5,12,7,18.4,4.6c6.3-2.4,11-8.2,13.4-14.6c2.4-6.3,2.8-13.3,2.8-20
		c-0.1-10.2-1.2-20.4-3.4-30.4c-1.8-8.5-4.5-16.9-9.2-24.1C76,70.9,70.1,65.4,63,62.9c-6.4-2.3-16.1,3.7-21.2,7.3
		C38.1,72.8,34.7,75.8,31.6,79.2z"/>
	<path class="st13" d="M168.4,79.2c0.9,1,1.9,2.1,2.3,3.4c0.4,1.3,0.3,2.9-0.7,3.9c-1,1-2.9,0.9-3.6-0.2c2.1,2.4,4.2,4.8,5.5,7.7
		c1.2,2.9,1.5,6.4-0.2,9.1c-0.7,1.1-1.6,2-1.9,3.3c-0.8,3.6,4.4,6.4,3.8,10c-0.4,2.3-3,3.6-3.7,5.9c-0.8,3,2.1,5.6,3.3,8.5
		c1,2.4,0.6,5.4-0.9,7.5c-1.6,2.1-4.2,3.4-6.9,3.2c2.6,2.9,1.3,8.3-2.3,9.7c-2.5,1-5.7,0.5-7.4,2.5c-1.1,1.3-1.1,3.2-1.8,4.7
		c-1,2-3.2,3.2-5.4,3.6c-2.2,0.4-4.5,0-6.7-0.4c-4,5.5-12,7-18.4,4.6c-6.3-2.4-11-8.2-13.4-14.6c-2.4-6.3-2.8-13.3-2.8-20
		c0.1-10.2,1.2-20.4,3.4-30.4c1.8-8.5,4.5-16.9,9.2-24.1c4.1-6.2,10-11.7,17.1-14.2c6.4-2.3,16.1,3.7,21.2,7.3
		C161.9,72.8,165.3,75.8,168.4,79.2z"/>
	<g>
		<path class="st14" d="M130.6,37.2c4.5-3.4,10.4-5.3,15.9-4.1c5.5,1.2,10.4,5.8,11.1,11.4c0.8,6.4-3.5,12.2-7.6,17.1
			c-1.9,2.3-4,4.7-7,5.3c-3.1,0.7-6.3-0.9-9.1-2.4c-3.1-1.6-6.2-3.3-8.7-5.7c-3.3-3.1-5.5-6.9-3.2-11.1
			C124.2,43.7,127,40,130.6,37.2z"/>
		<path class="st15" d="M147.8,41.3c-1.3-1.2-3.1-1.8-4.9-1.9c0.2,0.5,0.2,1.3-0.1,2.3c-0.4,1.3-2.2,2.7-3.6,3.6
			c-0.9,0.4-1.8,1.3-3.1,0.9c0.9,1.3,3.6-0.4,4,1.3c0,2.2-2.2,3.6-4,4c0.9,0,2.7-0.4,3.1,0.9c0.4,0.9-0.9,2.2-0.9,3.1
			c1.3,0,2.7-1.8,4-1.3c1.3,0.5,2.4,1.6,2.9,3c2.8-1.9,4.7-5.1,5.1-8.5C150.6,46,149.8,43.1,147.8,41.3z"/>
		<path class="st16" d="M142.4,54.2c-1.3-0.4-2.7,1.3-4,1.3c0-0.9,1.3-2.2,0.9-3.1c-0.4-1.3-2.2-0.9-3.1-0.9c1.8-0.4,4-1.8,4-4
			c-0.4-1.8-3.1,0-4-1.3c1.3,0.4,2.2-0.4,3.1-0.9c1.3-0.9,3.1-2.2,3.6-3.6c0.3-1,0.3-1.7,0.1-2.3c-2-0.1-4.2,0.4-5.9,1.4
			c-5.6,3.1-11.9,10.1-5.4,15.6c3.2,2.7,7.9,3.4,11.7,1.8c0.7-0.3,1.3-0.6,1.9-1.1C144.8,55.8,143.7,54.7,142.4,54.2z"/>
	</g>
	<g>
		<path class="st14" d="M66,37.2c-4.5-3.4-10.4-5.3-15.9-4.1c-5.5,1.2-10.4,5.8-11.1,11.4c-0.8,6.4,3.5,12.2,7.6,17.1
			c1.9,2.3,4,4.7,7,5.3c3.1,0.7,6.3-0.9,9.1-2.4c3.1-1.6,6.2-3.3,8.7-5.7c3.3-3.1,5.5-6.9,3.2-11.1C72.4,43.7,69.6,40,66,37.2z"/>
		<path class="st15" d="M48.8,41.3c1.3-1.2,3.1-1.8,4.9-1.9c-0.2,0.5-0.2,1.3,0.1,2.3c0.4,1.3,2.2,2.7,3.6,3.6
			c0.9,0.4,1.8,1.3,3.1,0.9c-0.9,1.3-3.6-0.4-4,1.3c0,2.2,2.2,3.6,4,4c-0.9,0-2.7-0.4-3.1,0.9c-0.4,0.9,0.9,2.2,0.9,3.1
			c-1.3,0-2.7-1.8-4-1.3c-1.3,0.5-2.4,1.6-2.9,3c-2.8-1.9-4.7-5.1-5.1-8.5C46,46,46.8,43.1,48.8,41.3z"/>
		<path class="st16" d="M54.2,54.2c1.3-0.4,2.7,1.3,4,1.3c0-0.9-1.3-2.2-0.9-3.1c0.4-1.3,2.2-0.9,3.1-0.9c-1.8-0.4-4-1.8-4-4
			c0.4-1.8,3.1,0,4-1.3c-1.3,0.4-2.2-0.4-3.1-0.9c-1.3-0.9-3.1-2.2-3.6-3.6c-0.3-1-0.3-1.7-0.1-2.3c2-0.1,4.2,0.4,5.9,1.4
			C65.1,44,71.5,51,65,56.4c-3.2,2.7-7.9,3.4-11.7,1.8c-0.7-0.3-1.3-0.6-1.9-1.1C51.8,55.8,52.9,54.7,54.2,54.2z"/>
	</g>
	<g>
		<defs>
			<path id="SVGID_3_" d="M56.3,62.9C44.9,75,38.7,91.7,38.8,108.4c0.1,17,7.1,34.2,20.2,44.9c9.5,7.8,21.7,11.9,33.9,13.1
				c11.6,1.1,23.8-0.5,33.9-6.4c10.3-6,17.8-16,22.7-26.9c8.2-18.4,9-40.4,0.1-58.5c-6.2-12.6-17.4-22.7-30.6-27.6
				c-13.6-5-28.2-4.7-41.5,0.9C69.6,51.4,62.2,56.5,56.3,62.9z"/>
		</defs>
		<clipPath id="SVGID_2_">
			<use xlink:href="#SVGID_3_"  style="overflow:visible;"/>
		</clipPath>
		<path style="clip-path:url(#SVGID_2_);fill:#FEC368;" d="M56.3,62.9C44.9,75,38.7,91.7,38.8,108.4c0.1,17,7.1,34.2,20.2,44.9
			c9.5,7.8,21.7,11.9,33.9,13.1c11.6,1.1,23.8-0.5,33.9-6.4c10.3-6,17.8-16,22.7-26.9c8.2-18.4,9-40.4,0.1-58.5
			c-6.2-12.6-17.4-22.7-30.6-27.6c-13.6-5-28.2-4.7-41.5,0.9C69.6,51.4,62.2,56.5,56.3,62.9z"/>
		<path style="clip-path:url(#SVGID_2_);fill:#DD8340;" d="M60,77.9c4.4,1,8.7,3.3,13.2,2.9c0.5-0.1,1.2-0.1,1.6,0.3
			c0.6,0.6,0.1,1.6-0.4,2.2c-3,3.2-7.8,3.8-12.1,3.6c-4.3-0.2-8.7-1.1-13-0.1c-1.8,0.4-3.6,1.1-5.4,1.3c-1.8,0.2-3.9-0.4-4.9-2
			c-2.2-3.7,4.7-6.3,7-7.2C50.5,77.2,55.4,76.8,60,77.9z"/>
		<path style="clip-path:url(#SVGID_2_);fill:#DD8340;" d="M63.8,94.7c0.6,0.1,1.4,0.3,1.6,0.9c0.2,0.6-0.1,1.2-0.5,1.7
			c-3.2,4.4-7.9,7.6-13.1,8.9c-5.2,1.4-10.9,0.9-15.8-1.4c-2.2-1-4.1-3.3-2.1-5.6c1.5-1.8,5.6-2.5,7.7-3.1
			C48.8,94,56.4,93.5,63.8,94.7z"/>
		<path style="clip-path:url(#SVGID_2_);fill:#DD8340;" d="M54.4,111.3c0.8-0.1,1.6-0.2,2.4,0c0.8,0.2,1.5,0.7,1.8,1.4
			c0.4,1.3-0.7,2.6-1.7,3.4c-3.5,2.8-7.5,4.9-11.9,6c-1.9,0.5-3.9,0.8-5.7,0.1c-6-2.3-0.6-5.6,2.3-7C45.6,113.3,49.9,112,54.4,111.3
			z"/>
		<path style="clip-path:url(#SVGID_2_);fill:#DD8340;" d="M79.5,83.3c-0.2,1.2,1.1,2.2,2.3,2.5c1.2,0.2,2.5,0,3.7,0.3
			c1.6,0.5,2.7,2,3.9,3c1.3,1.1,3.3,1.8,4.5,0.6c2.7-2.5-2.6-7.6-4.7-8.9C86.9,79.4,80.2,79.9,79.5,83.3z"/>
		<path style="clip-path:url(#SVGID_2_);fill:#DD8340;" d="M65.9,64.3c-1.1,0.4-2.3,0.8-3.2,1.7c-0.9,0.8-1.4,2.1-1,3.3
			c0.4,1.2,1.7,1.9,2.9,2s2.5-0.2,3.7-0.5c3.7-1,7.6-1.8,11.2-0.4c1.7,0.7,3.1,1.9,4.6,2.9c1.5,1,3.2,2,5,2.2
			c1.8,0.1,3.8-0.7,4.5-2.4c0.6-1.4,0-3.1-1-4.3c-1-1.2-2.4-1.9-3.8-2.6C81.4,62.7,73.8,61.8,65.9,64.3z"/>
		<path style="clip-path:url(#SVGID_2_);fill:#DD8340;" d="M69.3,58.9c1.2,1.2,3.3,0.7,4.7-0.2c1.4-0.9,2.8-2.2,4.4-2.4
			c0.7-0.1,1.5,0,2.2-0.2c0.7-0.1,1.5-0.5,1.7-1.2c1.3-3.9-4.9-2.2-6.2-1.7C75.5,53.5,68.2,57.9,69.3,58.9z"/>
		<path style="clip-path:url(#SVGID_2_);fill:#DD8340;" d="M86.7,95.8c0.7,1.2-0.6,2.8-0.2,4.2c0.2,0.8,1,1.4,1.9,1.5
			c0.9,0.1,1.7-0.3,2.3-0.9c2.8-2.5,0.8-8.3-2.5-9.5c-1.3-0.4-4-0.1-4.2,1.7C83.7,94.7,86,94.5,86.7,95.8z"/>
		<path style="clip-path:url(#SVGID_2_);fill:#DD8340;" d="M67.6,112.7c4.2-6.3-7.6-5.3-6.5-0.2c0.2,0.7,0.7,1.2,1.4,1.6
			C64.2,115,66.5,114.4,67.6,112.7z"/>
		<path style="clip-path:url(#SVGID_2_);fill:#DD8340;" d="M60.1,125.8c-0.4,0.7-0.8,1.5-0.9,2.3c-0.1,0.8,0.2,1.7,0.9,2.2
			c0.7,0.5,1.7,0.4,2.5,0c0.8-0.4,1.4-1.1,1.9-1.8c1.1-1.5,5.7-8.5,2.9-9.6C64.6,118,61,124.2,60.1,125.8z"/>
		<path style="clip-path:url(#SVGID_2_);fill:#DD8340;" d="M136.9,77.9c-4.4,1-8.7,3.3-13.2,2.9c-0.5-0.1-1.2-0.1-1.6,0.3
			c-0.6,0.6-0.1,1.6,0.4,2.2c3,3.2,7.8,3.8,12.1,3.6c4.3-0.2,8.7-1.1,13-0.1c1.8,0.4,3.6,1.1,5.4,1.3c1.8,0.2,3.9-0.4,4.9-2
			c2.2-3.7-4.7-6.3-7-7.2C146.4,77.2,141.5,76.8,136.9,77.9z"/>
		<path style="clip-path:url(#SVGID_2_);fill:#DD8340;" d="M133.1,94.7c-0.6,0.1-1.4,0.3-1.6,0.9c-0.2,0.6,0.1,1.2,0.5,1.7
			c3.2,4.4,7.9,7.6,13.1,8.9c5.2,1.4,10.9,0.9,15.8-1.4c2.2-1,4.1-3.3,2.1-5.6c-1.5-1.8-5.6-2.5-7.7-3.1
			C148.1,94,140.5,93.5,133.1,94.7z"/>
		<path style="clip-path:url(#SVGID_2_);fill:#DD8340;" d="M142.5,111.3c-0.8-0.1-1.6-0.2-2.4,0s-1.5,0.7-1.8,1.4
			c-0.4,1.3,0.7,2.6,1.7,3.4c3.5,2.8,7.5,4.9,11.9,6c1.9,0.5,3.9,0.8,5.7,0.1c6-2.3,0.6-5.6-2.3-7
			C151.3,113.3,146.9,112,142.5,111.3z"/>
		<path style="clip-path:url(#SVGID_2_);fill:#DD8340;" d="M117.4,83.3c0.2,1.2-1.1,2.2-2.3,2.5c-1.2,0.2-2.5,0-3.7,0.3
			c-1.6,0.5-2.7,2-3.9,3c-1.3,1.1-3.3,1.8-4.5,0.6c-2.7-2.5,2.6-7.6,4.7-8.9C109.9,79.4,116.7,79.9,117.4,83.3z"/>
		<path style="clip-path:url(#SVGID_2_);fill:#DD8340;" d="M131,64.3c1.1,0.4,2.3,0.8,3.2,1.7c0.9,0.8,1.4,2.1,1,3.3
			c-0.4,1.2-1.7,1.9-2.9,2s-2.5-0.2-3.7-0.5c-3.7-1-7.6-1.8-11.2-0.4c-1.7,0.7-3.1,1.9-4.6,2.9c-1.5,1-3.2,2-5,2.2
			c-1.8,0.1-3.8-0.7-4.5-2.4c-0.6-1.4,0-3.1,1-4.3c1-1.2,2.4-1.9,3.8-2.6C115.5,62.7,123,61.8,131,64.3z"/>
		<path style="clip-path:url(#SVGID_2_);fill:#DD8340;" d="M112.6,56.7c-0.6-0.7-1.6-0.7-2.5-0.6c-1.8,0.2-8.8,0-11.6,1.9
			c-2.8-1.8-9.8-1.7-11.6-1.9c-0.9-0.1-1.9-0.1-2.5,0.6c-0.4,0.5-0.4,1.3-0.1,1.8c0.3,0.6,0.8,1,1.3,1.5c2.4,1.9,5.2,3.2,8.2,3.7
			c1.7,0.3,3.6,0.1,4.7-1.2c1.1,1.3,3.1,1.4,4.7,1.2c3-0.4,5.9-1.7,8.2-3.7c0.5-0.4,1-0.9,1.3-1.5C113,58,113,57.2,112.6,56.7z"/>
		<path style="clip-path:url(#SVGID_2_);fill:#DD8340;" d="M127.6,58.9c-1.2,1.2-3.3,0.7-4.7-0.2c-1.4-0.9-2.8-2.2-4.4-2.4
			c-0.7-0.1-1.5,0-2.2-0.2c-0.7-0.1-1.5-0.5-1.7-1.2c-1.3-3.9,4.9-2.2,6.2-1.7C121.4,53.5,128.7,57.9,127.6,58.9z"/>
		<path style="clip-path:url(#SVGID_2_);fill:#DD8340;" d="M110.1,95.8c-0.7,1.2,0.6,2.8,0.2,4.2c-0.2,0.8-1,1.4-1.9,1.5
			c-0.9,0.1-1.7-0.3-2.3-0.9c-2.8-2.5-0.8-8.3,2.5-9.5c1.3-0.4,4-0.1,4.2,1.7C113.2,94.7,110.9,94.5,110.1,95.8z"/>
		<path style="clip-path:url(#SVGID_2_);fill:#DD8340;" d="M129.3,112.7c-4.2-6.3,7.6-5.3,6.5-0.2c-0.2,0.7-0.7,1.2-1.4,1.6
			C132.7,115,130.3,114.4,129.3,112.7z"/>
		<path style="clip-path:url(#SVGID_2_);fill:#DD8340;" d="M136.8,125.8c0.4,0.7,0.8,1.5,0.9,2.3c0.1,0.8-0.2,1.7-0.9,2.2
			c-0.7,0.5-1.7,0.4-2.5,0c-0.8-0.4-1.4-1.1-1.9-1.8c-1.1-1.5-5.7-8.5-2.9-9.6C132.3,118,135.9,124.2,136.8,125.8z"/>
		<path style="clip-path:url(#SVGID_2_);fill:#DD8340;" d="M88.8,51.7c0.7,0.9,2,1.4,3.1,1.4c1.2,0,2.3-0.3,3.5-0.5
			c3.8-0.8,7.8-0.7,11.6,0.2c0.6,0.1,1.4,0.3,1.9-0.1c3.4-2.5-6.6-5.1-8-5.2C99.9,47.4,87.5,49.9,88.8,51.7z"/>
		<path style="clip-path:url(#SVGID_2_);fill:#161514;" d="M67.2,99.1c-0.4,1.2-0.7,2.5-0.1,3.7c0.5,1.2,2,2,3.1,1.4
			c0.9-0.4,1.3-1.4,1.5-2.4c0.2-1,0.3-2,0.9-2.8c0.6-0.9,1.7-1.3,2.7-1.2c1,0.2,1.9,0.9,2.3,1.9c0.4,1.3,0,2.9,0.9,3.9
			c0.9,0.9,2.5,0.6,3.3-0.4c0.8-1,1-2.3,0.9-3.6c-0.2-3.9-3-8.1-7.4-7.7C71.9,92.3,68.3,96.1,67.2,99.1z"/>
		<path style="clip-path:url(#SVGID_2_);fill:#161514;" d="M113.4,99.1c-0.4,1.2-0.7,2.5-0.1,3.7c0.5,1.2,2,2,3.1,1.4
			c0.9-0.4,1.3-1.4,1.5-2.4c0.2-1,0.3-2,0.9-2.8c0.6-0.9,1.7-1.3,2.7-1.2c1,0.2,1.9,0.9,2.3,1.9c0.4,1.3,0,2.9,0.9,3.9
			c0.9,0.9,2.5,0.6,3.3-0.4c0.8-1,1-2.3,0.9-3.6c-0.2-3.9-3-8.1-7.4-7.7C118.2,92.3,114.5,96.1,113.4,99.1z"/>
		<path style="clip-path:url(#SVGID_2_);fill:#FFE8D6;" d="M73.2,119.9c-4.5,9.9-2.3,22.7,5.9,29.8c4.7,4,10.8,6.1,16.9,7.1
			c5.1,0.8,10.5,1,15.3-1c5-2.1,8.8-6.5,11.2-11.4c4.3-8.8,4.1-19.6-0.7-28.1c-4-7-11.2-12.1-19-13.6c-7.4-1.4-15.6,2.1-21.3,6.7
			C78,112.3,75.1,115.8,73.2,119.9z"/>
		<path style="clip-path:url(#SVGID_2_);fill:#161514;" d="M109.4,140.8c-0.6-0.2-1.1,0.2-1.4,0.8c-0.3,0.5-0.3,1.1-0.5,1.7
			c-0.6,1.5-2.6,2.4-4.1,1.7c-1.1-0.5-1.9-1.6-2.2-2.8c-0.3-1.2-0.3-2.4-0.3-3.7c0.1-2.2,0.4-4.4,0.5-6.6c0.1-1.5,0.1-3,0-4.5
			c0-0.3,0-0.6,0-0.9c0,0,0.1,0,0.1,0c2.3-0.2,4.6-1,6.3-2.6c1.7-1.6,2.7-4,2.3-6.3c-0.9-5.2-8.9-5.5-13.1-5.3
			c-2.7,0.2-5.5,1.2-7.2,3.3c-1.7,2.1-2.1,5.4-0.4,7.5c1.2,1.5,3.3,2.2,5.2,2.6c1.1,0.3,2.2,0.5,3.3,0.6c0,0.4,0,0.7-0.1,1
			c-0.1,1.5-0.1,3,0,4.5c0.1,2.2,0.4,4.4,0.5,6.6c0,1.2,0.1,2.5-0.3,3.7c-0.3,1.2-1.1,2.3-2.2,2.8c-1.5,0.6-3.5-0.2-4.1-1.7
			c-0.2-0.5-0.3-1.1-0.5-1.7c-0.3-0.5-0.9-1-1.4-0.8c-0.6,0.2-0.7,1-0.7,1.6c0.2,2.5,2.3,4.8,4.8,5.2c2.3,0.3,4.6-1,5.7-3
			c1.1,2,3.4,3.3,5.7,3c2.5-0.3,4.6-2.6,4.8-5.2C110.2,141.7,110,141,109.4,140.8z"/>
	</g>
	<g>
		<path class="st21" d="M48.6,145.6c-1.1,0.5-2.4,1.4-2.3,2.6c0.1,1.1,1.4,1.7,2.4,1.6c1.1-0.1,2-0.8,2.8-1.4
			c7.2-4.9,15.7-7.9,24.4-8.4c2.9-0.2,5,0.1,6.8-2.3c-0.8-2.7-13.5,1.3-15.9,1.8C60.6,140.9,54.4,142.9,48.6,145.6z"/>
		<path class="st21" d="M47.1,134.3c-1.2,0.3-2.6,1-2.6,2.2c0,1.1,1.1,1.9,2.2,1.9c1.1,0,2.1-0.5,3-0.9c7.8-3.8,16.7-5.5,25.4-4.8
			c2.9,0.2,4.9,0.8,7.1-1.3c-0.4-2.8-13.5-0.7-16-0.5C59.6,131.3,53.3,132.4,47.1,134.3z"/>
		<path class="st21" d="M47.6,119.7c-1.2,0-2.8,0.3-3.1,1.5c-0.3,1,0.6,2.1,1.6,2.4c1,0.3,2.1,0.1,3.2-0.1
			c8.6-1.6,17.6-0.8,25.7,2.2c2.7,1,4.5,2.1,7.2,0.7c0.3-2.8-12.8-4.3-15.3-4.8C60.5,120.2,54.1,119.6,47.6,119.7z"/>
	</g>
	<g>
		<path class="st21" d="M150.2,145.6c1.1,0.5,2.4,1.4,2.3,2.6c-0.1,1.1-1.4,1.7-2.4,1.6c-1.1-0.1-2-0.8-2.8-1.4
			c-7.2-4.9-15.7-7.9-24.4-8.4c-2.9-0.2-5,0.1-6.8-2.3c0.8-2.7,13.5,1.3,15.9,1.8C138.2,140.9,144.4,142.9,150.2,145.6z"/>
		<path class="st21" d="M151.7,134.3c1.2,0.3,2.6,1,2.6,2.2c0,1.1-1.1,1.9-2.2,1.9c-1.1,0-2.1-0.5-3-0.9c-7.8-3.8-16.7-5.5-25.4-4.8
			c-2.9,0.2-4.9,0.8-7.1-1.3c0.4-2.8,13.5-0.7,16-0.5C139.1,131.3,145.5,132.4,151.7,134.3z"/>
		<path class="st21" d="M151.2,119.7c1.2,0,2.8,0.3,3.1,1.5c0.3,1-0.6,2.1-1.6,2.4c-1,0.3-2.1,0.1-3.2-0.1
			c-8.6-1.6-17.6-0.8-25.7,2.2c-2.7,1-4.5,2.1-7.2,0.7c-0.3-2.8,12.8-4.3,15.3-4.8C138.3,120.2,144.7,119.6,151.2,119.7z"/>
	</g>
</g>
</svg>
