<?xml version="1.0" encoding="utf-8"?>
<!-- Generator: Adobe Illustrator 24.0.0, SVG Export Plug-In . SVG Version: 6.00 Build 0)  -->
<svg version="1.1" id="Layer_1" xmlns="http://www.w3.org/2000/svg" xmlns:xlink="http://www.w3.org/1999/xlink" x="0px" y="0px"
	 viewBox="0 0 200 200" style="enable-background:new 0 0 200 200;" xml:space="preserve">
<style type="text/css">
	.st0{fill:#F2F1E8;}
	.st1{fill:#A8A9A2;}
	.st2{fill:#32302D;}
	.st3{clip-path:url(#SVGID_2_);fill:#32302D;}
	.st4{fill:#161514;}
	.st5{fill:#232220;}
	.st6{fill:#884637;}
	.st7{fill:#FBBB8C;}
	.st8{fill:#FFE8D6;}
	.st9{fill:#8E6F5E;}
	.st10{fill:#7A5B4C;}
	.st11{fill:#5E3F33;}
	.st12{fill:#A88E7D;}
	.st13{fill:#F9DBB2;}
	.st14{fill:#E09E48;}
	.st15{fill:#9B5E1B;}
	.st16{fill:#C18033;}
	.st17{clip-path:url(#SVGID_4_);fill:#FEC368;}
	.st18{clip-path:url(#SVGID_4_);fill:#DD8340;}
	.st19{clip-path:url(#SVGID_4_);fill:#161514;}
	.st20{clip-path:url(#SVGID_4_);fill:#FFE8D6;}
	.st21{fill:#FFFFFF;}
	.st22{fill:#D6854D;}
	.st23{fill:#B46133;}
	.st24{fill:#EC9B5E;}
	.st25{fill:#88524C;}
	.st26{clip-path:url(#SVGID_6_);fill:#B46133;}
	.st27{fill:#EACAB5;}
	.st28{fill:#D3AF9B;}
	.st29{fill:#4D4C48;}
	.st30{fill:#D2D2CA;}
	.st31{fill:#514142;}
	.st32{fill:#C6604D;}
	.st33{fill:#2C1C0F;}
	.st34{fill:#5F4C4E;}
	.st35{fill:none;stroke:#2C1C0F;stroke-width:5.9134;stroke-linecap:round;stroke-linejoin:round;stroke-miterlimit:10;}
	.st36{fill:#BCBEC0;}
	.st37{fill:#636466;}
	.st38{fill:#D1D3D4;}
	.st39{fill:#EBEBEC;}
	.st40{fill:#A7A9AC;}
	.st41{fill:#AAAAAA;}
	.st42{opacity:0.8;fill:#2C1C0F;}
	.st43{fill:#FAF3EB;}
	.st44{fill:none;stroke:#282F39;stroke-width:4.7595;stroke-linecap:round;stroke-linejoin:round;stroke-miterlimit:10;}
	.st45{fill:#DD786B;}
	.st46{fill:#83562D;}
	.st47{fill:#B37E4A;}
	.st48{fill:#3A2B20;}
	.st49{fill:#30231B;}
	.st50{fill:#634C3B;}
	.st51{fill:#CB915A;}
	.st52{fill:#544032;}
	.st53{fill:#2D2119;}
	.st54{fill:#231A14;}
	.st55{fill:#33322F;}
	.st56{fill:#777673;}
	.st57{fill:#353432;}
	.st58{fill:#E7E6DE;}
	.st59{fill:#F3757A;}
	.st60{fill:#BF4750;}
	.st61{fill:#D6565F;}
	.st62{fill:#FFAEB4;}
	.st63{fill:#E58893;}
	.st64{fill:#A3313A;}
	.st65{fill:#F2F1E7;}
	.st66{fill:#F9B7B2;}
	.st67{fill:#E59291;}
	.st68{fill:#CC7171;}
	.st69{clip-path:url(#SVGID_8_);fill:#383734;}
	.st70{fill:#FCBC7E;}
	.st71{fill:#B74E2E;}
	.st72{fill:#A53F28;}
	.st73{clip-path:url(#SVGID_10_);fill:#E58341;}
	.st74{clip-path:url(#SVGID_10_);}
	.st75{fill:#CC652B;}
	.st76{fill:#EAA465;}
	.st77{fill:#4B2D23;}
	.st78{fill:#3A211B;}
	.st79{fill:#D68847;}
	.st80{fill:#E58341;}
	.st81{fill:#AF5223;}
	.st82{fill:#E2705C;}
	.st83{fill:#F8F8F8;}
	.st84{fill:#FFBE51;}
	.st85{fill:#4A1F09;}
	.st86{fill:#DFDCDA;}
	.st87{fill:#623420;}
	.st88{fill:#AB8458;}
	.st89{fill:#E1965F;}
	.st90{fill:#CD8554;}
	.st91{fill:#957350;}
	.st92{fill:#A8A6A2;}
	.st93{fill:#E9E9E7;}
	.st94{fill:#636260;}
	.st95{fill:#BCBBB8;}
	.st96{fill:#1C1B1A;}
	.st97{fill:#32302E;}
	.st98{fill:#D2D2CC;}
	.st99{fill:#A19E9C;}
	.st100{fill:#5A5452;}
	.st101{fill:#8A8786;}
</style>
<g>
	<g>
		<path class="st56" d="M77,32.1C66.2,40,62.7,54.4,60,67.5c-5.5,26.6-11,53.2-16.4,79.8c-2,9.6,1.9,15.3,11,18.9
			c27.2,10.9,57.8,10.5,86.3,4c9-2.1,15.9-5.2,16-15.5c0.1-8.6-1.8-17.1-3.5-25.5c-4.5-22.3-9-44.7-13.5-67
			c-1.2-6.1-2.5-12.2-5.3-17.8C124.8,24.6,94.4,19.4,77,32.1z"/>
		<path class="st92" d="M83.9,124.5c1.5,1.9,3.3,3.6,5.4,4.7c1.9,1,4.1,1.5,6.2,1.8c5.7,0.7,11.8-0.3,16.6-3.4
			c2.3-1.5,4.3-3.5,6.1-5.5c2.4-2.7,4.6-5.8,5.2-9.4c0.2-1,0.3-2.1-0.1-3.1c-0.4-1.1-1.4-1.9-2.3-2.6c-3.5-2.4-7.7-3.8-10.8-6.7
			c-2.8-2.6-4.8-6.7-8.6-7.5c-2.3-0.5-4.7,0.4-6.9,1.4c-2.2,1-4.5,2.2-5.9,4.2c-0.9,1.3-1.4,2.9-2.3,4.2c-1,1.7-2.4,3.1-4.1,4
			c-1.1,0.6-2.2,1-3.2,1.7C74.5,112,81.3,121.4,83.9,124.5z"/>
		<path class="st93" d="M79.3,155.9c0.6,1.6,1.3,3.3,2.6,4.4c1.3,1.2,3.3,1.7,4.8,0.8c1.7-1.1,1.9-3.5,1.9-5.5
			c-0.1-11.9-0.1-23.8-0.2-35.6c0-3.8-0.1-7.8-2.1-11c-1.7-2.7-4.6-4.5-7.7-5.4c-2.2-0.6-4.6-0.7-6.6,0.2c-3.1,1.5-3.3,4.2-3,7.2
			c0.4,3.7,0.8,7.4,1.4,11.1c1.2,7.4,2.8,14.8,4.9,22.1C76.5,148.1,77.8,152,79.3,155.9z"/>
		<path class="st93" d="M123.2,155.9c-0.6,1.6-1.3,3.3-2.6,4.4c-1.3,1.2-3.3,1.7-4.8,0.8c-1.7-1.1-1.9-3.5-1.9-5.5
			c0.1-11.9,0.1-23.8,0.2-35.6c0-3.8,0.1-7.8,2.1-11c1.7-2.7,4.6-4.5,7.7-5.4c2.2-0.6,4.6-0.7,6.6,0.2c3.1,1.5,3.3,4.2,3,7.2
			c-0.4,3.7-0.8,7.4-1.4,11.1c-1.2,7.4-2.8,14.8-4.9,22.1C126.1,148.1,124.7,152,123.2,155.9z"/>
		<path class="st94" d="M85.5,41.1c-3.6-0.1-7.8,0.1-9.9,3c-1.1,1.5-1.4,3.4-1.1,5.2c0.6,3.9,3.7,7.1,7.3,8.7
			c3.6,1.6,7.6,1.9,11.6,2.1c7.6,0.4,15.5,0.3,22.7-2.1c2.8-0.9,5.6-2.3,7.6-4.6c1.9-2.3,2.7-5.7,1.3-8.3c-1.9-3.4-6.4-4.1-10.2-4.2
			C104.9,40.6,95.2,41.2,85.5,41.1z"/>
		<path class="st95" d="M150.3,80.6c-3.7-11.4-14.6-18.9-25.6-23.8c-15-6.7-33.7-6.7-48.7,0c-10.9,4.9-21.9,12.4-25.6,23.8
			c-2.7,8.5-0.7,18.3,5.2,25c5.8,6.7,15.3,10.1,24.1,8.5c9.9-1.7,17.5-8.8,20.7-17.7c3.2,8.9,10.8,16,20.7,17.7
			c8.8,1.5,18.2-1.8,24.1-8.5C151,98.9,153,89.1,150.3,80.6z"/>
		<path d="M88,47.8c0.7-3.4-2.2-4.2-5-3.4c-1.1,0.3-2.2,1-2.6,2.1c-0.6,1.4-0.2,3.2,1.1,4.1c0.9,0.6,2,0.8,3.1,0.6
			C86.2,50.8,87.7,49.4,88,47.8z"/>
		<path d="M121.7,48c0.7-3.4-2.2-4.2-5-3.4c-1.1,0.3-2.2,1-2.6,2.1c-0.6,1.4-0.2,3.2,1.1,4.1c0.9,0.6,2,0.8,3.1,0.6
			C119.9,51,121.3,49.7,121.7,48z"/>
		<path class="st92" d="M98.3,90c0.1,2.1,0.2,4.3,0.8,6.3c0.1,0.5,0.3,1,0.7,1.2c0.6,0.4,1.4,0,1.8-0.6c0.4-0.6,0.4-1.3,0.4-2.1
			c0.2-7.1,0.2-14.1,0-21.2c0-1.4-0.8-2.8-2.1-1.7c-1.2,1-1.1,3.3-1.2,4.6C98.3,81,98.2,85.5,98.3,90z"/>
		<g>
			<path class="st96" d="M96.6,68.6c-0.2-0.4-0.4-0.9-0.9-1.1c-1.8-0.9-3.7-0.4-5.2,0.7c1.4,1.7,3.3,3,5.2,4.3
				c0.1,0,0.1,0.1,0.2,0.1C96.7,71.4,97,70,96.6,68.6z"/>
			<path class="st97" d="M109.1,61.4c-0.6-0.3-1.3-0.4-2.1-0.5c-2.2-0.3-13.3-0.7-17,1.7c-1,0.6-1.5,1.5-1.2,2.6
				c0.3,1.1,0.9,2.1,1.7,3c1.5-1.1,3.4-1.6,5.2-0.7c0.4,0.2,0.6,0.6,0.9,1.1c0.4,1.4,0.1,2.8-0.7,4c1.3,0.8,2.6,1.7,4.1,1.7
				c1.6,0.1,3.2-0.8,4.6-1.6c0.1-0.1,0.2-0.1,0.3-0.2c-0.9-1.3-1.2-3.1-0.4-4.6c0.4-0.6,1.1-1.5,2.1-1.7c1.4-0.2,2.7,0.3,3.7,1.1
				C111.7,65.2,112,62.9,109.1,61.4z"/>
			<path class="st96" d="M106.6,66.2c-1.1,0.2-1.7,1.1-2.1,1.7c-0.8,1.5-0.5,3.3,0.4,4.6c1.5-1,4-3,5.4-5.2
				C109.3,66.5,108,66,106.6,66.2z"/>
		</g>
		<g>
			<path class="st56" d="M86.8,98.5c3.9-0.4,3.6-6.7-0.5-6C82.6,93.1,82.8,99,86.8,98.5z"/>
			<path class="st56" d="M77.4,100.5c2.5-0.3,2.3-4.2-0.3-3.8C74.7,97,74.9,100.7,77.4,100.5z"/>
			<path class="st56" d="M69.4,101.9c2.5-0.3,2.3-4.2-0.3-3.8C66.7,98.5,66.9,102.2,69.4,101.9z"/>
			<path class="st56" d="M86.5,89c3.9,0.3,4.7-5.9,0.5-6C83.3,82.9,82.6,88.7,86.5,89z"/>
			<path class="st56" d="M76.9,89.2c2.5,0.2,3-3.7,0.3-3.8C74.9,85.4,74.4,89.1,76.9,89.2z"/>
			<path class="st56" d="M63.2,88.5c1.5,0.1,1.8-2.2,0.2-2.3C62,86.2,61.7,88.4,63.2,88.5z"/>
			<path class="st56" d="M61.9,100.2c1.5,0.1,1.8-2.2,0.2-2.3C60.7,97.9,60.4,100.1,61.9,100.2z"/>
			<path class="st56" d="M68.8,89.2c2.5,0.2,3-3.7,0.3-3.8C66.8,85.4,66.3,89.1,68.8,89.2z"/>
		</g>
		<g>
			<path class="st56" d="M113.2,98.5c-3.9-0.4-3.6-6.7,0.5-6C117.4,93.1,117.2,99,113.2,98.5z"/>
			<path class="st56" d="M122.6,100.5c-2.5-0.3-2.3-4.2,0.3-3.8C125.3,97,125.1,100.7,122.6,100.5z"/>
			<path class="st56" d="M130.6,101.9c-2.5-0.3-2.3-4.2,0.3-3.8C133.3,98.5,133.1,102.2,130.6,101.9z"/>
			<path class="st56" d="M113.5,89c-3.9,0.3-4.7-5.9-0.5-6C116.7,82.9,117.4,88.7,113.5,89z"/>
			<path class="st56" d="M123.1,89.2c-2.5,0.2-3-3.7-0.3-3.8C125.1,85.4,125.6,89.1,123.1,89.2z"/>
			<path class="st56" d="M136.8,88.5c-1.5,0.1-1.8-2.2-0.2-2.3C138,86.2,138.3,88.4,136.8,88.5z"/>
			<path class="st56" d="M138.1,100.2c-1.5,0.1-1.8-2.2-0.2-2.3C139.3,97.9,139.6,100.1,138.1,100.2z"/>
			<path class="st56" d="M131.2,89.2c-2.5,0.2-3-3.7-0.3-3.8C133.2,85.4,133.7,89.1,131.2,89.2z"/>
		</g>
		<path class="st98" d="M41.1,70.5c-2.4-0.5-4.9-0.7-7.3-0.7c-0.2,0-0.5,0-0.6,0.1c-0.3,0.2-0.3,0.8,0,1.1c0.3,0.3,0.7,0.4,1.1,0.6
			c9.4,2.7,19.4,4.1,27.7,9.2c0.7,0.4,1.9,0.8,2.3,0.1c0.3-0.6-0.2-1.3-0.7-1.8c-3.6-3.3-9.1-4.8-13.6-6.3
			C47.2,72,44.1,71.1,41.1,70.5z"/>
		<path class="st98" d="M33,81.2c-2.5,0-4.9,0.2-7.3,0.7c-0.2,0-0.5,0.1-0.6,0.3c-0.3,0.3-0.1,0.8,0.2,1.1c0.3,0.2,0.8,0.3,1.2,0.3
			c9.7,0.8,19.8,0.2,29,3.5c0.8,0.3,2,0.5,2.3-0.4c0.2-0.6-0.4-1.2-1-1.6c-4.2-2.5-9.8-3-14.6-3.5C39.2,81.4,36.1,81.2,33,81.2z"/>
		<path class="st98" d="M34,96.7c-2.3,0.9-4.5,1.9-6.6,3.2c-0.2,0.1-0.4,0.3-0.5,0.5c-0.2,0.4,0.2,0.8,0.6,0.9
			c0.4,0.1,0.8,0,1.2-0.1c9.4-2.6,18.7-6.6,28.4-6.6c0.9,0,2-0.3,2-1.1c0-0.7-0.8-1-1.5-1.2c-4.8-0.9-10.3,0.6-14.9,1.8
			C39.9,94.7,36.9,95.6,34,96.7z"/>
		<path class="st98" d="M158.9,70.5c2.4-0.5,4.9-0.7,7.3-0.7c0.2,0,0.5,0,0.6,0.1c0.3,0.2,0.3,0.8,0,1.1c-0.3,0.3-0.7,0.4-1.1,0.6
			c-9.4,2.7-19.4,4.1-27.7,9.2c-0.7,0.4-1.9,0.8-2.3,0.1c-0.3-0.6,0.2-1.3,0.7-1.8c3.6-3.3,9.1-4.8,13.6-6.3
			C152.8,72,155.9,71.1,158.9,70.5z"/>
		<path class="st98" d="M167,81.2c2.5,0,4.9,0.2,7.3,0.7c0.2,0,0.5,0.1,0.6,0.3c0.3,0.3,0.1,0.8-0.2,1.1c-0.3,0.2-0.8,0.3-1.2,0.3
			c-9.7,0.8-19.8,0.2-29,3.5c-0.8,0.3-2,0.5-2.3-0.4c-0.2-0.6,0.4-1.2,1-1.6c4.2-2.5,9.8-3,14.6-3.5C160.8,81.4,163.9,81.2,167,81.2
			z"/>
		<path class="st98" d="M166,96.7c2.3,0.9,4.5,1.9,6.6,3.2c0.2,0.1,0.4,0.3,0.5,0.5c0.2,0.4-0.2,0.8-0.6,0.9c-0.4,0.1-0.8,0-1.2-0.1
			c-9.4-2.6-18.7-6.6-28.4-6.6c-0.9,0-2-0.3-2-1.1c0-0.7,0.8-1,1.5-1.2c4.8-0.9,10.3,0.6,14.9,1.8C160.1,94.7,163.1,95.6,166,96.7z"
			/>
	</g>
	<path class="st94" d="M51.8,146c0.5,4.8,4,9.2,8.6,10.4c4.6,1.2,10.1-1.3,11.8-5.7c0.6-1.6,0.8-3.5,0.8-5.2c0-1.5-0.2-3.1-0.6-4.5
		c-1.5-4.8-7.8-8.8-12.9-8C53.8,133.8,51.2,141,51.8,146z"/>
	<path class="st94" d="M60.8,119.2c2.1-0.6,4.3,0.1,5.3,3.1c0.8,2.2-0.1,4.9-2.1,6.2c-1.5,1-3.6,1.2-5.3,0.5c-0.9-0.4-1.8-1-2.2-1.9
		C54.7,123.9,57.6,120.1,60.8,119.2z"/>
	<path class="st94" d="M134.9,128.4c0,1.1,0.3,2.3,1,3.1c0.7,0.9,1.8,1.5,2.9,1.9c1.8,0.8,3.8,1.4,5.6,0.7c1.7-0.7,2.7-2.4,3.2-4.2
		c0.6-2.1,0.6-4.3-0.2-6.3c-0.8-2-2.7-3.6-4.8-3.9C138,119.2,134.8,124.4,134.9,128.4z"/>
	<path class="st94" d="M107.5,30.6c-1.3-0.8-3.2-0.1-3.9,1.3c-0.7,1.4-0.3,3.2,0.7,4.3c1.1,1.1,2.6,1.7,4.2,1.7c1.2,0,2.5-0.4,3-1.5
		c0.2-0.4,0.2-0.9,0.1-1.3c-0.2-1.9-1.8-3.6-3.7-4.1"/>
</g>
</svg>
