<?xml version="1.0" encoding="utf-8"?>
<!-- Generator: Adobe Illustrator 24.0.0, SVG Export Plug-In . SVG Version: 6.00 Build 0)  -->
<svg version="1.1" id="Layer_1" xmlns="http://www.w3.org/2000/svg" xmlns:xlink="http://www.w3.org/1999/xlink" x="0px" y="0px"
	 viewBox="0 0 200 200" style="enable-background:new 0 0 200 200;" xml:space="preserve">
<style type="text/css">
	.st0{fill:#F2F1E8;}
	.st1{fill:#A8A9A2;}
	.st2{fill:#32302D;}
	.st3{clip-path:url(#SVGID_2_);fill:#32302D;}
	.st4{fill:#161514;}
	.st5{fill:#232220;}
	.st6{fill:#884637;}
	.st7{fill:#FBBB8C;}
	.st8{fill:#FFE8D6;}
	.st9{fill:#8E6F5E;}
	.st10{fill:#7A5B4C;}
	.st11{fill:#5E3F33;}
	.st12{fill:#A88E7D;}
	.st13{fill:#F9DBB2;}
	.st14{fill:#E09E48;}
	.st15{fill:#9B5E1B;}
	.st16{fill:#C18033;}
	.st17{clip-path:url(#SVGID_4_);fill:#FEC368;}
	.st18{clip-path:url(#SVGID_4_);fill:#DD8340;}
	.st19{clip-path:url(#SVGID_4_);fill:#161514;}
	.st20{clip-path:url(#SVGID_4_);fill:#FFE8D6;}
	.st21{fill:#FFFFFF;}
	.st22{fill:#D6854D;}
	.st23{fill:#B46133;}
	.st24{fill:#EC9B5E;}
	.st25{fill:#88524C;}
	.st26{clip-path:url(#SVGID_6_);fill:#B46133;}
	.st27{fill:#EACAB5;}
	.st28{fill:#D3AF9B;}
	.st29{fill:#4D4C48;}
	.st30{fill:#D2D2CA;}
	.st31{fill:#514142;}
	.st32{fill:#C6604D;}
	.st33{fill:#2C1C0F;}
	.st34{fill:#5F4C4E;}
	.st35{fill:none;stroke:#2C1C0F;stroke-width:5.9134;stroke-linecap:round;stroke-linejoin:round;stroke-miterlimit:10;}
	.st36{fill:#BCBEC0;}
	.st37{fill:#636466;}
	.st38{fill:#D1D3D4;}
	.st39{fill:#EBEBEC;}
	.st40{fill:#A7A9AC;}
	.st41{fill:#AAAAAA;}
	.st42{opacity:0.8;fill:#2C1C0F;}
	.st43{fill:#FAF3EB;}
	.st44{fill:none;stroke:#282F39;stroke-width:4.7595;stroke-linecap:round;stroke-linejoin:round;stroke-miterlimit:10;}
	.st45{fill:#DD786B;}
	.st46{fill:#83562D;}
	.st47{fill:#B37E4A;}
	.st48{fill:#3A2B20;}
	.st49{fill:#30231B;}
	.st50{fill:#634C3B;}
	.st51{fill:#CB915A;}
	.st52{fill:#544032;}
	.st53{fill:#2D2119;}
	.st54{fill:#231A14;}
	.st55{fill:#33322F;}
	.st56{fill:#777673;}
	.st57{fill:#353432;}
	.st58{fill:#E7E6DE;}
	.st59{fill:#F3757A;}
	.st60{fill:#BF4750;}
	.st61{fill:#D6565F;}
	.st62{fill:#FFAEB4;}
	.st63{fill:#E58893;}
	.st64{fill:#A3313A;}
	.st65{fill:#F2F1E7;}
	.st66{fill:#F9B7B2;}
	.st67{fill:#E59291;}
	.st68{fill:#CC7171;}
	.st69{clip-path:url(#SVGID_8_);fill:#383734;}
	.st70{fill:#FCBC7E;}
	.st71{fill:#B74E2E;}
	.st72{fill:#A53F28;}
	.st73{clip-path:url(#SVGID_10_);fill:#E58341;}
	.st74{clip-path:url(#SVGID_10_);}
	.st75{fill:#CC652B;}
	.st76{fill:#EAA465;}
	.st77{fill:#4B2D23;}
	.st78{fill:#3A211B;}
	.st79{fill:#D68847;}
	.st80{fill:#E58341;}
	.st81{fill:#AF5223;}
	.st82{fill:#E2705C;}
	.st83{fill:#F8F8F8;}
	.st84{fill:#FFBE51;}
	.st85{fill:#4A1F09;}
	.st86{fill:#DFDCDA;}
	.st87{fill:#623420;}
	.st88{fill:#AB8458;}
	.st89{fill:#E1965F;}
	.st90{fill:#CD8554;}
	.st91{fill:#957350;}
	.st92{fill:#A8A6A2;}
	.st93{fill:#E9E9E7;}
	.st94{fill:#636260;}
	.st95{fill:#BCBBB8;}
	.st96{fill:#1C1B1A;}
	.st97{fill:#32302E;}
	.st98{fill:#D2D2CC;}
	.st99{fill:#A19E9C;}
	.st100{fill:#5A5452;}
	.st101{fill:#8A8786;}
</style>
<g>
	<g>
		<g>
			<path class="st9" d="M164.4,31.3c0.2,0.1,0.3,0.2,0.5,0.3c0.8,0.7,1.1,1.7,1.1,2.8c0.1,3.2-1.9,5.8-3.3,8.5
				c-1.7,3.2-2.1,6.3-3.1,9.7c-2.5,9.1-5.5,18-9,26.8c-1.4,3.4-3.1,7-6.4,8.4c-4,1.7-8.5-0.5-12.3-2.7c-7.7-4.4-22.4-13.2-14.2-23.5
				c5.5-6.9,12.9-10.9,19.4-16.4c6.7-5.6,14.8-9.7,22.8-13.3C161.4,31.2,163.1,30.6,164.4,31.3z"/>
			<path class="st10" d="M142.2,63.7c0-0.8-1.6-0.8-2.8-0.8c2-1.2,4.8-2.4,3.6-4.8c0-0.4-0.4-1.2-1.2-1.2s-1.6,0.8-2.4,0.4
				c3.6-2.8,9.3-5.7,8.1-9.7c-0.2-0.9-0.6-1.6-1.1-2c-4.2,3.1-8.1,6.7-11.4,10.8c-2.7,3.3-3.3,4.7-0.7,8.3c1.6,2.2,3.6,4.2,5.9,5.7
				C141.7,68.3,142.9,66.2,142.2,63.7z"/>
			<path class="st11" d="M156.2,42.8c-0.2-0.9-1.2-1.5-2.1-1.5c-0.9,0-1.8,0.5-2.6,1c-1.7,1-3.4,2.1-5,3.3c0.5,0.4,0.9,1.1,1.1,2
				c1.2,4-4.4,6.9-8.1,9.7c0.8,0.4,1.6-0.4,2.4-0.4s1.2,0.8,1.2,1.2c1.2,2.4-1.6,3.6-3.6,4.8c1.2,0,2.8,0,2.8,0.8
				c0.7,2.5-0.5,4.6-2.1,6.6c0.4,0.3,0.8,0.5,1.2,0.7c1,0.6,2.3,1.1,3.4,0.6c1-0.4,1.5-1.6,1.9-2.6c3.1-8.2,6.2-16.4,9.3-24.6
				C156.1,43.9,156.3,43.3,156.2,42.8z"/>
		</g>
		<g>
			<path class="st9" d="M34.3,31.3c-0.2,0.1-0.3,0.2-0.5,0.3c-0.8,0.7-1.1,1.7-1.1,2.8c-0.1,3.2,1.9,5.8,3.3,8.5
				c1.7,3.2,2.1,6.3,3.1,9.7c2.5,9.1,5.5,18,9,26.8c1.4,3.4,3.1,7,6.4,8.4c4,1.7,8.5-0.5,12.3-2.7c7.7-4.4,22.4-13.2,14.2-23.5
				c-5.5-6.9-12.9-10.9-19.4-16.4c-6.7-5.6-14.8-9.7-22.8-13.3C37.4,31.2,35.7,30.6,34.3,31.3z"/>
			<path class="st10" d="M56.6,63.7c0-0.8,1.6-0.8,2.8-0.8c-2-1.2-4.8-2.4-3.6-4.8c0-0.4,0.4-1.2,1.2-1.2c0.8,0,1.6,0.8,2.4,0.4
				c-3.6-2.8-9.3-5.7-8.1-9.7c0.2-0.9,0.6-1.6,1.1-2c4.2,3.1,8.1,6.7,11.4,10.8c2.7,3.3,3.3,4.7,0.7,8.3c-1.6,2.2-3.6,4.2-5.9,5.7
				C57.1,68.3,55.8,66.2,56.6,63.7z"/>
			<path class="st11" d="M42.6,42.8c0.2-0.9,1.2-1.5,2.1-1.5c0.9,0,1.8,0.5,2.6,1c1.7,1,3.4,2.1,5,3.3c-0.5,0.4-0.9,1.1-1.1,2
				c-1.2,4,4.4,6.9,8.1,9.7c-0.8,0.4-1.6-0.4-2.4-0.4c-0.8,0-1.2,0.8-1.2,1.2c-1.2,2.4,1.6,3.6,3.6,4.8c-1.2,0-2.8,0-2.8,0.8
				c-0.7,2.5,0.5,4.6,2.1,6.6c-0.4,0.3-0.8,0.5-1.2,0.7c-1,0.6-2.3,1.1-3.4,0.6c-1-0.4-1.5-1.6-1.9-2.6c-3.1-8.2-6.2-16.4-9.3-24.6
				C42.7,43.9,42.5,43.3,42.6,42.8z"/>
		</g>
	</g>
	<path class="st12" d="M173.5,124.7c-0.7-1.3-2-2.1-3.1-3c-5.5-4.1-10.2-9.1-13.8-14.9c-5.7-9-8.8-19.4-15.1-28
		c-5.6-7.7-13.6-13.4-22.5-16.6c-11.9-4.2-26-4.2-37.9,0c-8.9,3.1-16.9,8.9-22.5,16.6c-6.2,8.6-9.4,19.1-15.1,28
		c-3.7,5.7-8.4,10.8-13.8,14.9c-1.2,0.9-2.4,1.7-3.1,3c-0.7,1.3-0.7,3.1,0.4,4c0.9,0.7,2.1,0.7,3.2,0.7c3.4-0.2,6.8-0.7,10.1-1.5
		c-2,2.3-3.6,4.9-5,7.6c-0.5,1.1-1,2.3-0.5,3.4c0.8,1.9,3.6,1.7,5.5,0.9c1.9-0.9,4-2.1,5.9-1.2c-2.6,1.4-3.2,5.6-1,7.6
		s6.3,1.2,7.6-1.5c-0.3,2.6-0.4,5.4,1.2,7.4c1.6,2,5.6,2,6.2-0.5c1,2.4,2.1,4.9,4.2,6.5c2.1,1.6,5.5,1.7,7-0.5
		c0.4,2.3,2.1,4.3,4.3,5.1c2.2,0.8,4.8,0.5,6.6-0.9c0.7,2.2,2.7,4,5.1,4.4c1.8,0.3,3.8-0.2,5.3-1.3c1.3,1.8,3.1,3.2,5.3,3.9
		c0.8,0.2,1.6,0.3,2.4,0.3c0.8,0,1.6,0,2.4-0.3c2.1-0.6,3.9-2,5.3-3.9c1.5,1.1,3.4,1.6,5.3,1.3c2.3-0.4,4.3-2.2,5.1-4.4
		c1.9,1.4,4.4,1.7,6.6,0.9c2.2-0.8,3.8-2.8,4.3-5.1c1.5,2.1,4.9,2.1,7,0.5c2.1-1.6,3.2-4.1,4.2-6.5c0.6,2.5,4.6,2.5,6.2,0.5
		c1.6-2,1.5-4.9,1.2-7.4c1.3,2.7,5.4,3.5,7.6,1.5c2.2-2,1.7-6.2-1-7.6c1.9-0.9,4,0.3,5.9,1.2c1.9,0.9,4.7,1.1,5.5-0.9
		c0.5-1.1,0-2.3-0.5-3.4c-1.3-2.7-3-5.3-5-7.6c3.3,0.8,6.7,1.3,10.1,1.5c1.1,0.1,2.4,0.1,3.2-0.7
		C174.2,127.7,174.2,125.9,173.5,124.7z"/>
	<path class="st12" d="M86.6,58.6c-0.6-0.5-1.3-1.2-1-1.9c0.2-0.5,0.9-0.7,1.5-0.8c2.3-0.2,4.7,0.7,6.3,2.4c0.1-1.4-0.9-2.6-1.5-3.8
		c-0.6-1.2-0.8-3,0.4-3.7c1.3-0.7,2.9,0.6,3.4,1.9c0.6,1.4,0.7,3,1.8,4c-0.9-4.1,0.4-8.5,3.4-11.5c1.7,3.5,2.1,7.7,0.9,11.4
		c1.2-2.5,2.8-4.9,4.6-7c0.6-0.7,1.6-1.4,2.3-0.9c0.5,0.4,0.5,1.1,0.5,1.6c-0.2,2.4-0.9,4.8-2.1,6.9c0.9-0.9,1.8-1.8,3-2.3
		c1.1-0.5,2.6-0.6,3.6,0c1.8,1.1,1.9,3.9,0.6,5.7c-1.3,1.7-3.4,2.5-5.5,3c-4.2,1.1-9.7,1.8-14,0.6C91.6,63.4,89.1,60.6,86.6,58.6z"
		/>
	<path class="st9" d="M85.2,79.3c-5.3-1.2-11-1.2-15.8,1.3c-7.1,3.5-11,11.9-10.4,19.8c0.6,7.9,5.2,15.1,11.5,19.9
		s13.9,7.5,21.7,8.8c10.1,1.7,21.1,1.2,29.5-4.6c8.1-5.6,12.5-15.2,14.5-24.8c1-4.9,1.5-10.2-0.6-14.7c-1.8-3.9-5.6-6.8-9.8-7.9
		c-4.2-1.1-8.7-0.4-12.6,1.6c-4.1,2.1-8.5,6.9-13.4,6.2C94.9,84.2,90.2,80.5,85.2,79.3z"/>
	<path class="st11" d="M83.3,121.2c-2.8,5.7-3.8,12.1-4.7,18.4c-0.6,4.1-1.2,8.5,0.9,12.1c2.1,3.8,6.5,5.6,10.7,6.8
		c5.5,1.6,11.4,2.5,17,1.5c5.7-1,11.1-4.3,13.7-9.4c2.6-5,2.1-11.1,0.9-16.6c-2.2-11.1-7.4-20.2-19-23.2
		C94,108.6,87,113.5,83.3,121.2z"/>
	<path class="st4" d="M71.2,100c-0.4,1.1-0.6,2.3-0.1,3.4c0.5,1,1.8,1.8,2.8,1.3c0.8-0.4,1.2-1.3,1.4-2.2c0.2-0.9,0.3-1.8,0.8-2.5
		c0.5-0.8,1.5-1.2,2.5-1.1c0.9,0.1,1.8,0.8,2.1,1.7c0.4,1.2,0,2.6,0.8,3.5c0.8,0.8,2.3,0.5,3-0.3c0.7-0.9,0.9-2.1,0.8-3.3
		c-0.2-3.5-2.7-7.4-6.7-7C75.5,93.9,72.2,97.3,71.2,100z"/>
	<path class="st4" d="M114,98.6c-0.4,1.1-0.6,2.3-0.1,3.4c0.5,1,1.8,1.8,2.8,1.3c0.8-0.4,1.2-1.3,1.4-2.2c0.2-0.9,0.3-1.8,0.8-2.5
		c0.5-0.8,1.5-1.2,2.5-1.1c0.9,0.1,1.8,0.8,2.1,1.7c0.4,1.2,0,2.6,0.8,3.5c0.8,0.8,2.3,0.5,3-0.3c0.7-0.9,0.9-2.1,0.8-3.3
		c-0.2-3.5-2.7-7.4-6.7-7C118.3,92.5,115,95.9,114,98.6z"/>
	<path class="st4" d="M98.4,118.1c-2.4,0.1-4.8,1-6.3,2.9c-1.5,1.8-1.8,4.7-0.3,6.6c1.1,1.3,2.8,1.9,4.5,2.3c2,0.5,4,0.8,6,0.6
		c2-0.2,4-0.9,5.5-2.3c1.5-1.4,2.4-3.5,2-5.5C109,118.1,102.1,117.9,98.4,118.1z"/>
	<path class="st4" d="M109.3,142.9c-0.5-0.2-1,0.2-1.2,0.7c-0.2,0.5-0.3,1-0.5,1.5c-0.5,1.3-2.2,2.1-3.6,1.5c-1-0.4-1.7-1.4-2-2.4
		c-0.3-1-0.3-2.1-0.2-3.2c0-1.9,0.3-3.8,0.4-5.7c0.1-1.3,0.1-2.6,0-3.9c-0.1-1.1-0.1-2.8-0.5-3.7c-0.2-0.4-0.7-0.6-1-0.4
		c-0.3-0.2-0.8,0-1,0.4c-0.4,0.9-0.5,2.7-0.5,3.7c-0.1,1.3-0.1,2.6,0,3.9c0.1,1.9,0.4,3.8,0.4,5.7c0,1.1,0.1,2.2-0.2,3.2
		c-0.3,1-1,2-2,2.4c-1.3,0.6-3-0.2-3.6-1.5c-0.2-0.5-0.2-1-0.5-1.5c-0.2-0.5-0.8-0.8-1.2-0.7c-0.5,0.2-0.6,0.8-0.6,1.4
		c0.1,2.2,2,4.2,4.2,4.5c2,0.3,4.1-0.9,5-2.6c1,1.8,3,2.9,5,2.6c2.2-0.3,4.1-2.3,4.2-4.5C110,143.7,109.8,143.1,109.3,142.9z"/>
</g>
</svg>
