<?xml version="1.0" encoding="utf-8"?>
<!-- Generator: Adobe Illustrator 24.0.0, SVG Export Plug-In . SVG Version: 6.00 Build 0)  -->
<svg version="1.1" id="Layer_1" xmlns="http://www.w3.org/2000/svg" xmlns:xlink="http://www.w3.org/1999/xlink" x="0px" y="0px"
	 viewBox="0 0 200 200" style="enable-background:new 0 0 200 200;" xml:space="preserve">
<style type="text/css">
	.st0{fill:#F2F1E8;}
	.st1{fill:#A8A9A2;}
	.st2{fill:#32302D;}
	.st3{clip-path:url(#SVGID_2_);fill:#32302D;}
	.st4{fill:#161514;}
	.st5{fill:#232220;}
	.st6{fill:#884637;}
	.st7{fill:#FBBB8C;}
	.st8{fill:#FFE8D6;}
	.st9{fill:#8E6F5E;}
	.st10{fill:#7A5B4C;}
	.st11{fill:#5E3F33;}
	.st12{fill:#A88E7D;}
	.st13{fill:#F9DBB2;}
	.st14{fill:#E09E48;}
	.st15{fill:#9B5E1B;}
	.st16{fill:#C18033;}
	.st17{clip-path:url(#SVGID_4_);fill:#FEC368;}
	.st18{clip-path:url(#SVGID_4_);fill:#DD8340;}
	.st19{clip-path:url(#SVGID_4_);fill:#161514;}
	.st20{clip-path:url(#SVGID_4_);fill:#FFE8D6;}
	.st21{fill:#FFFFFF;}
	.st22{fill:#D6854D;}
	.st23{fill:#B46133;}
	.st24{fill:#EC9B5E;}
	.st25{fill:#88524C;}
	.st26{clip-path:url(#SVGID_6_);fill:#B46133;}
	.st27{fill:#EACAB5;}
	.st28{fill:#D3AF9B;}
	.st29{fill:#4D4C48;}
	.st30{fill:#D2D2CA;}
	.st31{fill:#514142;}
	.st32{fill:#C6604D;}
	.st33{fill:#2C1C0F;}
	.st34{fill:#5F4C4E;}
	.st35{fill:none;stroke:#2C1C0F;stroke-width:5.9134;stroke-linecap:round;stroke-linejoin:round;stroke-miterlimit:10;}
	.st36{fill:#BCBEC0;}
	.st37{fill:#636466;}
	.st38{fill:#D1D3D4;}
	.st39{fill:#EBEBEC;}
	.st40{fill:#A7A9AC;}
	.st41{fill:#AAAAAA;}
	.st42{opacity:0.8;fill:#2C1C0F;}
	.st43{fill:#FAF3EB;}
	.st44{fill:none;stroke:#282F39;stroke-width:4.7595;stroke-linecap:round;stroke-linejoin:round;stroke-miterlimit:10;}
	.st45{fill:#DD786B;}
	.st46{fill:#83562D;}
	.st47{fill:#B37E4A;}
	.st48{fill:#3A2B20;}
	.st49{fill:#30231B;}
	.st50{fill:#634C3B;}
	.st51{fill:#CB915A;}
	.st52{fill:#544032;}
	.st53{fill:#2D2119;}
	.st54{fill:#231A14;}
	.st55{fill:#33322F;}
	.st56{fill:#777673;}
	.st57{fill:#353432;}
	.st58{fill:#E7E6DE;}
	.st59{fill:#F3757A;}
	.st60{fill:#BF4750;}
	.st61{fill:#D6565F;}
	.st62{fill:#FFAEB4;}
	.st63{fill:#E58893;}
	.st64{fill:#A3313A;}
	.st65{fill:#F2F1E7;}
	.st66{fill:#F9B7B2;}
	.st67{fill:#E59291;}
	.st68{fill:#CC7171;}
	.st69{clip-path:url(#SVGID_8_);fill:#383734;}
	.st70{fill:#FCBC7E;}
	.st71{fill:#B74E2E;}
	.st72{fill:#A53F28;}
	.st73{clip-path:url(#SVGID_10_);fill:#E58341;}
	.st74{clip-path:url(#SVGID_10_);}
	.st75{fill:#CC652B;}
	.st76{fill:#EAA465;}
	.st77{fill:#4B2D23;}
	.st78{fill:#3A211B;}
	.st79{fill:#D68847;}
	.st80{fill:#E58341;}
	.st81{fill:#AF5223;}
	.st82{fill:#E2705C;}
	.st83{fill:#F8F8F8;}
	.st84{fill:#FFBE51;}
	.st85{fill:#4A1F09;}
	.st86{fill:#DFDCDA;}
	.st87{fill:#623420;}
	.st88{fill:#AB8458;}
	.st89{fill:#E1965F;}
	.st90{fill:#CD8554;}
	.st91{fill:#957350;}
	.st92{fill:#A8A6A2;}
	.st93{fill:#E9E9E7;}
	.st94{fill:#636260;}
	.st95{fill:#BCBBB8;}
	.st96{fill:#1C1B1A;}
	.st97{fill:#32302E;}
	.st98{fill:#D2D2CC;}
	.st99{fill:#A19E9C;}
	.st100{fill:#5A5452;}
	.st101{fill:#8A8786;}
</style>
<g>
	<path class="st0" d="M75.4,50.1c-5.6,7.4-8.3,16.6-10.7,25.6c-4.4,16.4-8,32.9-10.1,49.7c-1,7.9-1.6,16.5,2.1,23.6
		c2.6,4.9,7,8.7,11.9,11.3c4.9,2.6,10.2,4.3,15.5,6c6.7,2.1,13.4,4.1,20.3,4.7c7,0.5,14.2-0.6,20-4.5c9-6.1,12.7-17.7,13.6-28.5
		c1.8-20.3-3.4-40.4-6.4-60.6c-1.4-9.5-2.5-19.3-7.2-27.6C113.9,30.7,87.4,34.2,75.4,50.1z"/>
	<g>
		<path class="st0" d="M39.5,25.9c-0.7,0.2-1.4,0.4-1.9,1c-0.9,1-0.5,2.5-0.1,3.8c1.5,4.9,3.3,9.7,6.1,13.9
			c2.8,4.2,6.9,7.8,11.9,9.1c4.9,1.3,10.4,0.3,14.7,2.9c2.5,1.5,5.1,4.2,7.9,3.1c1.9-0.7,2.6-3.1,2.3-5c-0.4-2-1.6-3.6-2.8-5.3
			c-2.7-3.7-5.9-7.3-7.8-11.4c-1.6-3.5-3.1-5.6-6.4-7.8C56.5,25.5,47.6,23.8,39.5,25.9z"/>
		<g>
			<path class="st1" d="M60.1,48.2c-1.8,0-5,0-4.1-2.7c0.5-0.5,0.9-0.9,1.4-1.4c-1.8-0.5-4.6-0.9-4.1-3.2c0.5-1.4,1.8-1.8,3.2-2.3
				c-1.8-0.5-4.6-0.9-5-2.7c-0.2-1.1,0-2,0.5-2.6c-2.6-0.6-5.2-1.2-7.6-2.3c-0.1,5.4,2,10.8,5.8,14.6c2.4,2.4,5.3,4.1,8.6,5.1
				c0.1-0.4,0.1-0.8,0.1-1.1C59.2,49.1,59.7,48.7,60.1,48.2z"/>
			<path class="st2" d="M68.8,45.6c-1-3.3-3.1-6.3-6-8.3c-3.2-2.2-7-3.1-10.9-4c-0.4,0.6-0.6,1.5-0.5,2.6c0.5,1.8,3.2,2.3,5,2.7
				c-1.4,0.5-2.7,0.9-3.2,2.3c-0.5,2.3,2.3,2.7,4.1,3.2c-0.5,0.5-0.9,0.9-1.4,1.4c-0.9,2.7,2.3,2.7,4.1,2.7
				c-0.5,0.5-0.9,0.9-1.4,1.4c0,0.4-0.1,0.8-0.1,1.1c2,0.6,4,0.9,6,0.8c1.4,0,3.6-0.3,4.5-1.5C69.9,48.9,69.2,46.8,68.8,45.6z"/>
		</g>
	</g>
	<g>
		<path class="st0" d="M160.5,25.9c0.7,0.2,1.4,0.4,1.9,1c0.9,1,0.5,2.5,0.1,3.8c-1.5,4.9-3.3,9.7-6.1,13.9
			c-2.8,4.2-6.9,7.8-11.9,9.1c-4.9,1.3-10.4,0.3-14.7,2.9c-2.5,1.5-5.1,4.2-7.9,3.1c-1.9-0.7-2.6-3.1-2.3-5c0.4-2,1.6-3.6,2.8-5.3
			c2.7-3.7,5.9-7.3,7.8-11.4c1.6-3.5,3.1-5.6,6.4-7.8C143.5,25.5,152.4,23.8,160.5,25.9z"/>
		<g>
			<path class="st1" d="M139.9,48.2c1.8,0,5,0,4.1-2.7c-0.5-0.5-0.9-0.9-1.4-1.4c1.8-0.5,4.6-0.9,4.1-3.2c-0.5-1.4-1.8-1.8-3.2-2.3
				c1.8-0.5,4.6-0.9,5-2.7c0.2-1.1,0-2-0.5-2.6c2.6-0.6,5.2-1.2,7.6-2.3c0.1,5.4-2,10.8-5.8,14.6c-2.4,2.4-5.3,4.1-8.6,5.1
				c-0.1-0.4-0.1-0.8-0.1-1.1C140.8,49.1,140.3,48.7,139.9,48.2z"/>
			<path class="st2" d="M131.2,45.6c1-3.3,3.1-6.3,6-8.3c3.2-2.2,7-3.1,10.9-4c0.4,0.6,0.6,1.5,0.5,2.6c-0.5,1.8-3.2,2.3-5,2.7
				c1.4,0.5,2.7,0.9,3.2,2.3c0.5,2.3-2.3,2.7-4.1,3.2c0.5,0.5,0.9,0.9,1.4,1.4c0.9,2.7-2.3,2.7-4.1,2.7c0.5,0.5,0.9,0.9,1.4,1.4
				c0,0.4,0.1,0.8,0.1,1.1c-2,0.6-4,0.9-6,0.8c-1.4,0-3.6-0.3-4.5-1.5C130.1,48.9,130.8,46.8,131.2,45.6z"/>
		</g>
	</g>
	<g>
		<defs>
			<path id="SVGID_1_" d="M75.4,50.1c-5.6,7.4-8.3,16.6-10.7,25.6c-4.4,16.4-8,32.9-10.1,49.7c-1,7.9-1.6,16.5,2.1,23.6
				c2.6,4.9,7,8.7,11.9,11.3c4.9,2.6,10.2,4.3,15.5,6c6.7,2.1,13.4,4.1,20.3,4.7c7,0.5,14.2-0.6,20-4.5c9-6.1,12.7-17.7,13.6-28.5
				c1.8-20.3-3.4-40.4-6.4-60.6c-1.4-9.5-2.5-19.3-7.2-27.6C113.9,30.7,87.4,34.2,75.4,50.1z"/>
		</defs>
		<clipPath id="SVGID_2_">
			<use xlink:href="#SVGID_1_"  style="overflow:visible;"/>
		</clipPath>
		<path class="st3" d="M87.2,58.5c1.2,1.3,3.1,2.6,4.6,1.7c1-0.6,1.3-1.8,1.5-2.9c1-4.9,0.8-10.1-0.4-15c-0.8-3.1-2.3-6.4-5.2-7.5
			c-1.8-0.7-3.9-0.4-5.4,0.8C79,38.3,80.1,43.5,81,47C82.2,51.3,84.3,55.3,87.2,58.5z"/>
		<path class="st3" d="M113.7,33.1c-5.2-4-9.4,1.2-10.5,6c-1,4.6-0.2,9.4,0.1,13.9c0.1,1.2,0.2,2.5,0.9,3.5c0.6,1,1.9,1.8,3,1.5
			c0.8-0.2,1.5-0.9,2-1.5c2.2-2.5,4-5.4,5.4-8.4c1.2-2.5,2.1-5.1,2.1-7.8C116.8,37.6,115.8,34.8,113.7,33.1z"/>
		<path class="st3" d="M82.5,61.1c0.9,0.1,1.8,0.2,2.6,0.7c0.8,0.5,1.3,1.5,0.9,2.3c-0.4,0.9-1.4,1.2-2.3,1.4
			c-6.2,1.4-12.5,2.7-18.7,4.1c-0.7,0.2-1.6,0.3-2.2-0.1c-3.1-1.9,0.7-7.6,3.3-8.2C71.3,60.3,77.2,60.7,82.5,61.1z"/>
		<path class="st3" d="M78.3,71.4c1.3,0.1,3,0.5,3.3,1.8c0.2,0.7-0.2,1.5-0.8,2.1c-0.6,0.5-1.3,0.8-2,1.1c-5,2.1-10.1,4.3-15.1,6.4
			c-1.1,0.5-2.4,1-3.6,0.6c-4.5-1.3-1.4-8.4,1.2-10.1c2-1.3,4.9-1.5,7.2-1.7C71.9,71.3,75.1,71.2,78.3,71.4z"/>
		<path class="st3" d="M71.9,105.5c1.3,0,2.6,0,3.8,0.5c1.2,0.5,2.2,1.5,2.4,2.8c0.2,1.8-1.2,3.3-2.6,4.3c-4.7,3.6-10.3,5.8-15.8,8
			c-2.1,0.8-4.5,1.7-6.7,0.9c-2.2-0.8-3.5-3.3-3.7-5.6c-0.1-1.9,0.1-4.8,1.1-6.6c1-1.8,3.2-1.7,5-2.1
			C60.8,106.5,66.3,105.6,71.9,105.5z"/>
		<path class="st3" d="M133,61.5c-6.4-1.6-13.4-0.6-18.9,2.9c-0.3,0.2-0.6,0.4-0.8,0.8c-0.3,0.5,0,1.2,0.4,1.6
			c0.4,0.4,1,0.6,1.5,0.8c4.9,1.6,10.1,1.8,15.2,2c1.4,0,2.7,0.1,4-0.4c1.3-0.4,2.4-1.5,2.6-2.8c0.2-1.3-0.9-2.8-2.2-2.7"/>
		<path class="st3" d="M116.1,73.1c-1,0.1-2.2,0.3-2.7,1.2c-0.4,0.8-0.2,1.8,0.4,2.5c0.6,0.7,1.4,1.1,2.2,1.5
			c5.5,2.8,11.4,4.8,17.5,5.8c1.3,0.2,2.7,0.4,3.9-0.1c1.7-0.7,2.8-2.5,3-4.3c0.2-1.6,0-4.4-1.5-5.3c-1.6-1-4.8-1-6.7-1.2
			C126.9,72.6,121.4,72.6,116.1,73.1z"/>
		<path class="st3" d="M119,106.9c-0.8,0.1-1.7,0.3-2.3,0.9c-1.1,1.1-0.4,3,0.5,4.3c2.2,3.1,5.6,5.4,9.1,6.9
			c3.6,1.5,7.4,2.3,11.2,2.9c2.7,0.4,5.6,0.7,7.8-1c4-3.1,2.1-9.5-1.2-12.3c-3.2-2.7-9.9-2.2-13.8-2.3
			C126.5,106.2,122.8,106.4,119,106.9z"/>
	</g>
	<path class="st4" d="M73,92.6c-0.4,1.2-0.7,2.6-0.1,3.8c0.5,1.2,2,2,3.2,1.4c0.9-0.4,1.3-1.5,1.6-2.5c0.2-1,0.3-2,0.9-2.9
		c0.6-0.9,1.7-1.4,2.8-1.2c1.1,0.2,2,0.9,2.3,1.9c0.4,1.3,0,3,0.9,4c0.9,0.9,2.6,0.6,3.4-0.4c0.8-1,1-2.4,0.9-3.7
		c-0.2-4-3-8.3-7.6-7.9C77.9,85.7,74.2,89.6,73,92.6z"/>
	<path class="st4" d="M108.5,92.6c-0.4,1.2-0.7,2.6-0.1,3.8c0.5,1.2,2,2,3.2,1.4c0.9-0.4,1.3-1.5,1.6-2.5c0.2-1,0.3-2,0.9-2.9
		c0.6-0.9,1.7-1.4,2.8-1.2c1.1,0.2,2,0.9,2.3,1.9c0.4,1.3,0,3,0.9,4c0.9,0.9,2.6,0.6,3.4-0.4c0.8-1,1-2.4,0.9-3.7
		c-0.2-4-3-8.3-7.6-7.9C113.3,85.7,109.6,89.6,108.5,92.6z"/>
	<path class="st2" d="M120.5,124.9c-7.6-2.8-15.8-3.9-23.9-3.9c-8.4,0-16.9,1.3-24.5,4.5c-7.7,3.2-14.5,8.4-18.7,15.1
		c-3.1,4.9-4.7,11-2.5,16.3c2,4.9,6.9,8.3,11.9,10.7c12.4,5.9,26.7,7.4,40.6,7.4c5.8,0,11.6-0.2,17.1-1.5s11-3.7,15.1-7.4
		c5.1-4.8,7.6-11.8,7-18.5c-0.6-7.1-4.3-12-10.2-16.4C128.8,128.6,124.7,126.4,120.5,124.9z"/>
	<g>
		<path class="st4" d="M86.4,152c1.1-4,0.8-8.7-1.9-11.9c-1.1-1.4-2.3-2.3-3.6-2.8c-6.3,3-6.8,12.2-3.9,18c0.9,1.7,2.1,3.4,3.8,4
			c0.3-0.2,0.7-0.3,1-0.5C84.1,157.3,85.6,154.7,86.4,152z"/>
		<path class="st5" d="M77,155.3c-2.9-5.8-2.4-15,3.9-18c-5.8-2.3-12.6,3.5-13.8,9.8c-0.7,3.9,0.6,8.2,3.6,10.7
			c2.7,2.3,6.9,2.9,10.1,1.4C79.1,158.8,77.8,157,77,155.3z"/>
	</g>
	<g>
		<path class="st4" d="M107.4,152c-1.1-4-0.8-8.7,1.9-11.9c1.1-1.4,2.3-2.3,3.6-2.8c6.3,3,6.8,12.2,3.9,18c-0.9,1.7-2.1,3.4-3.8,4
			c-0.3-0.2-0.7-0.3-1-0.5C109.6,157.3,108.2,154.7,107.4,152z"/>
		<path class="st5" d="M116.8,155.3c2.9-5.8,2.4-15-3.9-18c5.8-2.3,12.6,3.5,13.8,9.8c0.7,3.9-0.6,8.2-3.6,10.7
			c-2.7,2.3-6.9,2.9-10.1,1.4C114.7,158.8,115.9,157,116.8,155.3z"/>
	</g>
</g>
</svg>
