<svg xmlns="http://www.w3.org/2000/svg" viewBox="0 0 500 500"><g id="freepik--background-complete--inject-268"><path d="M454.71,180.21h-85.6S377.6,157,390.66,157s17.15,16,17.15,16,8.81-8.69,16.05-8.69,13.54,11.49,13.54,11.49S447.63,169.65,454.71,180.21Z" style="fill:#ebebeb"></path><path d="M389.11,89.42h-40s8.94-13,16-13,9.12,8.64,9.12,8.64,5-4,9.58-3.31S389.11,89.42,389.11,89.42Z" style="fill:#ebebeb"></path><path d="M123.21,148.46H45.29S56,124.64,67.38,123.15s16.87,17.7,16.87,17.7,7.36-6.78,13.15-6.78S107.66,143,107.66,143,119.24,136.88,123.21,148.46Z" style="fill:#ebebeb"></path><path d="M179.93,59.47H127.29s9-17.26,18.85-17.52,15,13.07,15,13.07S176.37,42.77,179.93,59.47Z" style="fill:#ebebeb"></path><path d="M153.61,178.66H118.08s6.11-11.65,12.73-11.81,10.1,8.81,10.1,8.81S151.21,167.4,153.61,178.66Z" style="fill:#ebebeb"></path></g><g id="freepik--Buildings--inject-268"><rect x="329.46" y="214.13" width="36.39" height="190.78" style="fill:#dbdbdb"></rect><rect x="335.11" y="220.32" width="7.07" height="7.28" style="fill:#ebebeb"></rect><rect x="344.16" y="220.32" width="7.07" height="7.28" style="fill:#ebebeb"></rect><rect x="335.11" y="232.69" width="7.07" height="7.28" style="fill:#ebebeb"></rect><rect x="344.16" y="232.69" width="7.07" height="7.28" style="fill:#ebebeb"></rect><rect x="335.11" y="245.06" width="7.07" height="7.28" style="fill:#ebebeb"></rect><rect x="344.16" y="245.06" width="7.07" height="7.28" style="fill:#ebebeb"></rect><rect x="335.11" y="257.42" width="7.07" height="7.28" style="fill:#ebebeb"></rect><rect x="344.16" y="257.42" width="7.07" height="7.28" style="fill:#ebebeb"></rect><rect x="335.11" y="269.79" width="7.07" height="7.28" style="fill:#ebebeb"></rect><rect x="344.16" y="269.79" width="7.07" height="7.28" style="fill:#ebebeb"></rect><rect x="335.11" y="282.16" width="7.07" height="7.28" style="fill:#ebebeb"></rect><rect x="344.16" y="282.16" width="7.07" height="7.28" style="fill:#ebebeb"></rect><rect x="335.11" y="294.53" width="7.07" height="7.28" style="fill:#ebebeb"></rect><rect x="344.16" y="294.53" width="7.07" height="7.28" style="fill:#ebebeb"></rect><rect x="335.11" y="306.89" width="7.07" height="7.28" style="fill:#ebebeb"></rect><rect x="344.16" y="306.89" width="7.07" height="7.28" style="fill:#ebebeb"></rect><rect x="335.11" y="319.26" width="7.07" height="7.28" style="fill:#ebebeb"></rect><rect x="344.16" y="319.26" width="7.07" height="7.28" style="fill:#ebebeb"></rect><rect x="335.11" y="331.63" width="7.07" height="7.28" style="fill:#ebebeb"></rect><rect x="344.16" y="331.63" width="7.07" height="7.28" style="fill:#ebebeb"></rect><rect x="335.11" y="344" width="7.07" height="7.28" style="fill:#ebebeb"></rect><rect x="344.16" y="344" width="7.07" height="7.28" style="fill:#ebebeb"></rect><rect x="335.11" y="356.36" width="7.07" height="7.28" style="fill:#ebebeb"></rect><rect x="344.16" y="356.36" width="7.07" height="7.28" style="fill:#ebebeb"></rect><rect x="335.11" y="368.73" width="7.07" height="7.28" style="fill:#ebebeb"></rect><rect x="344.16" y="368.73" width="7.07" height="7.28" style="fill:#ebebeb"></rect><rect x="335.11" y="381.1" width="7.07" height="7.28" style="fill:#ebebeb"></rect><rect x="353.13" y="381.1" width="7.07" height="7.28" transform="translate(713.33 769.48) rotate(180)" style="fill:#ebebeb"></rect><rect x="353.13" y="368.73" width="7.07" height="7.28" transform="translate(713.33 744.75) rotate(180)" style="fill:#ebebeb"></rect><rect x="353.13" y="356.36" width="7.07" height="7.28" transform="translate(713.33 720.01) rotate(180)" style="fill:#ebebeb"></rect><rect x="353.13" y="344" width="7.07" height="7.28" transform="translate(713.33 695.28) rotate(180)" style="fill:#ebebeb"></rect><rect x="353.13" y="331.63" width="7.07" height="7.28" transform="translate(713.33 670.54) rotate(180)" style="fill:#ebebeb"></rect><rect x="353.13" y="319.26" width="7.07" height="7.28" transform="translate(713.33 645.81) rotate(180)" style="fill:#ebebeb"></rect><rect x="353.13" y="306.89" width="7.07" height="7.28" transform="translate(713.33 621.07) rotate(180)" style="fill:#ebebeb"></rect><rect x="353.13" y="294.53" width="7.07" height="7.28" transform="translate(713.33 596.34) rotate(180)" style="fill:#ebebeb"></rect><rect x="353.13" y="282.16" width="7.07" height="7.28" transform="translate(713.33 571.6) rotate(180)" style="fill:#ebebeb"></rect><rect x="353.13" y="269.79" width="7.07" height="7.28" transform="translate(713.33 546.87) rotate(180)" style="fill:#ebebeb"></rect><rect x="353.13" y="257.42" width="7.07" height="7.28" transform="translate(713.33 522.13) rotate(180)" style="fill:#ebebeb"></rect><rect x="353.13" y="245.06" width="7.07" height="7.28" transform="translate(713.33 497.4) rotate(180)" style="fill:#ebebeb"></rect><rect x="353.13" y="232.69" width="7.07" height="7.28" transform="translate(713.33 472.66) rotate(180)" style="fill:#ebebeb"></rect><rect x="353.13" y="220.32" width="7.07" height="7.28" transform="translate(713.33 447.93) rotate(180)" style="fill:#ebebeb"></rect><rect x="344.16" y="381.1" width="7.07" height="7.28" style="fill:#ebebeb"></rect><rect x="365.85" y="214.13" width="28.69" height="190.78" style="fill:#a6a6a6"></rect><rect x="385.75" y="381.1" width="5.84" height="7.28" transform="translate(777.33 769.48) rotate(180)" style="fill:#c7c7c7"></rect><rect x="378.27" y="381.1" width="5.84" height="7.28" transform="translate(762.39 769.48) rotate(180)" style="fill:#c7c7c7"></rect><rect x="385.75" y="368.73" width="5.84" height="7.28" transform="translate(777.33 744.75) rotate(180)" style="fill:#c7c7c7"></rect><rect x="378.27" y="368.73" width="5.84" height="7.28" transform="translate(762.39 744.75) rotate(180)" style="fill:#c7c7c7"></rect><rect x="385.75" y="356.36" width="5.84" height="7.28" transform="translate(777.33 720.01) rotate(180)" style="fill:#c7c7c7"></rect><rect x="378.27" y="356.36" width="5.84" height="7.28" transform="translate(762.39 720.01) rotate(180)" style="fill:#c7c7c7"></rect><rect x="385.75" y="344" width="5.84" height="7.28" transform="translate(777.33 695.28) rotate(180)" style="fill:#c7c7c7"></rect><rect x="378.27" y="344" width="5.84" height="7.28" transform="translate(762.39 695.28) rotate(180)" style="fill:#c7c7c7"></rect><rect x="385.75" y="331.63" width="5.84" height="7.28" transform="translate(777.33 670.54) rotate(180)" style="fill:#c7c7c7"></rect><rect x="378.27" y="331.63" width="5.84" height="7.28" transform="translate(762.39 670.54) rotate(180)" style="fill:#c7c7c7"></rect><rect x="385.75" y="319.26" width="5.84" height="7.28" transform="translate(777.33 645.81) rotate(180)" style="fill:#c7c7c7"></rect><rect x="378.27" y="319.26" width="5.84" height="7.28" transform="translate(762.39 645.81) rotate(180)" style="fill:#c7c7c7"></rect><rect x="385.75" y="306.89" width="5.84" height="7.28" transform="translate(777.33 621.07) rotate(180)" style="fill:#c7c7c7"></rect><rect x="378.27" y="306.89" width="5.84" height="7.28" transform="translate(762.39 621.07) rotate(180)" style="fill:#c7c7c7"></rect><rect x="385.75" y="294.53" width="5.84" height="7.28" transform="translate(777.33 596.34) rotate(180)" style="fill:#c7c7c7"></rect><rect x="378.27" y="294.53" width="5.84" height="7.28" transform="translate(762.39 596.34) rotate(180)" style="fill:#c7c7c7"></rect><rect x="385.75" y="282.16" width="5.84" height="7.28" transform="translate(777.33 571.6) rotate(180)" style="fill:#c7c7c7"></rect><rect x="378.27" y="282.16" width="5.84" height="7.28" transform="translate(762.39 571.6) rotate(180)" style="fill:#c7c7c7"></rect><rect x="385.75" y="269.79" width="5.84" height="7.28" transform="translate(777.33 546.87) rotate(180)" style="fill:#c7c7c7"></rect><rect x="378.27" y="269.79" width="5.84" height="7.28" transform="translate(762.39 546.87) rotate(180)" style="fill:#c7c7c7"></rect><rect x="385.75" y="257.42" width="5.84" height="7.28" transform="translate(777.33 522.13) rotate(180)" style="fill:#c7c7c7"></rect><rect x="378.27" y="257.42" width="5.84" height="7.28" transform="translate(762.39 522.13) rotate(180)" style="fill:#c7c7c7"></rect><rect x="385.75" y="245.06" width="5.84" height="7.28" transform="translate(777.33 497.4) rotate(180)" style="fill:#c7c7c7"></rect><rect x="378.27" y="245.06" width="5.84" height="7.28" transform="translate(762.39 497.4) rotate(180)" style="fill:#c7c7c7"></rect><rect x="385.75" y="232.69" width="5.84" height="7.28" transform="translate(777.33 472.66) rotate(180)" style="fill:#c7c7c7"></rect><rect x="378.27" y="232.69" width="5.84" height="7.28" transform="translate(762.39 472.66) rotate(180)" style="fill:#c7c7c7"></rect><rect x="385.75" y="220.32" width="5.84" height="7.28" transform="translate(777.33 447.93) rotate(180)" style="fill:#c7c7c7"></rect><rect x="370.86" y="220.32" width="5.84" height="7.28" style="fill:#c7c7c7"></rect><rect x="370.86" y="232.69" width="5.84" height="7.28" style="fill:#c7c7c7"></rect><rect x="370.86" y="245.06" width="5.84" height="7.28" style="fill:#c7c7c7"></rect><rect x="370.86" y="257.42" width="5.84" height="7.28" style="fill:#c7c7c7"></rect><rect x="370.86" y="269.79" width="5.84" height="7.28" style="fill:#c7c7c7"></rect><rect x="370.86" y="282.16" width="5.84" height="7.28" style="fill:#c7c7c7"></rect><rect x="370.86" y="294.53" width="5.84" height="7.28" style="fill:#c7c7c7"></rect><rect x="370.86" y="306.89" width="5.84" height="7.28" style="fill:#c7c7c7"></rect><rect x="370.86" y="319.26" width="5.84" height="7.28" style="fill:#c7c7c7"></rect><rect x="370.86" y="331.63" width="5.84" height="7.28" style="fill:#c7c7c7"></rect><rect x="370.86" y="344" width="5.84" height="7.28" style="fill:#c7c7c7"></rect><rect x="370.86" y="356.36" width="5.84" height="7.28" style="fill:#c7c7c7"></rect><rect x="370.86" y="368.73" width="5.84" height="7.28" style="fill:#c7c7c7"></rect><rect x="370.86" y="381.1" width="5.84" height="7.28" style="fill:#c7c7c7"></rect><rect x="378.27" y="220.32" width="5.84" height="7.28" transform="translate(762.39 447.93) rotate(180)" style="fill:#c7c7c7"></rect><rect x="98.77" y="203.84" width="43.05" height="201.06" style="fill:#ebebeb"></rect><rect x="97.73" y="199.44" width="44.09" height="4.4" style="fill:#c7c7c7"></rect><rect x="102.66" y="210.33" width="4.36" height="194.58" style="fill:#fff"></rect><rect x="110.38" y="210.33" width="4.36" height="194.58" style="fill:#fff"></rect><rect x="118.11" y="210.33" width="4.36" height="194.58" style="fill:#fff"></rect><rect x="125.84" y="210.33" width="4.36" height="194.58" style="fill:#fff"></rect><rect x="133.56" y="210.33" width="4.36" height="194.58" style="fill:#fff"></rect><rect x="102.66" y="215.89" width="4.36" height="8.69" style="fill:#ebebeb"></rect><rect x="110.38" y="215.89" width="4.36" height="8.69" style="fill:#ebebeb"></rect><rect x="118.11" y="215.89" width="4.36" height="8.69" style="fill:#ebebeb"></rect><rect x="125.84" y="215.89" width="4.36" height="8.69" style="fill:#ebebeb"></rect><rect x="133.56" y="215.89" width="4.36" height="8.69" style="fill:#ebebeb"></rect><rect x="102.66" y="230.01" width="4.36" height="8.69" style="fill:#ebebeb"></rect><rect x="110.38" y="230.01" width="4.36" height="8.69" style="fill:#ebebeb"></rect><rect x="118.11" y="230.01" width="4.36" height="8.69" style="fill:#ebebeb"></rect><rect x="125.84" y="230.01" width="4.36" height="8.69" style="fill:#ebebeb"></rect><rect x="133.56" y="230.01" width="4.36" height="8.69" style="fill:#ebebeb"></rect><rect x="102.66" y="244.13" width="4.36" height="8.69" style="fill:#ebebeb"></rect><rect x="110.38" y="244.13" width="4.36" height="8.69" style="fill:#ebebeb"></rect><rect x="118.11" y="244.13" width="4.36" height="8.69" style="fill:#ebebeb"></rect><rect x="125.84" y="244.13" width="4.36" height="8.69" style="fill:#ebebeb"></rect><rect x="133.56" y="244.13" width="4.36" height="8.69" style="fill:#ebebeb"></rect><rect x="102.66" y="258.26" width="4.36" height="8.69" style="fill:#ebebeb"></rect><rect x="110.38" y="258.26" width="4.36" height="8.69" style="fill:#ebebeb"></rect><rect x="118.11" y="258.26" width="4.36" height="8.69" style="fill:#ebebeb"></rect><rect x="125.84" y="258.26" width="4.36" height="8.69" style="fill:#ebebeb"></rect><rect x="133.56" y="258.26" width="4.36" height="8.69" style="fill:#ebebeb"></rect><rect x="102.66" y="272.38" width="4.36" height="8.69" style="fill:#ebebeb"></rect><rect x="110.38" y="272.38" width="4.36" height="8.69" style="fill:#ebebeb"></rect><rect x="118.11" y="272.38" width="4.36" height="8.69" style="fill:#ebebeb"></rect><rect x="125.84" y="272.38" width="4.36" height="8.69" style="fill:#ebebeb"></rect><rect x="133.56" y="272.38" width="4.36" height="8.69" style="fill:#ebebeb"></rect><rect x="102.66" y="286.5" width="4.36" height="8.69" style="fill:#ebebeb"></rect><rect x="110.38" y="286.5" width="4.36" height="8.69" style="fill:#ebebeb"></rect><rect x="118.11" y="286.5" width="4.36" height="8.69" style="fill:#ebebeb"></rect><rect x="125.84" y="286.5" width="4.36" height="8.69" style="fill:#ebebeb"></rect><rect x="133.56" y="286.5" width="4.36" height="8.69" style="fill:#ebebeb"></rect><rect x="102.66" y="300.63" width="4.36" height="8.69" style="fill:#ebebeb"></rect><rect x="110.38" y="300.63" width="4.36" height="8.69" style="fill:#ebebeb"></rect><rect x="118.11" y="300.63" width="4.36" height="8.69" style="fill:#ebebeb"></rect><rect x="125.84" y="300.63" width="4.36" height="8.69" style="fill:#ebebeb"></rect><rect x="133.56" y="300.63" width="4.36" height="8.69" style="fill:#ebebeb"></rect><rect x="102.66" y="314.75" width="4.36" height="8.69" style="fill:#ebebeb"></rect><rect x="110.38" y="314.75" width="4.36" height="8.69" style="fill:#ebebeb"></rect><rect x="118.11" y="314.75" width="4.36" height="8.69" style="fill:#ebebeb"></rect><rect x="125.84" y="314.75" width="4.36" height="8.69" style="fill:#ebebeb"></rect><rect x="133.56" y="314.75" width="4.36" height="8.69" style="fill:#ebebeb"></rect><rect x="102.66" y="328.87" width="4.36" height="8.69" style="fill:#ebebeb"></rect><rect x="110.38" y="328.87" width="4.36" height="8.69" style="fill:#ebebeb"></rect><rect x="118.11" y="328.87" width="4.36" height="8.69" style="fill:#ebebeb"></rect><rect x="125.84" y="328.87" width="4.36" height="8.69" style="fill:#ebebeb"></rect><rect x="133.56" y="328.87" width="4.36" height="8.69" style="fill:#ebebeb"></rect><rect x="102.66" y="342.99" width="4.36" height="8.69" style="fill:#ebebeb"></rect><rect x="110.38" y="342.99" width="4.36" height="8.69" style="fill:#ebebeb"></rect><rect x="118.11" y="342.99" width="4.36" height="8.69" style="fill:#ebebeb"></rect><rect x="125.84" y="342.99" width="4.36" height="8.69" style="fill:#ebebeb"></rect><rect x="133.56" y="342.99" width="4.36" height="8.69" style="fill:#ebebeb"></rect><rect x="102.66" y="357.12" width="4.36" height="8.69" style="fill:#ebebeb"></rect><rect x="110.38" y="357.12" width="4.36" height="8.69" style="fill:#ebebeb"></rect><rect x="118.11" y="357.12" width="4.36" height="8.69" style="fill:#ebebeb"></rect><rect x="125.84" y="357.12" width="4.36" height="8.69" style="fill:#ebebeb"></rect><rect x="133.56" y="357.12" width="4.36" height="8.69" style="fill:#ebebeb"></rect><rect x="102.66" y="371.24" width="4.36" height="8.69" style="fill:#ebebeb"></rect><rect x="110.38" y="371.24" width="4.36" height="8.69" style="fill:#ebebeb"></rect><rect x="118.11" y="371.24" width="4.36" height="8.69" style="fill:#ebebeb"></rect><rect x="125.84" y="371.24" width="4.36" height="8.69" style="fill:#ebebeb"></rect><rect x="133.56" y="371.24" width="4.36" height="8.69" style="fill:#ebebeb"></rect><rect x="102.66" y="385.36" width="4.36" height="8.69" style="fill:#ebebeb"></rect><rect x="110.38" y="385.36" width="4.36" height="8.69" style="fill:#ebebeb"></rect><rect x="118.11" y="385.36" width="4.36" height="8.69" style="fill:#ebebeb"></rect><rect x="125.84" y="385.36" width="4.36" height="8.69" style="fill:#ebebeb"></rect><rect x="133.56" y="385.36" width="4.36" height="8.69" style="fill:#ebebeb"></rect><rect x="102.66" y="399.49" width="4.36" height="5.42" style="fill:#ebebeb"></rect><rect x="110.38" y="399.49" width="4.36" height="5.42" style="fill:#ebebeb"></rect><rect x="118.11" y="399.49" width="4.36" height="5.42" style="fill:#ebebeb"></rect><rect x="125.84" y="399.49" width="4.36" height="5.42" style="fill:#ebebeb"></rect><rect x="133.56" y="399.49" width="4.36" height="5.42" style="fill:#ebebeb"></rect><rect x="141.82" y="203.84" width="27.64" height="201.06" style="fill:#dbdbdb"></rect><rect x="141.82" y="199.44" width="28.84" height="4.4" style="fill:#c7c7c7"></rect><rect x="145.71" y="210.33" width="4.36" height="194.58" style="fill:#c7c7c7"></rect><rect x="153.44" y="210.33" width="4.36" height="194.58" style="fill:#c7c7c7"></rect><rect x="161.17" y="210.33" width="4.36" height="194.58" style="fill:#c7c7c7"></rect><rect x="145.71" y="215.89" width="4.36" height="8.69" style="fill:#dbdbdb"></rect><rect x="153.44" y="215.89" width="4.36" height="8.69" style="fill:#dbdbdb"></rect><rect x="161.17" y="215.89" width="4.36" height="8.69" style="fill:#dbdbdb"></rect><rect x="145.71" y="230.01" width="4.36" height="8.69" style="fill:#dbdbdb"></rect><rect x="153.44" y="230.01" width="4.36" height="8.69" style="fill:#dbdbdb"></rect><rect x="161.17" y="230.01" width="4.36" height="8.69" style="fill:#dbdbdb"></rect><rect x="145.71" y="244.13" width="4.36" height="8.69" style="fill:#dbdbdb"></rect><rect x="153.44" y="244.13" width="4.36" height="8.69" style="fill:#dbdbdb"></rect><rect x="161.17" y="244.13" width="4.36" height="8.69" style="fill:#dbdbdb"></rect><rect x="145.71" y="258.26" width="4.36" height="8.69" style="fill:#dbdbdb"></rect><rect x="153.44" y="258.26" width="4.36" height="8.69" style="fill:#dbdbdb"></rect><rect x="161.17" y="258.26" width="4.36" height="8.69" style="fill:#dbdbdb"></rect><rect x="145.71" y="272.38" width="4.36" height="8.69" style="fill:#dbdbdb"></rect><rect x="153.44" y="272.38" width="4.36" height="8.69" style="fill:#dbdbdb"></rect><rect x="161.17" y="272.38" width="4.36" height="8.69" style="fill:#dbdbdb"></rect><rect x="145.71" y="286.5" width="4.36" height="8.69" style="fill:#dbdbdb"></rect><rect x="153.44" y="286.5" width="4.36" height="8.69" style="fill:#dbdbdb"></rect><rect x="161.17" y="286.5" width="4.36" height="8.69" style="fill:#dbdbdb"></rect><rect x="145.71" y="300.63" width="4.36" height="8.69" style="fill:#dbdbdb"></rect><rect x="153.44" y="300.63" width="4.36" height="8.69" style="fill:#dbdbdb"></rect><rect x="161.17" y="300.63" width="4.36" height="8.69" style="fill:#dbdbdb"></rect><rect x="145.71" y="314.75" width="4.36" height="8.69" style="fill:#dbdbdb"></rect><rect x="153.44" y="314.75" width="4.36" height="8.69" style="fill:#dbdbdb"></rect><rect x="161.17" y="314.75" width="4.36" height="8.69" style="fill:#dbdbdb"></rect><rect x="145.71" y="328.87" width="4.36" height="8.69" style="fill:#dbdbdb"></rect><rect x="153.44" y="328.87" width="4.36" height="8.69" style="fill:#dbdbdb"></rect><rect x="161.17" y="328.87" width="4.36" height="8.69" style="fill:#dbdbdb"></rect><rect x="145.71" y="342.99" width="4.36" height="8.69" style="fill:#dbdbdb"></rect><rect x="153.44" y="342.99" width="4.36" height="8.69" style="fill:#dbdbdb"></rect><rect x="161.17" y="342.99" width="4.36" height="8.69" style="fill:#dbdbdb"></rect><rect x="145.71" y="357.12" width="4.36" height="8.69" style="fill:#dbdbdb"></rect><rect x="153.44" y="357.12" width="4.36" height="8.69" style="fill:#dbdbdb"></rect><rect x="161.17" y="357.12" width="4.36" height="8.69" style="fill:#dbdbdb"></rect><rect x="145.71" y="371.24" width="4.36" height="8.69" style="fill:#dbdbdb"></rect><rect x="153.44" y="371.24" width="4.36" height="8.69" style="fill:#dbdbdb"></rect><rect x="161.17" y="371.24" width="4.36" height="8.69" style="fill:#dbdbdb"></rect><rect x="145.71" y="385.36" width="4.36" height="8.69" style="fill:#dbdbdb"></rect><rect x="153.44" y="385.36" width="4.36" height="8.69" style="fill:#dbdbdb"></rect><rect x="161.17" y="385.36" width="4.36" height="8.69" style="fill:#dbdbdb"></rect><rect x="145.71" y="399.49" width="4.36" height="5.42" style="fill:#dbdbdb"></rect><rect x="153.44" y="399.49" width="4.36" height="5.42" style="fill:#dbdbdb"></rect><rect x="161.17" y="399.49" width="4.36" height="5.42" style="fill:#dbdbdb"></rect><rect x="44.72" y="277.73" width="42.87" height="127.17" style="fill:#ebebeb"></rect><rect x="50.81" y="266.95" width="36.77" height="10.78" style="fill:#c7c7c7"></rect><rect x="49.42" y="283.36" width="33.47" height="121.54" style="fill:#dbdbdb"></rect><rect x="49.42" y="294.96" width="33.47" height="2.87" style="fill:#fff"></rect><rect x="49.42" y="306.85" width="33.47" height="2.87" style="fill:#fff"></rect><rect x="49.42" y="318.75" width="33.47" height="2.87" style="fill:#fff"></rect><rect x="49.42" y="330.65" width="33.47" height="2.87" style="fill:#fff"></rect><rect x="49.42" y="342.55" width="33.47" height="2.87" style="fill:#fff"></rect><rect x="49.42" y="354.44" width="33.47" height="2.87" style="fill:#fff"></rect><rect x="49.42" y="366.34" width="33.47" height="2.87" style="fill:#fff"></rect><rect x="49.42" y="378.24" width="33.47" height="2.87" style="fill:#fff"></rect><rect x="49.42" y="390.13" width="33.47" height="2.87" style="fill:#fff"></rect><rect x="49.42" y="402.03" width="33.47" height="2.87" style="fill:#fff"></rect><rect x="87.59" y="277.73" width="26.85" height="127.17" style="fill:#dbdbdb"></rect><rect x="87.59" y="266.95" width="22.82" height="10.78" style="fill:#a6a6a6"></rect><rect x="91.29" y="283.36" width="20.65" height="121.54" style="fill:#c7c7c7"></rect><rect x="91.29" y="294.96" width="20.65" height="2.87" style="fill:#fff"></rect><rect x="91.29" y="306.85" width="20.65" height="2.87" style="fill:#fff"></rect><rect x="91.29" y="318.75" width="20.65" height="2.87" style="fill:#fff"></rect><rect x="91.29" y="330.65" width="20.65" height="2.87" style="fill:#fff"></rect><rect x="91.29" y="342.55" width="20.65" height="2.87" style="fill:#fff"></rect><rect x="91.29" y="354.44" width="20.65" height="2.87" style="fill:#fff"></rect><rect x="91.29" y="366.34" width="20.65" height="2.87" style="fill:#fff"></rect><rect x="91.29" y="378.24" width="20.65" height="2.87" style="fill:#fff"></rect><rect x="91.29" y="390.13" width="20.65" height="2.87" style="fill:#fff"></rect><rect x="91.29" y="402.03" width="20.65" height="2.87" style="fill:#fff"></rect><rect x="163.14" y="330.45" width="33.14" height="74.45" style="fill:#dbdbdb"></rect><rect x="168.35" y="336.9" width="5.86" height="4.56" style="fill:#c7c7c7"></rect><rect x="168.35" y="346.64" width="5.86" height="4.56" style="fill:#c7c7c7"></rect><rect x="168.35" y="356.38" width="5.86" height="4.56" style="fill:#c7c7c7"></rect><rect x="168.35" y="366.12" width="5.86" height="4.56" style="fill:#c7c7c7"></rect><rect x="168.35" y="375.87" width="5.86" height="4.56" style="fill:#c7c7c7"></rect><rect x="168.35" y="385.61" width="5.86" height="4.56" style="fill:#c7c7c7"></rect><rect x="168.35" y="395.35" width="5.86" height="4.56" style="fill:#c7c7c7"></rect><rect x="176.79" y="336.9" width="5.87" height="4.56" style="fill:#c7c7c7"></rect><rect x="176.79" y="346.64" width="5.87" height="4.56" style="fill:#c7c7c7"></rect><rect x="176.79" y="356.38" width="5.87" height="4.56" style="fill:#c7c7c7"></rect><rect x="176.79" y="366.12" width="5.87" height="4.56" style="fill:#c7c7c7"></rect><rect x="176.79" y="375.87" width="5.87" height="4.56" style="fill:#c7c7c7"></rect><rect x="176.79" y="385.61" width="5.87" height="4.56" style="fill:#c7c7c7"></rect><rect x="176.79" y="395.35" width="5.87" height="4.56" style="fill:#c7c7c7"></rect><rect x="185.21" y="336.9" width="5.87" height="4.56" style="fill:#c7c7c7"></rect><rect x="185.21" y="346.64" width="5.87" height="4.56" style="fill:#c7c7c7"></rect><rect x="185.21" y="356.38" width="5.87" height="4.56" style="fill:#c7c7c7"></rect><rect x="185.21" y="366.12" width="5.87" height="4.56" style="fill:#c7c7c7"></rect><rect x="185.21" y="375.87" width="5.87" height="4.56" style="fill:#c7c7c7"></rect><rect x="185.21" y="385.61" width="5.87" height="4.56" style="fill:#c7c7c7"></rect><rect x="185.21" y="395.35" width="5.87" height="4.56" style="fill:#c7c7c7"></rect><rect x="196.28" y="330.45" width="23.25" height="74.45" style="fill:#a6a6a6"></rect><rect x="212.38" y="394.62" width="4.77" height="4.56" transform="translate(429.54 793.81) rotate(180)" style="fill:#c7c7c7"></rect><rect x="212.38" y="384.88" width="4.77" height="4.56" transform="translate(429.54 774.33) rotate(180)" style="fill:#c7c7c7"></rect><rect x="212.38" y="375.14" width="4.77" height="4.56" transform="translate(429.54 754.84) rotate(180)" style="fill:#c7c7c7"></rect><rect x="212.38" y="365.4" width="4.77" height="4.56" transform="translate(429.54 735.36) rotate(180)" style="fill:#c7c7c7"></rect><rect x="212.38" y="355.65" width="4.77" height="4.56" transform="translate(429.54 715.87) rotate(180)" style="fill:#c7c7c7"></rect><rect x="212.38" y="345.91" width="4.77" height="4.56" transform="translate(429.54 696.39) rotate(180)" style="fill:#c7c7c7"></rect><rect x="212.38" y="336.17" width="4.77" height="4.56" transform="translate(429.54 676.9) rotate(180)" style="fill:#c7c7c7"></rect><rect x="205.51" y="394.62" width="4.77" height="4.56" transform="translate(415.8 793.81) rotate(180)" style="fill:#c7c7c7"></rect><rect x="205.51" y="384.88" width="4.77" height="4.56" transform="translate(415.8 774.33) rotate(180)" style="fill:#c7c7c7"></rect><rect x="205.51" y="375.14" width="4.77" height="4.56" transform="translate(415.8 754.84) rotate(180)" style="fill:#c7c7c7"></rect><rect x="205.51" y="365.4" width="4.77" height="4.56" transform="translate(415.8 735.36) rotate(180)" style="fill:#c7c7c7"></rect><rect x="205.51" y="355.65" width="4.77" height="4.56" transform="translate(415.8 715.87) rotate(180)" style="fill:#c7c7c7"></rect><rect x="205.51" y="345.91" width="4.77" height="4.56" transform="translate(415.8 696.39) rotate(180)" style="fill:#c7c7c7"></rect><rect x="205.51" y="336.17" width="4.77" height="4.56" transform="translate(415.8 676.9) rotate(180)" style="fill:#c7c7c7"></rect><rect x="198.66" y="394.62" width="4.77" height="4.56" transform="translate(402.1 793.81) rotate(180)" style="fill:#c7c7c7"></rect><rect x="198.66" y="384.88" width="4.77" height="4.56" transform="translate(402.1 774.33) rotate(180)" style="fill:#c7c7c7"></rect><rect x="198.66" y="375.14" width="4.77" height="4.56" transform="translate(402.1 754.84) rotate(180)" style="fill:#c7c7c7"></rect><rect x="198.66" y="365.4" width="4.77" height="4.56" transform="translate(402.1 735.36) rotate(180)" style="fill:#c7c7c7"></rect><rect x="198.66" y="355.65" width="4.77" height="4.56" transform="translate(402.1 715.87) rotate(180)" style="fill:#c7c7c7"></rect><rect x="198.66" y="345.91" width="4.77" height="4.56" transform="translate(402.1 696.39) rotate(180)" style="fill:#c7c7c7"></rect><rect x="198.66" y="336.17" width="4.77" height="4.56" transform="translate(402.1 676.9) rotate(180)" style="fill:#c7c7c7"></rect><rect x="397.04" y="245.06" width="22.9" height="27.05" style="fill:#dbdbdb"></rect><rect x="419.94" y="245.06" width="14.52" height="28.04" style="fill:#c7c7c7"></rect><rect x="421.01" y="257" width="14.41" height="16.1" style="fill:#dbdbdb"></rect><rect x="435.42" y="257" width="8.99" height="16.1" style="fill:#c7c7c7"></rect><rect x="388.26" y="270.35" width="37.02" height="134.56" style="fill:#ebebeb"></rect><rect x="392.49" y="276.13" width="11.64" height="4.76" style="fill:#fff"></rect><rect x="407.38" y="276.13" width="11.64" height="4.76" style="fill:#fff"></rect><rect x="392.49" y="284.21" width="11.64" height="4.76" style="fill:#fff"></rect><rect x="407.38" y="284.21" width="11.64" height="4.76" style="fill:#fff"></rect><rect x="392.49" y="292.28" width="11.64" height="4.76" style="fill:#fff"></rect><rect x="407.38" y="292.28" width="11.64" height="4.76" style="fill:#fff"></rect><rect x="392.49" y="300.36" width="11.64" height="4.76" style="fill:#fff"></rect><rect x="407.38" y="300.36" width="11.64" height="4.76" style="fill:#fff"></rect><rect x="392.49" y="308.44" width="11.64" height="4.76" style="fill:#fff"></rect><rect x="407.38" y="308.44" width="11.64" height="4.76" style="fill:#fff"></rect><rect x="392.49" y="316.51" width="11.64" height="4.76" style="fill:#fff"></rect><rect x="407.38" y="316.51" width="11.64" height="4.76" style="fill:#fff"></rect><rect x="392.49" y="324.59" width="11.64" height="4.76" style="fill:#fff"></rect><rect x="407.38" y="324.59" width="11.64" height="4.76" style="fill:#fff"></rect><rect x="392.49" y="332.67" width="11.64" height="4.76" style="fill:#fff"></rect><rect x="407.38" y="332.67" width="11.64" height="4.76" style="fill:#fff"></rect><rect x="392.49" y="340.74" width="11.64" height="4.76" style="fill:#fff"></rect><rect x="407.38" y="340.74" width="11.64" height="4.76" style="fill:#fff"></rect><rect x="392.49" y="348.82" width="11.64" height="4.76" style="fill:#fff"></rect><rect x="407.38" y="348.82" width="11.64" height="4.76" style="fill:#fff"></rect><rect x="392.49" y="356.9" width="11.64" height="4.76" style="fill:#fff"></rect><rect x="407.38" y="356.9" width="11.64" height="4.76" style="fill:#fff"></rect><rect x="392.49" y="364.97" width="11.64" height="4.76" style="fill:#fff"></rect><rect x="407.38" y="364.97" width="11.64" height="4.76" style="fill:#fff"></rect><rect x="392.49" y="373.05" width="11.64" height="4.76" style="fill:#fff"></rect><rect x="407.38" y="373.05" width="11.64" height="4.76" style="fill:#fff"></rect><rect x="392.49" y="381.12" width="11.64" height="4.76" style="fill:#fff"></rect><rect x="407.38" y="381.12" width="11.64" height="4.76" style="fill:#fff"></rect><rect x="425.28" y="270.35" width="30" height="134.56" style="fill:#c7c7c7"></rect><rect x="442.72" y="381.12" width="9.56" height="4.76" transform="translate(894.99 767.01) rotate(180)" style="fill:#ebebeb"></rect><rect x="430.49" y="381.12" width="9.56" height="4.76" transform="translate(870.54 767.01) rotate(180)" style="fill:#ebebeb"></rect><rect x="442.72" y="373.05" width="9.56" height="4.76" transform="translate(894.99 750.85) rotate(180)" style="fill:#ebebeb"></rect><rect x="430.49" y="373.05" width="9.56" height="4.76" transform="translate(870.54 750.85) rotate(180)" style="fill:#ebebeb"></rect><rect x="442.72" y="364.97" width="9.56" height="4.76" transform="translate(894.99 734.7) rotate(180)" style="fill:#ebebeb"></rect><rect x="430.49" y="364.97" width="9.56" height="4.76" transform="translate(870.54 734.7) rotate(180)" style="fill:#ebebeb"></rect><rect x="442.72" y="356.9" width="9.56" height="4.76" transform="translate(894.99 718.55) rotate(180)" style="fill:#ebebeb"></rect><rect x="430.49" y="356.9" width="9.56" height="4.76" transform="translate(870.54 718.55) rotate(180)" style="fill:#ebebeb"></rect><rect x="442.72" y="348.82" width="9.56" height="4.76" transform="translate(894.99 702.39) rotate(180)" style="fill:#ebebeb"></rect><rect x="430.49" y="348.82" width="9.56" height="4.76" transform="translate(870.54 702.39) rotate(180)" style="fill:#ebebeb"></rect><rect x="442.72" y="340.74" width="9.56" height="4.76" transform="translate(894.99 686.24) rotate(180)" style="fill:#ebebeb"></rect><rect x="430.49" y="340.74" width="9.56" height="4.76" transform="translate(870.54 686.24) rotate(180)" style="fill:#ebebeb"></rect><rect x="442.72" y="332.67" width="9.56" height="4.76" transform="translate(894.99 670.09) rotate(180)" style="fill:#ebebeb"></rect><rect x="430.49" y="332.67" width="9.56" height="4.76" transform="translate(870.54 670.09) rotate(180)" style="fill:#ebebeb"></rect><rect x="442.72" y="324.59" width="9.56" height="4.76" transform="translate(894.99 653.94) rotate(180)" style="fill:#ebebeb"></rect><rect x="430.49" y="324.59" width="9.56" height="4.76" transform="translate(870.54 653.94) rotate(180)" style="fill:#ebebeb"></rect><rect x="442.72" y="316.51" width="9.56" height="4.76" transform="translate(894.99 637.78) rotate(180)" style="fill:#ebebeb"></rect><rect x="430.49" y="316.51" width="9.56" height="4.76" transform="translate(870.54 637.78) rotate(180)" style="fill:#ebebeb"></rect><rect x="442.72" y="308.44" width="9.56" height="4.76" transform="translate(894.99 621.63) rotate(180)" style="fill:#ebebeb"></rect><rect x="430.49" y="308.44" width="9.56" height="4.76" transform="translate(870.54 621.63) rotate(180)" style="fill:#ebebeb"></rect><rect x="442.72" y="300.36" width="9.56" height="4.76" transform="translate(894.99 605.48) rotate(180)" style="fill:#ebebeb"></rect><rect x="430.49" y="300.36" width="9.56" height="4.76" transform="translate(870.54 605.48) rotate(180)" style="fill:#ebebeb"></rect><rect x="442.72" y="292.28" width="9.56" height="4.76" transform="translate(894.99 589.32) rotate(180)" style="fill:#ebebeb"></rect><rect x="430.49" y="292.28" width="9.56" height="4.76" transform="translate(870.54 589.32) rotate(180)" style="fill:#ebebeb"></rect><rect x="442.72" y="284.21" width="9.56" height="4.76" transform="translate(894.99 573.17) rotate(180)" style="fill:#ebebeb"></rect><rect x="430.49" y="284.21" width="9.56" height="4.76" transform="translate(870.54 573.17) rotate(180)" style="fill:#ebebeb"></rect><rect x="442.72" y="276.13" width="9.56" height="4.76" transform="translate(894.99 557.02) rotate(180)" style="fill:#ebebeb"></rect><rect x="430.49" y="276.13" width="9.56" height="4.76" transform="translate(870.54 557.02) rotate(180)" style="fill:#ebebeb"></rect><rect x="247.88" y="317.22" width="43.67" height="87.68" style="fill:#c7c7c7"></rect><rect x="254.75" y="324.81" width="7.73" height="5.37" style="fill:#dbdbdb"></rect><rect x="254.75" y="336.29" width="7.73" height="5.37" style="fill:#dbdbdb"></rect><rect x="254.75" y="347.76" width="7.73" height="5.37" style="fill:#dbdbdb"></rect><rect x="254.75" y="359.23" width="7.73" height="5.37" style="fill:#dbdbdb"></rect><rect x="254.75" y="370.71" width="7.73" height="5.37" style="fill:#dbdbdb"></rect><rect x="254.75" y="382.18" width="7.73" height="5.37" style="fill:#dbdbdb"></rect><rect x="254.75" y="393.65" width="7.73" height="5.37" style="fill:#dbdbdb"></rect><rect x="265.87" y="324.81" width="7.73" height="5.37" style="fill:#dbdbdb"></rect><rect x="265.87" y="336.29" width="7.73" height="5.37" style="fill:#dbdbdb"></rect><rect x="265.87" y="347.76" width="7.73" height="5.37" style="fill:#dbdbdb"></rect><rect x="265.87" y="359.23" width="7.73" height="5.37" style="fill:#dbdbdb"></rect><rect x="265.87" y="370.71" width="7.73" height="5.37" style="fill:#dbdbdb"></rect><rect x="265.87" y="382.18" width="7.73" height="5.37" style="fill:#dbdbdb"></rect><rect x="265.87" y="393.65" width="7.73" height="5.37" style="fill:#dbdbdb"></rect><rect x="276.96" y="324.81" width="7.73" height="5.37" style="fill:#dbdbdb"></rect><rect x="276.96" y="336.29" width="7.73" height="5.37" style="fill:#dbdbdb"></rect><rect x="276.96" y="347.76" width="7.73" height="5.37" style="fill:#dbdbdb"></rect><rect x="276.96" y="359.23" width="7.73" height="5.37" style="fill:#dbdbdb"></rect><rect x="276.96" y="370.71" width="7.73" height="5.37" style="fill:#dbdbdb"></rect><rect x="276.96" y="382.18" width="7.73" height="5.37" style="fill:#dbdbdb"></rect><rect x="276.96" y="393.65" width="7.73" height="5.37" style="fill:#dbdbdb"></rect><rect x="262.48" y="308.09" width="29.07" height="9.14" style="fill:#dbdbdb"></rect><rect x="273.12" y="302.43" width="18.43" height="5.66" style="fill:#ebebeb"></rect><rect x="291.55" y="317.22" width="30.64" height="87.68" style="fill:#a6a6a6"></rect><rect x="312.76" y="392.8" width="6.29" height="5.37" transform="translate(631.82 790.97) rotate(180)" style="fill:#c7c7c7"></rect><rect x="312.76" y="381.32" width="6.29" height="5.37" transform="translate(631.82 768.02) rotate(180)" style="fill:#c7c7c7"></rect><rect x="312.76" y="369.85" width="6.29" height="5.37" transform="translate(631.82 745.07) rotate(180)" style="fill:#c7c7c7"></rect><rect x="312.76" y="358.38" width="6.29" height="5.37" transform="translate(631.82 722.13) rotate(180)" style="fill:#c7c7c7"></rect><rect x="312.76" y="346.9" width="6.29" height="5.37" transform="translate(631.82 699.18) rotate(180)" style="fill:#c7c7c7"></rect><rect x="312.76" y="335.43" width="6.29" height="5.37" transform="translate(631.82 676.23) rotate(180)" style="fill:#c7c7c7"></rect><rect x="312.76" y="323.96" width="6.29" height="5.37" transform="translate(631.82 653.28) rotate(180)" style="fill:#c7c7c7"></rect><rect x="303.71" y="392.8" width="6.29" height="5.37" transform="translate(613.72 790.97) rotate(180)" style="fill:#c7c7c7"></rect><rect x="303.71" y="381.32" width="6.29" height="5.37" transform="translate(613.72 768.02) rotate(180)" style="fill:#c7c7c7"></rect><rect x="303.71" y="369.85" width="6.29" height="5.37" transform="translate(613.72 745.07) rotate(180)" style="fill:#c7c7c7"></rect><rect x="303.71" y="358.38" width="6.29" height="5.37" transform="translate(613.72 722.13) rotate(180)" style="fill:#c7c7c7"></rect><rect x="303.71" y="346.9" width="6.29" height="5.37" transform="translate(613.72 699.18) rotate(180)" style="fill:#c7c7c7"></rect><rect x="303.71" y="335.43" width="6.29" height="5.37" transform="translate(613.72 676.23) rotate(180)" style="fill:#c7c7c7"></rect><rect x="303.71" y="323.96" width="6.29" height="5.37" transform="translate(613.72 653.28) rotate(180)" style="fill:#c7c7c7"></rect><rect x="294.69" y="392.8" width="6.29" height="5.37" transform="translate(595.67 790.97) rotate(180)" style="fill:#c7c7c7"></rect><rect x="294.69" y="381.32" width="6.29" height="5.37" transform="translate(595.67 768.02) rotate(180)" style="fill:#c7c7c7"></rect><rect x="294.69" y="369.85" width="6.29" height="5.37" transform="translate(595.67 745.07) rotate(180)" style="fill:#c7c7c7"></rect><rect x="294.69" y="358.38" width="6.29" height="5.37" transform="translate(595.67 722.13) rotate(180)" style="fill:#c7c7c7"></rect><rect x="294.69" y="346.9" width="6.29" height="5.37" transform="translate(595.67 699.18) rotate(180)" style="fill:#c7c7c7"></rect><rect x="294.69" y="335.43" width="6.29" height="5.37" transform="translate(595.67 676.23) rotate(180)" style="fill:#c7c7c7"></rect><rect x="294.69" y="323.96" width="6.29" height="5.37" transform="translate(595.67 653.28) rotate(180)" style="fill:#c7c7c7"></rect><rect x="291.55" y="308.09" width="26" height="9.14" style="fill:#c7c7c7"></rect><rect x="291.55" y="302.43" width="14.09" height="5.66" style="fill:#dbdbdb"></rect></g><g id="freepik--Plants--inject-268"><path d="M88.42,397.63s-.84-3.92-2.52-4.53-2.71,1.16-2.71,1.16-.39-3.75-2.78-4.88-4.17,1.18-4.17,1.18-1.83-4.76-5.1-4.76-4.91,7-4.91,7-1.93-2.07-3.91-.9-2,5.77-2,5.77Z" style="fill:#37474f"></path><path d="M367.26,397.63s-.84-3.92-2.52-4.53-2.7,1.16-2.7,1.16-.4-3.75-2.78-4.88-4.17,1.18-4.17,1.18-1.83-4.76-5.1-4.76-4.92,7-4.92,7-1.92-2.07-3.9-.9-2,5.77-2,5.77Z" style="fill:#455a64"></path><path d="M162.7,397.63H133.15s1-4.16,2.93-4.46a2.91,2.91,0,0,1,2.88,1.64s-.09-5.81,3.57-6.8,6.72,4.14,6.72,4.14,2.3-2.92,5.42-2.74,3.93,5,3.93,5S161.44,392.76,162.7,397.63Z" style="fill:#37474f"></path><path d="M62.16,397.63H46.61s0-2.31,1.56-2.93a2.09,2.09,0,0,1,2.44.59s.62-4.26,3.47-4.26,4.22,3.67,4.22,3.67a2.18,2.18,0,0,1,2.22-.9C62.1,394,62.16,397.63,62.16,397.63Z" style="fill:#455a64"></path><path d="M174.9,397.63H159.35s0-2.31,1.56-2.93a2.09,2.09,0,0,1,2.44.59S164,391,166.83,391,171,394.7,171,394.7a2.18,2.18,0,0,1,2.22-.9C174.84,394,174.9,397.63,174.9,397.63Z" style="fill:#455a64"></path><path d="M430.7,397.63H415.15s0-2.31,1.56-2.93a2.09,2.09,0,0,1,2.44.59s.62-4.26,3.47-4.26,4.22,3.67,4.22,3.67a2.17,2.17,0,0,1,2.22-.9C430.64,394,430.7,397.63,430.7,397.63Z" style="fill:#455a64"></path><path d="M453.39,397.63H427.75s.06-3.81,2.58-4.83a3.44,3.44,0,0,1,4,1s1-7,5.73-7S447,392.8,447,392.8a3.58,3.58,0,0,1,3.66-1.48C453.29,391.66,453.39,397.63,453.39,397.63Z" style="fill:#37474f"></path></g><g id="freepik--Floor--inject-268"><rect x="41.36" y="397.63" width="417.27" height="7.27" style="fill:#c7c7c7"></rect><path d="M70.62,397.63a13.73,13.73,0,0,1,0,7.27,12,12,0,0,1-.5-3.63A12.34,12.34,0,0,1,70.62,397.63Z" style="fill:#263238"></path><path d="M103.23,397.63a12.34,12.34,0,0,1,.5,3.64,12,12,0,0,1-.5,3.63,13.73,13.73,0,0,1,0-7.27Z" style="fill:#263238"></path><path d="M135.85,397.63a13.73,13.73,0,0,1,0,7.27,12,12,0,0,1-.5-3.63A12.34,12.34,0,0,1,135.85,397.63Z" style="fill:#263238"></path><path d="M168.46,397.63a12.34,12.34,0,0,1,.5,3.64,12,12,0,0,1-.5,3.63,13.73,13.73,0,0,1,0-7.27Z" style="fill:#263238"></path><path d="M201.08,397.63a13.73,13.73,0,0,1,0,7.27,12,12,0,0,1-.5-3.63A12.34,12.34,0,0,1,201.08,397.63Z" style="fill:#263238"></path><path d="M233.69,397.63a12.34,12.34,0,0,1,.5,3.64,12,12,0,0,1-.5,3.63,13.73,13.73,0,0,1,0-7.27Z" style="fill:#263238"></path><path d="M266.31,397.63a13.73,13.73,0,0,1,0,7.27,12,12,0,0,1-.5-3.63A12.34,12.34,0,0,1,266.31,397.63Z" style="fill:#263238"></path><path d="M298.92,397.63a12.34,12.34,0,0,1,.5,3.64,12,12,0,0,1-.5,3.63,13.73,13.73,0,0,1,0-7.27Z" style="fill:#263238"></path><path d="M331.54,397.63a13.73,13.73,0,0,1,0,7.27,12,12,0,0,1-.5-3.63A12.34,12.34,0,0,1,331.54,397.63Z" style="fill:#263238"></path><path d="M364.15,397.63a12.34,12.34,0,0,1,.5,3.64,12,12,0,0,1-.5,3.63,13.73,13.73,0,0,1,0-7.27Z" style="fill:#263238"></path><path d="M396.77,397.63a13.73,13.73,0,0,1,0,7.27,12,12,0,0,1-.5-3.63A12.34,12.34,0,0,1,396.77,397.63Z" style="fill:#263238"></path><path d="M429.38,397.63a12.34,12.34,0,0,1,.5,3.64,12,12,0,0,1-.5,3.63,13.73,13.73,0,0,1,0-7.27Z" style="fill:#263238"></path><polygon points="44.45 404.9 95.84 404.66 147.23 404.57 250 404.4 352.77 404.57 404.16 404.66 455.55 404.9 404.16 405.15 352.77 405.24 250 405.4 147.23 405.23 95.84 405.15 44.45 404.9" style="fill:#263238"></polygon></g><g id="freepik--Device--inject-268"><path d="M335.76,55.76H164.22a17.52,17.52,0,0,0-17.35,17.68V426.56a17.53,17.53,0,0,0,17.35,17.68H335.76a17.54,17.54,0,0,0,17.37-17.68V73.44A17.53,17.53,0,0,0,335.76,55.76Zm6.52,359.88c0,9.3-7,16.82-15.54,16.82H173.27c-8.6,0-15.56-7.52-15.56-16.82V86.82c0-18.93,7-19.85,15.56-19.85H204c1.79,0,3.25,2,3.25,4.54V72.6c0,5.89,3.22,5.91,7.19,5.91h71.09c4,0,7.19,0,7.19-5.91V71.51C292.73,69,294.17,67,296,67h30.75c8.58,0,15.54,2.51,15.54,19.85Z" style="fill:#263238"></path><path d="M259.69,71.15H240.3a1.2,1.2,0,0,1-1.2-1.2h0a1.2,1.2,0,0,1,1.2-1.2h19.39a1.2,1.2,0,0,1,1.2,1.2h0A1.2,1.2,0,0,1,259.69,71.15Z" style="fill:#fff"></path><path d="M342.28,86.82V415.64c0,9.3-7,16.82-15.54,16.82H173.28c-8.61,0-15.57-7.52-15.57-16.82V86.82c0-18.93,7-19.85,15.57-19.85H204c1.79,0,3.25,2,3.25,4.54V72.6c0,5.89,3.23,5.91,7.19,5.91h71.09c4,0,7.2,0,7.2-5.91V71.51C292.74,69,294.18,67,296,67h30.75C335.32,67,342.28,69.48,342.28,86.82Z" style="fill:#ebebeb"></path><path d="M342.28,86.82v27.66H157.71V86.82c0-18.93,7-19.85,15.56-19.85H204c1.78,0,3.24,2,3.24,4.54V72.6c0,5.89,3.23,5.91,7.19,5.91h71.09c4,0,7.2,0,7.2-5.91V71.51C292.74,69,294.18,67,296,67h30.73C335.32,67,342.28,69.48,342.28,86.82Z" style="fill:#5B9BD5"></path><g id="freepik--u5Zjqx--inject-268"><path d="M198.71,74.35l-.3.3c-.06,0-.11.11-.17.17a4,4,0,0,0-5.72,0l-.16-.17-.3-.29h0l.37-.34a4.4,4.4,0,0,1,.87-.55,4.73,4.73,0,0,1,1.15-.39l.58-.07h.5l.39,0a4.31,4.31,0,0,1,1.06.25,4.58,4.58,0,0,1,.71.33,4.63,4.63,0,0,1,.68.48l.32.28Z" style="fill:#fff"></path><path d="M193.46,75.75l-.47-.47a3.37,3.37,0,0,1,4.78,0l-.47.47a2.7,2.7,0,0,0-3.84,0Z" style="fill:#fff"></path><path d="M196.83,76.22l-.47.46a1.36,1.36,0,0,0-1-.4,1.34,1.34,0,0,0-1,.41l-.47-.47A2,2,0,0,1,196.83,76.22Z" style="fill:#fff"></path><path d="M195.8,77.11a.42.42,0,1,1-.84,0,.42.42,0,1,1,.84,0Z" style="fill:#fff"></path></g><path d="M169.75,75.25a1.22,1.22,0,1,1,2.44,0,1.22,1.22,0,1,1-2.44,0Z" style="fill:#fff"></path><path d="M173.6,75.25a1.22,1.22,0,1,1,1.22,1.22A1.22,1.22,0,0,1,173.6,75.25Z" style="fill:#fff"></path><path d="M177.45,75.25a1.23,1.23,0,1,1,1.22,1.22A1.22,1.22,0,0,1,177.45,75.25Z" style="fill:#fff"></path><path d="M181.3,75.25a1.23,1.23,0,1,1,1.23,1.22A1.22,1.22,0,0,1,181.3,75.25Z" style="fill:#fff"></path><path d="M185.16,75.25a1.22,1.22,0,1,1,1.22,1.22A1.21,1.21,0,0,1,185.16,75.25Z" style="fill:#fff"></path><path d="M328.43,77.92h-9.95V73.31h9.95Zm-9.45-.5h8.95V73.81H319Z" style="fill:#fff"></path><rect x="319.3" y="74.09" width="6.42" height="3.05" style="fill:#fff"></rect><rect x="328.44" y="74.38" width="0.89" height="2.47" style="fill:#fff"></rect><path d="M242.55,97v7a.66.66,0,0,1-.66.65.64.64,0,0,1-.65-.65V99l-1.69,2.36a.67.67,0,0,1-.54.27h0a.68.68,0,0,1-.54-.27L236.76,99v5a.65.65,0,1,1-1.3,0V97a.65.65,0,0,1,.64-.65h0a.66.66,0,0,1,.52.27L239,99.84l2.35-3.25a.66.66,0,0,1,.53-.27h0A.68.68,0,0,1,242.55,97Z" style="fill:#fff"></path><path d="M248.85,102.63H246l-.57,1.53a.67.67,0,0,1-.62.41.54.54,0,0,1-.22,0,.66.66,0,0,1-.39-.84l2.61-6.94a.66.66,0,0,1,.62-.42.65.65,0,0,1,.62.42l2.61,6.94a.66.66,0,0,1-.39.84.51.51,0,0,1-.22,0,.63.63,0,0,1-.6-.41Zm-.49-1.3-1-2.53-.95,2.53Z" style="fill:#fff"></path><path d="M255,101.36h-1.45v2.56a.66.66,0,0,1-.66.65.65.65,0,0,1-.65-.65V97a.64.64,0,0,1,.65-.65H255a2.52,2.52,0,1,1,0,5Zm-1.45-1.3H255a1.22,1.22,0,1,0,0-2.43h-1.45Z" style="fill:#fff"></path><path d="M258.87,102.52a.61.61,0,0,1,.86-.08,3.83,3.83,0,0,0,2.25.9,2.57,2.57,0,0,0,1.48-.43,1.07,1.07,0,0,0,.5-.85.7.7,0,0,0-.1-.38,1.1,1.1,0,0,0-.36-.35,4.6,4.6,0,0,0-1.61-.55h0a6.46,6.46,0,0,1-1.52-.46,2.61,2.61,0,0,1-1.1-.92,1.82,1.82,0,0,1-.27-1,2.17,2.17,0,0,1,.94-1.72,3.47,3.47,0,0,1,2-.62,4.61,4.61,0,0,1,2.57.94.6.6,0,0,1,.16.83.58.58,0,0,1-.83.18,3.42,3.42,0,0,0-1.9-.75,2.23,2.23,0,0,0-1.32.4.92.92,0,0,0-.45.74.56.56,0,0,0,.09.33,1.12,1.12,0,0,0,.31.31,4.18,4.18,0,0,0,1.48.52h0a6.92,6.92,0,0,1,1.63.49,2.75,2.75,0,0,1,1.17,1,1.86,1.86,0,0,1,.29,1,2.31,2.31,0,0,1-1,1.83,3.69,3.69,0,0,1-2.18.67,5.05,5.05,0,0,1-3-1.18A.63.63,0,0,1,258.87,102.52Z" style="fill:#fff"></path><polygon points="176.12 105.39 170.65 100.27 176.12 95.14 176.97 96.05 172.46 100.27 176.97 104.49 176.12 105.39" style="fill:#fff"></polygon><path d="M329.35,96.44a1.08,1.08,0,1,1-1.07-1.08A1.08,1.08,0,0,1,329.35,96.44Z" style="fill:#fff"></path><path d="M329.35,100.27a1.08,1.08,0,1,1-1.07-1.08A1.07,1.07,0,0,1,329.35,100.27Z" style="fill:#fff"></path><path d="M329.35,104.1a1.08,1.08,0,1,1-1.07-1.08A1.07,1.07,0,0,1,329.35,104.1Z" style="fill:#fff"></path><rect x="237.18" y="408.37" width="82.12" height="6" style="fill:#fff"></rect><path d="M342.28,125.25v-6H290v-4.77h-6v14.27l-50.57,23.17-4.82,7.86L197.75,129V114.48h-3v14.23h-37v6H163V252.08h31.21l-9,20.65v44.64H157.8v3h27.34v11.81h49v43.2H157.71v6h76.47v51.08h6V332.18h16.93v32.71h9.2v-3h-6.2V332.18h15.61l40.58,43v57.26h6V372.82l-19.2-20.36,39.18-39.18V304.8L299,348.1l-20.67-21.92H217.13L255,285.05h87.22v-3H257.72l35.15-38.21h49.41v-6H321.73V125.25ZM169,246.08V183.17h25v-3H169V134.71h26L225.34,165l-14.68,24h0a21.37,21.37,0,0,0-6.79,40.91l-7.07,16.15Zm43.42-51.14A15.38,15.38,0,1,1,197,210.32,15.4,15.4,0,0,1,212.38,194.94ZM209,326.18H191.14V274l18.57-42.46a21.33,21.33,0,0,0,19.75-8.36l43.46,20.67h11.79Zm106.76-88.34H274.27l-41.9-19.93a21.39,21.39,0,0,0-15-28.38l20.16-32.92,32.68-15,45.51,45.52Zm0-54.92-42.6-42.61L290,132.6v-7.35h25.78Z" style="fill:#fff"></path><rect x="196.28" y="312.9" width="8.73" height="8.73" style="fill:#dbdbdb"></rect><polygon points="286.95 288.17 286.95 305.02 280.82 305.02 280.82 312.06 270.03 312.06 270.03 288.17 286.95 288.17" style="fill:#dbdbdb"></polygon><polygon points="242.95 405.61 242.95 395.8 247.88 395.8 247.88 385.48 257.02 385.48 257.02 405.61 242.95 405.61" style="fill:#dbdbdb"></polygon><rect x="302.03" y="390.91" width="10.74" height="14.7" style="fill:#dbdbdb"></rect><polygon points="262.48 334.73 262.48 347.25 285.95 347.25 273.27 334.57 262.48 334.73" style="fill:#dbdbdb"></polygon><rect x="242.95" y="334.57" width="11.79" height="11.79" style="fill:#dbdbdb"></rect><rect x="160.03" y="323.52" width="9.43" height="19.61" style="fill:#dbdbdb"></rect><rect x="172" y="323.52" width="10.65" height="9.02" style="fill:#dbdbdb"></rect><rect x="217.16" y="359.96" width="14.21" height="13.07" style="fill:#dbdbdb"></rect><polygon points="231.36 357.39 231.36 334.57 213.99 334.57 202.91 345.65 202.91 357.39 231.36 357.39" style="fill:#dbdbdb"></polygon><polygon points="199.77 343.13 208.5 334.4 185.21 334.4 185.21 343.13 199.77 343.13" style="fill:#dbdbdb"></polygon><polygon points="194.28 243.37 172 243.37 172 232.86 198.52 232.86 194.28 243.37" style="fill:#dbdbdb"></polygon><rect x="172" y="213.24" width="9.56" height="14.47" style="fill:#dbdbdb"></rect><path d="M194.45,187.3v5a32.45,32.45,0,0,0-7.91,17.4H172V187.3Z" style="fill:#dbdbdb"></path><path d="M246.62,236l-9.13,19.72H226.37l-19-8.81,5-10.84h0a25.67,25.67,0,0,0,18-7.37Z" style="fill:#dbdbdb"></path><polygon points="283.33 260.52 295.38 247.42 319.05 247.42 319.05 260.52 283.33 260.52" style="fill:#dbdbdb"></polygon><rect x="322.19" y="247.42" width="14.98" height="13.1" style="fill:#dbdbdb"></rect><polygon points="262.82 133.59 279.69 125.87 279.69 114.48 262.82 114.48 262.82 133.59" style="fill:#dbdbdb"></polygon><polygon points="205.94 131.75 221.29 147.1 221.29 120.88 205.94 120.88 205.94 131.75" style="fill:#dbdbdb"></polygon><polygon points="226.71 147.1 232.19 147.1 254.39 137.09 254.39 120.88 226.71 120.88 226.71 147.1" style="fill:#dbdbdb"></polygon><polygon points="193.32 137.91 206.08 150.67 179.88 150.67 179.88 137.91 193.32 137.91" style="fill:#5B9BD5;opacity:0.30000000000000004"></polygon><polygon points="207.5 186.47 219.95 166.13 208.08 153.59 191.92 153.59 191.92 167.1 200.8 167.1 200.8 180.85 207.5 186.47" style="fill:#dbdbdb"></polygon><rect x="177.66" y="116.19" width="14.26" height="9.75" style="fill:#dbdbdb"></rect><polygon points="174.33 125.95 160.81 125.95 160.81 116.19 164.69 116.19 168.75 120.25 174.33 120.25 174.33 125.95" style="fill:#dbdbdb"></polygon><path d="M262.25,189.25l-18,18.78-6.91-5.4a26.09,26.09,0,0,0-12.78-15.39l15.07-24.62Z" style="fill:#dbdbdb"></path><polygon points="242.62 216.32 274.27 231.97 290.06 231.97 290.06 204.44 265.45 192.29 242.62 216.32" style="fill:#dbdbdb"></polygon><polygon points="312.38 174.33 312.38 160.73 298.79 160.73 312.38 174.33" style="fill:#dbdbdb"></polygon><rect x="304.35" y="146.48" width="8.02" height="11.06" style="fill:#dbdbdb"></rect><polygon points="312.38 129.11 312.38 142.91 301.45 142.91 301.45 150.55 293.71 150.55 293.71 129.11 312.38 129.11" style="fill:#dbdbdb"></polygon><polygon points="290.06 148.37 290.06 135.67 278.08 141.12 285.32 148.37 290.06 148.37" style="fill:#dbdbdb"></polygon><polygon points="196.28 309.26 196.28 274.68 205.94 251.07 223.55 259.79 264.62 259.79 218.56 309.26 196.28 309.26" style="fill:#5B9BD5;opacity:0.30000000000000004"></polygon><rect x="326.14" y="129.11" width="16.15" height="21.44" style="fill:#5B9BD5;opacity:0.30000000000000004"></rect><polygon points="296.46 358.73 262.48 358.73 262.48 350.22 288.43 350.22 296.46 358.73" style="fill:#5B9BD5;opacity:0.30000000000000004"></polygon><rect x="160.03" y="288.96" width="22.62" height="24.92" style="fill:#dbdbdb"></rect><rect x="172" y="274.31" width="10.65" height="10.65" style="fill:#dbdbdb"></rect><polygon points="182.66 271.07 166.06 271.07 166.06 254.92 189.63 254.92 182.66 271.07" style="fill:#dbdbdb"></polygon><rect x="160.03" y="281.74" width="9.43" height="3.22" style="fill:#dbdbdb"></rect><rect x="160.03" y="274.31" width="9.43" height="5.33" style="fill:#dbdbdb"></rect><rect x="294.43" y="213.96" width="17.35" height="18" style="fill:#dbdbdb"></rect><rect x="294.43" y="204.84" width="17.35" height="6.32" style="fill:#dbdbdb"></rect><polygon points="242.47 158.07 269.6 145.65 290.64 166.7 265.72 186.47 242.47 158.07" style="fill:#dbdbdb"></polygon><polygon points="292.83 169.68 303.11 179.54 290.64 190.4 290.64 200.16 268.66 188.96 292.83 169.68" style="fill:#5B9BD5;opacity:0.30000000000000004"></polygon><polygon points="311.78 188.74 305.58 182.92 294.43 192.29 294.43 202.06 311.78 202.06 311.78 188.74" style="fill:#dbdbdb"></polygon><rect x="172" y="153.73" width="15.46" height="23.01" style="fill:#dbdbdb"></rect><rect x="191.92" y="170.03" width="5.3" height="5.3" style="fill:#dbdbdb"></rect><rect x="326.22" y="209.67" width="16.04" height="22.21" style="fill:#dbdbdb"></rect><polygon points="326.21 204.76 342.26 204.76 342.26 179.57 326.21 189.36 326.21 204.76" style="fill:#dbdbdb"></polygon><polygon points="326.14 184.14 326.14 168.62 342.28 168.62 342.28 175.05 326.14 184.14" style="fill:#dbdbdb"></polygon><rect x="326.14" y="153.16" width="5.93" height="12.97" style="fill:#dbdbdb"></rect><rect x="335.06" y="153.16" width="7.22" height="12.97" style="fill:#dbdbdb"></rect><rect x="326.8" y="386.91" width="15.48" height="28.74" style="fill:#5B9BD5;opacity:0.30000000000000004"></rect><polygon points="230.45 421.41 214.77 421.41 196.85 404.95 196.85 384.99 230.45 384.99 230.45 421.41" style="fill:#5B9BD5;opacity:0.30000000000000004"></polygon><rect x="174.22" y="384.99" width="19.79" height="10.71" style="fill:#dbdbdb"></rect><rect x="174.22" y="398.46" width="19.79" height="5.99" style="fill:#dbdbdb"></rect><polygon points="167.6 404.12 171.7 404.12 171.7 384.99 162.55 384.99 162.55 398.79 167.6 404.12" style="fill:#dbdbdb"></polygon><rect x="214.77" y="423.49" width="15.68" height="8.97" style="fill:#dbdbdb"></rect><path d="M211.38,421.41v11h-38.1a14.9,14.9,0,0,1-10.73-4.63v-21h33.3Z" style="fill:#dbdbdb"></path><polygon points="266.56 278.42 280.82 263.43 294.43 263.43 294.43 278.42 266.56 278.42" style="fill:#dbdbdb"></polygon><rect x="297.26" y="263.43" width="16.18" height="6.89" style="fill:#dbdbdb"></rect><rect x="297.26" y="272.16" width="7.29" height="6.26" style="fill:#dbdbdb"></rect><rect x="306.36" y="272.16" width="7.08" height="6.26" style="fill:#dbdbdb"></rect><rect x="315.41" y="263.43" width="10.23" height="14.98" style="fill:#dbdbdb"></rect><polygon points="337.03 263.43 328.17 263.43 328.17 273.68 332.41 278.42 337.03 278.42 337.03 263.43" style="fill:#dbdbdb"></polygon><polygon points="241.75 255.68 264.62 255.68 264.62 244.75 250 238.11 241.75 255.68" style="fill:#dbdbdb"></polygon><circle cx="212.38" cy="210.23" r="10.26" transform="translate(-30.63 384.16) rotate(-80.3)" style="fill:#dbdbdb"></circle><polygon points="176.79 373.02 160.03 373.02 160.03 345.04 169.46 345.04 176.79 354.61 176.79 373.02" style="fill:#5B9BD5;opacity:0.30000000000000004"></polygon><polygon points="182.66 351.29 176.79 351.29 172 345.04 172 335.17 182.66 335.17 182.66 351.29" style="fill:#dbdbdb"></polygon><rect x="179.72" y="365.14" width="9.32" height="7.89" style="fill:#dbdbdb"></rect><polygon points="199.52 345.98 199.52 373.02 191.14 373.02 191.14 351.28 185.21 351.28 185.21 345.98 199.52 345.98" style="fill:#dbdbdb"></polygon><rect x="202.91" y="360.69" width="11.86" height="12.34" style="fill:#dbdbdb"></rect><rect x="179.71" y="353.66" width="9.33" height="9.97" style="fill:#dbdbdb"></rect><polygon points="310 330.8 310 288.17 338.64 288.17 338.64 302.66 310 330.8" style="fill:#dbdbdb"></polygon><rect x="289.5" y="288.17" width="17.62" height="16.85" style="fill:#dbdbdb"></rect><polygon points="225.16 323.17 243.54 303.17 266.61 303.17 266.61 323.17 225.16 323.17" style="fill:#dbdbdb"></polygon><polygon points="246.16 300.85 257.83 288.17 266.56 288.17 266.56 300.85 246.16 300.85" style="fill:#dbdbdb"></polygon><rect x="270.03" y="314.81" width="10.79" height="8.36" style="fill:#dbdbdb"></rect><polygon points="307.13 315.16 307.13 333.95 298.6 343.13 283.74 327.19 283.74 308.96 301.36 308.96 301.36 315.16 307.13 315.16" style="fill:#dbdbdb"></polygon><polygon points="322.33 368.54 307.22 352.05 324.36 335.3 333.83 345.52 322.33 368.54" style="fill:#dbdbdb"></polygon><polygon points="326.3 333.17 335.44 343.02 342.28 343.02 342.28 317.29 326.3 333.17" style="fill:#dbdbdb"></polygon><polygon points="326.8 373.73 324.56 371.32 332.03 355.32 342.28 355.32 342.28 384.37 326.8 384.37 326.8 373.73" style="fill:#dbdbdb"></polygon><rect x="335.61" y="345.3" width="6.67" height="8.06" style="fill:#dbdbdb"></rect><rect x="242.94" y="416.8" width="15.67" height="11.33" style="fill:#dbdbdb"></rect><rect x="260.96" y="416.8" width="5.85" height="15.65" style="fill:#dbdbdb"></rect><rect x="269.22" y="416.8" width="8.2" height="5.82" style="fill:#dbdbdb"></rect><rect x="269.22" y="424.35" width="11.6" height="8.11" style="fill:#dbdbdb"></rect><polygon points="294.69 416.8 294.69 432.46 283.32 432.46 283.32 422.63 280.16 422.63 280.16 416.8 294.69 416.8" style="fill:#dbdbdb"></polygon><polygon points="304.02 432.46 296.57 425.01 296.57 416.81 314.17 416.81 314.17 432.46 304.02 432.46" style="fill:#dbdbdb"></polygon><path d="M342,419c-1.42,7.68-7.67,13.46-15.17,13.49V419Z" style="fill:#dbdbdb"></path><polygon points="312.76 388.17 285.95 388.17 285.95 361.44 299.42 361.44 312.76 376.1 312.76 388.17" style="fill:#dbdbdb"></polygon><rect x="269.72" y="361.44" width="13.11" height="16.94" style="fill:#dbdbdb"></rect><polygon points="299.42 390.91 299.42 405.61 269.72 405.61 269.72 380.51 282.82 380.51 282.82 390.91 299.42 390.91" style="fill:#dbdbdb"></polygon><rect x="258.61" y="391.27" width="9.41" height="14.35" style="fill:#dbdbdb"></rect><rect x="242.95" y="371.32" width="25.08" height="12.33" style="fill:#dbdbdb"></rect><rect x="258.61" y="385.48" width="9.41" height="4" style="fill:#5B9BD5;opacity:0.30000000000000004"></rect><polygon points="254.74 348.72 247.88 348.72 242.95 353.41 242.95 367.04 254.74 367.04 254.74 348.72" style="fill:#dbdbdb"></polygon><polygon points="311.05 366.76 276.52 329.97 187.14 329.97 187.14 273.26 197.3 250.15 165.06 250.15 165.06 216.32 167.06 216.32 167.06 248.15 200.36 248.15 189.14 273.68 189.14 327.97 277.39 327.97 277.69 328.29 312.51 365.39 311.05 366.76" style="fill:#5B9BD5"></polygon><path d="M168.08,214.58a2,2,0,1,1-2-2A2,2,0,0,1,168.08,214.58Z" style="fill:#5B9BD5"></path><path d="M313.91,366.24a2,2,0,1,1-2-2A2,2,0,0,1,313.91,366.24Z" style="fill:#5B9BD5"></path><rect x="246.15" y="304.56" width="32.77" height="14.71" style="fill:#fff"></rect><polygon points="259.5 319.27 265.56 319.27 262.53 324.87 259.5 319.27" style="fill:#fff"></polygon><g id="freepik--t06Ym6.tif--inject-268"><path d="M250.05,316.17c-.35-.06-.38-.39-.2-.69s.88-1.34.94-1.44a4.05,4.05,0,0,0,.39-1.19c.18-.94.34-1.87.52-2.81,0,0,0-.08,0-.17-.29.16-.56.29-.82.44a.33.33,0,0,0-.08.18c-.07.33-.13.67-.19,1l0,.15a.31.31,0,0,1-.37.23.28.28,0,0,1-.24-.33c.08-.48.17-1,.27-1.43a.46.46,0,0,1,.22-.24c.6-.33,1.2-.66,1.81-1a.73.73,0,0,1,1,.36c.22.46.44.92.67,1.38a.5.5,0,0,0,.22.21l.88.4c.21.09.29.25.21.43a.31.31,0,0,1-.45.15c-.36-.15-.71-.31-1.05-.47a.58.58,0,0,1-.22-.22c-.11-.2-.21-.41-.33-.66-.12.52-.23,1-.32,1.46,0,.07.82,1.1,1.17,1.55a1.31,1.31,0,0,1,.24.47c.12.52.22,1.05.33,1.57.07.35,0,.55-.3.6s-.43-.23-.47-.48c-.09-.49-.2-1-.31-1.46a16.43,16.43,0,0,0-1.38-1.67,13.78,13.78,0,0,1-.58,1.71C251.4,314.65,250.42,316.23,250.05,316.17Z" style="fill:#a6a6a6"></path><path d="M253.81,308a.77.77,0,1,1-1.53,0,.77.77,0,1,1,1.53,0Z" style="fill:#a6a6a6"></path></g><path d="M259.06,308.51a1.23,1.23,0,0,1,0,1.76,1.25,1.25,0,0,1-.88.37,1.29,1.29,0,0,1-.88-.37.28.28,0,0,1,0-.4.3.3,0,0,1,.41,0,.65.65,0,0,0,.47.2.67.67,0,0,0,.48-.2.67.67,0,0,0,.2-.48.63.63,0,0,0-.2-.48.71.71,0,0,0-.47-.2.24.24,0,0,1-.21-.09h0a.28.28,0,0,1,0-.4l.51-.52h-.81a.29.29,0,1,1,0-.57h1.47a.29.29,0,0,1,.29.28.33.33,0,0,1,0,.14l-.05.07-.63.65A1.21,1.21,0,0,1,259.06,308.51Z" style="fill:#a6a6a6"></path><path d="M260.21,308.89a2.2,2.2,0,0,1,.34-1.2,1.06,1.06,0,0,1,1.86,0,2.29,2.29,0,0,1,0,2.4,1.06,1.06,0,0,1-1.86,0A2.2,2.2,0,0,1,260.21,308.89Zm2,0A1.65,1.65,0,0,0,262,308a.59.59,0,0,0-.46-.31.62.62,0,0,0-.48.31,1.75,1.75,0,0,0,0,1.77.61.61,0,0,0,.48.32.58.58,0,0,0,.46-.32A1.64,1.64,0,0,0,262.19,308.89Z" style="fill:#a6a6a6"></path><path d="M267.5,309.17v1.21a.27.27,0,0,1-.27.26.27.27,0,0,1-.27-.26v-1.21a.51.51,0,0,0-1,0v1.19s0,0,0,0v0a0,0,0,0,1,0,0v0a.3.3,0,0,1-.25.16h-.05a.28.28,0,0,1-.22-.26v-1.19h0v-.77a.26.26,0,0,1,.27-.27.25.25,0,0,1,.24.15,1,1,0,0,1,.54-.15,1.08,1.08,0,0,0,1.57,0,1,1,0,0,1,1,1.05v1.19a.27.27,0,0,1-.27.26.27.27,0,0,1-.27-.26v-1.19a.51.51,0,0,0-.5-.52A.52.52,0,0,0,267.5,309.17Z" style="fill:#a6a6a6"></path><path d="M270.7,307.51a.27.27,0,0,1-.27.28.28.28,0,0,1-.27-.28v-.1a.27.27,0,0,1,.27-.27.26.26,0,0,1,.27.27Zm0,.91v1.95a.26.26,0,0,1-.27.27.27.27,0,0,1-.27-.27v-1.95a.27.27,0,0,1,.27-.28A.27.27,0,0,1,270.7,308.42Z" style="fill:#a6a6a6"></path><path d="M273.65,309.18v1.2a.26.26,0,0,1-.26.26.26.26,0,0,1-.26-.26v-1.2a.52.52,0,0,0-.52-.51.51.51,0,0,0-.51.51v1.2a.11.11,0,0,1,0,.05.26.26,0,0,1-.26.21.27.27,0,0,1-.27-.26v-2a.27.27,0,0,1,.51-.11,1.06,1.06,0,0,1,.54-.15A1,1,0,0,1,273.65,309.18Z" style="fill:#a6a6a6"></path><path d="M274.94,309.93a.38.38,0,1,1,0,.75.38.38,0,0,1,0-.75Z" style="fill:#a6a6a6"></path><path d="M257.68,312.49l-.49.3h-.06a.13.13,0,0,1-.11-.05.13.13,0,0,1,.05-.17l.68-.41a.13.13,0,0,1,.16,0,.14.14,0,0,1,0,.09v3.22a.11.11,0,0,1-.12.12.12.12,0,0,1-.12-.12Z" style="fill:#a6a6a6"></path><path d="M258.82,316a.38.38,0,0,0,.24-.39.16.16,0,0,1-.14-.17v-.11a.16.16,0,0,1,.17-.16.16.16,0,0,1,.16.16v.13a.71.71,0,0,1-.13.52.6.6,0,0,1-.26.16.08.08,0,0,1-.08-.08A.08.08,0,0,1,258.82,316Z" style="fill:#a6a6a6"></path><path d="M259.93,315.43l1.64-1.48a.89.89,0,0,0,.3-.67.92.92,0,0,0-.23-.6.89.89,0,0,0-.67-.3,1,1,0,0,0-.61.23l-.17.16a.12.12,0,0,1-.17-.18l.17-.16a1.24,1.24,0,0,1,.78-.29,1.14,1.14,0,0,1,1.14,1.14,1.15,1.15,0,0,1-.37.85l-1.4,1.27H262a.12.12,0,0,1,0,.24h-2a.12.12,0,0,1-.09,0A.13.13,0,0,1,259.93,315.43Z" style="fill:#a6a6a6"></path><path d="M264.58,312.26a.12.12,0,0,1,.24,0v2.36l1.46-1.45a.12.12,0,1,1,.17.17l-.95,1,.95,1.15a.13.13,0,0,1,0,.18.14.14,0,0,1-.17,0l-.95-1.14-.5.5v.56a.12.12,0,0,1-.24,0Z" style="fill:#a6a6a6"></path><path d="M270.89,314.19a.76.76,0,1,0-1.52,0v1.34h0s0,.05-.06.07h-.1l0,0h0s0,0,0,0h0v0h0v-1.34a.77.77,0,0,0-.76-.76.76.76,0,0,0-.75.76v1.34a.11.11,0,0,1-.06.09l0,0h0a.11.11,0,0,1-.1-.09v-2.24a.11.11,0,0,1,.11-.11.12.12,0,0,1,.13.11v.24a1,1,0,0,1,.75-.35,1,1,0,0,0,1.76,0,1,1,0,0,1,1,1v1.34a.11.11,0,0,1-.12.11.11.11,0,0,1-.11-.11Z" style="fill:#a6a6a6"></path><path d="M323.85,341.67c-.6-6-4.76-12.05-12.07-12.05s-11.47,6-12.07,12.05c-.92,9.32,5.36,17.76,12.07,25.46C318.49,359.43,324.77,351,323.85,341.67Zm-12.07,6.7a6.61,6.61,0,1,1,6.62-6.61A6.61,6.61,0,0,1,311.78,348.37Z" style="fill:#5B9BD5"></path></g></svg>