<svg xmlns="http://www.w3.org/2000/svg" viewBox="0 0 500 500"><g id="freepik--Floor--inject-39"><path id="freepik--Floor-2--inject-39" d="M93.46,271.75c-86.45,49.91-86.45,130.84,0,180.75,86.45,49.91,226.62,49.91,313.07,0,86.45-49.91,86.45-130.84,0-180.75-86.45-49.91-226.62-49.91-313.07,0Z" style="fill:#fafafa;"></path></g><g id="freepik--Clipboard--inject-39"><g id="freepik--Clipboard-2--inject-39"><g id="freepik--Board--inject-39"><g id="freepik--Window--inject-39"><path d="M212.59,27.01L44.27,124.07c-1.74,1-3.15,3.44-3.15,5.45V421.66c0,2.01,1.41,4.44,3.15,5.44l.64,.36c1.74,1,4.56,.99,6.3-.01l168.32-97.19c1.74-1,3.15-3.45,3.15-5.45V32.8c0-2.01-1.41-4.44-3.15-5.44l-.64-.36c-1.74-1-4.56-.99-6.3,.01Z" style="fill:#FFC100;"></path><path d="M212.59,27.01L44.27,124.07c-1.74,1-3.15,3.44-3.15,5.45V421.66c0,2.01,1.41,4.44,3.15,5.44l.64,.36c1.74,1,4.56,.99,6.3-.01l168.32-97.19c1.74-1,3.15-3.45,3.15-5.45V32.8c0-2.01-1.41-4.44-3.15-5.44l-.64-.36c-1.74-1-4.56-.99-6.3,.01Z" style="opacity:.45;"></path><path d="M222.69,325.04c0,2.77-1.94,4.53-4.35,5.91L52.42,426.74c-2.39,1.38-4.35,.27-4.35-2.51V134.86h0c0-3.09,1.65-5.95,4.33-7.5L218.33,31.53c1.93-1.12,4.35,.28,4.35,2.51h0V325.04Z" style="fill:#FFC100;"></path><path d="M222.69,325.04c0,2.77-1.94,4.53-4.35,5.91L52.42,426.74c-2.39,1.38-4.35,.27-4.35-2.51V134.86h0c0-3.09,1.65-5.95,4.33-7.5L218.33,31.53c1.93-1.12,4.35,.28,4.35,2.51h0V325.04Z" style="opacity:.3;"></path><path d="M222.69,32.8v1.24c0-2.23-2.42-3.62-4.36-2.51L52.4,127.36c-1.35,.76-2.42,1.87-3.16,3.16-.02,.04-.04,.06-.05,.1l-7.18-4.15c.58-1.01,1.37-1.89,2.27-2.4L212.59,27.01c1.74-1.01,4.57-1.01,6.3-.01l.64,.37c1.74,.99,3.16,3.43,3.16,5.44Z" style="fill:#FFC100;"></path><path d="M222.69,32.8v1.24c0-2.23-2.42-3.62-4.36-2.51L52.4,127.36c-1.35,.76-2.42,1.87-3.16,3.16-.02,.04-.04,.06-.05,.1l-7.18-4.15c.58-1.01,1.37-1.89,2.27-2.4L212.59,27.01c1.74-1.01,4.57-1.01,6.3-.01l.64,.37c1.74,.99,3.16,3.43,3.16,5.44Z" style="opacity:.2;"></path></g></g><path id="freepik--Shadow-4--inject-39" d="M218.58,312.29c0,2.85-2,4.67-4.48,6.09L57.28,408.92c-2.47,1.43-4.48,.27-4.48-2.59V150.91h0c0-3.19,1.7-6.13,4.46-7.73L214.1,52.6c1.99-1.15,4.48,.29,4.48,2.59V312.29Z" style="opacity:.25;"></path><g id="freepik--Form--inject-39"><g id="freepik--Paper--inject-39"><path d="M56.82,146.58L213.06,56.37c.74-.43,1.94-.43,2.68,0l1.51,.87c.74,.43,1.34,1.46,1.34,2.32V316.24c0,.85-.6,1.89-1.34,2.32L61,408.76c-.74,.43-1.94,.43-2.67,0l-1.51-.87c-.74-.43-1.34-1.46-1.34-2.32V148.89c0-.85,.6-1.89,1.34-2.32Z" style="fill:#f5f5f5;"></path><path d="M60.68,408.91c-.15,.06-.32,.1-.49,.13-.08,.01-.18,.02-.26,.03-.27,.02-.55,.01-.81-.03-.18-.03-.34-.07-.49-.13-.1-.04-.21-.09-.3-.14l-1.5-.86c-.74-.43-1.34-1.46-1.34-2.32V148.9c0-.43,.14-.91,.39-1.32l4.18,2.41c-.24,.42-.39,.9-.39,1.32V407.99c0,.73,.43,1.09,1.02,.92Z" style="fill:#e0e0e0;"></path><g><g><path d="M217.25,57.24l-1.51-.87c-.74-.43-1.94-.43-2.67,0L56.82,146.58c-.74,.43-1.34,1.46-1.34,2.32v34.63l4.18,2.43L218.58,94.2V59.55c0-.85-.6-1.89-1.34-2.32Z" style="fill:#FFC100;"></path><path d="M217.25,57.24l-1.51-.87c-.74-.43-1.94-.43-2.67,0L56.82,146.58c-.74,.43-1.34,1.46-1.34,2.32v34.63l4.18,2.43L218.58,94.2V59.55c0-.85-.6-1.89-1.34-2.32Z" style="fill:#fff; opacity:.4;"></path></g><g><path d="M218.53,59.15c-.16-.55-.68-.72-1.29-.37L61,148.99c-.37,.22-.71,.58-.95,1l-4.18-2.41c.24-.42,.58-.79,.95-1L213.07,56.37c.73-.43,1.94-.43,2.67,0l1.51,.87c.63,.37,1.15,1.16,1.29,1.91Z" style="fill:#FFC100;"></path><path d="M218.53,59.15c-.16-.55-.68-.72-1.29-.37L61,148.99c-.37,.22-.71,.58-.95,1l-4.18-2.41c.24-.42,.58-.79,.95-1L213.07,56.37c.73-.43,1.94-.43,2.67,0l1.51,.87c.63,.37,1.15,1.16,1.29,1.91Z" style="fill:#fff; opacity:.6;"></path></g><path d="M55.48,148.9v34.64l4.18,2.41v-34.65c0-.42,.15-.9,.39-1.32l-4.18-2.41c-.25,.41-.39,.89-.39,1.32Z" style="fill:#FFC100;"></path></g></g></g><g id="freepik--Clip_Board--inject-39"><path d="M91.35,196.42l95.71-55.41c.42-.24,.76-.05,.76,.44v.99c0,.49-.34,1.08-.76,1.32l-95.72,55.41c-.42,.24-.76,.05-.76-.44v-.99c0-.49,.34-1.08,.76-1.32Z" style="fill:#FFC100;"></path><g><path d="M95.24,237.51v1.4c0,.76,.53,1.06,1.19,.69l63.08-36.37c.66-.38,1.19-1.3,1.19-2.06v-1.4c0-.76-.53-1.06-1.19-.69l-63.08,36.38c-.66,.38-1.19,1.3-1.19,2.06Z" style="fill:#e0e0e0;"></path><path d="M95.24,246.32v1.4c0,.76,.53,1.06,1.19,.69l108.34-62.52c.66-.38,1.19-1.3,1.19-2.06v-1.4c0-.76-.53-1.06-1.19-.69l-108.34,62.52c-.66,.38-1.19,1.3-1.19,2.06Z" style="fill:#e0e0e0;"></path><path d="M95.24,254.7v1.4c0,.76,.53,1.06,1.19,.69l108.34-62.52c.66-.38,1.19-1.3,1.19-2.06v-1.4c0-.76-.53-1.06-1.19-.69l-108.34,62.52c-.66,.38-1.19,1.3-1.19,2.06Z" style="fill:#e0e0e0;"></path></g><g><path d="M70.65,272.21c-.11,0-.21-.03-.31-.08-.19-.11-.31-.31-.31-.53v-20.23c0-.22,.12-.42,.31-.53l17.4-10.04c.19-.11,.42-.11,.61,0,.19,.11,.31,.31,.31,.53v20.23c0,.22-.12,.42-.31,.53l-17.39,10.04c-.09,.06-.2,.08-.31,.08Zm.61-20.49v18.82l16.17-9.34v-18.82l-16.17,9.34Z" style="fill:#455a64;"></path><polygon points="79.13 262.75 75.08 258.86 76.43 255.99 78.74 258.21 88.71 237.1 90.45 238.78 79.13 262.75" style="fill:#FFC100;"></polygon></g><g><path d="M95.24,269.18v1.4c0,.76,.53,1.06,1.19,.69l63.08-36.37c.66-.38,1.19-1.3,1.19-2.06v-1.4c0-.76-.53-1.06-1.19-.69l-63.08,36.38c-.66,.38-1.19,1.3-1.19,2.06Z" style="fill:#e0e0e0;"></path><path d="M95.24,277.99v1.4c0,.76,.53,1.06,1.19,.69l108.34-62.52c.66-.38,1.19-1.3,1.19-2.06v-1.4c0-.76-.53-1.06-1.19-.69l-108.34,62.52c-.66,.38-1.19,1.3-1.19,2.06Z" style="fill:#e0e0e0;"></path><path d="M95.24,286.38v1.4c0,.76,.53,1.06,1.19,.69l108.34-62.52c.66-.38,1.19-1.3,1.19-2.06v-1.4c0-.76-.53-1.06-1.19-.69l-108.34,62.52c-.66,.38-1.19,1.3-1.19,2.06Z" style="fill:#e0e0e0;"></path></g><g><path d="M70.65,303.88c-.11,0-.21-.03-.31-.08-.19-.11-.31-.31-.31-.53v-20.23c0-.22,.12-.42,.31-.53l17.4-10.04c.19-.11,.42-.11,.61,0,.19,.11,.31,.31,.31,.53v20.23c0,.22-.12,.42-.31,.53l-17.39,10.04c-.09,.06-.2,.08-.31,.08Zm.61-20.49v18.82l16.17-9.34v-18.82l-16.17,9.34Z" style="fill:#455a64;"></path><polygon points="79.13 294.42 75.08 290.53 76.43 287.66 78.74 289.88 88.71 268.78 90.45 270.45 79.13 294.42" style="fill:#FFC100;"></polygon></g><g><path d="M95.24,300.86v1.4c0,.76,.53,1.06,1.19,.69l63.08-36.37c.66-.38,1.19-1.3,1.19-2.06v-1.4c0-.76-.53-1.06-1.19-.69l-63.08,36.38c-.66,.38-1.19,1.3-1.19,2.06Z" style="fill:#e0e0e0;"></path><path d="M95.24,309.66v1.4c0,.76,.53,1.06,1.19,.69l108.34-62.52c.66-.38,1.19-1.3,1.19-2.06v-1.4c0-.76-.53-1.06-1.19-.69l-108.34,62.52c-.66,.38-1.19,1.3-1.19,2.06Z" style="fill:#e0e0e0;"></path><path d="M95.24,318.05v1.4c0,.76,.53,1.06,1.19,.69l108.34-62.52c.66-.38,1.19-1.3,1.19-2.06v-1.4c0-.76-.53-1.06-1.19-.69l-108.34,62.52c-.66,.38-1.19,1.3-1.19,2.06Z" style="fill:#e0e0e0;"></path></g><g><path d="M70.65,335.55c-.11,0-.21-.03-.31-.08-.19-.11-.31-.31-.31-.53v-20.23c0-.22,.12-.42,.31-.53l17.4-10.04c.19-.11,.42-.11,.61,0,.19,.11,.31,.31,.31,.53v20.23c0,.22-.12,.42-.31,.53l-17.39,10.04c-.09,.05-.2,.08-.31,.08Zm.61-20.49v18.82l16.17-9.34v-18.82l-16.17,9.34Z" style="fill:#455a64;"></path><polygon points="79.13 326.1 75.08 322.2 76.43 319.34 78.74 321.55 88.71 300.45 90.45 302.13 79.13 326.1" style="fill:#FFC100;"></polygon></g><g><path d="M95.24,332.53v1.4c0,.76,.53,1.06,1.19,.69l63.08-36.37c.66-.38,1.19-1.3,1.19-2.06v-1.4c0-.76-.53-1.06-1.19-.69l-63.08,36.38c-.66,.38-1.19,1.3-1.19,2.06Z" style="fill:#e0e0e0;"></path><path d="M95.24,341.34v1.4c0,.76,.53,1.06,1.19,.69l108.34-62.52c.66-.38,1.19-1.3,1.19-2.06v-1.4c0-.76-.53-1.06-1.19-.69l-108.34,62.52c-.66,.38-1.19,1.3-1.19,2.06Z" style="fill:#e0e0e0;"></path><path d="M95.24,349.72v1.4c0,.76,.53,1.06,1.19,.69l108.34-62.52c.66-.38,1.19-1.3,1.19-2.06v-1.4c0-.76-.53-1.06-1.19-.69l-108.34,62.52c-.66,.38-1.19,1.3-1.19,2.06Z" style="fill:#e0e0e0;"></path></g><g><path d="M70.65,367.23c-.11,0-.21-.03-.31-.08-.19-.11-.31-.31-.31-.53v-20.23c0-.22,.12-.42,.31-.53l17.4-10.04c.19-.11,.42-.11,.61,0,.19,.11,.31,.31,.31,.53v20.23c0,.22-.12,.42-.31,.53l-17.39,10.04c-.09,.06-.2,.08-.31,.08Zm.61-20.49v18.82l16.17-9.34v-18.82l-16.17,9.34Z" style="fill:#455a64;"></path><polygon points="79.13 357.77 75.08 353.88 76.43 351.01 78.74 353.23 88.71 332.12 90.45 333.8 79.13 357.77" style="fill:#FFC100;"></polygon></g><g><path d="M70.04,221.67v1.4c0,.76,.53,1.06,1.19,.69l133.54-77.12c.66-.38,1.19-1.3,1.19-2.06v-1.4c0-.76-.53-1.06-1.19-.69L71.22,219.62c-.66,.38-1.19,1.3-1.19,2.06Z" style="fill:#e0e0e0;"></path><path d="M70.04,230.57v1.4c0,.76,.53,1.06,1.19,.69l133.54-77.12c.66-.38,1.19-1.3,1.19-2.06v-1.4c0-.76-.53-1.06-1.19-.69L71.22,228.51c-.66,.38-1.19,1.3-1.19,2.06Z" style="fill:#e0e0e0;"></path><path d="M70.04,239.47v1.4c0,.76,.53,1.06,1.19,.69l133.54-77.12c.66-.38,1.19-1.3,1.19-2.06v-1.4c0-.76-.53-1.06-1.19-.69L71.22,237.41c-.66,.38-1.19,1.3-1.19,2.06Z" style="fill:#e0e0e0;"></path></g><g><path d="M70.04,379.05v1.4c0,.76,.53,1.06,1.19,.69l133.54-77.12c.66-.38,1.19-1.3,1.19-2.06v-1.4c0-.76-.53-1.06-1.19-.69l-133.55,77.12c-.66,.38-1.19,1.3-1.19,2.06Z" style="fill:#e0e0e0;"></path><path d="M70.04,387.94v1.4c0,.76,.53,1.06,1.19,.69l133.54-77.12c.66-.38,1.19-1.3,1.19-2.06v-1.4c0-.76-.53-1.06-1.19-.69l-133.55,77.12c-.66,.38-1.19,1.3-1.19,2.06Z" style="fill:#e0e0e0;"></path></g><g><path d="M71.46,160.9l54.71-31.61c.79-.46,1.43-.09,1.43,.82v.42c0,.91-.64,2.02-1.43,2.47l-54.71,31.61c-.79,.46-1.43,.09-1.43-.82v-.42c0-.91,.64-2.02,1.43-2.47Z" style="fill:#fafafa;"></path><path d="M71.46,168.38l32.55-18.79c.79-.46,1.43-.09,1.43,.82v.42c0,.91-.64,2.02-1.43,2.47l-32.55,18.79c-.79,.46-1.43,.09-1.43-.82v-.42c0-.91,.64-2.02,1.43-2.47Z" style="fill:#fafafa;"></path><g><path d="M180.91,97.23l24.33-14.06c.39-.23,.71-.04,.71,.41v.93c0,.45-.32,1.01-.71,1.23l-24.33,14.06c-.39,.23-.71,.04-.71-.41v-.93c0-.45,.32-1.01,.71-1.23Z" style="fill:#FFC100;"></path><path d="M180.91,108.45l24.33-14.06c.39-.23,.71-.04,.71,.41v.93c0,.45-.32,1.01-.71,1.23l-24.33,14.06c-.39,.23-.71,.04-.71-.41v-.93c0-.45,.32-1.01,.71-1.23Z" style="fill:#FFC100;"></path><path d="M185.93,99.91l19.31-11.15c.39-.23,.71-.04,.71,.41v.93c0,.45-.32,1.01-.71,1.23l-19.31,11.15c-.39,.23-.71,.04-.71-.41v-.93c0-.45,.32-1.01,.71-1.23Z" style="fill:#FFC100;"></path></g></g><path d="M93.21,191.98c-.12,.07-.22,.06-.3-.02-.09-.08-.13-.21-.13-.4v-16c0-.18,.04-.36,.13-.54,.09-.18,.19-.31,.3-.37l1.3-.75c.12-.07,.22-.06,.31,.02,.09,.08,.13,.21,.13,.4v16c0,.18-.04,.36-.13,.55-.09,.18-.19,.31-.31,.37l-1.3,.75Z" style="fill:#455a64;"></path><path d="M104.76,185.31c-.18,.11-.32,.11-.42,.02-.1-.09-.17-.17-.21-.23l-4.5-7.7v10.2c0,.18-.04,.36-.13,.55-.08,.18-.19,.31-.3,.37l-1.3,.75c-.12,.07-.22,.06-.31-.02-.08-.08-.13-.21-.13-.4v-16c0-.18,.04-.36,.13-.54,.09-.18,.19-.31,.31-.37l1.13-.65c.18-.11,.32-.11,.42-.02,.1,.09,.17,.17,.21,.23l4.5,7.7v-10.2c0-.18,.04-.36,.13-.54,.09-.18,.19-.31,.3-.37l1.3-.75c.12-.07,.22-.06,.31,.02,.09,.08,.13,.21,.13,.4v16c0,.18-.04,.36-.13,.55-.09,.18-.19,.31-.31,.37l-1.13,.65Z" style="fill:#455a64;"></path><path d="M112.69,163.15c.72-.41,1.35-.63,1.9-.65,.55-.02,1,.09,1.37,.33,.37,.24,.64,.57,.83,.99,.19,.43,.29,.88,.31,1.34,.01,.19-.03,.38-.12,.55-.09,.18-.2,.3-.31,.37l-1.13,.65c-.18,.11-.32,.13-.41,.08-.09-.05-.17-.15-.25-.29-.16-.32-.41-.54-.73-.65-.33-.12-.81,.01-1.45,.38-.28,.16-.54,.36-.8,.6-.25,.24-.47,.49-.66,.78-.19,.28-.34,.58-.44,.89-.11,.31-.16,.62-.16,.94,0,.38,.05,.66,.15,.84,.1,.18,.27,.29,.52,.32,.24,.03,.56,.01,.96-.07,.4-.08,.89-.19,1.48-.33,.64-.16,1.2-.23,1.66-.21,.47,.02,.85,.15,1.14,.38s.52,.57,.66,1.02c.14,.44,.22,1.01,.22,1.68,0,.74-.11,1.49-.32,2.25-.22,.76-.52,1.48-.92,2.16-.4,.68-.89,1.33-1.46,1.92-.58,.6-1.23,1.11-1.95,1.52-.6,.35-1.17,.57-1.72,.66-.55,.09-1.03,.05-1.46-.13-.42-.18-.76-.49-1.02-.93-.26-.44-.4-1.02-.43-1.73-.01-.19,.03-.38,.12-.55,.09-.18,.2-.3,.32-.37l1.12-.65c.18-.11,.32-.14,.42-.09,.1,.04,.18,.14,.24,.31,.07,.17,.17,.33,.27,.49,.11,.15,.25,.26,.43,.32,.18,.06,.41,.06,.68,.01,.27-.05,.61-.19,1.02-.43,.32-.19,.63-.4,.93-.65,.3-.25,.56-.52,.79-.83,.23-.3,.41-.62,.55-.96,.14-.34,.21-.69,.21-1.07s-.08-.62-.22-.76c-.15-.14-.38-.21-.68-.2-.31,.01-.68,.07-1.13,.18-.45,.11-.97,.22-1.56,.33-.54,.11-1,.15-1.41,.11-.4-.04-.73-.18-1-.43-.26-.24-.46-.6-.59-1.06-.13-.46-.19-1.06-.19-1.81s.11-1.49,.32-2.24c.22-.75,.51-1.46,.88-2.12,.38-.66,.82-1.27,1.34-1.83,.52-.56,1.08-1.01,1.68-1.35Z" style="fill:#455a64;"></path><path d="M127.95,154.58c.12-.07,.22-.06,.31,.02,.08,.08,.13,.21,.13,.4v10.15c0,1.02-.1,2-.29,2.94-.19,.94-.48,1.81-.87,2.63-.39,.82-.87,1.55-1.45,2.21-.58,.66-1.25,1.21-2.01,1.64-.77,.45-1.45,.67-2.02,.68-.57,0-1.05-.17-1.44-.54-.38-.37-.67-.92-.86-1.63-.19-.72-.28-1.59-.28-2.61v-10.15c0-.18,.04-.36,.13-.54,.08-.18,.19-.31,.31-.37l1.3-.75c.12-.07,.22-.06,.31,.02,.08,.08,.13,.21,.13,.4v10.03c0,.68,.06,1.22,.18,1.63,.12,.41,.28,.71,.5,.89,.22,.18,.47,.26,.77,.22,.3-.03,.63-.15,.98-.36,.35-.2,.68-.46,.99-.78,.31-.32,.57-.69,.78-1.12,.21-.43,.38-.92,.51-1.47,.12-.55,.19-1.16,.19-1.84v-10.03c0-.18,.04-.36,.13-.54,.08-.18,.19-.31,.3-.37l1.29-.74Z" style="fill:#455a64;"></path><path d="M135.4,150.28c1.34-.77,2.36-.88,3.06-.33,.7,.56,1.05,1.68,1.05,3.38,0,1.21-.18,2.34-.54,3.39-.36,1.06-.89,1.99-1.58,2.81l2.22,4.84c.03,.08,.05,.16,.05,.24,0,.15-.04,.3-.1,.44-.07,.15-.15,.25-.25,.31l-1.37,.79c-.21,.12-.37,.14-.48,.04-.1-.1-.17-.2-.22-.31l-2.11-4.55-2.14,1.23v5.77c0,.18-.04,.36-.13,.55-.08,.18-.19,.31-.31,.37l-1.3,.75c-.12,.07-.22,.06-.31-.02-.08-.08-.13-.21-.13-.4v-16c0-.18,.04-.36,.13-.54,.09-.18,.19-.31,.31-.37l4.15-2.4Zm-2.41,9.19l2.33-1.35c.61-.35,1.1-.8,1.46-1.34,.37-.54,.55-1.27,.55-2.2s-.18-1.44-.55-1.54c-.36-.1-.85,.02-1.46,.37l-2.33,1.35v4.71Z" style="fill:#455a64;"></path><path d="M146.88,143.65c.17-.1,.3-.1,.39-.01,.09,.09,.16,.26,.23,.5l3.94,13.38s.02,.1,.02,.16c0,.18-.04,.36-.13,.55-.09,.18-.19,.31-.31,.37l-1.16,.67c-.21,.12-.36,.14-.45,.05-.09-.09-.14-.19-.18-.31l-.69-2.35-5.08,2.93-.69,3.15c-.03,.15-.09,.32-.18,.51-.09,.19-.24,.35-.45,.47l-1.16,.67c-.12,.07-.22,.06-.31-.02-.09-.08-.13-.21-.13-.4,0-.07,0-.13,.02-.18l3.94-17.93c.06-.32,.14-.57,.22-.76,.09-.19,.22-.33,.39-.43l1.77-1.02Zm.88,10.36l-1.77-6.04-1.77,8.08,3.54-2.04Z" style="fill:#455a64;"></path><path d="M160.22,153.29c-.18,.11-.32,.11-.42,.02-.1-.09-.17-.17-.21-.23l-4.5-7.7v10.2c0,.18-.04,.36-.13,.55-.08,.18-.19,.31-.3,.37l-1.3,.75c-.12,.07-.22,.06-.31-.02-.08-.08-.13-.21-.13-.4v-16c0-.18,.04-.36,.13-.54,.09-.18,.19-.31,.31-.37l1.13-.65c.18-.11,.32-.11,.42-.02,.1,.09,.17,.17,.21,.23l4.5,7.7v-10.2c0-.18,.04-.36,.13-.54,.09-.18,.19-.31,.31-.37l1.3-.75c.12-.07,.22-.06,.31,.02s.13,.21,.13,.4v16c0,.18-.04,.36-.13,.55s-.19,.31-.31,.37l-1.13,.65Z" style="fill:#455a64;"></path><path d="M171.2,141.45c.02-.23,.08-.42,.17-.58,.09-.16,.19-.27,.3-.33l1.3-.75c.12-.07,.22-.07,.31,0,.09,.07,.13,.21,.12,.41-.03,.7-.14,1.44-.33,2.22-.19,.79-.48,1.56-.86,2.33-.39,.77-.87,1.5-1.46,2.18-.59,.69-1.3,1.27-2.14,1.76-.74,.43-1.39,.63-1.96,.63-.57-.01-1.05-.2-1.45-.58-.4-.37-.71-.92-.93-1.63-.22-.72-.35-1.56-.39-2.52-.02-.61-.03-1.3-.03-2.06s.01-1.46,.03-2.1c.04-1.02,.17-2.01,.39-2.98,.22-.97,.53-1.87,.93-2.7,.4-.83,.88-1.58,1.45-2.25,.57-.67,1.22-1.21,1.96-1.64,.84-.48,1.55-.72,2.14-.71,.59,0,1.08,.17,1.46,.49,.39,.32,.67,.77,.86,1.35,.19,.58,.3,1.19,.33,1.83,.01,.19-.03,.38-.12,.55-.09,.18-.2,.3-.31,.37l-1.3,.75c-.11,.06-.21,.07-.31,.02-.1-.05-.15-.18-.18-.38-.03-.31-.11-.59-.22-.84-.12-.25-.28-.43-.48-.56-.2-.13-.46-.18-.77-.16-.31,.02-.68,.15-1.09,.4-.42,.24-.78,.55-1.09,.93-.31,.38-.57,.79-.78,1.24s-.37,.94-.48,1.47c-.11,.53-.18,1.05-.2,1.58-.02,.64-.03,1.34-.03,2.1s.01,1.45,.03,2.06c.02,.52,.09,.97,.2,1.36,.11,.39,.27,.69,.48,.9,.21,.21,.47,.32,.78,.34,.31,.02,.68-.09,1.09-.33,.42-.24,.78-.53,1.09-.87,.31-.34,.57-.69,.78-1.06,.21-.37,.37-.74,.49-1.13,.12-.38,.19-.75,.22-1.1Z" style="fill:#455a64;"></path><path d="M182.78,137.17c.12-.07,.22-.06,.3,.02,.09,.08,.13,.21,.13,.4v1.76c0,.18-.04,.36-.13,.55-.08,.18-.19,.31-.3,.37l-7.06,4.08c-.12,.07-.22,.06-.31-.02-.09-.08-.13-.21-.13-.4v-16c0-.18,.04-.36,.13-.54,.09-.18,.19-.31,.31-.37l6.93-4c.12-.07,.22-.06,.31,.02,.08,.08,.13,.21,.13,.4v1.76c0,.18-.04,.36-.13,.55-.09,.18-.19,.31-.31,.37l-5.2,3v3.94l4.84-2.8c.12-.07,.22-.06,.31,.02,.09,.08,.13,.21,.13,.4v1.76c0,.18-.04,.36-.13,.54-.08,.18-.19,.31-.31,.38l-4.84,2.8v4.11l5.32-3.07Z" style="fill:#455a64;"></path></g><g id="freepik--Clip--inject-39"><g id="freepik--Shadow-5--inject-39" style="opacity:.25;"><path d="M182.44,67.66v13.43c0,3.4-2.32,7.42-5.27,9.12l-26,15.01c-1.29,.74-2.02,2.22-2.79,3.78-.57,1.15-1.16,2.32-2.01,3.28-2.02,2.29-6.42,4.68-9.53,5.67-1.05,.34-2.09,.58-3.12,.72-.39,.07-.83,.12-1.28,.17-2.84,.38-6.37,.86-8.44,2.06l-30.43,17.56c-.92,.53-1.82,.8-2.65,.8-.64,0-1.24-.15-1.78-.46-1.24-.72-1.93-2.15-1.93-4v-13.43c0-3.4,2.31-7.42,5.27-9.12l10.22-5.9s.09-.04,.14-.05c.49-.22,1.07-.02,1.35,.46,.27,.47,.14,1.08-.28,1.39-.03,.04-.08,.08-.12,.1l-10.22,5.9c-2.26,1.31-4.18,4.62-4.18,7.23v13.43c0,1.04,.31,1.8,.84,2.11,.53,.32,1.35,.19,2.25-.33l30.43-17.57c2.44-1.41,6.22-1.92,9.24-2.32,.45-.05,.87-.12,1.27-.17,.89-.13,1.83-.34,2.77-.64,2.76-.87,6.86-3.11,8.55-5.03,.67-.74,1.16-1.76,1.69-2.81,.88-1.79,1.8-3.63,3.65-4.7l26-15.01c2.26-1.31,4.18-4.62,4.18-7.23v-13.43c0-1.03-.31-1.8-.84-2.1-.53-.32-1.36-.19-2.25,.33l-8.86,5.11c-.29-.67-.68-1.31-1.11-1.88l8.88-5.13c1.6-.94,3.18-1.05,4.43-.34,1.24,.72,1.93,2.15,1.93,4Z"></path></g><g id="freepik--Clip-2--inject-39"><g><path d="M163.47,67.91h0c.7-.41,1.67-.36,2.74,.26,2.13,1.23,3.86,4.23,3.86,6.69,0,1.24-.44,2.11-1.15,2.51h0l-61.69,35.62-5.46-9.47,61.69-35.62Z" style="fill:#37474f;"></path><path d="M104.53,108.29l64.43-37.2c-.7-1.22-1.67-2.29-2.74-2.91-.13-.07-.25-.11-.37-.17l-63.43,36.62,2.11,3.66Z" style="fill:#455a64;"></path><path d="M104.53,103.8c-2.13-1.23-3.86-.23-3.86,2.23s1.73,5.46,3.86,6.69c2.13,1.23,3.86,.23,3.86-2.23,0-2.46-1.73-5.46-3.86-6.69Z" style="fill:#263238;"></path></g><path d="M183.54,68.62v13.43c0,3.4-2.32,7.42-5.27,9.12l-26,15.01c-1.29,.74-2.02,2.22-2.79,3.78-.57,1.15-1.16,2.32-2.01,3.28-2.02,2.29-6.42,4.68-9.53,5.67-1.05,.34-2.09,.58-3.12,.72-.39,.07-.83,.12-1.28,.17-2.84,.38-6.37,.86-8.44,2.06l-30.43,17.56c-.92,.53-1.82,.8-2.65,.8-.64,0-1.24-.15-1.78-.46-1.24-.72-1.93-2.15-1.93-4v-13.43c0-3.4,2.31-7.42,5.27-9.12l10.22-5.9s.09-.04,.14-.05c.49-.22,1.07-.02,1.35,.46,.27,.47,.14,1.08-.28,1.38-.03,.04-.08,.08-.12,.1l-10.22,5.9c-2.26,1.31-4.18,4.62-4.18,7.23v13.43c0,1.04,.31,1.8,.84,2.1,.53,.32,1.35,.19,2.25-.33l30.43-17.57c2.44-1.41,6.22-1.92,9.24-2.32,.45-.05,.87-.12,1.26-.17,.89-.13,1.83-.34,2.77-.64,2.76-.87,6.86-3.11,8.55-5.03,.67-.74,1.16-1.76,1.69-2.81,.88-1.79,1.8-3.63,3.65-4.7l26-15.01c2.26-1.31,4.18-4.62,4.18-7.23v-13.43c0-1.03-.31-1.8-.84-2.1-.53-.32-1.36-.19-2.25,.33l-8.86,5.11c-.29-.67-.68-1.31-1.11-1.88l8.88-5.13c1.6-.94,3.18-1.05,4.43-.34,1.24,.72,1.93,2.15,1.93,4Z" style="fill:#455a64;"></path></g></g></g></g><g id="freepik--Shield--inject-39"><g id="freepik--Shield-2--inject-39"><g><g><path d="M259.85,187.12c.05-1.33-.27-2.16-.86-2.48,0-.01,.01-.01,.01-.01l-.08-.05c-.63-.28-4.81-2.77-5.41-3.09,0-.01,.01-.01,.01-.01l-.08-.05c-.63-.28-1.56-.01-2.68,.84-11.16,8.54-26.51,10.62-38.19,5.48-1.61-1.19-3.1-2.55-4.43-4.1-.07-.08-.13-.16-.2-.23h-.01c-.38-.42-.75-.73-1.13-.93,0,0-5.1-2.96-5.47-3.16l-.19-.11c-1.25-.59-2.4,.01-3.15,1.87-10.59,26.32-33.16,52.99-48.22,59.66-1.12,.5-2.16,1.27-2.96,2.21-1.06,1.23-1.72,2.74-1.67,4.31,0,33.84,18.54,87.91,53.66,105.98,2.08,1.36,4.23,2.59,6.44,3.67,48.32-49.84,54.62-129.68,54.62-169.78Z" style="fill:#FFC100;"></path><path d="M258.92,184.57c-.63-.28-1.56-.01-2.68,.84-12.99,9.94-31.68,11.14-43.63,2.34,11.68,5.12,27.02,3.05,38.16-5.5,1.12-.85,2.05-1.12,2.68-.84l.08,.05s-.01,0-.01,.01c.59,.32,4.77,2.8,5.4,3.09Z" style="fill:#fff; opacity:.4;"></path><path d="M206.6,182.36c-1.25-.59-2.4,.01-3.15,1.87-10.59,26.33-33.16,52.99-48.22,59.66-1.12,.5-2.16,1.27-2.96,2.21-.44,.53-.82,1.09-1.11,1.7l-5.46-3.15c.28-.61,.65-1.19,1.09-1.7,.81-.94,1.85-1.71,2.96-2.21,15.05-6.67,37.62-33.34,48.22-59.66,.75-1.86,1.9-2.47,3.15-1.87l.19,.11c.18,.09,1.25,.71,2.43,1.39,1.16,.67,2.4,1.4,2.86,1.66Z" style="fill:#FFC100;"></path><path d="M206.6,182.36c-1.25-.59-2.4,.01-3.15,1.87-10.59,26.33-33.16,52.99-48.22,59.66-1.12,.5-2.16,1.27-2.96,2.21-.44,.53-.82,1.09-1.11,1.7l-5.46-3.15c.28-.61,.65-1.19,1.09-1.7,.81-.94,1.85-1.71,2.96-2.21,15.05-6.67,37.62-33.34,48.22-59.66,.75-1.86,1.9-2.47,3.15-1.87l.19,.11c.18,.09,1.25,.71,2.43,1.39,1.16,.67,2.4,1.4,2.86,1.66Z" style="fill:#fff; opacity:.4;"></path><path d="M198.72,353.18c-35.08-18.08-53.59-72.12-53.59-105.93-.03-.92,.2-1.79,.58-2.61l5.46,3.15c-.39,.82-.59,1.7-.57,2.61,0,32.03,16.57,82.17,48.12,102.78Z" style="opacity:.3;"></path></g><path d="M259.85,187.12c0,40.1-6.3,119.95-54.62,169.78-35.76-17.55-54.63-72.34-54.63-106.49-.05-1.58,.61-3.09,1.67-4.31,.81-.94,1.85-1.71,2.96-2.21,15.05-6.67,37.62-33.34,48.22-59.66,.75-1.86,1.9-2.47,3.15-1.87h0l.19,.11c.38,.2,.75,.51,1.13,.93h.01c.07,.07,.13,.15,.2,.23,11.24,13.08,33.34,13.07,48.09,1.78,1.12-.85,2.05-1.12,2.68-.84l.08,.05s-.01,0-.01,.01c.59,.32,.92,1.15,.86,2.48Z" style="fill:#FFC100;"></path><path d="M259.85,187.12c0,40.1-6.3,119.95-54.62,169.78-35.76-17.55-54.63-72.34-54.63-106.49-.05-1.58,.61-3.09,1.67-4.31,.81-.94,1.85-1.71,2.96-2.21,15.05-6.67,37.62-33.34,48.22-59.66,.75-1.86,1.9-2.47,3.15-1.87h0l.19,.11c.38,.2,.75,.51,1.13,.93h.01c.07,.07,.13,.15,.2,.23,11.24,13.08,33.34,13.07,48.09,1.78,1.12-.85,2.05-1.12,2.68-.84l.08,.05s-.01,0-.01,.01c.59,.32,.92,1.15,.86,2.48Z" style="fill:#fff; opacity:.1;"></path><path d="M206.61,182.36c-1.25-.59-2.4,.01-3.15,1.87-10.59,26.32-33.16,52.99-48.22,59.66-1.12,.5-2.16,1.27-2.96,2.21-1.06,1.23-1.72,2.74-1.67,4.31,0,34.15,18.87,88.94,54.63,106.49,24.03-92.9,1.38-174.54,1.38-174.54Z" style="fill:#FFC100;"></path><path d="M206.61,182.36c-1.25-.59-2.4,.01-3.15,1.87-10.59,26.32-33.16,52.99-48.22,59.66-1.12,.5-2.16,1.27-2.96,2.21-1.06,1.23-1.72,2.74-1.67,4.31,0,34.15,18.87,88.94,54.63,106.49,24.03-92.9,1.38-174.54,1.38-174.54Z" style="opacity:.05;"></path><path d="M224.84,200.41c12.06,3.08,22.75-2.21,28.86-5.36,0,0,1.42,70.77-22.95,116.54,9.61-35.75,11.97-45.98,12.66-72.48,.67-26.05-9.43-32.21-18.57-38.71Z" style="fill:#fff; opacity:.4;"></path></g><g><polygon points="208.53 300.27 184.25 284.47 191.5 273.32 203.71 281.27 229.26 234.18 240.95 240.52 208.53 300.27" style="fill:#fff;"></polygon><path d="M216.17,258.31l-12.46,22.96-12.21-7.95-7.25,11.14,24.28,15.81,7.24-13.35c.51-10.03,.6-19.61,.4-28.62Z" style="fill:#f0f0f0;"></path></g></g></g></svg>
