<svg xmlns="http://www.w3.org/2000/svg" viewBox="0 0 500 500"><g id="freepik--background-complete--inject-176"><polygon points="75.46 111.34 128.5 80.48 169.36 80.48 223.27 109.88 223.27 309.84 75.46 309.84 75.46 111.34" style="fill:#e0e0e0"></polygon><path d="M224.8,309.84H75.46V111.34L77,109.88a105,105,0,0,1,73.15-29.4h0a105,105,0,0,1,73.14,29.4l1.53,1.46Zm-139.43-9.9H214.89V115.59a95.81,95.81,0,0,0-129.52,0Z" style="fill:#fafafa"></path><polygon points="146.41 301.13 153.84 301.13 153.84 234.76 216.77 234.76 216.77 227.34 153.84 227.34 153.84 159.46 216.77 159.46 216.77 152.03 153.84 152.03 153.84 89.11 146.41 89.11 146.41 152.03 83.49 152.03 83.49 159.46 146.41 159.46 146.41 227.34 83.49 227.34 83.49 234.76 146.41 234.76 146.41 301.13" style="fill:#f0f0f0"></polygon><path d="M229.75,314.8H70.51V109.32L72,107.86a110.68,110.68,0,0,1,156.34,0l1.45,1.46ZM80.41,304.89H219.84V113.45a100.76,100.76,0,0,0-139.43,0Z" style="fill:#f0f0f0"></path><path d="M341.54,345.33s-17,3.77-14.48-8.11,2.34-16.25-4.58-21.64-13.87-8.06-8.58-16.61-4.75-15.19-9.94-19.78.67-8.07,2-16.77-8-7.38-8.71-18.34,10.39-23.74.83-38.82c0,0,12.84,6.66,17.06,18.37s.82,20.74,8.4,25.19,12.35,12.14,9.77,20,1.08,12.08,7.3,17.84,4.57,8.05,3.79,15.09.78,5.38,7.91,15S359.65,342.17,341.54,345.33Z" style="fill:#f0f0f0"></path><path d="M344,344.8a.76.76,0,0,1-.09-.18L309.83,241.27a.86.86,0,0,1,.54-1.07h0a.83.83,0,0,1,1.05.54l34.05,103.35a.69.69,0,0,1,0,.25Z" style="fill:#e0e0e0"></path><path d="M372.25,345.11s16.93,3.75,14.41-8.06-2.33-16.16,4.55-21.53,13.8-8,8.53-16.52,4.73-15.1,9.9-19.68-.67-8-2-16.67,7.94-7.35,8.67-18.24-10.34-23.63-.82-38.62c0,0-12.78,6.63-17,18.27s-.81,20.63-8.36,25.06-12.27,12.07-9.71,19.93-1.08,12-7.26,17.75-4.55,8-3.78,15-.77,5.34-7.86,14.91S354.24,342,372.25,345.11Z" style="fill:#f0f0f0"></path><path d="M368.28,344.13a1,1,0,0,1,0-.25l33.87-102.8a.84.84,0,0,1,1.05-.54h0a.85.85,0,0,1,.53,1.07l-33.87,102.8a1.42,1.42,0,0,1-.08.18Z" style="fill:#e0e0e0"></path><path d="M353.45,343s-19.47-1.61-12.82-13.49,7.9-16.63,2.29-24.7-12.19-13.24-3.68-20.64,0-17.84-4.08-24.49,3.4-8.42,7.76-17.28-6.09-10.56-3.24-22.53,19-22,13.77-41.31c0,0,11.55,11.4,12.18,25.34s-6,22.49.64,29.77,9.18,17.1,3.8,24.71-2.85,13.3,1.9,21.53,2.22,10.14-1,17.42-.95,6,3.48,18.69S373.9,345.59,353.45,343Z" style="fill:#f5f5f5"></path><path d="M356.23,343.2a.78.78,0,0,1,0-.22l-2.14-122a1,1,0,0,1,.93-1h0a1,1,0,0,1,.95.94l2.14,122a.92.92,0,0,1,0,.29Z" style="fill:#e0e0e0"></path><path d="M406.49,333.54H311.23a3.92,3.92,0,0,0-3.67,5.3l1.41,3.74.89,2.37,2.56,6.79.89,2.37,2.63,7,.89,2.36,10.48,27.83h63.1l10.48-27.83.89-2.36,2.63-7,.89-2.37,2.56-6.79.89-2.37,1.41-3.74A3.92,3.92,0,0,0,406.49,333.54Z" style="fill:#e6e6e6"></path><path d="M444.17,330.2H263.42a5.87,5.87,0,0,1-5.86-5.86V61.06a5.87,5.87,0,0,1,5.86-5.86H444.17A5.87,5.87,0,0,1,450,61.06V324.34A5.87,5.87,0,0,1,444.17,330.2ZM263.42,55.45a5.61,5.61,0,0,0-5.61,5.61V324.34a5.61,5.61,0,0,0,5.61,5.61H444.17a5.62,5.62,0,0,0,5.61-5.61V61.06a5.62,5.62,0,0,0-5.61-5.61Z" style="fill:#e0e0e0"></path><path d="M235.74,330.2H55a5.87,5.87,0,0,1-5.86-5.86V61.06A5.87,5.87,0,0,1,55,55.2H235.74a5.87,5.87,0,0,1,5.86,5.86V324.34A5.87,5.87,0,0,1,235.74,330.2ZM55,55.45a5.62,5.62,0,0,0-5.61,5.61V324.34A5.62,5.62,0,0,0,55,330H235.74a5.62,5.62,0,0,0,5.61-5.61V61.06a5.62,5.62,0,0,0-5.61-5.61Z" style="fill:#e0e0e0"></path><polygon points="499.75 391.64 -0.24 391.64 0.24 391.27 500.25 391.27 499.75 391.64" style="fill:#e0e0e0"></polygon><rect x="51.92" y="405.53" width="16.06" height="0.25" style="fill:#e0e0e0"></rect><rect x="170.6" y="402.82" width="53.53" height="0.25" style="fill:#e0e0e0"></rect><rect x="68.98" y="414.82" width="36.25" height="0.25" style="fill:#e0e0e0"></rect><rect x="378.6" y="402.69" width="43.19" height="0.25" style="fill:#e0e0e0"></rect><rect x="430.7" y="402.69" width="6.33" height="0.25" style="fill:#e0e0e0"></rect><rect x="316.46" y="408.92" width="53.89" height="0.25" style="fill:#e0e0e0"></rect><rect x="131.22" y="344.69" width="62.22" height="18.23" rx="1.5" transform="translate(324.67 707.61) rotate(180)" style="fill:#f5f5f5"></rect><rect x="97.28" y="367.94" width="62.22" height="18.23" rx="1.5" transform="translate(256.79 754.11) rotate(180)" style="fill:#f5f5f5"></rect><rect x="36.87" y="43.45" width="62.22" height="18.23" rx="1.5" transform="translate(135.96 105.13) rotate(180)" style="fill:#f5f5f5"></rect><rect x="355.86" y="71.78" width="62.22" height="18.23" rx="1.5" transform="translate(773.94 161.79) rotate(180)" style="fill:#f5f5f5"></rect></g><g id="freepik--Shadow--inject-176"><path d="M468.49,446.1c0,3.38-93.52,6.13-208.88,6.13S50.74,449.48,50.74,446.1,144.25,440,259.61,440,468.49,442.71,468.49,446.1Z" style="fill:#f5f5f5"></path></g><g id="freepik--Shelf--inject-176"><rect x="283.09" y="146.1" width="153.68" height="16" style="fill:#FF725E"></rect><polygon points="295.36 162.09 302.39 177.96 312.77 177.96 312.77 162.09 295.36 162.09" style="fill:#FF725E"></polygon><polygon points="295.36 162.09 302.39 177.96 312.77 177.96 312.77 162.09 295.36 162.09" style="fill:#FF725E"></polygon><polygon points="295.36 162.09 302.39 177.96 312.77 177.96 312.77 162.09 295.36 162.09" style="opacity:0.30000000000000004"></polygon><polygon points="424.5 162.09 417.46 177.96 407.09 177.96 407.09 162.09 424.5 162.09" style="fill:#FF725E"></polygon><polygon points="424.5 162.09 417.46 177.96 407.09 177.96 407.09 162.09 424.5 162.09" style="opacity:0.30000000000000004"></polygon><path d="M330.73,106.25V76.41a.72.72,0,1,0-1.44,0v29.84Z" style="fill:#FF725E"></path><g style="opacity:0.30000000000000004"><path d="M330.73,106.25V76.41a.72.72,0,1,0-1.44,0v29.84Z"></path></g><polygon points="317.92 140.55 318.65 143.26 318.81 143.84 319.41 146.08 340.6 146.08 341.2 143.84 341.36 143.26 342.09 140.55 342.25 139.98 349.49 113.11 349.65 112.53 350.38 109.83 350.53 109.25 351.34 106.25 308.67 106.25 309.48 109.25 309.63 109.83 310.37 112.53 310.52 113.11 317.77 139.98 317.92 140.55" style="fill:#263238"></polygon><path d="M327.43,86.69a2,2,0,0,0,2.18-.81,1.87,1.87,0,0,0,.35-.77,2.12,2.12,0,0,0,0-.44,2.07,2.07,0,0,0-.48-1.33c-2.75-3.34-16.7-19.47-23.24-12.73C298.38,78.76,319.81,84.84,327.43,86.69Z" style="fill:#FF725E"></path><g style="opacity:0.30000000000000004"><path d="M315.09,77.29l14.52,8.59a1.87,1.87,0,0,0,.35-.77l-14.44-8.54a.42.42,0,1,0-.43.72Z"></path></g><path d="M330,92.65a2.22,2.22,0,0,0,.05.45,2.16,2.16,0,0,0,.35.77,2.07,2.07,0,0,0,2.18.81c7.62-1.86,29.05-7.93,21.15-16.08-6.54-6.75-20.49,9.38-23.25,12.72A2.09,2.09,0,0,0,330,92.65Z" style="fill:#FF725E"></path><path d="M330.05,93.1a2.16,2.16,0,0,0,.35.77l14.52-8.6a.42.42,0,0,0,.15-.57.42.42,0,0,0-.58-.15Z" style="opacity:0.30000000000000004"></path><path d="M328.42,76.29a2.09,2.09,0,0,0,.63,1.27,3,3,0,0,0,.35.27,2,2,0,0,0,.8.28,2.07,2.07,0,0,0,2.09-1c3.92-6.79,14.3-26.5,2.95-26.4C325.84,50.77,327.9,72,328.42,76.29Z" style="fill:#FF725E"></path><g style="opacity:0.30000000000000004"><path d="M329.4,77.83a2,2,0,0,0,.8.28L334,61.67a.41.41,0,0,0-.31-.5.42.42,0,0,0-.5.32Z"></path></g><path d="M327.43,103.83a2.07,2.07,0,0,0,2.18-.81,2,2,0,0,0,.35-.77,2.22,2.22,0,0,0,0-.45,2.09,2.09,0,0,0-.48-1.33c-2.75-3.34-16.7-19.47-23.24-12.72C298.38,95.9,319.81,102,327.43,103.83Z" style="fill:#FF725E"></path><g style="opacity:0.30000000000000004"><path d="M315.09,94.43,329.61,103a2,2,0,0,0,.35-.77L315.52,93.7a.42.42,0,0,0-.58.15A.43.43,0,0,0,315.09,94.43Z"></path></g><path d="M359.76,134.43h-1.54v-2.29h58.14a7,7,0,0,1,0,14H358.22v-2h1.54Z" style="fill:#FF725E"></path><path d="M359.36,134.43v9.68H412.7a4.78,4.78,0,0,0,4.72-4.84,4.9,4.9,0,0,0-1.38-3.42,4.64,4.64,0,0,0-3.34-1.42Z" style="fill:#fff"></path><path d="M359.36,136.88v1.48h52a.74.74,0,0,0,.73-.74h0a.74.74,0,0,0-.73-.74Z" style="fill:#e6e6e6"></path><path d="M359.36,140.52V142h52a.73.73,0,0,0,.73-.73h0a.74.74,0,0,0-.73-.74Z" style="fill:#e6e6e6"></path><path d="M359.76,120.47h-1.54v-2.29h58.14a7,7,0,0,1,0,14H358.22v-2h1.54Z" style="fill:#FF725E"></path><g style="opacity:0.30000000000000004"><path d="M359.76,120.47h-1.54v-2.29h58.14a7,7,0,0,1,0,14H358.22v-2h1.54Z"></path></g><path d="M359.36,120.47v9.68H412.7a4.78,4.78,0,0,0,4.72-4.84,4.9,4.9,0,0,0-1.38-3.42,4.64,4.64,0,0,0-3.34-1.42Z" style="fill:#fff"></path><path d="M359.36,122.92v1.48h52a.74.74,0,0,0,.73-.74h0a.74.74,0,0,0-.73-.74Z" style="fill:#e6e6e6"></path><path d="M359.36,126.56V128h52a.73.73,0,0,0,.73-.73h0a.74.74,0,0,0-.73-.74Z" style="fill:#e6e6e6"></path></g><g id="freepik--cat-2--inject-176"><path d="M375.9,416.71a27.5,27.5,0,0,0,14.33-11c3.17-5.15,3.83-11.08,3.51-16.81s-1.56-11.43-2-17.16c-.14-2-.08-4.25,1.66-5.7,2.4-2,6.86-1.31,9.24.69s3.17,4.86,3.75,7.58c1.92,9.06,2.44,18.4.07,27.4a42.2,42.2,0,0,1-16.4,23.73,46,46,0,0,1-31.94,7.9l-2.1-15.57A36.34,36.34,0,0,0,375.9,416.71Z" style="fill:#263238"></path><g style="opacity:0.30000000000000004"><path d="M375.9,416.71a27.5,27.5,0,0,0,14.33-11c3.17-5.15,3.83-11.08,3.51-16.81s-1.56-11.43-2-17.16c-.14-2-.08-4.25,1.66-5.7,2.4-2,6.86-1.31,9.24.69s3.17,4.86,3.75,7.58c1.92,9.06,2.44,18.4.07,27.4a42.2,42.2,0,0,1-16.4,23.73,46,46,0,0,1-31.94,7.9l-2.1-15.57A36.34,36.34,0,0,0,375.9,416.71Z" style="fill:#fff"></path></g><path d="M367.67,418.51s-5.24,7.62-4.82,7.9,4.9,7.72,4.9,7.72l3-.63V418.07Z" style="opacity:0.30000000000000004"></path><path d="M363.49,426.08c-.2.57,5.43,3.75,4.26,8.05s-.59,4.11-2.06,4.49-28.57,3.83-30.21,2.52-33.82-5.23-34.05-4.67-12,3.36-16,3.36-9.39.94-10.57-3,.24-6.11,4.23-9,5.4-3.87,5.4-3.87-8.1-.56-7.46-6.92a51.3,51.3,0,0,1,3.24-13.28c.69-1.73,11.5-26.56,11.5-26.56l-11.27-31.8s1.41-8.42.23-13.66-1.87-7.85-1.87-7.85H335s10.1,22.55,15.32,35.23,20.46,18.67,20.46,46.82C370.79,415.71,363.49,426.08,363.49,426.08Z" style="fill:#263238"></path><path d="M363.49,426.08c-.2.57,5.43,3.75,4.26,8.05s-.59,4.11-2.06,4.49-28.57,3.83-30.21,2.52-33.82-5.23-34.05-4.67-12,3.36-16,3.36-9.39.94-10.57-3,.24-6.11,4.23-9,5.4-3.87,5.4-3.87-8.1-.56-7.46-6.92a51.3,51.3,0,0,1,3.24-13.28c.69-1.73,11.5-26.56,11.5-26.56l-11.27-31.8s1.41-8.42.23-13.66-1.87-7.85-1.87-7.85H335s10.1,22.55,15.32,35.23,20.46,18.67,20.46,46.82C370.79,415.71,363.49,426.08,363.49,426.08Z" style="fill:#fff;opacity:0.30000000000000004"></path><path d="M307.9,436.91c-.15,0,1.33-52.08,1.38-52.66.55-5.63,7.3-2.71,6.26,3.08l-1,49.95Z" style="opacity:0.30000000000000004"></path><path d="M279.89,346.26s-2.24,4.64-2.73,16.07,1,34.29,4.94,42.56,11.88,20.89,11.38,28c0,0-3.48,6.29-1,9.54s10.55.78,10.55.78a55.12,55.12,0,0,0,4.82-6.28c1.55-2.58,1.93-31.13,1.93-31.13l-2-32.48Z" style="fill:#263238"></path><path d="M279.89,346.26s-2.24,4.64-2.73,16.07,1,34.29,4.94,42.56,11.88,20.89,11.38,28c0,0-3.48,6.29-1,9.54s10.55.78,10.55.78a55.12,55.12,0,0,0,4.82-6.28c1.55-2.58,1.93-31.13,1.93-31.13l-2-32.48Z" style="fill:#fff;opacity:0.30000000000000004"></path><path d="M337.23,333.24s18.89,34,20.35,46.31,0,48.25,0,48.25" style="fill:none"></path><g style="opacity:0.30000000000000004"><path d="M332,434.68c8-20.16,16.52-40.56,19-62.11,3.65,11.43.71,23.94-3.81,35.05s-13.06,21.64-16.08,33.26Z"></path></g><path d="M315.57,386.71s-1.48,40.45-3.76,47.44-4.31,7.22,0,11.37,20.5,2.16,20.5-1.43-.82-10.16,0-10.81,10.43-25.58,12.35-34.55,4.67-11.15,1.65-18.58-5.77-16-6.59-16.18S315.57,386.71,315.57,386.71Z" style="fill:#263238"></path><path d="M315.57,386.71s-1.48,40.45-3.76,47.44-4.31,7.22,0,11.37,20.5,2.16,20.5-1.43-.82-10.16,0-10.81,10.43-25.58,12.35-34.55,4.67-11.15,1.65-18.58-5.77-16-6.59-16.18S315.57,386.71,315.57,386.71Z" style="fill:#fff;opacity:0.30000000000000004"></path><path d="M288.77,439.52a21.22,21.22,0,0,0,1.1-8,40.48,40.48,0,0,0-5.14-16.6,40.34,40.34,0,0,1-5.09-18.36l1.93,6.51A23.46,23.46,0,0,0,283,406.7c4.06,8.21,10.27,19.58,9.81,26.17L291.62,439Z" style="opacity:0.30000000000000004"></path><path d="M293.22,293.52a21.22,21.22,0,0,1,23.8,1.25c7.13,5.12,18.15,12.41,22.12,20.59,2.95,6.1,3.33,16.38,1.59,19.54-3.55,6.45-7.5,16.87-22.23,23.44s-28.77-2.52-35.31-8.5S278.37,339,279,335.22s-5.94-24.25.53-32S293.22,293.52,293.22,293.52Z" style="opacity:0.30000000000000004"></path><path d="M313.26,276.55s15.95-21.76,20.67-20.86,15.16,28.26,8,42.45l-6.33,4.57L318.2,288.39Z" style="fill:#263238"></path><path d="M313.26,276.55s15.95-21.76,20.67-20.86,15.16,28.26,8,42.45l-6.33,4.57L318.2,288.39Z" style="fill:#fff;opacity:0.30000000000000004"></path><path d="M288.64,282c-.4-.43-26.27-23.92-31.69-13.43s4.21,41.07,9.63,47.59S288.64,282,288.64,282Z" style="fill:#263238"></path><path d="M288.64,282c-.4-.43-26.27-23.92-31.69-13.43s4.21,41.07,9.63,47.59S288.64,282,288.64,282Z" style="fill:#fff;opacity:0.30000000000000004"></path><path d="M299,277.29s18.18-5.18,30.63,7.66c7.14,7.36,15.72,17.47,17.4,27.25,1.25,7.3.07,19-3.57,21.89-7.4,5.93-17,16-39.13,19.09s-36.58-10.35-42.57-18.47-1.68-12.82.83-16.7,2.61-27.46,14.4-34S299,277.29,299,277.29Z" style="fill:#263238"></path><path d="M299,277.29s18.18-5.18,30.63,7.66c7.14,7.36,15.72,17.47,17.4,27.25,1.25,7.3.07,19-3.57,21.89-7.4,5.93-17,16-39.13,19.09s-36.58-10.35-42.57-18.47-1.68-12.82.83-16.7,2.61-27.46,14.4-34S299,277.29,299,277.29Z" style="fill:#fff;opacity:0.30000000000000004"></path><g style="opacity:0.30000000000000004"><path d="M291,279.87c1.25,5.81,2.41,11.7,2.25,17.64s-1.76,12-5.49,16.63-9.82,7.57-15.68,6.57c-3-.5-6-2.21-7-5-.89-2.5-.06-5.25.79-7.77,2.24-6.6,4.72-13.24,8.95-18.79s10.47-9.92,17.42-10.35"></path></g><path d="M318.82,324.09a139.74,139.74,0,0,1,24.26-3.65c8.16-.44,16.44-.59,24.51.88l-3.06-.22c-15.28-.64-30.6.75-45.71,3Z" style="fill:#263238"></path><path d="M319.11,327.9a159,159,0,0,1,21.48,1.34c7.09,1,14.3,2.13,20.94,4.89-13.79-3.76-28.25-4.68-42.42-6.23Z" style="fill:#263238"></path><path d="M266.93,328.12a68.09,68.09,0,0,0-23.6,4.66l-1.61.64c-.53.24-1.06.47-1.6.68,1-.64,2-1.2,3-1.76a40.88,40.88,0,0,1,23.8-4.22Z" style="fill:#263238"></path><path d="M267.46,332.67a118.68,118.68,0,0,0-22.88,7.48,45,45,0,0,1,22.88-7.48Z" style="fill:#263238"></path><path d="M280.65,301.12a1,1,0,0,1-.88.17,8.63,8.63,0,0,0-8,1.9,1.08,1.08,0,0,1-1.59,0,1.28,1.28,0,0,1,.05-1.72,10.77,10.77,0,0,1,10.05-2.51,1.24,1.24,0,0,1,.34,2.19Z" style="fill:#263238"></path><path d="M281.36,314.35c.35,4.12-1.48,7.78-4.09,8.19s-5-2.59-5.37-6.71,1.47-7.78,4.09-8.19S281,310.24,281.36,314.35Z" style="fill:#263238"></path><path d="M276,317.16c0,1.4-.42,2.53-1,2.54s-1-1.13-1-2.52.43-2.53,1-2.54S276,315.77,276,317.16Z" style="fill:#fff"></path><path d="M312.28,299a1.09,1.09,0,0,1-.9,0,8.63,8.63,0,0,0-8.19.14,1.08,1.08,0,0,1-1.55-.37,1.29,1.29,0,0,1,.42-1.67,10.78,10.78,0,0,1,10.35-.3,1.21,1.21,0,0,1,.5,1.6A1.26,1.26,0,0,1,312.28,299Z" style="fill:#263238"></path><path d="M313.09,311.12c.35,4.12-1.48,7.79-4.09,8.2s-5-2.6-5.37-6.71,1.47-7.79,4.09-8.19S312.73,307,313.09,311.12Z" style="fill:#263238"></path><path d="M307.26,313.94c0,1.39-.42,2.53-1,2.53s-1-1.12-1-2.52.42-2.53,1-2.53S307.25,312.54,307.26,313.94Z" style="fill:#fff"></path><path d="M288.11,320.68a8.77,8.77,0,0,1,2-.77c2.93-.86,7.31-1.22,7.52.14a7.79,7.79,0,0,1-2.2,3.5,4,4,0,0,1-3,1,5,5,0,0,1-2.17-.65c-.66-.39-1-.77-1.67-1.16a3.47,3.47,0,0,1-.89-.72A1.1,1.1,0,0,1,288.11,320.68Z" style="fill:#263238"></path><path d="M301.74,328s-4.11,4.21-6,2.51l-1.89-1.69s-1.81,3.63-4.71,2.71a5.92,5.92,0,0,1-3.71-3.67s2.47,2.83,4.79,1.69,2.7-7,2.7-7,1.59,5.79,4.72,6.06S301.74,328,301.74,328Z" style="opacity:0.30000000000000004"></path><path d="M302.72,325.23c-2.19,6.5-7.59,5.24-9.78-.48l.94-.12a13,13,0,0,1-1,3.48c-1.17,2.47-4.33,3.55-6.3,1.28a19.33,19.33,0,0,0-2.39-2.55,14.57,14.57,0,0,1,2.73,2.19c1.77,1.78,4.23.7,5.11-1.35a21.8,21.8,0,0,0,1.21-4.77,22.61,22.61,0,0,0,2.22,4.26c2.77,3.39,5.66,1.23,7.3-1.94Z" style="fill:#263238"></path><path d="M334,293.71s-4.8-3.68-5.19-6.26a7.54,7.54,0,0,1,.57-4.39l-4.1,3.08-4.6-5.89s10-18.41,12.57-15.37,5.39,14.19,4.59,22S334,293.71,334,293.71Z" style="opacity:0.30000000000000004"></path><g style="opacity:0.30000000000000004"><path d="M260.89,276.16a3.89,3.89,0,0,1,.69-2.94c.89-.92,2.39-.78,3.64-.46,4.59,1.2,9.72,5.37,12.54,9.2-5.34,5.6-8,10.3-11.3,17A60.86,60.86,0,0,1,260.89,276.16Z"></path></g></g><g id="freepik--cat-1--inject-176"><path d="M81.67,399.4S84.71,426,92.15,428s25.62,2,22.82-1.66-14-7.32-13.75-8.42,4.23-16.83,4.23-16.83Z" style="fill:#FF725E"></path><path d="M81.67,399.4S84.71,426,92.15,428s25.62,2,22.82-1.66-14-7.32-13.75-8.42,4.23-16.83,4.23-16.83Z" style="opacity:0.30000000000000004"></path><path d="M100.5,316.32c-1.13-.23-17.45-9.19-30-7.06C36.28,315.05,37.15,358.48,41,377.88c4.37,22.33,14.47,25.86,17.95,35s10,17.8,11.74,18.28S88.41,433.43,84,428.3s-8.74-7.47-9.36-8.85S79,397.66,79,397.66l23.45,10.2L111,430.45s-5.16,3.9-4.1,8.9,12.49,5.52,19.24-.39,4.29-32.33,4.29-32.33l10.67.38s3.06,25.11,9.39,28.76,15.9,3.66,18-.89c2.56-5.57-7.91-7.3-7.91-7.3s15.29-33.87,17-46,1-16.31.34-24.42-3.69-32.93-7.49-42.86-62.59-1.19-65.38-.79A7.63,7.63,0,0,0,100.5,316.32Z" style="fill:#FF725E"></path><g style="opacity:0.30000000000000004"><path d="M141,407.06a26.71,26.71,0,0,0,17.32-5.17,33.67,33.67,0,0,0,11-14C162.93,397.32,152.12,404.4,141,407.06Z"></path></g><g style="opacity:0.30000000000000004"><path d="M102.07,406.6q-5.37-12.74-10.75-25.45a39.39,39.39,0,0,0,2.77,15.17A25,25,0,0,0,102.07,406.6Z"></path></g><path d="M71,231.91a36.05,36.05,0,0,0-33.64-8.67c6.71,7.29,7,18.51,4.69,28.14s-6.83,18.69-8.48,28.46a51.16,51.16,0,0,0,18.55,47.81l20.38-6.83c-5.18-4.29-7-11.62-6.27-18.3s3.75-12.88,6.85-18.85,6.41-11.93,7.9-18.49A36.05,36.05,0,0,0,71,231.91Z" style="fill:#FF725E"></path><g style="opacity:0.30000000000000004"><path d="M120.63,328.91,107.72,324c1.16,6,4.91,11.23,9.58,15s10.21,6.17,15.83,8.05c7.49,2.49,15.39,4.14,23.21,3.22S171.9,345.6,176.51,339A436.66,436.66,0,0,1,120.63,328.91Z"></path></g><path d="M135.87,271.14S118.14,251,113.54,252.28s-12.54,29.36-4.21,42.8l6.68,4,16-15.75Z" style="fill:#FF725E"></path><path d="M160.78,274.35c.35-.46,23.93-26,30.23-16.12s-.55,41.1-5.35,48S160.78,274.35,160.78,274.35Z" style="fill:#FF725E"></path><path d="M150.05,270.62s-18.48-3.54-29.7,10.3c-6.42,7.93-16.69,19.56-17.5,29.41-.59,7.34,4.26,18,8.13,20.54,7.87,5.23,18.3,14.36,40.49,15.47s35.36-13.48,40.59-22.07.53-12.86-2.3-16.49-5-27-17.29-32.48S150.05,270.62,150.05,270.62Z" style="fill:#FF725E"></path><path d="M156.2,263.57a.61.61,0,0,0-.12-.27c-.16-.16-.43-.1-.64,0a8,8,0,0,0-5,4.92c-.32-1.78-.63-3.55-.95-5.32a7.83,7.83,0,0,0-2.9,4.66,6.58,6.58,0,0,0,1.31,5.28l6.47.7C153.83,270.17,157.13,266.86,156.2,263.57Z" style="fill:#FF725E"></path><path d="M154.43,273.74a.6.6,0,0,0,.63-.16l-.66-.07A2.08,2.08,0,0,0,154.43,273.74Z" style="fill:#FF725E"></path><g style="opacity:0.30000000000000004"><path d="M137.46,344A111.3,111.3,0,0,1,144,330.38c2.43-4.28,5.24-8.5,9.25-11.35s9.49-4.08,14-2a14.51,14.51,0,0,1,6.76,7.4,38.87,38.87,0,0,1,2.53,9.89c.38,2.39.76,3.73-.33,5.89,0,0-5.29,2.89-7.27,3.63-10.48,4-26.23,2.56-31.44.16" style="fill:#fff"></path></g><path d="M126.11,318.1a162.73,162.73,0,0,0-37.67,1.81c-.82.15-1.66.29-2.49.42a90.71,90.71,0,0,1,40.16-2.23Z" style="fill:#263238"></path><path d="M123.6,323.42a162.4,162.4,0,0,0-30.51,9.09,71,71,0,0,1,30.51-9.09Z" style="fill:#263238"></path><path d="M186.38,318.19a40.64,40.64,0,0,1,24,2.08c1.07.47,2.13.93,3.15,1.49q-.84-.25-1.65-.54l-1.66-.49a67.9,67.9,0,0,0-23.81-2.54Z" style="fill:#263238"></path><path d="M186.25,322.75a44.84,44.84,0,0,1,23.36,5.39,119.24,119.24,0,0,0-23.36-5.39Z" style="fill:#263238"></path><path d="M168.59,293a1.08,1.08,0,0,0,.91.1,8.9,8.9,0,0,1,8.34,1.21,1.11,1.11,0,0,0,1.63-.17,1.31,1.31,0,0,0-.21-1.75,11.06,11.06,0,0,0-10.52-1.66,1.23,1.23,0,0,0-.72,1.56A1.31,1.31,0,0,0,168.59,293Z" style="fill:#263238"></path><path d="M169.07,306.58c0,4.25,2.22,7.83,4.94,8s4.9-3.11,4.88-7.36-2.22-7.83-4.93-8S169.06,302.34,169.07,306.58Z" style="fill:#263238"></path><path d="M175.18,306.87c-.05,1.43.36,2.61.92,2.63s1.05-1.12,1.11-2.55-.36-2.62-.92-2.64S175.24,305.44,175.18,306.87Z" style="fill:#fff"></path><path d="M136.87,295a1.12,1.12,0,0,0,.91-.1,8.89,8.89,0,0,1,8.4-.61,1.12,1.12,0,0,0,1.56-.52,1.34,1.34,0,0,0-.58-1.67,11.14,11.14,0,0,0-10.63.64,1.24,1.24,0,0,0-.37,1.68A1.29,1.29,0,0,0,136.87,295Z" style="fill:#263238"></path><path d="M137.14,307.45c0,4.25,2.22,7.84,4.94,8s4.9-3.12,4.88-7.36-2.22-7.83-4.93-8S137.13,303.21,137.14,307.45Z" style="fill:#263238"></path><path d="M143.49,306.85c-.07,1.44.32,2.62.87,2.65s1.08-1.1,1.15-2.54-.31-2.62-.87-2.65S143.57,305.42,143.49,306.85Z" style="fill:#fff"></path><path d="M154.33,325.31s5,4.29,6.95,2.21l1.95-2.08s2.38,3.87,5.51,2.56a6.63,6.63,0,0,0,3.78-4.46s-2.47,3.4-5.17,2.35-3.71-7.51-3.71-7.51-1.2,6.62-4.66,7.23S154.33,325.31,154.33,325.31Z" style="opacity:0.30000000000000004"></path><path d="M153,322.3c2.14,3.42,5.61,5.54,8.39,1.47a24.75,24.75,0,0,0,2-4.81,22.53,22.53,0,0,0,1.77,5c.86,1.52,2.7,2.74,4.43,2.06s2.61-2.81,4.28-3.81a22.17,22.17,0,0,0-2.43,3.07c-2,2.7-5.55,1.81-7.09-.82a14.45,14.45,0,0,1-1.49-3.76l1,0c-1.88,6.58-7.69,8.49-10.82,1.53Z" style="fill:#263238"></path><path d="M116.84,290s4.43-4.07,4.59-6.66a7.46,7.46,0,0,0-1-4.3l4.34,2.7,4-6.26S117.32,258.09,115,261.33s-4.09,14.54-2.61,22.19S116.84,290,116.84,290Z" style="opacity:0.30000000000000004"></path><g style="opacity:0.30000000000000004"><path d="M187.78,266.13a3.88,3.88,0,0,0-.95-2.86c-1-.84-2.44-.56-3.64-.13-4.45,1.6-9.17,6.19-11.63,10.22,5.79,5.09,8.85,9.51,12.71,15.91A60.57,60.57,0,0,0,187.78,266.13Z"></path></g><path d="M167.47,315.28a9.29,9.29,0,0,0-2.42-.32c-3.42-.2-8.29.52-8.17,2.05,1.68,2.41,2.31,2.66,3.28,3.27a4.48,4.48,0,0,0,3.55.35,5.43,5.43,0,0,0,2.21-1.26c.61-.59.9-1.1,1.52-1.69a3.84,3.84,0,0,0,.79-1A1.22,1.22,0,0,0,167.47,315.28Z" style="fill:#263238"></path><path d="M79,397.66,62,387.5s12.22,12.81,16.12,13.73Z" style="opacity:0.30000000000000004"></path><path d="M96.33,320.33s-3.8,14.11,2.13,26.95c0,0-7.19-8.09-6.37-17.29S96.33,320.33,96.33,320.33Z" style="opacity:0.30000000000000004"></path><path d="M67.08,310s-15.2,5.5-19.48,14l-2.46-3.68s12-12.74,21-13.07Z" style="opacity:0.30000000000000004"></path><g style="opacity:0.30000000000000004"><path d="M157.78,371.6c-4.73-2.73-11.08-.18-14.45,4.13s-4.53,9.88-5.77,15.2-3.26,11.85-7.13,15.7c7.47.43,17.51-1,23.16-5.18a23.9,23.9,0,0,0,9.46-18.14C163.19,378.81,161.68,373.85,157.78,371.6Z" style="fill:#fff"></path></g><g style="opacity:0.30000000000000004"><path d="M71,231.91a36.05,36.05,0,0,0-33.64-8.67c5.72,6.21,6.77,15.28,5.52,23.78.09.39.15.62.15.62l-.48,19.57a2,2,0,0,0,.36,1.47c.63.65,1.73.17,2.46-.37A31.43,31.43,0,0,0,57,251.12a43.58,43.58,0,0,1,2.35,19.21,31.21,31.21,0,0,0,8.52-19.66,28,28,0,0,1,5.46,11.78,22.81,22.81,0,0,0,1.75-18.53l5.84,5.79A35.76,35.76,0,0,0,71,231.91Z" style="fill:#fff"></path></g><g style="opacity:0.30000000000000004"><path d="M78,339.91c6.42-6.53,9.3-16.5,17.18-21.14,1.16-.68,2.54-1.42,2.76-2.74a1.09,1.09,0,0,0-.56-1.09l-1.44-.63a7.42,7.42,0,0,1-2.06-.86c-4.69-1.91-11.24-4.11-17.57-4.46l-.87,1a43.36,43.36,0,0,0-10.62,21.81,15.82,15.82,0,0,0,0,6.5,7,7,0,0,0,4,4.9C72,344.44,75.57,342.38,78,339.91Z" style="fill:#fff"></path></g></g></svg>
