<svg xmlns="http://www.w3.org/2000/svg" viewBox="0 0 500 500"><g id="freepik--background-complete--inject-231"><path d="M390,117.44s100,240.69,84,263.08-84.73,5.53-84.73,5.53Z" style="fill:#f5f5f5"></path><rect x="384.83" y="114.36" width="6.41" height="275.53" style="fill:#fafafa"></rect><ellipse cx="388.04" cy="108.19" rx="9.04" ry="9.24" style="fill:#fafafa"></ellipse><path d="M395,120.62H381.08a2.08,2.08,0,0,1-2.08-2.08h0a2.08,2.08,0,0,1,2.08-2.09H395a2.09,2.09,0,0,1,2.09,2.09h0A2.09,2.09,0,0,1,395,120.62Z" style="fill:#fafafa"></path><polygon points="433.87 229.16 437.18 238.34 427.88 235.38 420.18 241.36 420.12 231.61 412.05 226.13 421.31 223.06 424.02 213.69 429.81 221.55 431.09 221.82 433.87 229.16" style="fill:#fafafa"></polygon><polygon points="454.93 287.25 458.24 296.43 448.95 293.47 441.24 299.45 441.18 289.7 433.11 284.22 442.37 281.15 445.09 271.78 450.87 279.63 452.15 279.91 454.93 287.25" style="fill:#fafafa"></polygon><path d="M329.15,66.27S446,347.61,427.35,373.78s-99,6.46-99,6.46Z" style="fill:#ebebeb"></path><rect x="323.08" y="62.68" width="7.49" height="322.05" style="fill:#f5f5f5"></rect><ellipse cx="326.83" cy="55.47" rx="10.57" ry="10.8" style="fill:#f5f5f5"></ellipse><rect x="316.26" y="65.12" width="21.13" height="4.88" rx="2.17" style="fill:#f5f5f5"></rect><path d="M330.57,232s33.42,10.42,45.84,6.41S391,226.14,391,226.14l8.57,24.17s-6.73,14.46-27.27,12c-18.23-2.16-41.74-11-41.74-11Z" style="fill:#f5f5f5"></path><polygon points="380.4 196.86 384.26 207.59 373.4 204.13 364.4 211.12 364.32 199.72 354.89 193.32 365.71 189.73 368.89 178.78 375.65 187.96 377.15 188.29 380.4 196.86" style="fill:#f5f5f5"></polygon><rect x="56.64" y="60.95" width="121.83" height="126.99" style="fill:#e0e0e0"></rect><rect x="48.39" y="60.95" width="121.83" height="126.99" style="fill:#ebebeb"></rect><rect x="64.77" y="78.02" width="89.07" height="92.85" style="fill:#fafafa"></rect><path d="M64.77,171.49A17.45,17.45,0,0,1,62.54,174c-1.43,1.49-3.43,3.52-5.67,5.72s-4.3,4.18-5.81,5.59a15.89,15.89,0,0,1-2.55,2.17A17.53,17.53,0,0,1,50.73,185c1.43-1.5,3.44-3.53,5.69-5.74s4.3-4.19,5.81-5.59A16,16,0,0,1,64.77,171.49Z" style="fill:#e0e0e0"></path><path d="M153.84,171.26a17.13,17.13,0,0,1,2.52,2.23c1.5,1.43,3.52,3.43,5.73,5.67s4.18,4.3,5.59,5.81a15.89,15.89,0,0,1,2.17,2.55,17.53,17.53,0,0,1-2.51-2.22c-1.5-1.43-3.53-3.44-5.74-5.68s-4.19-4.31-5.59-5.82A16,16,0,0,1,153.84,171.26Z" style="fill:#e0e0e0"></path><path d="M153.6,78.27a16.62,16.62,0,0,1,2.22-2.52c1.43-1.5,3.44-3.52,5.68-5.73s4.29-4.18,5.81-5.58a17.23,17.23,0,0,1,2.54-2.18,16,16,0,0,1-2.21,2.52c-1.43,1.49-3.44,3.52-5.69,5.73s-4.31,4.19-5.82,5.6A16.46,16.46,0,0,1,153.6,78.27Z" style="fill:#e0e0e0"></path><path d="M64.52,78.5A17.13,17.13,0,0,1,62,76.27c-1.49-1.43-3.52-3.43-5.73-5.67s-4.18-4.3-5.58-5.81a17.23,17.23,0,0,1-2.18-2.54A15.47,15.47,0,0,1,51,64.46c1.49,1.43,3.52,3.44,5.74,5.69S61,74.45,62.36,76A16.75,16.75,0,0,1,64.52,78.5Z" style="fill:#e0e0e0"></path><path d="M153.6,170.87s0-.15,0-.44,0-.74,0-1.3c0-1.15,0-2.83,0-5,0-4.39,0-10.79-.08-18.92,0-16.26-.08-39.44-.14-67.19l.29.3-88.82,0h0L65.1,78c0,34.08,0,66,0,92.85l-.28-.28,64.33.14,18.06.08,4.78,0,1.23,0h.43a3,3,0,0,1-.4,0l-1.2,0-4.72,0-18,.08-64.52.14h-.29v-.29c0-26.88,0-58.77,0-92.85v-.33h.35l88.82,0h.29V78c-.06,27.83-.11,51.07-.15,67.38,0,8.1-.06,14.47-.08,18.85,0,2.15,0,3.81,0,4.95,0,.54,0,1,0,1.26S153.6,170.87,153.6,170.87Z" style="fill:#e0e0e0"></path><rect x="108.67" y="105.51" width="3.65" height="16.3" style="fill:#ebebeb"></rect><path d="M136.27,102.82H83.87a1.12,1.12,0,0,1-1.12-1.12h0a1.12,1.12,0,0,1,1.12-1.12h52.4a1.12,1.12,0,0,1,1.12,1.12h0A1.12,1.12,0,0,1,136.27,102.82Z" style="fill:#ebebeb"></path><path d="M127.83,130.68a4.2,4.2,0,0,1,.15-.51c.12-.4.29-.91.5-1.54.46-1.41,1.11-3.37,1.92-5.81,1.69-5,4-12,6.75-20.08l.24-.71.24.71c1,2.86,2,5.9,3.11,9,2.36,6.9,4.56,13.36,6.43,18.83l.1.3H147l-14-.12-3.85-.06-1,0a1.7,1.7,0,0,1-.32,0l.38,0,1,0,3.91-.06,13.79-.12-.22.29c-1.88-5.46-4.11-11.91-6.49-18.8-1.07-3.14-2.12-6.19-3.1-9h.48c-2.78,7.93-5.19,14.83-6.93,19.8-.87,2.45-1.57,4.42-2.08,5.84-.23.65-.42,1.17-.57,1.58A5.84,5.84,0,0,1,127.83,130.68Z" style="fill:#e0e0e0"></path><path d="M74,130.68a2.07,2.07,0,0,1,.14-.51c.13-.4.3-.91.5-1.54.47-1.41,1.12-3.37,1.92-5.81l6.76-20.08.24-.71.24.71c1,2.86,2,5.9,3.11,9,2.35,6.9,4.56,13.36,6.42,18.83l.11.3h-.32l-14-.12-3.85-.06-1,0a1.7,1.7,0,0,1-.32,0l.37,0,1,0,3.92-.06,13.78-.12-.21.29c-1.88-5.46-4.11-11.91-6.49-18.8-1.08-3.14-2.12-6.19-3.1-9h.48c-2.78,7.93-5.19,14.83-6.94,19.8l-2.07,5.84c-.24.65-.43,1.17-.57,1.58S74,130.67,74,130.68Z" style="fill:#e0e0e0"></path><path d="M123.88,147.57v.26a1.4,1.4,0,0,1-1.4,1.4H98.77a1.41,1.41,0,0,1-1.41-1.4h0a1.42,1.42,0,0,1,1.41-1.41h24A1.13,1.13,0,0,1,123.88,147.57Z" style="fill:#e0e0e0"></path><path d="M113.66,145.68a4.16,4.16,0,0,1-.5.74h-5.07c-4-4.71,0-23.67,0-23.67h5.07S116.84,140,113.66,145.68Z" style="fill:#ebebeb"></path><path d="M118.68,145h0a1.4,1.4,0,0,1-1.4,1.4H104a1.4,1.4,0,0,1-1.4-1.4h0a1.41,1.41,0,0,1,1.4-1.41h13.31A1.41,1.41,0,0,1,118.68,145Z" style="fill:#e0e0e0"></path><path d="M93.34,130.27a.33.33,0,0,1,.26.53,13.72,13.72,0,0,1-20,0,.33.33,0,0,1,.26-.54Z" style="fill:#e0e0e0"></path><path d="M147.41,130.8a12.79,12.79,0,0,1-10,4.34,14.51,14.51,0,0,1-4.58-.72h0a11.42,11.42,0,0,1-5.41-3.61.33.33,0,0,1,.25-.54h19.5A.33.33,0,0,1,147.41,130.8Z" style="fill:#e0e0e0"></path><path d="M114.74,121.81a4.1,4.1,0,1,1-4.09-4.09A4.09,4.09,0,0,1,114.74,121.81Z" style="fill:#e0e0e0"></path><path d="M117,102.24a6.34,6.34,0,1,1-6.33-6.33A6.33,6.33,0,0,1,117,102.24Z" style="fill:#e0e0e0"></path><rect x="95.07" y="149.35" width="30.76" height="5.57" style="fill:#e0e0e0"></rect></g><g id="freepik--Character--inject-231"><path d="M282.82,115c-8-2.44-16.34,4.72-24.55,3.11-5-1-8.74-5-13.18-7.44-6.63-3.7-16-4.3-22.78-.86s-11.13,7.11-12.05,14.65c-6.17-3.54-16.45,4.22-19.95,11.71s-2.63,15.22-.64,23.24a108.9,108.9,0,0,0,18,38.39c.75,1,1.94,2.14,3.08,1.61a2.78,2.78,0,0,0,1.19-2.22c1.17-7.33.24-14.82-.39-22.22s-1-15,1.39-22.09,7.86-13.49,15.15-14.93c5.38-1.06,11,.69,15.76,3.38s9,6.28,13.55,9.34,9.68,5.63,15.16,5.87,11.37-2.35,13.7-7.31-.28-12-5.65-13.17A10.79,10.79,0,0,0,282.82,115Z" style="fill:#263238"></path><path d="M258.15,243.63l-.78-15.88s20.93-4,20.45-25.05c-.23-10.16-2.41-31-4.6-49.93a39.22,39.22,0,0,0-40.34-34.68l-2,.07c-21.84,2-32.3,21.74-29.65,43.51l5,84.77a26,26,0,0,0,27.33,24.42h0A26,26,0,0,0,258.15,243.63Z" style="fill:#ffbe9d"></path><path d="M257.4,227.74s-13.26,1.55-27.7-6.83c0,0,7,14.91,27.94,12.28Z" style="fill:#eb996e"></path><path d="M264.4,169.37a3,3,0,0,1-2.8,3.13,2.88,2.88,0,0,1-3.19-2.6,3,3,0,0,1,2.79-3.13A2.89,2.89,0,0,1,264.4,169.37Z" style="fill:#263238"></path><path d="M267.68,163.24c-.36.41-2.7-1.2-5.93-1.08s-5.54,1.83-5.91,1.44c-.18-.17.18-.89,1.18-1.68a8.3,8.3,0,0,1,4.72-1.63,7.87,7.87,0,0,1,4.73,1.35C267.49,162.36,267.85,163.06,267.68,163.24Z" style="fill:#263238"></path><path d="M233.56,171.33a3,3,0,0,1-2.79,3.13,2.89,2.89,0,0,1-3.2-2.6,3,3,0,0,1,2.79-3.13A2.88,2.88,0,0,1,233.56,171.33Z" style="fill:#263238"></path><path d="M237.3,164.93c-.36.4-2.69-1.2-5.92-1.08s-5.55,1.82-5.91,1.44c-.18-.17.17-.89,1.18-1.68a8.26,8.26,0,0,1,4.71-1.63,8,8,0,0,1,4.74,1.34C237.12,164.05,237.48,164.75,237.3,164.93Z" style="fill:#263238"></path><path d="M249.88,188.49c0-.18,2-.6,5.21-1.13.83-.11,1.6-.31,1.72-.87a4.18,4.18,0,0,0-.64-2.43q-1.26-3-2.66-6.2c-3.7-8.83-6.41-16.1-6.06-16.25s3.65,6.89,7.36,15.72q1.33,3.27,2.56,6.24a4.82,4.82,0,0,1,.54,3.23,2.07,2.07,0,0,1-1.32,1.25,5.61,5.61,0,0,1-1.39.25C251.93,188.59,249.9,188.67,249.88,188.49Z" style="fill:#263238"></path><path d="M237.57,158.2c-.31.88-3.54.5-7.33,1s-6.85,1.57-7.36.79c-.23-.38.3-1.21,1.52-2.08a12.89,12.89,0,0,1,11.2-1.36C237,157.1,237.71,157.78,237.57,158.2Z" style="fill:#263238"></path><path d="M268.26,158.4c-.65.66-2.77-.36-5.43-.72s-5-.09-5.4-.92c-.18-.4.26-1.08,1.33-1.66a8,8,0,0,1,8.72,1.32C268.33,157.28,268.55,158.07,268.26,158.4Z" style="fill:#263238"></path><path d="M203.46,177.19c-.36-.14-14.6-3.77-13.64,10.6s15.19,10.43,15.19,10S203.46,177.19,203.46,177.19Z" style="fill:#ffbe9d"></path><path d="M200.25,192.66c-.06,0-.24.19-.65.41a2.47,2.47,0,0,1-1.86.17c-1.56-.46-3-2.78-3.24-5.37a8.27,8.27,0,0,1,.46-3.63,2.88,2.88,0,0,1,1.75-2,1.29,1.29,0,0,1,1.53.58c.22.39.14.68.22.7s.29-.26.14-.84a1.64,1.64,0,0,0-.63-.87,1.94,1.94,0,0,0-1.41-.27,3.52,3.52,0,0,0-2.46,2.4,8.59,8.59,0,0,0-.6,4.07c.29,2.89,1.95,5.49,4.07,6a2.7,2.7,0,0,0,2.26-.54C200.25,193,200.31,192.68,200.25,192.66Z" style="fill:#eb996e"></path><path d="M277.52,148.2a30.37,30.37,0,0,1-27.21-5.13c-5.27-4.16-9.43-10.26-15.92-12a17.14,17.14,0,0,0-13,2.25,32.92,32.92,0,0,0-9.58,9.45c4.43,10.55,2.12,22.58-.26,33.77a5.74,5.74,0,0,1-1.55,3.38c-1.66,1.37-4.24.43-5.78-1.07-2.46-2.4-3.5-5.87-4.23-9.24a59.15,59.15,0,0,1-.68-23.33,40.34,40.34,0,0,1,10.36-20.72,38.19,38.19,0,0,1,26.41-11,46.9,46.9,0,0,1,27.51,8.77c3.72,2.6,7.17,5.79,9.19,9.86" style="fill:#263238"></path><path d="M289,119.86a3.14,3.14,0,0,1-.08,1.25,5.88,5.88,0,0,1-1.91,3,9.17,9.17,0,0,1-5.31,2,15,15,0,0,1-3.58-.1,7.55,7.55,0,0,1-3.72-1.57,5.08,5.08,0,0,1-1.94-4,4.46,4.46,0,0,1,2.93-3.78,5.43,5.43,0,0,1,2.57-.42,4.63,4.63,0,0,1,2.51,1,6.58,6.58,0,0,1,2.32,4.95,7.59,7.59,0,0,1-2.08,5.36,11.56,11.56,0,0,1-5.11,3.14c-3.95,1.24-8.37.63-12.34-.91a54.2,54.2,0,0,1-10.86-6,69,69,0,0,0-9.86-5.82,21.39,21.39,0,0,0-10-2.06,20.39,20.39,0,0,0-8.52,2.51,25.53,25.53,0,0,0-9.24,9,33.66,33.66,0,0,0-1.72,3.12,11.34,11.34,0,0,1-.56,1.11s0-.1.09-.3.17-.49.34-.87a27,27,0,0,1,1.61-3.2,25.21,25.21,0,0,1,9.23-9.31,20.92,20.92,0,0,1,8.74-2.66,21.87,21.87,0,0,1,10.27,2,68.86,68.86,0,0,1,10,5.84,54.38,54.38,0,0,0,10.73,5.95c3.88,1.5,8.12,2.07,11.87.9a10.84,10.84,0,0,0,4.81-2.93,6.93,6.93,0,0,0,1.93-4.88,5.92,5.92,0,0,0-2.05-4.48,4.32,4.32,0,0,0-4.47-.54,3.87,3.87,0,0,0-2.6,3.25,4.59,4.59,0,0,0,1.72,3.59,7.23,7.23,0,0,0,3.47,1.51,15.21,15.21,0,0,0,3.47.14,8.91,8.91,0,0,0,5.16-1.79,6,6,0,0,0,1.95-2.86A10.15,10.15,0,0,0,289,119.86Z" style="fill:#455a64"></path><path d="M188.18,148.64a23.09,23.09,0,0,0,4.43,1,12.39,12.39,0,0,0,4.8-.67,21,21,0,0,0,5.3-2.78,16.83,16.83,0,0,0,6.11-8.8,35.16,35.16,0,0,0,.8-4.49,3.8,3.8,0,0,1,.12,1.25,14.48,14.48,0,0,1-.43,3.37,16.44,16.44,0,0,1-6.18,9.24,19.69,19.69,0,0,1-5.52,2.83,12.09,12.09,0,0,1-5,.55,11.26,11.26,0,0,1-3.3-.88A3.41,3.41,0,0,1,188.18,148.64Z" style="fill:#455a64"></path><path d="M189.17,159c0-.13,1.71.18,4.42-.07A19.74,19.74,0,0,0,210,147.28c1.12-2.48,1.37-4.18,1.5-4.15a3.75,3.75,0,0,1-.11,1.2,16.48,16.48,0,0,1-.93,3.15,19,19,0,0,1-16.82,12,16.07,16.07,0,0,1-3.28-.16A3.7,3.7,0,0,1,189.17,159Z" style="fill:#455a64"></path><path d="M227.05,179.05a.38.38,0,0,1-.44-.3.36.36,0,1,1,.69-.16A.37.37,0,0,1,227.05,179.05Z" style="fill:#eb996e"></path><path d="M233.17,177.43a.46.46,0,1,1,.25-.52A.42.42,0,0,1,233.17,177.43Z" style="fill:#eb996e"></path><path d="M237.33,177.18c-.2,0-.4-.2-.45-.52s.07-.6.26-.63.39.2.45.52S237.52,177.15,237.33,177.18Z" style="fill:#eb996e"></path><path d="M230.22,182.82c-.2,0-.36-.09-.37-.22s.15-.23.35-.24.36.09.37.22S230.41,182.81,230.22,182.82Z" style="fill:#eb996e"></path><path d="M235.84,181.31a.41.41,0,1,1,.3-.45A.39.39,0,0,1,235.84,181.31Z" style="fill:#eb996e"></path><path d="M265.19,176.75A.4.4,0,0,1,265,176a.4.4,0,0,1,.18.78Z" style="fill:#eb996e"></path><path d="M269.39,176.22c-.2,0-.38-.15-.42-.4a.42.42,0,0,1,.3-.49c.19,0,.38.15.41.4A.42.42,0,0,1,269.39,176.22Z" style="fill:#eb996e"></path><path d="M261.48,177a.34.34,0,0,1-.42-.22.36.36,0,0,1,.69-.17A.34.34,0,0,1,261.48,177Z" style="fill:#eb996e"></path><path d="M264.74,181.09a.39.39,0,0,1-.5-.22.38.38,0,0,1,.15-.52.41.41,0,0,1,.35.74Z" style="fill:#eb996e"></path><path d="M268.31,180.24a.3.3,0,1,1,.14-.58.3.3,0,1,1-.14.58Z" style="fill:#eb996e"></path><path d="M250.29,199.72a14.69,14.69,0,0,1-1.14,4.05,5,5,0,0,1-3.06,2.71,4.43,4.43,0,0,1-4.11-1.27,7.11,7.11,0,0,1-1.88-4c-.21-1.34.08-3,1.37-3.46a3.26,3.26,0,0,1,1.67,0l7.51,1.42" style="fill:#eb996e"></path><path d="M248.67,206c-.08-.21-1.48.71-3.8.28a5.33,5.33,0,0,1-3.31-2,5.69,5.69,0,0,1-1-4.52,5.2,5.2,0,0,1,.4-1.15c.21-.35.17-.32.48-.34s.79.14,1.19.21l1.24.24c1.6.3,3,.55,4.27.75,2.45.39,4,.55,4,.38s-1.43-.64-3.82-1.25c-1.2-.31-2.63-.66-4.23-1l-1.22-.28c-.44-.08-.78-.2-1.37-.27a1.72,1.72,0,0,0-1,.24,2,2,0,0,0-.64.76,5.82,5.82,0,0,0-.51,1.47,6.63,6.63,0,0,0,1.32,5.51,6.07,6.07,0,0,0,4.1,2.14,5.79,5.79,0,0,0,3-.49C248.43,206.35,248.71,206.05,248.67,206Z" style="fill:#263238"></path><path d="M202.23,242l3-8.06,25.86,27.88L258,232.33l7.21,9.93s7.94,38.78,7.22,39.51-38.45,24-38.45,24l-31.32-1.1-21.12-40.24Z" style="fill:#ebebeb"></path><path d="M86.64,383.42l-.29-54s31.43-47.19,37.3-53.06c8.3-8.3,13.9-14.06,17.64-17a6.15,6.15,0,0,1,7.56,0h0l53.88-18.74s-8.24,13.55,4.21,30.41a282.39,282.39,0,0,1,21.42,34.37s12.74-20.84,17.67-25,21.93-32.07,18-40.36l44.68,19.39s2.15-3.23,4.85-1.89,22.9,9.72,30.72,24.54,47,71.83,47,71.83l-42.72,37.48Z" style="fill:#7E57C2"></path><path d="M170,308.62s-.15-.11-.39-.36l-1-1.1c-.44-.47-1-1.06-1.55-1.79s-1.28-1.51-1.95-2.46-1.47-2-2.21-3.1-1.54-2.38-2.34-3.71a71.89,71.89,0,0,1-4.39-9,68.73,68.73,0,0,1-3-9.58c-.32-1.51-.63-2.94-.81-4.3s-.36-2.63-.48-3.79-.15-2.21-.21-3.13-.06-1.72-.05-2.37,0-1.1,0-1.5a2.66,2.66,0,0,1,0-.52,1.81,1.81,0,0,1,.06.52c0,.4.05.89.08,1.49s0,1.44.13,2.36.12,2,.29,3.12.28,2.41.54,3.75.52,2.76.85,4.26a73.61,73.61,0,0,0,3,9.49,76.42,76.42,0,0,0,4.33,9c.78,1.32,1.51,2.58,2.28,3.71s1.47,2.18,2.14,3.12,1.33,1.76,1.89,2.5,1.06,1.35,1.48,1.84l.94,1.16A2.74,2.74,0,0,1,170,308.62Z" style="fill:#263238"></path><path d="M146.67,294.77a9.89,9.89,0,0,1,.12-2.78,25.94,25.94,0,0,1,1.74-6.47,26.28,26.28,0,0,1,3.35-5.82,9.84,9.84,0,0,1,1.88-2c.06.06-.62.86-1.58,2.26a30.86,30.86,0,0,0-5,12.13A24.16,24.16,0,0,1,146.67,294.77Z" style="fill:#263238"></path><path d="M139.62,341.91a4.5,4.5,0,0,1-.27-.8c-.15-.53-.39-1.32-.65-2.33-.53-2-1.24-5-1.94-8.69a139.88,139.88,0,0,1-2.35-29.23,76,76,0,0,1,1.78-16.08,32.94,32.94,0,0,1,5.45-12,23.12,23.12,0,0,1,6.54-6,16.69,16.69,0,0,1,2.15-1.11,6.48,6.48,0,0,1,.79-.3,4.93,4.93,0,0,1-.75.4,20.07,20.07,0,0,0-2.09,1.19,23.77,23.77,0,0,0-6.34,6.07,32.82,32.82,0,0,0-5.28,11.9,77.45,77.45,0,0,0-1.73,16A148.12,148.12,0,0,0,137.12,330c.65,3.69,1.31,6.65,1.78,8.7.23,1,.42,1.77.55,2.35A6.3,6.3,0,0,1,139.62,341.91Z" style="fill:#263238"></path><path d="M151,323.86a5.25,5.25,0,0,1-.25-1.19,26.62,26.62,0,0,1-.29-3.3,34.45,34.45,0,0,1,.18-4.92,39,39,0,0,1,1.14-5.93,39.43,39.43,0,0,1,2.13-5.65,33.15,33.15,0,0,1,2.42-4.28,25,25,0,0,1,2-2.66,5.3,5.3,0,0,1,.83-.89c.08.06-1,1.39-2.5,3.74a39.5,39.5,0,0,0-2.3,4.3,41.52,41.52,0,0,0-2.05,5.58,42.28,42.28,0,0,0-1.18,5.84,38.41,38.41,0,0,0-.28,4.86C150.81,322.14,151.07,323.85,151,323.86Z" style="fill:#263238"></path><path d="M156.69,336.89a6.27,6.27,0,0,1-.17-1.37c-.08-.88-.15-2.16-.2-3.74a102.19,102.19,0,0,1,2.33-24.57c.34-1.54.65-2.78.89-3.63a7.35,7.35,0,0,1,.42-1.31,7,7,0,0,1-.22,1.35c-.2,1-.44,2.2-.73,3.67-.6,3.09-1.3,7.4-1.75,12.19s-.57,9.14-.57,12.29c0,1.5,0,2.76,0,3.74A8.4,8.4,0,0,1,156.69,336.89Z" style="fill:#263238"></path><path d="M226.22,301.89c0,.14-13.71.26-30.63.26S165,302,165,301.89s13.71-.26,30.62-.26S226.22,301.75,226.22,301.89Z" style="fill:#263238"></path><path d="M175.62,386.13c-.14,0-.13-18.08,0-40.39s.41-40.39.55-40.39.13,18.08,0,40.39S175.77,386.13,175.62,386.13Z" style="fill:#263238"></path><path d="M194.24,387.73s0-.3,0-.86.06-1.43.1-2.46c.11-2.19.26-5.27.45-9.06.44-7.68,1-18.21,1.69-29.84s1.37-22.17,1.85-29.85c.26-3.78.47-6.85.62-9,.08-1,.14-1.85.19-2.46a5.21,5.21,0,0,1,.1-.85,4.71,4.71,0,0,1,0,.86q0,.91-.09,2.46c-.11,2.19-.27,5.27-.46,9.05-.43,7.68-1,18.22-1.69,29.86s-1.37,22.16-1.84,29.84c-.26,3.78-.47,6.85-.62,9-.08,1-.14,1.85-.19,2.46A4.43,4.43,0,0,1,194.24,387.73Z" style="fill:#263238"></path><path d="M220.46,383.69c-.14,0,1.23-18.1,3.06-40.4s3.43-40.37,3.57-40.36-1.23,18.1-3.06,40.4S220.6,383.7,220.46,383.69Z" style="fill:#263238"></path><path d="M296.62,302.3c0,.14-14.57.26-32.55.26s-32.56-.12-32.56-.26,14.57-.26,32.56-.26S296.62,302.15,296.62,302.3Z" style="fill:#263238"></path><path d="M247.29,384.71a5.29,5.29,0,0,1-.09-.8c0-.57-.09-1.34-.16-2.3-.14-2-.28-4.91-.38-8.5-.21-7.17-.16-17.11.57-28s2-20.79,3.21-27.87c.59-3.54,1.11-6.4,1.52-8.37.19-.94.35-1.7.47-2.26a3.66,3.66,0,0,1,.2-.78,4.74,4.74,0,0,1-.1.8c-.09.57-.22,1.33-.37,2.28-.35,2-.82,4.84-1.35,8.39-1.08,7.09-2.32,16.92-3.06,27.84s-.84,20.83-.72,28c.05,3.59.13,6.49.21,8.5,0,1,0,1.73.07,2.31A5,5,0,0,1,247.29,384.71Z" style="fill:#263238"></path><path d="M271.68,395.12a.89.89,0,0,1,0-.23c0-.19,0-.41-.05-.68,0-.64-.08-1.5-.14-2.6-.11-2.26-.23-5.52-.32-9.57-.18-8.08-.18-19.25.34-31.58S273,327,273.82,319c.43-4,.82-7.26,1.13-9.5q.23-1.63.36-2.58c0-.27.08-.49.11-.67s0-.22.05-.22a.68.68,0,0,1,0,.23c0,.18,0,.4-.06.67-.06.64-.15,1.5-.26,2.59-.24,2.25-.58,5.5-1,9.52-.77,8-1.66,19.17-2.19,31.49S271.41,374,271.5,382c.05,4,.1,7.31.16,9.57,0,1.09,0,2,0,2.6v.67A1.1,1.1,0,0,1,271.68,395.12Z" style="fill:#263238"></path><path d="M295.8,302.3a9.66,9.66,0,0,1,.59-1.61c.45-1.1,1-2.55,1.75-4.31,1.46-3.65,3.38-8.74,5.35-14.4s3.72-10.73,5-14.53c.66-1.85,1.21-3.35,1.6-4.37a12.63,12.63,0,0,1,.66-1.58,9.55,9.55,0,0,1-.46,1.64l-1.45,4.43c-1.23,3.74-2.91,8.91-4.89,14.58s-4,10.75-5.5,14.37c-.78,1.81-1.43,3.26-1.9,4.25A11.35,11.35,0,0,1,295.8,302.3Z" style="fill:#263238"></path><path d="M298.55,335.63a5.4,5.4,0,0,1-.6-1.21c-.35-.78-.82-1.95-1.35-3.4a65.55,65.55,0,0,1-3-11.69,57.82,57.82,0,0,1-.64-12.06c.09-1.55.22-2.8.35-3.65a6,6,0,0,1,.24-1.32,6.21,6.21,0,0,1,0,1.34c-.07.86-.14,2.1-.18,3.64a65.64,65.64,0,0,0,.79,12A76.41,76.41,0,0,0,297,330.9c.48,1.46.9,2.64,1.19,3.45A7.66,7.66,0,0,1,298.55,335.63Z" style="fill:#263238"></path><path d="M308.4,359.5a3.92,3.92,0,0,1-.22-.56c-.15-.42-.33-.95-.56-1.61-.45-1.41-1.07-3.46-1.79-6-1.43-5.1-3.22-12.2-4.95-20.1s-3-15.11-3.68-20.37c-.33-2.63-.51-4.77-.58-6.25,0-.7,0-1.26,0-1.71a3.79,3.79,0,0,1,0-.59,2.13,2.13,0,0,1,.08.59c0,.44.07,1,.12,1.7.13,1.47.36,3.6.74,6.21.75,5.24,2.12,12.42,3.83,20.31s3.46,15,4.8,20.11c.67,2.5,1.23,4.56,1.63,6,.18.67.34,1.21.46,1.64A2.13,2.13,0,0,1,308.4,359.5Z" style="fill:#263238"></path><path d="M316.93,283.8c-.09,0-.37-.72-1.06-1.81a18,18,0,0,0-3.24-3.8,18.47,18.47,0,0,0-4.12-2.83,20.26,20.26,0,0,1-1.91-.88,5.63,5.63,0,0,1,2.06.54A15.2,15.2,0,0,1,313,277.8a14.9,14.9,0,0,1,3.21,4A5.05,5.05,0,0,1,316.93,283.8Z" style="fill:#263238"></path><path d="M319.42,276.45c-.08,0-.43-.67-1.2-1.66a16.56,16.56,0,0,0-3.58-3.32,24.75,24.75,0,0,0-6.29-2.94,5.36,5.36,0,0,1,2.06.32,15.89,15.89,0,0,1,4.52,2.19,14,14,0,0,1,3.59,3.53A4.94,4.94,0,0,1,319.42,276.45Z" style="fill:#263238"></path><path d="M92.33,326.64a25.53,25.53,0,0,0-9.15,6.11c-5.36,6.05-15.46,23.88-15.46,23.88s-3,35.21-1.88,34.93,53.62,0,53.62,0H183.1s-13.75-30.68-37.41-36.33l-16.77-3.3s-1.43-7.25-3.33-7.53S92.33,326.64,92.33,326.64Z" style="fill:#7E57C2"></path><path d="M314.57,357.57a7,7,0,0,1,5.57-2.86c3.66,0,17.22-1.3,17.22-1.3s10-7.85,14.94-9.42a9.6,9.6,0,0,1,5.5-7.84c4.11-1.86,15.43-3.38,20.06-3.95a4.7,4.7,0,0,1,3.6,1.07c4.52,3.81,17.7,15.35,25,26.15,7.67,11.38,1,30.05-5,32.15H311Z" style="fill:#7E57C2"></path><g style="opacity:0.30000000000000004"><path d="M99.06,330.38c8.14.46,15.51,1.22,22.27,5.77,2.16,1.45,4.08,3.29,6.46,4.33s5,1.24,7.49,2.09c4.35,1.51,7.7,5,10.87,8.29,1,1,8,6.84,7.43,7.29s-8-3.21-8.66-3.31l-10.13-1.54c-2.53-.38-5.34-.93-6.83-3-.79-1.1-1.09-2.5-1.82-3.64-1-1.63-2.85-2.58-4.57-3.45-8.19-4.17-14.32-8.66-22.51-12.82"></path></g><g style="opacity:0.30000000000000004"><path d="M319.41,354.75c1.3-2.24,6.37-4.17,9-4.31s5.31.09,7.65-1c3.41-1.61,5-5.47,7.35-8.42,3.18-4,8-6.36,12.9-7.57s14.39-4.1,21.53.25c0,0-9.51-.79-11.62-.56a43,43,0,0,0-6.28,1.57c-3.74,1-8.3,5.23-8.78,10.26v.27c-5.25,2.33-13.76,8.18-13.76,8.18-.2.08-11.91,1.24-17.95,1.34"></path></g><g style="opacity:0.30000000000000004"><path d="M145.38,268.53a38.18,38.18,0,0,0-6.13,30.07c.88,4,2.41,7.82,3.23,11.83s.85,8.37-1.12,12a4.8,4.8,0,0,1-1.76,2,2.25,2.25,0,0,1-2.51-.11,3.49,3.49,0,0,1-.9-2.2c-1.48-9.42-3-19-2-28.44s4.59-19.07,11.83-25.27"></path></g><g style="opacity:0.30000000000000004"><path d="M306.84,274.55c2.53,2.17,5.81,8.3,6.35,11.6s.65,6.69,1.77,9.83c.56,1.54,1.76,3.23,3.38,3s2.37-2.17,2.46-3.81a18.4,18.4,0,0,0-3.3-11,30,30,0,0,0-7.8-8.65"></path></g><g style="opacity:0.30000000000000004"><path d="M182.33,389.87a4.29,4.29,0,0,1,.46,1.7l-39.87-.1c-1.87-.13-3.88-.33-5.33-1.52-1.78-1.46-2.21-4-2.22-6.29a27.65,27.65,0,0,1,16.16-24.9s1.34-2,5,1S182.33,389.87,182.33,389.87Z"></path></g><path d="M152.84,358.13a4.32,4.32,0,0,1-.59-.26l-1.65-.81a30.79,30.79,0,0,0-6.31-2.35c-2.77-.68-6.16-.92-9.93-1.45a22.84,22.84,0,0,1-2.84-.74,17,17,0,0,1-2.86-1.14,6.15,6.15,0,0,1-1.91-2.63,14.42,14.42,0,0,0-1.48-2.78l0,0,.06.05-19.25-11.3-5.81-3.47-1.57-1a2.76,2.76,0,0,1-.52-.37,2.8,2.8,0,0,1,.58.28l1.61.88,5.89,3.33,19.34,11.18,0,0,0,0,0,0a13.9,13.9,0,0,1,1.56,2.9,5.63,5.63,0,0,0,1.7,2.41,17.19,17.19,0,0,0,2.75,1.11,25.5,25.5,0,0,0,2.78.74c3.71.55,7.14.83,9.93,1.56a29,29,0,0,1,6.31,2.52c.71.38,1.25.69,1.61.91A2.55,2.55,0,0,1,152.84,358.13Z" style="fill:#263238"></path><path d="M126.42,314a8.84,8.84,0,0,1,0,1.49v4.06c0,3.42.18,8.15.66,13.34s1.22,9.87,1.83,13.24c.31,1.61.56,3,.75,4a6.82,6.82,0,0,1,.23,1.47,9,9,0,0,1-.42-1.43c-.25-.92-.57-2.27-.92-3.95a122.57,122.57,0,0,1-2.5-26.65c0-1.72.1-3.11.17-4.06A8,8,0,0,1,126.42,314Z" style="fill:#263238"></path><g style="opacity:0.30000000000000004"><path d="M323.87,391.85a17,17,0,0,0,2.05-3.46c1.17-2.82.93-6,.45-9.05a31.27,31.27,0,0,0-12.06-19.86L311,391.57Z"></path></g><path d="M117.83,341.42a4.81,4.81,0,0,1-.25-1.14c-.13-.84-.3-1.88-.5-3.12a39.49,39.49,0,0,0-2.91-9.93,21.41,21.41,0,0,0-6.22-8.11,25.53,25.53,0,0,0-3.68-2.22,4.26,4.26,0,0,1,1.12.36,14.44,14.44,0,0,1,2.78,1.56,20.52,20.52,0,0,1,6.47,8.2,35.12,35.12,0,0,1,2.8,10.09c.18,1.33.28,2.4.35,3.15A5.37,5.37,0,0,1,117.83,341.42Z" style="fill:#263238"></path><path d="M364.4,343s-.82,0-2.29,0a31.23,31.23,0,0,0-6.16.85,29.21,29.21,0,0,0-8.47,3.51c-1.49.89-2.94,2-4.51,3.09a20.35,20.35,0,0,1-5.25,2.77c-3.91,1.3-7.84,1.23-11.31,1.36a31.79,31.79,0,0,0-9.11,1.24,13.81,13.81,0,0,0-5.35,3c-1.06,1-1.48,1.74-1.53,1.7a3,3,0,0,1,.3-.52,8.56,8.56,0,0,1,1.09-1.32,13.32,13.32,0,0,1,5.38-3.21,30.91,30.91,0,0,1,9.2-1.37c3.48-.16,7.38-.11,11.17-1.37s6.64-4,9.67-5.78a29.18,29.18,0,0,1,8.64-3.46,28.49,28.49,0,0,1,6.24-.69,16.56,16.56,0,0,1,1.7.08A2,2,0,0,1,364.4,343Z" style="fill:#263238"></path><path d="M378.51,333.79a7,7,0,0,1-1.3-.09c-.83-.08-2-.21-3.51-.33a33,33,0,0,0-11.47.77,16.62,16.62,0,0,0-9.22,6.45,15.58,15.58,0,0,0-1.89,4.37s0-.12,0-.34a6.46,6.46,0,0,1,.17-.95,11.11,11.11,0,0,1,1.4-3.28,16.46,16.46,0,0,1,9.39-6.75,30.7,30.7,0,0,1,11.65-.63c1.48.16,2.68.35,3.5.49A5.84,5.84,0,0,1,378.51,333.79Z" style="fill:#263238"></path><path d="M346.69,347.43a7.86,7.86,0,0,1-.55-1.32l-1.34-3.64c-1.14-3.07-2.77-7.3-4.71-11.9s-3.84-8.72-5.25-11.68l-1.67-3.51a7.71,7.71,0,0,1-.56-1.31,7.88,7.88,0,0,1,.74,1.22c.45.8,1.08,2,1.82,3.44,1.5,2.92,3.45,7,5.4,11.63s3.52,8.88,4.57,12c.53,1.55.94,2.82,1.19,3.7A7.38,7.38,0,0,1,346.69,347.43Z" style="fill:#263238"></path><path d="M205.24,233.93a3.32,3.32,0,0,1,.48.44l1.3,1.31,4.71,4.91,15.41,16.33,3.73,4,.41.44h-.6A20.69,20.69,0,0,0,214.49,269a22,22,0,0,0-2.89,4.67c-.53,1.17-.75,1.85-.79,1.84a2.59,2.59,0,0,1,.13-.51,12.71,12.71,0,0,1,.5-1.4,20.07,20.07,0,0,1,2.78-4.81,20.55,20.55,0,0,1,6.37-5.41,20.85,20.85,0,0,1,10.09-2.58l-.18.43-3.74-4-15.3-16.44-4.59-5-1.23-1.38A3.71,3.71,0,0,1,205.24,233.93Z" style="fill:#263238"></path><path d="M215.66,267.43l6.89,13.5h12.73l7.35-10s-5-7.47-7.19-8.67l-9.22-.67C225.89,261.11,217.49,264.4,215.66,267.43Z" style="fill:#7E57C2"></path><path d="M222.55,280.93,219.33,289s8.82,17.28,9.29,16.5,11-17.16,11-17.16l-4.36-7.39Z" style="fill:#7E57C2"></path><g style="opacity:0.30000000000000004"><path d="M215.66,267.43l6.89,13.5h12.73l7.35-10s-5-7.47-7.19-8.67l-9.22-.67C225.89,261.11,217.49,264.4,215.66,267.43Z"></path></g><g style="opacity:0.30000000000000004"><path d="M222.55,280.93,219.33,289s8.82,17.28,9.29,16.5,11-17.16,11-17.16l-4.36-7.39Z"></path></g><path d="M234.87,281.59a61.24,61.24,0,0,0-6.16-.87,59.76,59.76,0,0,0-6.21.33,5.32,5.32,0,0,1,1.78-.53,19.74,19.74,0,0,1,4.46-.32,19.41,19.41,0,0,1,4.41.71A5.33,5.33,0,0,1,234.87,281.59Z" style="fill:#263238"></path><path d="M238,265.09s-.13.27-.45.71a18.64,18.64,0,0,1-1.45,1.77,28,28,0,0,1-12.69,7.94,18.53,18.53,0,0,1-2.22.53,2.93,2.93,0,0,1-.84.09c0-.09,1.14-.35,2.95-1a32.62,32.62,0,0,0,12.54-7.84C237.2,266,238,265,238,265.09Z" style="fill:#263238"></path><path d="M229.51,291.29a31.35,31.35,0,0,1,0-10.93,49.32,49.32,0,0,1,0,5.46A49.92,49.92,0,0,1,229.51,291.29Z" style="fill:#263238"></path><path d="M231.71,293.73c-.15,0-.26-2.86-.55-6.36s-.62-6.35-.48-6.37a27.14,27.14,0,0,1,1,6.32A27.55,27.55,0,0,1,231.71,293.73Z" style="fill:#263238"></path><path d="M258,232.33s0,.06-.11.16l-.38.44-1.47,1.67-5.57,6.21L231.29,262l-.26-.41a6,6,0,0,1,3.36-.14,7.13,7.13,0,0,1,2.82,2,26.89,26.89,0,0,1,4.43,5.41,25.67,25.67,0,0,1,3.56,10.05l-.42-.15A81.8,81.8,0,0,0,256,266a57.69,57.69,0,0,0,3.81-6.19,50,50,0,0,0,2.55-5.72,49.06,49.06,0,0,0,2.37-8.65c.2-1,.27-1.84.37-2.38,0-.25.07-.46.1-.62a1.76,1.76,0,0,1,0-.21s0,.07,0,.21,0,.37-.05.63c-.07.54-.11,1.36-.28,2.4a46.6,46.6,0,0,1-2.23,8.74,51.74,51.74,0,0,1-2.52,5.79,60.07,60.07,0,0,1-3.79,6.26,81.52,81.52,0,0,1-11.25,12.79l-.36.34-.07-.49a25.48,25.48,0,0,0-3.5-9.85,26.74,26.74,0,0,0-4.35-5.31,6.68,6.68,0,0,0-2.61-1.85,5.54,5.54,0,0,0-3.07.13l-.86.25.6-.66,19.37-21,5.67-6.1,1.54-1.62.4-.41C258,232.37,258,232.32,258,232.33Z" style="fill:#263238"></path><path d="M256,267.66s0,.07-.1.21l-.35.59c-.31.51-.79,1.27-1.44,2.22a87.07,87.07,0,0,1-6.05,7.77c-.68.79-1.41,1.61-2.2,2.45a29.58,29.58,0,0,0-2.33,2.7c-1.52,2-3,4.15-4.65,6.47-3.19,4.65-6.65,9.88-10.28,15.5l-.24.36-.2-.38c-1.83-3.42-3.72-7-5.75-10.54s-4-6.94-6.18-10.11-4.42-6.08-6.48-8.95a77,77,0,0,1-5.44-8.42,33.29,33.29,0,0,1-3.21-8.13,29.55,29.55,0,0,1-.38-12.57,23.39,23.39,0,0,1,1.25-4.46,1.18,1.18,0,0,1-.06.3l-.25.86a33,33,0,0,0-.74,3.33,30.22,30.22,0,0,0,.54,12.46,33.37,33.37,0,0,0,3.23,8,78.33,78.33,0,0,0,5.45,8.34c2.07,2.85,4.33,5.77,6.51,8.95s4.2,6.59,6.21,10.13,3.92,7.14,5.75,10.56l-.44,0c3.64-5.61,7.12-10.83,10.35-15.47,1.62-2.32,3.16-4.5,4.7-6.46a29,29,0,0,1,2.38-2.7c.79-.83,1.52-1.65,2.22-2.43,2.76-3.13,4.8-5.79,6.14-7.66.68-.93,1.18-1.66,1.52-2.16l.38-.57Z" style="fill:#263238"></path><path d="M179.18,355l-1.34-33.75,1-7.57s10.55,2.87,40.49,2.87A353.43,353.43,0,0,0,287,309.45l3.16,6.25h0l-10.55,79.42H183.43Z" style="fill:#fff"></path><path d="M152.44,358.19l13.85,1.57,5.25-7.29,7.19-4.4.45,6.95a80.2,80.2,0,0,0,9.28,3.11c3.49.72,7.69,1.06,9.75,2.63,1.51,1.16,1.49,4.76-.58,5.4l-5.09,1.11s17.53.87,19,1c3.57.22,5.27,2.42,4.21,5-.64,1.6-3.16,2.13-4,2.45l-.8.32s3.71.71,3.82,3c.14,2.58-1.38,3.31-3,3.64-1,.21-1.45.22-5.11.7s-9.07.63-9.07.63a2.07,2.07,0,0,1,.2,3c-1.3,1.57-11.16,2.13-11.16,2.13l-8.33,1.71a32.14,32.14,0,0,1-15.07-.5h0l-6.82-3.29-21.08-1.51s-.13-7.13,2.13-12.19C142.78,361.49,152.44,358.19,152.44,358.19Z" style="fill:#ffbe9d"></path><path d="M195.7,366.49a23.83,23.83,0,0,1-5.55.86,21.48,21.48,0,0,1-5.63,0,52.31,52.31,0,0,1,5.58-.52A42.81,42.81,0,0,1,195.7,366.49Z" style="fill:#eb996e"></path><path d="M211,376a22.5,22.5,0,0,1-3.38.07c-2.08,0-5-.09-8.14-.2s-6.06-.23-8.15-.35a19.63,19.63,0,0,1-3.36-.31,21.87,21.87,0,0,1,3.38-.06c2.08,0,5,.09,8.14.2s6.06.23,8.15.35A21.92,21.92,0,0,1,211,376Z" style="fill:#eb996e"></path><path d="M200.5,383.87a12.58,12.58,0,0,1-2.77.13c-1.71,0-4.08-.08-6.68-.23l-6.67-.38a18,18,0,0,1-2.76-.23,13,13,0,0,1,2.77-.14c1.71,0,4.08.09,6.69.23l6.66.39A15.27,15.27,0,0,1,200.5,383.87Z" style="fill:#eb996e"></path><path d="M267.64,366.18s-1.59-4.11,1.83-5.3L285,355.41l.23-3.13,7.12.74a20.52,20.52,0,0,1,5.13-2.27c2.22-.47,3.59-.3,5.64,2.61a69,69,0,0,0,7,7.52l6.65.68s7.31,6.49,8.95,14.9a60.31,60.31,0,0,1,.86,8.56c-1,2.06-4.79,2.84-9.63,3l-5.64.15a3.48,3.48,0,0,1-3.13,3.28c-2.27.34-8.52-.38-10.29.09a34.16,34.16,0,0,1-5.54,0c-4.67-.8-17.83-2-18.13-6.93l-14.21.29a4.76,4.76,0,0,1-4.4-2.56,2.25,2.25,0,0,1-.23-1.77,3.89,3.89,0,0,1,.61-1.08A4.28,4.28,0,0,1,259,378L278,375.88h0a1.08,1.08,0,0,0-.77-1.94c-6.69.87-19.17,2.4-20.42,1.94-1.71-.64-2.42-3-2.42-4.16,0-1.81,3.1-3.3,6.27-3.92C264.65,367,267.64,366.18,267.64,366.18Z" style="fill:#ffbe9d"></path><path d="M287.15,361.62a22.61,22.61,0,0,1-3.34.93l-8.12,1.94-8.12,1.93a25,25,0,0,1-3.39.71,3.62,3.62,0,0,1,.87-.34c.56-.19,1.39-.44,2.42-.73,2.06-.58,4.92-1.32,8.1-2.07s6.06-1.38,8.16-1.8A22.56,22.56,0,0,1,287.15,361.62Z" style="fill:#eb996e"></path><path d="M293,384a85.87,85.87,0,0,1-9.4.57,85.71,85.71,0,0,1-9.43.06,84.83,84.83,0,0,1,9.41-.58A83.89,83.89,0,0,1,293,384Z" style="fill:#eb996e"></path><path d="M294.46,352.31a63.65,63.65,0,0,1-11,3.72,66,66,0,0,1,11-3.72Z" style="fill:#eb996e"></path><path d="M323.87,391.85a8.1,8.1,0,0,1,.72-1.27c.24-.4.54-.88.84-1.46a8.22,8.22,0,0,0,.68-2.1c.72-3.23.37-7.95-1.31-12.73a32.23,32.23,0,0,0-6.61-11.06c-2.24-2.46-3.95-3.65-3.89-3.73a7.2,7.2,0,0,1,1.21.81,28,28,0,0,1,2.95,2.67,30.66,30.66,0,0,1,6.83,11.14c1.71,4.86,2,9.68,1.18,13a8.32,8.32,0,0,1-.78,2.15c-.34.59-.67,1.06-.93,1.45A8.2,8.2,0,0,1,323.87,391.85Z" style="fill:#263238"></path><path d="M285,355.41s0-.25.06-.73.14-1.2.24-2.1c.23-1.87.55-4.58,1-8,.87-6.95,2.11-16.87,3.61-28.88l.26.23c-7.38,1.55-15.62,3.12-24.48,4.62-4.44.75-9,1.46-13.75,2.1s-9.59,1.2-14.57,1.47c-5.7.29-11.28.16-16.68,0s-10.63-.45-15.65-.74c-10-.62-19.2-1.33-27.14-2l.22-.21c.35,10.41.64,18.89.84,24.79.08,2.92.15,5.2.2,6.78,0,.76,0,1.34,0,1.77s0,.6,0,.6,0-.2-.06-.6-.05-1-.09-1.77c-.07-1.58-.17-3.86-.31-6.77-.24-5.9-.58-14.38-1-24.78v-.23l.23,0c7.93.68,17.1,1.37,27.13,2,5,.29,10.24.55,15.64.72s11,.29,16.63,0c5-.27,9.81-.83,14.53-1.46s9.3-1.34,13.73-2.08c8.86-1.48,17.1-3,24.48-4.54l.3-.06,0,.29c-1.58,12-2.88,21.92-3.8,28.86-.46,3.44-.83,6.15-1.08,8l-.3,2.1C285.07,355.17,285,355.41,285,355.41Z" style="fill:#263238"></path><path d="M289.87,314.43l-.28.08-.83.19-3.2.69c-2.78.61-6.83,1.38-11.84,2.25-2.51.41-5.26.88-8.22,1.29s-6.13.83-9.47,1.23c-6.69.75-14.06,1.39-21.82,1.73s-15.16.33-21.89.15c-3.36-.12-6.56-.23-9.54-.44s-5.77-.4-8.3-.61-4.82-.47-6.83-.67-3.74-.42-5.15-.61l-3.24-.44-.85-.13a1,1,0,0,1-.28-.06h.29l.85.08,3.25.34c1.42.15,3.14.35,5.16.52s4.29.43,6.83.6,5.31.41,8.29.54,6.18.28,9.54.39c6.71.15,14.1.13,21.85-.19s15.11-1,21.79-1.69c3.33-.38,6.5-.75,9.46-1.18s5.71-.84,8.22-1.23c5-.81,9.07-1.53,11.86-2.07l3.22-.6.84-.14A1.06,1.06,0,0,1,289.87,314.43Z" style="fill:#263238"></path><path d="M289.9,311.36a2.34,2.34,0,0,1-.26.13l-.78.33c-.69.3-1.72.69-3.07,1.16a73.5,73.5,0,0,1-11.69,2.87,166,166,0,0,1-17.76,1.79c-6.71.38-14.08.78-21.82,1.08a346.2,346.2,0,0,1-39.7-.47c-5.07-.37-9.15-.84-12-1.19l-3.24-.45-.84-.13-.29-.06a.91.91,0,0,1,.29,0l.85.07,3.25.36c2.82.28,6.91.7,12,1a372.54,372.54,0,0,0,39.65.32c7.74-.3,15.11-.68,21.81-1A173.31,173.31,0,0,0,274,315.49a80.12,80.12,0,0,0,11.69-2.7c1.35-.44,2.39-.8,3.09-1.07l.8-.28A.78.78,0,0,1,289.9,311.36Z" style="fill:#263238"></path><path d="M137.7,391.57a1.69,1.69,0,0,1-.27-.32,9.29,9.29,0,0,1-.65-1,12.46,12.46,0,0,1-1.51-4.14,18.46,18.46,0,0,1,.08-6.53,33.38,33.38,0,0,1,2.46-7.6,27.25,27.25,0,0,1,9.37-10.92,28.86,28.86,0,0,1,3.78-2.24c.46-.24.84-.39,1.09-.5s.38-.15.39-.13a14.05,14.05,0,0,1-1.38.81,38.86,38.86,0,0,0-3.67,2.36,28.08,28.08,0,0,0-9.11,10.83,34.33,34.33,0,0,0-2.45,7.48,18.86,18.86,0,0,0-.2,6.38,13.65,13.65,0,0,0,1.32,4.1C137.42,391.06,137.74,391.54,137.7,391.57Z" style="fill:#263238"></path></g><g id="freepik--Table--inject-231"><path d="M468.08,391.57c0,.14-99.44.26-222.07.26s-222.09-.12-222.09-.26,99.42-.26,222.09-.26S468.08,391.42,468.08,391.57Z" style="fill:#263238"></path></g></svg>