<svg xmlns="http://www.w3.org/2000/svg" viewBox="0 0 500 500"><g id="freepik--Mountains--inject-305"><g id="freepik--mountains--inject-305"><g id="freepik--mountains--inject-305"><path d="M460.38,182.24l-42.95-83.5c-.69-1.4-3.48-1.39-4.14,0L394,135.21l-17.73-23.6a4.58,4.58,0,0,0-7.1,0l-17.73,23.6L306.34,64.88a4.53,4.53,0,0,0-7.44.07l-36.79,59.36L233.35,87.75a4.59,4.59,0,0,0-7-.44l-17.39,19.58L170.28,47.57a4.53,4.53,0,0,0-7.49.18l-49.73,86.73L88.48,97.69a5,5,0,0,0-8.21.3L35.88,179V290h424.5Z" style="fill:#f0f0f0"></path><path d="M79.79,105.13a4.1,4.1,0,0,1,4.33-.36l3.84,2a4.17,4.17,0,0,0,4.38-.41l1.25-1-5.11-7.65a5,5,0,0,0-8.21.31l-5.85,10.72a3.83,3.83,0,0,0,1.65-.73Z" style="fill:#fafafa"></path><path d="M413.56,98l-7.39,14.38,1,1.38a2.66,2.66,0,0,0,4.08.27l3-3.37a2.67,2.67,0,0,1,3.85,0l1,1.13a2.63,2.63,0,0,0,4.2-.54l.26-.63L417.17,98A2.07,2.07,0,0,0,413.56,98Z" style="fill:#fafafa"></path><path d="M226.3,87.31,219,95.48,221.5,98a3.2,3.2,0,0,0,4.51-.07l1.59-1.73a3.2,3.2,0,0,1,4.49-.09h0a3.16,3.16,0,0,0,4.77-.44l1.21-1.9-4.73-6A4.57,4.57,0,0,0,226.3,87.31Z" style="fill:#fafafa"></path><path d="M298.89,65,285.12,87.17l1.71,3a3.45,3.45,0,0,0,5.61.27l3.06-4.24a3.47,3.47,0,0,1,5.2-.28h0a3.49,3.49,0,0,0,5.09-.13L309,82a3.5,3.5,0,0,1,4.6-.54l6.2,4.35L306.34,64.88A4.54,4.54,0,0,0,298.89,65Z" style="fill:#fafafa"></path><path d="M369.21,111.61l-7.91,10.52,6.27-3.2a2.3,2.3,0,0,1,2.74.48l1.71,2a2.31,2.31,0,0,0,3.16.2l1.45-1.25a2.32,2.32,0,0,1,3,0l9.13,7.81h0l-12.41-16.51A4.58,4.58,0,0,0,369.21,111.61Z" style="fill:#fafafa"></path><path d="M162.79,47.75l-9,15.76,1,1.42a4.26,4.26,0,0,0,6.31.5l2.66-2.63a4.3,4.3,0,0,1,5.88,0l5.7,5.61a4.3,4.3,0,0,0,5.94-.07l1.54-1.59L170.28,47.57A4.53,4.53,0,0,0,162.79,47.75Z" style="fill:#fafafa"></path><g style="opacity:0.05"><polygon points="90.8 101.16 74.98 122.42 84.28 122.42 77.37 145.71 92.01 132.64 104.36 150.25 113.06 134.48 90.8 101.16"></polygon><polygon points="170.83 48.41 181.32 91.91 164.44 109.26 162.15 159.99 208.91 106.89 170.83 48.41"></polygon><polygon points="234.66 89.44 228.28 104.91 236.79 104.91 221.5 139.5 245.32 122.33 256.18 134.43 262.11 124.31 234.66 89.44"></polygon><polygon points="351.48 135.21 309.04 69.08 317.66 100.55 303.16 119.27 338.94 128.87 327.43 140.4 333.48 147.06 324.16 172.06 351.48 135.21"></polygon><polygon points="376.31 111.61 369.02 131.11 378.85 129.91 380.22 155.6 394.04 135.2 376.31 111.61"></polygon><polygon points="460.38 289.95 460.38 182.24 420.25 104.07 442.82 169.15 426.39 201.33 444.63 196.9 401.9 289.95 460.38 289.95"></polygon></g></g></g></g><g id="freepik--Floor--inject-305"><g id="freepik--Shrubbery--inject-305"><path d="M102.61,205.8a3.82,3.82,0,0,0-.32,4.61c-3.54.35-5.93,4.4-3.52,7.36-1.46-1.76-4.92-.69-5.12,1.59-1.23-5.41-9.52-4.44-9.47,1.1-4.8-3.66-11.87,1.49-9.86,7.18-4.11-2.79-8.55,3.36-4.62,6.39A2.09,2.09,0,0,0,67,236.16c-4.44-4.93-11.28,1.63-8.9,7.07a5.1,5.1,0,0,0-6.27,5.15c-3.5-4.11-8.69,1.13-8,5.48A7.07,7.07,0,0,0,34,260c-4.72-3.35-10,3.29-6.56,7.6-2.93-2.22-7,1.31-5.31,4.55-10.22,2.26-5,17.14,3.7,17.79H480.16a10.25,10.25,0,0,0,1.44-2.86,5.25,5.25,0,0,0,.17-2.78,5.94,5.94,0,0,0-1.13-2.58c-.16-.2-1.86-2-2.09-1.69a7.5,7.5,0,0,0,1.91-6.4,4.83,4.83,0,0,0-5-3.81,7.4,7.4,0,0,0-6.59-10.09,6.86,6.86,0,0,0-5.94-10.28,11,11,0,0,0-.48-8.31c-1.38-2.49-4.54-4.1-7.19-3.08-1.78.68-3,2.31-4.09,3.86a11.64,11.64,0,0,0-1.38-4.91c-.94-1.45-2.79-2.45-4.4-1.85a7.92,7.92,0,0,0-13.65-7.54c-.4-2.37.46-5.17-1.12-7a4.4,4.4,0,0,0-4.37-1.09,12.92,12.92,0,0,0-4.17,2.22,8.24,8.24,0,0,0-2.12-4.45,8.58,8.58,0,0,0-1.94-1.56,4.88,4.88,0,0,0-1.13-.54,2.24,2.24,0,0,0-.51-.07,7.91,7.91,0,0,0-1.29-.07c-.18,0-1.45.15-1.48.36a10.8,10.8,0,0,0-1.32-7.44,6.77,6.77,0,0,0-6.57-3.16c-2.54.45-4.61,3.09-4,5.6a3.7,3.7,0,0,0-6.38.51,6.59,6.59,0,0,0-.25-4.43,3,3,0,0,0-3.78-1.52,5.3,5.3,0,0,0-5.93-6.54c-2.77.42-4.72,2.91-6,5.4a6.82,6.82,0,0,0-3-4.37c-.75-.5-1.63-.66-2.39-1.1a5.92,5.92,0,0,0-2.89-.68,5.42,5.42,0,0,0-2.76.69,4.74,4.74,0,0,0-1.22,1c-.14.17-.71.79-.66,1-.89-4.17-5.28-7.69-9.13-4.59-.62-5.58-8.06-11.84-12.11-5.83-.07-5.74-8.46-10.28-11.11-4-.55-8.88-13.32-7.7-15,.2a6.65,6.65,0,0,0-11.25,1c.28-7.27-9.76-7.6-12.67-2.33-.73-4.84-4.63-7.56-9.44-6.62-3.28,0-6.86,1.87-6.11,5.63-3.8-4.59-12.05-4.23-15.44.68-1.57-6-9.88-7.11-13.55-2.39-.52-3.1-4.82-5.69-6.93-2.6-1.5-6.93-11.4-5.79-13.36.38-3.72-3-9.16.54-7,5.09-2-4.74-9.49-3.8-9.92,1.4a5.12,5.12,0,0,0-8.5-1.66c1.91-6.1-5.51-8.85-7.94-4.67-1.35.5-4.26-.27-4.34,1.65-1.79-4.11-8.63-4.51-10.88-.63.49-11.45-16.31-13.06-18-1.73-5-7.88-16.48-2.39-14.09,6.47a5.53,5.53,0,0,0-5.06,7.6,5,5,0,0,0-6.3,6.1c-1.91-1.47-5.56-1.63-6.27,1.14-2.34-4.65-9.77-3.28-10.31,1.9-2.15-2-7.14-2.51-8.29.72-.72-4.75-8-3.29-6.87,1.38A3.86,3.86,0,0,0,102.61,205.8Z" style="fill:#6EA26E"></path><path d="M102.61,205.8a3.82,3.82,0,0,0-.32,4.61c-3.54.35-5.93,4.4-3.52,7.36-1.46-1.76-4.92-.69-5.12,1.59-1.23-5.41-9.52-4.44-9.47,1.1-4.8-3.66-11.87,1.49-9.86,7.18-4.11-2.79-8.55,3.36-4.62,6.39A2.09,2.09,0,0,0,67,236.16c-4.44-4.93-11.28,1.63-8.9,7.07a5.1,5.1,0,0,0-6.27,5.15c-3.5-4.11-8.69,1.13-8,5.48A7.07,7.07,0,0,0,34,260c-4.72-3.35-10,3.29-6.56,7.6-2.93-2.22-7,1.31-5.31,4.55-10.22,2.26-5,17.14,3.7,17.79H480.16a10.25,10.25,0,0,0,1.44-2.86,5.25,5.25,0,0,0,.17-2.78,5.94,5.94,0,0,0-1.13-2.58c-.16-.2-1.86-2-2.09-1.69a7.5,7.5,0,0,0,1.91-6.4,4.83,4.83,0,0,0-5-3.81,7.4,7.4,0,0,0-6.59-10.09,6.86,6.86,0,0,0-5.94-10.28,11,11,0,0,0-.48-8.31c-1.38-2.49-4.54-4.1-7.19-3.08-1.78.68-3,2.31-4.09,3.86a11.64,11.64,0,0,0-1.38-4.91c-.94-1.45-2.79-2.45-4.4-1.85a7.92,7.92,0,0,0-13.65-7.54c-.4-2.37.46-5.17-1.12-7a4.4,4.4,0,0,0-4.37-1.09,12.92,12.92,0,0,0-4.17,2.22,8.24,8.24,0,0,0-2.12-4.45,8.58,8.58,0,0,0-1.94-1.56,4.88,4.88,0,0,0-1.13-.54,2.24,2.24,0,0,0-.51-.07,7.91,7.91,0,0,0-1.29-.07c-.18,0-1.45.15-1.48.36a10.8,10.8,0,0,0-1.32-7.44,6.77,6.77,0,0,0-6.57-3.16c-2.54.45-4.61,3.09-4,5.6a3.7,3.7,0,0,0-6.38.51,6.59,6.59,0,0,0-.25-4.43,3,3,0,0,0-3.78-1.52,5.3,5.3,0,0,0-5.93-6.54c-2.77.42-4.72,2.91-6,5.4a6.82,6.82,0,0,0-3-4.37c-.75-.5-1.63-.66-2.39-1.1a5.92,5.92,0,0,0-2.89-.68,5.42,5.42,0,0,0-2.76.69,4.74,4.74,0,0,0-1.22,1c-.14.17-.71.79-.66,1-.89-4.17-5.28-7.69-9.13-4.59-.62-5.58-8.06-11.84-12.11-5.83-.07-5.74-8.46-10.28-11.11-4-.55-8.88-13.32-7.7-15,.2a6.65,6.65,0,0,0-11.25,1c.28-7.27-9.76-7.6-12.67-2.33-.73-4.84-4.63-7.56-9.44-6.62-3.28,0-6.86,1.87-6.11,5.63-3.8-4.59-12.05-4.23-15.44.68-1.57-6-9.88-7.11-13.55-2.39-.52-3.1-4.82-5.69-6.93-2.6-1.5-6.93-11.4-5.79-13.36.38-3.72-3-9.16.54-7,5.09-2-4.74-9.49-3.8-9.92,1.4a5.12,5.12,0,0,0-8.5-1.66c1.91-6.1-5.51-8.85-7.94-4.67-1.35.5-4.26-.27-4.34,1.65-1.79-4.11-8.63-4.51-10.88-.63.49-11.45-16.31-13.06-18-1.73-5-7.88-16.48-2.39-14.09,6.47a5.53,5.53,0,0,0-5.06,7.6,5,5,0,0,0-6.3,6.1c-1.91-1.47-5.56-1.63-6.27,1.14-2.34-4.65-9.77-3.28-10.31,1.9-2.15-2-7.14-2.51-8.29.72-.72-4.75-8-3.29-6.87,1.38A3.86,3.86,0,0,0,102.61,205.8Z" style="opacity:0.5"></path></g><g id="freepik--floor--inject-305"><g id="freepik--floor--inject-305"><ellipse id="freepik--Grass--inject-305" cx="250.48" cy="339.83" rx="244.73" ry="149.77" style="fill:#6EA26E"></ellipse><ellipse id="freepik--grass--inject-305" cx="250.48" cy="339.83" rx="244.73" ry="149.77" style="fill:#fff;opacity:0.5"></ellipse></g><g id="freepik--Flowers--inject-305"><g id="freepik--flowers--inject-305"><path d="M393.59,290.64s-.15-2-1.73-2.23c0,0-1.29-.21-2,1.8a4.15,4.15,0,0,0-3.74.43,2.33,2.33,0,0,0,1.73,2.59s-1.23.93-.65,3.16c0,0,3.23,1.08,4-.93,0,0,.29,1.8,3.46,1.8a3,3,0,0,0,0-3.6s2.22-.07,2.58-1.72C397.25,291.94,395.74,289.42,393.59,290.64Z" style="fill:#fafafa"></path><path d="M391.64,291a2.21,2.21,0,0,0-2.39,1.48s0,1.18,2,1.35,2.32-1,2.32-1A2,2,0,0,0,391.64,291Z" style="fill:#f0997a"></path><path d="M403.61,286.51s-.71-1.43-1.87-1.6a3.23,3.23,0,0,0-1.15,2.06,2.92,2.92,0,0,0-2.54.62,2.73,2.73,0,0,0,1.62,1.87,3.6,3.6,0,0,0,.08,2.65,3.14,3.14,0,0,0,3-1.7s.83,1.24,3.11.8a2.33,2.33,0,0,0-.83-2.71,2.46,2.46,0,0,0,1.25-2.16A3.49,3.49,0,0,0,403.61,286.51Z" style="fill:#fafafa"></path><path d="M402.34,287.35a1.62,1.62,0,0,0-1.58,1.35s.13.86,1.62.76,1.59-1,1.59-1A1.46,1.46,0,0,0,402.34,287.35Z" style="fill:#f0997a"></path><path d="M392.87,284.18s-.44-1.28-1.28-.84-.54,1.24.19,1.43c0,0-1.58.51-1.14,1.35s1.79,0,2.09-.48c0,0,.29,1.29,1.39.83s0-1.56,0-1.56,1.68-.66.76-1.42S392.87,284.18,392.87,284.18Z" style="fill:#fafafa"></path><path d="M400.89,302.72s.12-1.35-.82-1.29-1,.9-.43,1.37c0,0-1.64-.18-1.59.76s1.65.71,2.1.43c0,0-.27,1.3.92,1.33s.65-1.42.65-1.42,1.8.1,1.28-1S400.89,302.72,400.89,302.72Z" style="fill:#fafafa"></path><path d="M377,297.56s-1.09-1.44-.26-1.79,1.17.89,1.17.89.83-1,1.22-.28-.61,1.44-.61,1.44,1.13.61.48,1.21-1.44-.34-1.44-.34-.44,1.08-1.13.78S376.19,297.9,377,297.56Z" style="fill:#fafafa"></path></g><g id="freepik--flowers--inject-305"><path d="M431,369.16s-.75-2.15-2.54-1.92c0,0-1.47.15-1.65,2.56a4.67,4.67,0,0,0-3.94,1.58,2.61,2.61,0,0,0,2.64,2.3s-1.05,1.38.24,3.64c0,0,3.84.21,4.1-2.22,0,0,.85,1.87,4.29.93a3.38,3.38,0,0,0-1.07-3.91s2.41-.74,2.31-2.65C435.37,369.47,433,367.18,431,369.16Z" style="fill:#fafafa"></path><path d="M429,370.08a2.49,2.49,0,0,0-2.16,2.32s.35,1.28,2.6.87,2.22-1.79,2.22-1.79A2.23,2.23,0,0,0,429,370.08Z" style="fill:#f0997a"></path><path d="M449.22,355.88s-.8-1.61-2.11-1.8a3.6,3.6,0,0,0-1.3,2.32,3.32,3.32,0,0,0-2.87.71,3.07,3.07,0,0,0,1.82,2.1,4.09,4.09,0,0,0,.1,3s2.52.19,3.41-1.91c0,0,.94,1.39,3.51.9a2.63,2.63,0,0,0-.94-3.05,2.78,2.78,0,0,0,1.4-2.45A3.94,3.94,0,0,0,449.22,355.88Z" style="fill:#fafafa"></path><path d="M447.78,356.84a1.85,1.85,0,0,0-1.79,1.52s.15,1,1.84.86,1.79-1.13,1.79-1.13A1.65,1.65,0,0,0,447.78,356.84Z" style="fill:#f0997a"></path><path d="M432.14,357.21s-.5-1.45-1.45-.95-.62,1.4.21,1.61c0,0-1.78.57-1.28,1.52s2,0,2.35-.53c0,0,.33,1.45,1.57.93s0-1.76,0-1.76,1.9-.74.87-1.61S432.14,357.21,432.14,357.21Z" style="fill:#fafafa"></path><path d="M458.3,367.1s.15-1.52-.92-1.46-1.14,1-.48,1.55c0,0-1.85-.21-1.79.86s1.86.8,2.36.48c0,0-.3,1.46,1,1.5s.73-1.61.73-1.61,2,.12,1.45-1.1S458.3,367.1,458.3,367.1Z" style="fill:#fafafa"></path><path d="M411.87,368.24s1.69-1.14,2-.19-1.08,1.27-1.08,1.27,1.05,1,.24,1.39-1.58-.78-1.58-.78-.75,1.24-1.4.47.48-1.6.48-1.6-1.19-.57-.81-1.33S411.53,367.28,411.87,368.24Z" style="fill:#fafafa"></path></g><g id="freepik--flowers--inject-305"><path d="M227,460.81s.15-2.14,1.83-2.37c0,0,1.38-.23,2.14,1.91a4.4,4.4,0,0,1,4,.46,2.48,2.48,0,0,1-1.83,2.75s1.29,1,.68,3.36c0,0-3.43,1.14-4.27-1,0,0-.31,1.91-3.67,1.91a3.2,3.2,0,0,1,0-3.82s-2.36-.07-2.74-1.83C223.15,462.18,224.75,459.51,227,460.81Z" style="fill:#fafafa"></path><path d="M229.1,461.15a2.34,2.34,0,0,1,2.54,1.57s0,1.25-2.14,1.43-2.47-1.07-2.47-1.07A2.1,2.1,0,0,1,229.1,461.15Z" style="fill:#f0997a"></path><path d="M206.79,455.55s.75-1.52,2-1.7A3.39,3.39,0,0,1,210,456a3.11,3.11,0,0,1,2.7.66,2.87,2.87,0,0,1-1.71,2,3.85,3.85,0,0,1-.09,2.82,3.34,3.34,0,0,1-3.21-1.81s-.88,1.32-3.3.86a2.46,2.46,0,0,1,.88-2.88,2.6,2.6,0,0,1-1.32-2.3A3.71,3.71,0,0,1,206.79,455.55Z" style="fill:#fafafa"></path><path d="M208.14,456.45a1.72,1.72,0,0,1,1.68,1.43s-.14.91-1.73.81-1.68-1.06-1.68-1.06A1.54,1.54,0,0,1,208.14,456.45Z" style="fill:#f0997a"></path><path d="M224.91,450.73s.47-1.36,1.36-.9.58,1.32-.19,1.52c0,0,1.67.54,1.2,1.44s-1.9,0-2.21-.51c0,0-.31,1.37-1.48.88s0-1.66,0-1.66-1.78-.7-.81-1.51S224.91,450.73,224.91,450.73Z" style="fill:#fafafa"></path><path d="M252.43,473s-.14-1.43.87-1.37,1.07,1,.45,1.46c0,0,1.74-.2,1.69.81s-1.75.75-2.23.45c0,0,.28,1.38-1,1.41s-.68-1.51-.68-1.51-1.92.11-1.37-1S252.43,473,252.43,473Z" style="fill:#fafafa"></path><path d="M245,455.59s1.16-1.53.28-1.9-1.25.95-1.25.95-.88-1-1.29-.3.64,1.52.64,1.52-1.2.65-.5,1.3,1.52-.37,1.52-.37.47,1.15,1.21.83S245.88,456,245,455.59Z" style="fill:#fafafa"></path></g><g id="freepik--flowers--inject-305"><path d="M83.26,396.22s-.15-2-1.74-2.24c0,0-1.29-.21-2,1.81a4.13,4.13,0,0,0-3.75.43,2.34,2.34,0,0,0,1.74,2.6s-1.23.93-.65,3.17c0,0,3.24,1.08,4-.94,0,0,.28,1.8,3.46,1.8a3,3,0,0,0,0-3.6s2.23-.07,2.59-1.73C86.93,397.52,85.42,395,83.26,396.22Z" style="fill:#fafafa"></path><path d="M81.3,396.54A2.2,2.2,0,0,0,78.91,398s0,1.18,2,1.36,2.33-1,2.33-1A2,2,0,0,0,81.3,396.54Z" style="fill:#f0997a"></path><path d="M99.26,393.77s-.71-1.43-1.88-1.6a3.21,3.21,0,0,0-1.15,2.06,3,3,0,0,0-2.55.63,2.7,2.7,0,0,0,1.62,1.87,3.63,3.63,0,0,0,.08,2.66,3.15,3.15,0,0,0,3-1.7s.83,1.24,3.12.81a2.34,2.34,0,0,0-.84-2.72A2.47,2.47,0,0,0,102,393.6,3.49,3.49,0,0,0,99.26,393.77Z" style="fill:#fafafa"></path><path d="M98,394.62A1.64,1.64,0,0,0,96.39,396s.13.87,1.64.77,1.59-1,1.59-1A1.47,1.47,0,0,0,98,394.62Z" style="fill:#f0997a"></path><path d="M84.84,388.6s-.44-1.28-1.28-.84-.55,1.25.18,1.43c0,0-1.58.51-1.13,1.36s1.79,0,2.09-.48c0,0,.29,1.29,1.39.83s0-1.57,0-1.57,1.69-.65.77-1.43S84.84,388.6,84.84,388.6Z" style="fill:#fafafa"></path><path d="M95.68,404.46s.13-1.35-.82-1.3-1,.91-.42,1.38c0,0-1.65-.18-1.6.77s1.65.71,2.1.43c0,0-.26,1.29.93,1.33s.65-1.43.65-1.43,1.81.1,1.29-1S95.68,404.46,95.68,404.46Z" style="fill:#fafafa"></path><path d="M65.86,393.2s-1.09-1.44-.26-1.79,1.18.89,1.18.89.82-1,1.22-.28-.61,1.44-.61,1.44,1.13.61.48,1.22-1.44-.35-1.44-.35-.45,1.09-1.14.79S65,393.54,65.86,393.2Z" style="fill:#fafafa"></path></g><g id="freepik--flowers--inject-305"><path d="M71.47,297.62s.16-2.18,1.87-2.42c0,0,1.4-.23,2.18,1.95a4.47,4.47,0,0,1,4,.47,2.52,2.52,0,0,1-1.87,2.8s1.33,1,.7,3.43c0,0-3.5,1.17-4.36-1,0,0-.31,1.95-3.74,1.95a3.28,3.28,0,0,1,0-3.89s-2.41-.08-2.8-1.87C67.5,299,69.14,296.29,71.47,297.62Z" style="fill:#fafafa"></path><path d="M73.58,298a2.4,2.4,0,0,1,2.59,1.61s0,1.27-2.19,1.46-2.51-1.1-2.51-1.1A2.15,2.15,0,0,1,73.58,298Z" style="fill:#f0997a"></path><path d="M54.2,295s.77-1.55,2-1.73a3.46,3.46,0,0,1,1.25,2.23,3.17,3.17,0,0,1,2.75.67,2.94,2.94,0,0,1-1.75,2,3.87,3.87,0,0,1-.09,2.87,3.39,3.39,0,0,1-3.27-1.84s-.9,1.35-3.37.88a2.52,2.52,0,0,1,.9-2.94,2.66,2.66,0,0,1-1.35-2.35A3.83,3.83,0,0,1,54.2,295Z" style="fill:#fafafa"></path><path d="M55.58,295.89a1.77,1.77,0,0,1,1.71,1.46s-.14.94-1.76.83-1.72-1.08-1.72-1.08A1.59,1.59,0,0,1,55.58,295.89Z" style="fill:#f0997a"></path><path d="M69.76,289.4s.47-1.39,1.39-.92.59,1.35-.2,1.55c0,0,1.7.55,1.23,1.47s-2,0-2.26-.52c0,0-.32,1.39-1.51.9s0-1.7,0-1.7-1.82-.71-.83-1.54S69.76,289.4,69.76,289.4Z" style="fill:#fafafa"></path><path d="M58.06,306.52s-.14-1.46.88-1.41,1.1,1,.46,1.49c0,0,1.78-.2,1.73.83s-1.79.76-2.27.46c0,0,.28,1.4-1,1.44s-.7-1.54-.7-1.54-2,.11-1.4-1.06S58.06,306.52,58.06,306.52Z" style="fill:#fafafa"></path><path d="M90.25,294.35s1.18-1.55.28-1.93-1.27,1-1.27,1-.89-1.06-1.32-.31.66,1.56.66,1.56-1.22.66-.51,1.32,1.55-.38,1.55-.38.48,1.18,1.23.85S91.15,294.73,90.25,294.35Z" style="fill:#fafafa"></path></g></g></g></g><g id="freepik--Trees--inject-305"><g id="freepik--Pines--inject-305"><g id="freepik--Pine--inject-305"><path d="M53.59,255.16c-5.61,4.14-31.32,3.57-37.11,0-.51-2.24-.25-7.23.55-13.79l6.9,3.71-6.24-8.74c.91-6.36,2.18-13.7,3.67-21.22l4.27,2.38L22,212c.29-1.41.58-2.82.88-4.23l4.87,2.39-4.18-5.59c1.24-5.68,2.56-11.25,3.89-16.36l3.88,1.13s-1.46-2.19-3-4.46c1.36-5,2.72-9.5,4-13a2.88,2.88,0,0,1,5.43,0c1.72,4.76,3.59,11.23,5.43,18.48l-3.44,5.77,4-3.53c.83,3.35,1.65,6.84,2.43,10.38l-5.51,9.85,6.64-4.64c1.1,5.2,2.12,10.42,3,15.42l-5.39,5.35,6-1.92c.11.61.21,1.21.31,1.8l-5.52,7.44,6.17-3.38C53.52,243.53,54.3,252,53.59,255.16Z" style="fill:#6EA26E"></path><path d="M36.39,231.28l7.83-14.74-8,9.77L35,180.58l-1,27.82-5.58-8.05,5.4,13.08-1,28.18-10.63-9.79,10.48,13.89L31.9,276c0,1.64,5.58,1.64,5.58,0l-1.09-44.69Z" style="fill:#6EA26E"></path><path d="M36.39,231.28l7.83-14.74-8,9.77L35,180.58l-1,27.82-5.58-8.05,5.4,13.08-1,28.18-10.63-9.79,10.48,13.89L31.9,276c0,1.64,5.58,1.64,5.58,0l-1.09-44.69Z" style="fill:#fff;opacity:0.7000000000000001"></path></g><g id="freepik--pine--inject-305"><path d="M95.06,222.3c-4.63,3.41-25.81,2.93-30.59,0a30.63,30.63,0,0,1,.08-8l5.5,2-5.11-5.5c.58-4.81,1.5-10.62,2.64-16.76l3.1,1.3L68,191.89c.11-.6.24-1.2.35-1.81l7.4,3.76-6.4-8.71c1-4.78,2.07-9.57,3.17-14.06l4.8,4-4.16-6.57c.31-1.21.62-2.38.92-3.51l4.25,2.3-3.48-5.1c.92-3.27,1.83-6.18,2.7-8.57a2.38,2.38,0,0,1,4.47,0c1.3,3.58,2.69,8.33,4.08,13.67-1.21,2.81-2.17,5-2.17,5L87,170.89c.34,1.36.67,2.75,1,4.16-1.45,4.46-3.27,10-3.27,10.15l4-7.09C92.85,196.64,96.17,217.42,95.06,222.3Z" style="fill:#6EA26E"></path><path d="M80.89,202.61l6.45-12.15-6.56,8-1-37.7L79,183.75l-4.6-6.64,4.45,10.78L78,211.13l-8.75-8.08,8.64,11.46-.74,21.32c0,1.36,4.6,1.36,4.6,0l-.89-33.22Z" style="fill:#6EA26E"></path><path d="M80.89,202.61l6.45-12.15-6.56,8-1-37.7L79,183.75l-4.6-6.64,4.45,10.78L78,211.13l-8.75-8.08,8.64,11.46-.74,21.32c0,1.36,4.6,1.36,4.6,0l-.89-33.22Z" style="fill:#fff;opacity:0.7000000000000001"></path></g><g id="freepik--pine--inject-305"><path d="M448.12,230c-5.36,4-29.95,3.42-35.49,0a27,27,0,0,1-.11-6.78l8.39,3.85-8-8c.48-4.47,1.27-9.88,2.27-15.75l3.06,1.64-2.8-3.22c.58-3.31,1.22-6.75,1.92-10.23l5,4-4.46-6.67c.14-.73.29-1.46.44-2.17l6.83,5.63-5.78-10.54c1.06-4.88,2.19-9.67,3.32-14.14l4.45,3.39c-.1-.19-1.88-3.22-3.67-6.38,1.47-5.58,2.95-10.53,4.33-14.35a2.77,2.77,0,0,1,5.2,0c1.31,3.63,2.71,8.28,4.11,13.54h0l-2.72,6,3.25-4c.87,3.37,1.74,6.94,2.58,10.6l-5.83,12.86,6.89-8.16c.11.5.23,1,.33,1.52l-2.81,6.64,3.27-4.52c1.18,5.6,2.28,11.24,3.21,16.56l-5.19,7.34,5.86-3.43c.2,1.22.39,2.43.58,3.61l-4.11,4.54,4.59-1.32C448.21,220.73,448.73,227.41,448.12,230Z" style="fill:#6EA26E"></path><path d="M448.12,230c-5.36,4-29.95,3.42-35.49,0a27,27,0,0,1-.11-6.78l8.39,3.85-8-8c.48-4.47,1.27-9.88,2.27-15.75l3.06,1.64-2.8-3.22c.58-3.31,1.22-6.75,1.92-10.23l5,4-4.46-6.67c.14-.73.29-1.46.44-2.17l6.83,5.63-5.78-10.54c1.06-4.88,2.19-9.67,3.32-14.14l4.45,3.39c-.1-.19-1.88-3.22-3.67-6.38,1.47-5.58,2.95-10.53,4.33-14.35a2.77,2.77,0,0,1,5.2,0c1.31,3.63,2.71,8.28,4.11,13.54h0l-2.72,6,3.25-4c.87,3.37,1.74,6.94,2.58,10.6l-5.83,12.86,6.89-8.16c.11.5.23,1,.33,1.52l-2.81,6.64,3.27-4.52c1.18,5.6,2.28,11.24,3.21,16.56l-5.19,7.34,5.86-3.43c.2,1.22.39,2.43.58,3.61l-4.11,4.54,4.59-1.32C448.21,220.73,448.73,227.41,448.12,230Z" style="opacity:0.15"></path><path d="M431.68,207.21l7.48-14.09-7.61,9.33-1.18-43.73-.91,26.61-5.33-7.7,5.16,12.51-.92,27-10.16-9.36,10,13.28-.85,24.74c0,1.58,5.33,1.58,5.33,0l-1-38.54Z" style="fill:#6EA26E"></path><path d="M431.68,207.21l7.48-14.09-7.61,9.33-1.18-43.73-.91,26.61-5.33-7.7,5.16,12.51-.92,27-10.16-9.36,10,13.28-.85,24.74c0,1.58,5.33,1.58,5.33,0l-1-38.54Z" style="fill:#fff;opacity:0.6000000000000001"></path></g><g id="freepik--pine--inject-305"><path d="M198.25,185.75c-5.58,4.12-31.18,3.55-36.94,0-.89-3.91.58-16.29,3.14-30.71l5.79,4.25L165,152c.36-2,.75-4,1.15-6.06l8.19,4.51-7-10.51c1-4.92,2.13-9.82,3.26-14.49l4,2.71-3.16-5.93c.24-1,.47-1.88.71-2.8l3.66,2.32-2.89-5.23c1.42-5.31,2.85-10,4.18-13.71a2.88,2.88,0,0,1,5.41,0c1.15,3.19,2.37,7.15,3.6,11.6h0l-2.33,6,2.88-4c.62,2.32,1.25,4.76,1.86,7.27l-4.74,8.83,5.65-5.08c.1.41.2.83.29,1.25h0l-1.83,5.06,2.29-3.12c1.35,5.94,2.65,12.11,3.79,18.1l-6.33,10.53,7-6.76c.41,2.24.8,4.45,1.15,6.59l-5.53,9.55,6.24-5.15C198.17,174.14,199,182.63,198.25,185.75Z" style="fill:#6EA26E"></path><path d="M198.25,185.75c-5.58,4.12-31.18,3.55-36.94,0-.89-3.91.58-16.29,3.14-30.71l5.79,4.25L165,152c.36-2,.75-4,1.15-6.06l8.19,4.51-7-10.51c1-4.92,2.13-9.82,3.26-14.49l4,2.71-3.16-5.93c.24-1,.47-1.88.71-2.8l3.66,2.32-2.89-5.23c1.42-5.31,2.85-10,4.18-13.71a2.88,2.88,0,0,1,5.41,0c1.15,3.19,2.37,7.15,3.6,11.6h0l-2.33,6,2.88-4c.62,2.32,1.25,4.76,1.86,7.27l-4.74,8.83,5.65-5.08c.1.41.2.83.29,1.25h0l-1.83,5.06,2.29-3.12c1.35,5.94,2.65,12.11,3.79,18.1l-6.33,10.53,7-6.76c.41,2.24.8,4.45,1.15,6.59l-5.53,9.55,6.24-5.15C198.17,174.14,199,182.63,198.25,185.75Z" style="opacity:0.15"></path><path d="M181.13,162l7.8-14.67L181,157l-1.22-45.53-.95,27.7-5.55-8,5.37,13-1,28-10.58-9.74,10.44,13.83-.89,25.75c0,1.64,5.55,1.64,5.55,0L181.13,162Z" style="fill:#6EA26E"></path><path d="M181.13,162l7.8-14.67L181,157l-1.22-45.53-.95,27.7-5.55-8,5.37,13-1,28-10.58-9.74,10.44,13.83-.89,25.75c0,1.64,5.55,1.64,5.55,0L181.13,162Z" style="fill:#fff;opacity:0.6000000000000001"></path></g><g id="freepik--pine--inject-305"><path d="M168.9,193.66c-5.79,3.57-31.5,4.14-37.11,0-.41-1.78-.33-5.31.13-10l5.28,2.81L132.32,180c.5-4.15,1.21-9,2.09-14.07l7.2,4.42-6.2-10.14c.13-.69.26-1.39.4-2.1l4.37,2.86-3.94-5.15c1-5.17,2.1-10.47,3.26-15.62l6.75,6.7-5.37-12.65c.43-1.8.86-3.57,1.3-5.29l5.17,3.87-3.73-9.4c1.37-5,2.73-9.52,4-13.06a2.89,2.89,0,0,1,5.43,0c1.17,3.23,2.4,7.24,3.66,11.75h0L154,130.19l3.66-4.68c1.36,5.19,2.73,10.88,4,16.71l-5.24,11.42,6.36-6.22c.35,1.65.69,3.31,1,5l-2.07,3.89,2.53-1.6c1.2,6.17,2.26,12.19,3.09,17.62l-5.94,7.8,6.54-3.62C169.05,184.69,169.5,191.05,168.9,193.66Z" style="fill:#6EA26E"></path><path d="M160,161.86l-7.79,11-.81-23.8,4.2-14.22-4.36,9.71-.88-25.5-1,36.8L145,150.64l4.25,10.06-.56,20.88-9-9,8.88,15.11-.6,22.38c0,1.65,5.57,1.65,5.57,0l-1-30.09Z" style="fill:#6EA26E"></path><g style="opacity:0.7000000000000001"><path d="M160,161.86l-7.79,11-.81-23.8,4.2-14.22-4.36,9.71-.88-25.5-1,36.8L145,150.64l4.25,10.06-.56,20.88-9-9,8.88,15.11-.6,22.38c0,1.65,5.57,1.65,5.57,0l-1-30.09Z" style="fill:#fff"></path></g></g><g id="freepik--pine--inject-305"><path d="M474.37,243.85c-6.06,3.74-33,4.33-38.91,0-.53-2.36-.26-7.64.59-14.57l7.62,3.26-7-7.82c.67-4.74,3.35-19.81,3.6-21.11l2.86.08L441,199.61c.87-4.31,1.79-8.64,2.76-12.87l4,2.16-3.29-5.66c1-4.13,2.91-11.52,3.92-15.14l4.1,3.26-3.47-5.5c1-3.53,2-6.69,3-9.35a3,3,0,0,1,5.69,0c1.47,4.05,3,9.29,4.6,15.18h0l-3.18,7.23,4.23-3.21c1.11,4.35,2.19,9,3.24,13.66h0l-5.33,13.46,6.39-8.56q.57,2.7,1.12,5.39l-3.8,7.47,4.35-4.67c1.05,5.33,2,10.55,2.78,15.43h0l-8.7,13.68,9.42-9c.23,1.47.43,2.9.61,4.26l-6.57,8.07,7.09-3.79C474.68,237.14,474.87,241.7,474.37,243.85Z" style="fill:#6EA26E"></path><path d="M465,210.5l-8.17,11.56L456,197.11l4.41-14.92-4.57,10.19-.92-26.73-1,38.57-4.58-5.47,4.45,10.54-.59,21.89-9.48-9.43L453,237.59l-.63,26.72c0,1.72,5.84,1.72,5.84,0l-1.09-34.8Z" style="fill:#6EA26E"></path><g style="opacity:0.7000000000000001"><path d="M465,210.5l-8.17,11.56L456,197.11l4.41-14.92-4.57,10.19-.92-26.73-1,38.57-4.58-5.47,4.45,10.54-.59,21.89-9.48-9.43L453,237.59l-.63,26.72c0,1.72,5.84,1.72,5.84,0l-1.09-34.8Z" style="fill:#fff"></path></g></g><g id="freepik--pine--inject-305"><path d="M337.83,187.61c-5.72,3.52-31.1,4.08-36.64,0-.5-2.2-.26-7.1.52-13.54l7.21,4.25-6.53-9.41c.75-5.16,1.73-11,2.88-17l4.92,3.37-4.31-6.58c.14-.69.27-1.36.41-2.05l6,3.9-5.24-7.6c1.07-5.2,2.23-10.39,3.43-15.31l6.65,4.38-5.86-7.59c.33-1.33.67-2.63,1-3.91l4.86,3.67-4.06-6.64c1.28-4.69,2.55-8.85,3.75-12.17a2.85,2.85,0,0,1,5.37,0c1,2.79,2.07,6.17,3.15,10h0L323,121.55l2.93-4,0-.06c1.59,5.8,3.2,12.38,4.7,19.16l-3.84,13.67,5.13-7.67c1,4.66,1.87,9.34,2.68,13.83h0l-3,10.55,4.33-2.62C337.7,175.49,338.56,184.41,337.83,187.61Z" style="fill:#6EA26E"></path><path d="M337.83,187.61c-5.72,3.52-31.1,4.08-36.64,0-.5-2.2-.26-7.1.52-13.54l7.21,4.25-6.53-9.41c.75-5.16,1.73-11,2.88-17l4.92,3.37-4.31-6.58c.14-.69.27-1.36.41-2.05l6,3.9-5.24-7.6c1.07-5.2,2.23-10.39,3.43-15.31l6.65,4.38-5.86-7.59c.33-1.33.67-2.63,1-3.91l4.86,3.67-4.06-6.64c1.28-4.69,2.55-8.85,3.75-12.17a2.85,2.85,0,0,1,5.37,0c1,2.79,2.07,6.17,3.15,10h0L323,121.55l2.93-4,0-.06c1.59,5.8,3.2,12.38,4.7,19.16l-3.84,13.67,5.13-7.67c1,4.66,1.87,9.34,2.68,13.83h0l-3,10.55,4.33-2.62C337.7,175.49,338.56,184.41,337.83,187.61Z" style="opacity:0.15"></path><path d="M329,156.21l-7.7,10.89-.8-23.5,4.15-14-4.31,9.59L319.51,114l-1,36.34-4.32-5.16,4.19,9.92-.55,20.62-8.93-8.88,8.77,14.92-.59,22.11c0,1.62,5.5,1.62,5.5,0l-1-29.72Z" style="fill:#6EA26E"></path><g style="opacity:0.6000000000000001"><path d="M329,156.21l-7.7,10.89-.8-23.5,4.15-14-4.31,9.59L319.51,114l-1,36.34-4.32-5.16,4.19,9.92-.55,20.62-8.93-8.88,8.77,14.92-.59,22.11c0,1.62,5.5,1.62,5.5,0l-1-29.72Z" style="fill:#fff"></path></g></g><g id="freepik--pine--inject-305"><path d="M118.65,205.16c-5.23,3.21-28.4,3.72-33.46,0a17.81,17.81,0,0,1-.21-4.22l5.4,2.41-5-7.71c.32-3.19.82-6.94,1.46-11l2.84,1.23-2.2-5.17c.11-.65.23-1.31.35-2l8.51,4.94-7.42-11c1.14-6.06,2.47-12.36,3.85-18.36L97.69,158l-3.93-8c.18-.77.37-1.52.55-2.26l4.88,3.87-3.73-8.3c1.36-5.16,2.73-9.75,4-13.3a2.6,2.6,0,0,1,4.9,0c1.23,3.4,2.54,7.76,3.85,12.67l-1.47,8.93,2.82-3.73c1.23,5,2.46,10.34,3.57,15.71l-3.68,11.53,4.75-6.3c1.08,5.43,2,10.76,2.79,15.62l-2.13,5.23,2.67-1.62c.19,1.29.36,2.54.51,3.73l-4.66,7.75,5.07-4.1C118.94,200,119,203.47,118.65,205.16Z" style="fill:#6EA26E"></path><path d="M118.65,205.16c-5.23,3.21-28.4,3.72-33.46,0a17.81,17.81,0,0,1-.21-4.22l5.4,2.41-5-7.71c.32-3.19.82-6.94,1.46-11l2.84,1.23-2.2-5.17c.11-.65.23-1.31.35-2l8.51,4.94-7.42-11c1.14-6.06,2.47-12.36,3.85-18.36L97.69,158l-3.93-8c.18-.77.37-1.52.55-2.26l4.88,3.87-3.73-8.3c1.36-5.16,2.73-9.75,4-13.3a2.6,2.6,0,0,1,4.9,0c1.23,3.4,2.54,7.76,3.85,12.67l-1.47,8.93,2.82-3.73c1.23,5,2.46,10.34,3.57,15.71l-3.68,11.53,4.75-6.3c1.08,5.43,2,10.76,2.79,15.62l-2.13,5.23,2.67-1.62c.19,1.29.36,2.54.51,3.73l-4.66,7.75,5.07-4.1C118.94,200,119,203.47,118.65,205.16Z" style="opacity:0.15"></path><path d="M100.69,183.63l-7-13.28,7.17,8.8,1.11-41.22.86,25.08,5-7.26-4.87,11.79.87,25.41,9.58-8.83-9.45,12.52.8,27.68c0,1.49-5,1.49-5,0l1-40.69Z" style="fill:#6EA26E"></path><path d="M100.69,183.63l-7-13.28,7.17,8.8,1.11-41.22.86,25.08,5-7.26-4.87,11.79.87,25.41,9.58-8.83-9.45,12.52.8,27.68c0,1.49-5,1.49-5,0l1-40.69Z" style="fill:#fff;opacity:0.6000000000000001"></path></g><g id="freepik--pine--inject-305"><path d="M361.3,190.93c-5.29,3.26-28.77,3.78-33.9,0-.39-1.72-.29-5.22.19-9.86l5.25,1L328,177.84q.35-2.72.79-5.75l7.21,2-6.75-5c1-6.19,2.27-13.09,3.72-20l7.53,6-6.84-9.31c.6-2.75,1.22-5.49,1.85-8.15l6.12,3.83-5.4-6.88c.59-2.38,1.18-4.69,1.77-6.9l3.63,4-2.41-8.41c.92-3.2,1.83-6.07,2.69-8.46a2.64,2.64,0,0,1,5,0c1.44,4,3,9.29,4.54,15.25h0l-2.75,5.9,3.61-2.5c1.15,4.65,2.28,9.58,3.33,14.55h0L350,159.5l6.43-7c.48,2.39.94,4.77,1.37,7.1l-3.58,5.37,4.13-2.41c.89,5,1.64,9.76,2.18,13.92h0l-5.74,9.11,6.39-3.45C361.6,186.23,361.66,189.34,361.3,190.93Z" style="fill:#6EA26E"></path><path d="M343.1,169.12,336,155.66l7.28,8.92,1.12-41.77.87,25.42,5.09-7.36-4.93,11.95.88,25.74,9.71-8.95-9.58,12.69.81,23.63c0,1.5-5.08,1.5-5.08,0l1-36.81Z" style="fill:#6EA26E"></path><path d="M343.1,169.12,336,155.66l7.28,8.92,1.12-41.77.87,25.42,5.09-7.36-4.93,11.95.88,25.74,9.71-8.95-9.58,12.69.81,23.63c0,1.5-5.08,1.5-5.08,0l1-36.81Z" style="fill:#fff;opacity:0.7000000000000001"></path></g></g></g><g id="freepik--Clouds--inject-305"><path id="freepik--Cloud--inject-305" d="M427.54,57.14c0-3.14-3.44-5.32-7.33-5.68-4.59-.43-7.84,1.61-7.95,5.22-3-1.23-6.16-.44-5.92,2.85-.78-.9-3.7-.87-4.74-.62A4.09,4.09,0,0,0,399,61.14a3,3,0,0,0-.27,1.68c-1.75-.57-5.73-.92-6.72.68-1.77,2.86,5.3,3,6.72,2.08.31,2.22,7.9,2.59,9.74.54,1.44,1.45,3.5,1.77,5.73,1.9,3.76.22,6.06-1,9-2.55,3.19,2.7,8.71,2.75,11.58-.34.73.69,2.75.91,4.37.52,1.06-.25,1.3-.7,1.3-.7a9.7,9.7,0,0,0,1.95.58c2.09.44,6,0,4.34-1.9a5,5,0,0,0-3.45-.85c-.9-1.78-4.55-3.48-6.65-2-.08-2.16-2.06-3.86-4.84-4.29C430.84,56.38,428.6,56.25,427.54,57.14Z" style="fill:#f0f0f0"></path><path id="freepik--cloud--inject-305" d="M393.21,39.82a8.44,8.44,0,0,0-2.88-.53c-.93-.07-1.22-.26-1.4-.46a6.89,6.89,0,0,0-8.25-2.44,5.26,5.26,0,0,0-6.21-3.51c.1-2.9-3.6-6-6.93-6.72s-6-.39-7.78,1.7c-1.95-3.8-9.58-4.87-13.71-2.86-2.38,1.16-4.4,2.35-5.38,4.52a9.08,9.08,0,0,0-.89,4.33c-1.61-1.42-4.84-1.8-7-1-2.32.9-2.49,2.64-2.61,4.42a8.24,8.24,0,0,0-4.22-.08c-1.46.44-2.3,1.58-2.1,2.51-1.15-.06-3.91.87-3.59,2.09s3.5,1.23,4.67,1.19a22.6,22.6,0,0,0,3.29-.52,5.09,5.09,0,0,0,1.71.33c2,0,2.85-.88,3.17-1.62,1,2.06,4.45,3.62,6.91,4.25,4.63,1.19,11.18.47,14-3a5.22,5.22,0,0,0,1.38,1.68,8,8,0,0,0,4.28,1.73c1.9.18,7,.42,8.44-2.6,1,2,5.56,2.93,9,2.43A14.34,14.34,0,0,0,381,44.54a22.5,22.5,0,0,0,2.22-1.34,1.89,1.89,0,0,1,1.9-.13,11.28,11.28,0,0,0,7.54,0C394.62,42.26,395,40.64,393.21,39.82Z" style="fill:#f0f0f0"></path></g><g id="freepik--Sun--inject-305"><circle id="freepik--sun--inject-305" cx="63.14" cy="48.02" r="20.31" transform="translate(1.9 98.43) rotate(-76.72)" style="fill:#f0997a"></circle></g></svg>
